<?xml version="1.0" encoding="utf-8" ?>
<svg xmlns="http://www.w3.org/2000/svg" xmlns:xlink="http://www.w3.org/1999/xlink" width="1024" height="1024">
	<path fill="#5D003B" d="M544.674 39.6969C547.406 39.445 550.23 39.4791 552.97 39.5755C559.393 39.8014 566.363 41.3317 570.817 46.3095C574.876 50.8457 575.844 57.1333 575.344 63.013C573.411 85.7458 553.9 112.78 536.877 127.307C555.104 137.105 570.824 161.226 576.149 180.791C577.398 185.38 577.901 190.087 578.541 194.788C579.861 204.498 583.272 210.822 588.333 219.067C617.847 222.296 649.351 226.287 674.707 243.116C690.831 253.819 704.649 270.044 708.424 289.437C710.19 298.508 709.662 310.673 704.095 318.453C702.126 321.204 699.742 322.514 696.44 323.063C687.214 324.598 679.273 318.628 672.119 313.749C674.375 332.612 673.077 351.516 666.08 369.309C658.541 388.477 644.19 408.872 624.66 417.24C620.702 418.936 616.218 420.717 611.994 418.922C610.067 418.104 608.101 416.55 607.394 414.534C606.936 413.226 607.324 413.848 606.413 412.843C596.024 427.899 585.742 440.548 570.895 451.523C582.336 457.582 593.508 463.97 604.028 471.538C620.604 483.461 635.572 496.849 648.76 512.453C701.902 575.334 735.375 675.932 747.071 756.719Q751.705 788.751 752.967 821.092C753.414 831.631 752.601 842.486 753.725 852.954C754.214 857.508 756.669 861.699 757.309 866.255C758.028 871.368 756.09 874.459 753.199 878.424C754.528 891.497 756.881 909.784 759.741 922.526C785.049 924.13 810.521 931.468 834.494 939.428C849.926 944.552 865.417 951.397 878.527 961.1C880.454 962.526 883.942 964.851 884.731 967.177C885.125 968.338 885.076 969.083 884.345 970.103C882.255 973.018 876.792 974.306 873.467 975.187C828.949 986.982 773.175 986.449 727.795 979.841C719.71 978.663 708.069 977.763 701.135 973.451C699.846 972.65 698.54 971.532 698.32 969.938C697.454 963.642 708.495 949.502 712.543 944.495C706.107 928.596 699.993 912.567 693.475 896.703C689.806 895.49 686.201 894.184 683.477 891.298C679.797 887.401 679.751 882.516 680.022 877.507C664.281 850.849 653.828 820.775 642.724 791.97C626.744 815.7 610.462 839.567 593.211 862.389C588.28 868.913 582.521 874.776 577.629 881.32C571.46 889.571 568.4 899.852 559.344 905.668C549.465 906.369 537.819 906.096 528.307 903.379Q518.298 918.758 507.873 933.858Q514.985 934.284 522.055 935.16C546.852 938.024 570.732 944.857 591.672 958.823C596.172 961.824 601.278 965.188 604.717 969.427C606 971.01 606.699 972.285 606.473 974.361C605.601 976.062 604.318 976.912 602.654 977.77C593.225 982.633 580.218 983.872 569.727 985.162C539.049 988.934 508.733 989.787 477.985 986.32C467.531 985.142 456.686 983.643 446.716 980.208C442.28 978.679 436.068 976.189 434.1 971.605C430.332 962.826 440.752 960.167 443.604 954.076C446.796 947.261 450.419 940.502 453.359 933.595C456.645 925.873 459.322 917.891 462.586 910.154C467.596 898.281 472.914 886.549 477.848 874.64C476.262 872.81 474.592 870.97 473.314 868.908C468.751 861.551 474.984 856.789 478.796 850.922C483.295 843.997 485.493 834.264 488.306 826.502Q494.415 809.828 500.885 793.291C503.849 785.661 507.869 778.509 510.839 770.903C511.928 768.113 513.291 764.663 513.521 761.676C514.095 754.227 512.404 746.229 512.131 738.728Q511.836 731.66 512.013 724.588Q512.19 717.516 512.838 710.472Q513.485 703.428 514.601 696.442Q515.716 689.457 517.294 682.561C492.411 644.269 473.122 588.171 467.41 543.057C465.793 530.281 465.577 517.434 465.456 504.573C437.669 517.692 410.305 519.684 380.348 513.603C382.557 515.66 384.797 517.933 386.506 520.43C388.426 523.236 389.923 526.68 389.121 530.135C388.298 533.681 385.5 536.122 382.45 537.846C376.024 541.478 368.093 543.213 360.874 544.356C336.436 548.224 313.476 545.092 289.973 538.275C290.251 539.703 290.575 541.417 290.378 542.865C290.079 545.069 288.603 547.075 286.822 548.336C281.497 552.107 270.642 550.94 264.507 550.02C244.286 546.985 227.53 536.336 215.343 520.019C208.304 520.069 201.386 519.433 194.778 516.852C183.932 512.616 174.627 503.806 170.024 493.087C157.986 465.05 182.79 439.717 196.838 418.031C203.041 408.456 207.806 398.506 212.086 387.954C208.476 385.82 204.99 383.626 201.685 381.037C171.479 357.374 148.468 311.685 144.061 273.763C138.623 226.971 156.763 184.636 185.339 148.695C182.276 147.207 179.105 145.677 176.674 143.239C173.936 140.493 172.315 136.967 172.475 133.049C172.712 127.255 176.273 121.999 180.422 118.172C185.29 113.684 191.781 110.446 198.535 110.873C204.95 111.279 208.709 114.604 212.736 119.156C249.749 87.4934 291.026 60.1438 339.309 49.9244C378.914 41.5418 419.153 44.8947 453.847 67.4386C481.804 53.5806 513.571 42.9368 544.674 39.6969Z"/>
	<path fill="#FA937D" d="M792.563 934.991C793.854 935.413 794.547 935.368 795.344 936.531C794.477 939.146 791.147 941.361 789.093 943.156C788.11 944.055 788.668 943.728 787.427 944.15C786.993 942.477 788.123 939.894 788.598 938.235C789.851 937.083 791.232 936.053 792.563 934.991Z"/>
	<path fill="#FE8529" d="M507.168 940.69L507.741 940.725L507.453 941.38C501.845 945.182 494.859 947.157 488.383 948.919L487.981 948.729L487.749 947.944C492.275 942.793 500.826 941.772 507.168 940.69Z"/>
	<path fill="#FE8529" d="M655.082 536.267C656.63 536.647 657.966 537.095 659.284 538.023C660.683 539.007 661.332 539.994 661.606 541.709C661.234 543.12 660.974 543.732 659.946 544.839C658.098 544.6 655.325 544.324 653.875 543.042C652.691 541.995 652.684 541.593 652.474 540.109C653.01 538.362 653.796 537.54 655.082 536.267Z"/>
	<path fill="#FA937D" d="M533.749 532.38C539.134 536.034 542.908 542.883 546.484 548.199L544.101 552.28L543.327 553.425L542.553 553.232C538.791 548.407 536.01 538.264 533.749 532.38Z"/>
	<path fill="#FE8529" d="M782.526 932.683C783.385 932.807 783.647 932.817 784.367 933.348C784.26 933.543 784.162 933.743 784.047 933.934C782.16 937.087 769.828 944.208 766.119 945.021C765.338 944.784 764.733 944.488 764.012 944.117L763.668 943.014C763.928 942.379 763.925 942.291 764.41 941.658C767.948 937.038 776.972 933.363 782.526 932.683Z"/>
	<path fill="#FA937D" d="M343.939 498.877C346.397 499.229 349.075 500.875 351.38 501.862C362.77 506.74 370.235 510.393 379.285 519.129C369.926 517.362 351.997 504.913 343.939 498.877Z"/>
	<path fill="#FEEAAA" d="M559.901 460.862C560.432 460.972 560.459 460.953 561.038 461.218C564.939 462.998 570.058 468.838 573.433 471.739C585.336 481.966 598.387 491.541 608.771 503.371C611.563 506.553 613.811 509.479 614.972 513.628C610.688 511.583 594.554 493.75 589.625 489.058C579.698 479.609 568.888 471.282 559.901 460.862Z"/>
	<path fill="#FE8529" d="M616.343 519.625C618.788 522.457 621.092 525.401 623.09 528.57C614.358 531.533 591.901 539.625 583.427 537.678C582.878 537.249 582.291 536.85 581.815 536.339C594.254 533.941 606.482 527.399 616.343 519.625Z"/>
	<path fill="#FEEAAA" d="M548.524 551.366Q552.73 557.372 556.52 563.649C563.472 575.235 564.338 581.277 564.952 594.672C565.081 597.482 565.673 601.124 564.988 603.847L564.344 603.322C557.048 589.168 551.051 574.536 545.049 559.805C546.054 556.889 547.185 554.145 548.524 551.366Z"/>
	<path fill="#FEEAAA" d="M709.512 642.427C712.277 644.782 713.13 650.971 713.898 654.377C704.779 662.958 695.259 669.59 684.139 675.326C683.151 675.668 683.686 675.641 682.535 675.233C680.699 671.622 680.438 666.592 679.851 662.623C691.066 658.057 701.023 650.978 709.512 642.427Z"/>
	<path fill="#FA937D" d="M537.519 135.82C537.626 135.878 537.74 135.926 537.841 135.995C541.12 138.225 544.288 141.963 546.906 144.91C558.814 158.315 568.214 173.548 572.126 191.19L569.076 186.414C557.906 170.869 545.446 158.007 530.942 145.561C534.427 142.495 535.974 140.111 537.519 135.82Z"/>
	<path fill="#FE8529" d="M195.311 115.974C195.536 115.971 195.761 115.959 195.986 115.965C201.725 116.118 205.14 119.45 208.961 123.273C202.607 129.47 196.165 135.679 190.375 142.412C190.134 142.632 189.826 142.937 189.535 143.082C188.76 143.465 188.309 143.476 187.495 143.254C184.54 142.451 181.676 140.098 180.213 137.428C178.902 135.036 178.569 132.336 179.48 129.743C181.764 123.245 189.515 118.944 195.311 115.974Z"/>
	<path fill="#FEEAAA" d="M529.25 481.215C532.143 482.107 535.006 483.092 537.973 483.715C545.168 485.227 554.414 485.743 560.727 481.332C564.649 478.591 566.021 475.317 566.72 470.745C571.918 475.277 576.995 480.065 581.897 484.916C574.52 492.22 558.479 496.087 548.352 496.09C547.772 496.09 547.192 496.068 546.613 496.047C540.303 491.886 534.799 486.315 529.25 481.215Z"/>
	<path fill="#FEEAAA" d="M471.97 507.841C471.885 502.611 470.87 491.71 474.582 487.765C475.308 486.992 476.207 486.646 477.286 486.657C486.965 486.755 508.092 505.107 514.872 512.587C500.699 515.246 485.528 511.814 471.97 507.841Z"/>
	<path fill="#FEEAAA" d="M601.525 503.862C606.6 508.929 611.939 513.949 616.343 519.625C606.482 527.399 594.254 533.941 581.815 536.339C578.508 531.747 575 527.272 571.595 522.75C582.584 518.092 594.554 514.173 601.525 503.862Z"/>
	<path fill="#FDFDF9" d="M538.21 946.078C553.048 947.934 565.68 953.26 578.693 960.405C571.31 962.92 563.703 964.277 556.003 965.357C543.084 966.752 529.944 967.618 516.948 967.359Q517.508 965.757 518.115 964.172C521.805 954.61 529.32 950.001 538.21 946.078Z"/>
	<path fill="#FEEAAA" d="M749.367 859.941C749.567 860.143 749.788 860.327 749.967 860.548C751.297 862.187 751.793 866.488 751.411 868.523C750.803 871.765 748.538 874.139 745.915 875.966C732.171 885.542 705.293 892.073 688.571 889.133C686.639 886.936 684.477 882.919 684.608 879.951C687.628 876.19 698.526 877.885 703.143 877.421C719.671 875.758 735.14 868.001 749.367 859.941Z"/>
	<path fill="#FEEAAA" d="M676.111 664.011C678.01 665.571 678.548 674.76 678.953 677.521C658.711 684.907 637.496 689.674 615.875 689.496L614.564 689.302C613.042 686.46 613.542 681.03 612.924 677.633L612.805 677.008C636.69 675.252 653.339 673.374 676.111 664.011Z"/>
	<path fill="#FE8529" d="M595.814 695.807C588.744 715.042 578.481 731.366 559.282 740.234L558.448 740.617C553.67 731.164 548.316 722.339 542.637 713.397C557.69 714.885 570.442 711.845 583.371 703.916C587.445 701.417 591.245 698.493 595.363 696.069L595.814 695.807Z"/>
	<path fill="#FDFDF9" d="M808.909 939.089C827.055 942.942 843.01 950.834 860.418 956.759C845.234 960.17 829.981 961.866 814.459 962.844C806.526 963.345 798.32 963.122 790.467 964.295C788.713 964.568 787.286 964.747 785.524 964.474C786.662 964.277 787.546 964.258 788.415 963.433C789.412 960.899 789.883 957.733 789.258 955.046L788.498 954.972C792.034 952.756 793.057 950.035 797.462 948.597C801.352 945.448 804.771 941.956 808.909 939.089Z"/>
	<path fill="#67012E" d="M788.498 954.972C792.034 952.756 793.057 950.035 797.462 948.597C795.168 952.016 789.844 959.315 790.289 963.697C790.31 963.904 790.408 964.095 790.467 964.295C788.713 964.568 787.286 964.747 785.524 964.474C786.662 964.277 787.546 964.258 788.415 963.433C789.412 960.899 789.883 957.733 789.258 955.046L788.498 954.972Z"/>
	<path fill="#FE8529" d="M581.897 484.916Q591.999 494.091 601.525 503.862C594.554 514.173 582.584 518.092 571.595 522.75C568.927 520.261 566.487 516.743 564.037 513.971C558.474 507.678 552.806 501.723 546.613 496.047C547.192 496.068 547.772 496.09 548.352 496.09C558.479 496.087 574.52 492.22 581.897 484.916Z"/>
	<path fill="#FEEAAA" d="M632.477 530.956C638.002 533.967 642.279 545.555 644.558 550.981C629.423 557.02 614.633 560.004 598.648 562.702C597.279 560.738 596.351 557.952 595.143 555.804C592.411 550.949 589.239 546.557 585.867 542.143C601.623 540.948 618.029 537.429 632.477 530.956Z"/>
	<path fill="#FEEAAA" d="M655.48 778.315C656.679 778.988 657.212 780.181 657.821 781.387C663.718 793.06 668.292 805.964 673.425 818.037C681.338 836.649 690.031 855.352 696.507 874.504L688.375 874.499C687.553 874.453 686.466 874.488 685.687 874.242C684.005 873.713 683.46 872.349 682.683 870.897C677.086 860.432 672.949 848.666 668.486 837.65C661.552 820.534 654.562 803.517 647.171 786.586L655.48 778.315Z"/>
	<path fill="#FA937D" d="M613.94 381.476C614.42 382.078 614.336 381.778 614.302 382.624C614.147 386.462 611.25 391.289 609.524 394.76C598.823 416.272 584.518 433.556 566.631 449.465L555.995 444.125L548.552 440.379Q551 438.822 553.286 437.035C558.579 432.962 560.362 429.413 561.215 422.941C569.897 416.144 579.261 410.32 588.106 403.75C597.29 396.928 605.651 389.345 613.94 381.476Z"/>
	<path fill="#FEEAAA" d="M539.22 446.102C539.473 446.401 539.732 446.694 539.976 447C545.347 453.753 553.119 458.988 557.319 466.568C558.549 468.788 559.643 471.66 558.78 474.2C558.133 476.101 556.603 477.315 554.833 478.13C545.576 482.388 533.76 479.337 524.738 476.069C517.443 472.654 510.231 469.224 503.076 465.512C502.85 461.614 501.973 457.994 500.987 454.233C514.509 453.458 526.519 450.752 539.22 446.102Z"/>
	<path fill="#FEEAAA" d="M482.121 854.248C485.984 857.027 489.285 860.921 492.995 863.96C511.524 879.141 545.094 889.526 568.945 886.976Q565.012 892.197 560.88 897.263L557.269 901.072C551.954 900.967 546.568 900.358 541.336 899.436C517.489 895.23 491.021 884.456 476.657 864.039C478.364 860.684 480.086 857.417 482.121 854.248Z"/>
	<path fill="#FEEAAA" d="M594.419 668.859L599.626 676.452C598.909 683.291 597.832 689.223 595.814 695.807L595.363 696.069C591.245 698.493 587.445 701.417 583.371 703.916C570.442 711.845 557.69 714.885 542.637 713.397C538.934 708.38 535.864 702.915 532.675 697.565C538.104 696.749 543.584 696.529 548.994 695.475C567.293 691.91 580.821 680.844 594.419 668.859Z"/>
	<path fill="#FDFDF9" d="M444.644 960.245C456.857 966.659 469.681 968.204 483.187 969.852C518.125 974.115 551.985 973.915 585.98 964.129L596.013 971.554L591.231 973.208C551.377 983.03 476.584 986.712 439.464 968.579L444.644 960.245Z"/>
	<path fill="#FDFDF9" d="M863.478 960.66C863.639 960.631 863.799 960.592 863.961 960.573C869.337 959.937 873.438 963.787 877.254 966.965C866.615 970.832 855.065 971.957 843.891 973.309Q836.05 974.281 828.18 974.987Q820.311 975.693 812.422 976.133Q804.533 976.572 796.634 976.744Q788.734 976.916 780.834 976.82Q772.933 976.725 765.04 976.362Q757.148 975.999 749.272 975.368Q741.396 974.738 733.545 973.842Q725.695 972.946 717.88 971.784C713.22 971.194 708.619 970.237 704.029 969.255C705.371 966.747 706.797 964.276 708.184 961.792C755.413 973.64 816.044 969.327 863.478 960.66Z"/>
	<path fill="#FEEAAA" d="M543.803 443.414C544.095 443.453 544.389 443.477 544.678 443.53C551.028 444.7 558.405 449.939 564.168 452.97C600.551 472.112 633.908 497.534 656.736 532.129C653.939 533.296 651.415 534.234 649.941 537.068C648.996 538.884 648.733 540.997 649.395 542.95C650.075 544.954 651.471 546.418 653.352 547.352C656.326 548.829 659.165 548.322 662.211 547.402C663.011 546.838 663.538 546.586 664.498 546.391L664.956 547.137C664.726 547.765 664.723 547.875 664.291 548.498C663.118 550.192 660.348 551.547 658.384 551.945C652.575 553.122 648.953 548.691 646.255 544.243C640.157 534.191 635.852 523.369 628.319 514.158C623.506 508.273 617.435 503.157 611.72 498.163C599.263 487.274 586.24 477.149 573.363 466.772C563.606 458.91 554.437 450.102 543.803 443.414Z"/>
	<path fill="#FE8529" d="M495.788 935.657L501.864 935.115C503.389 935.806 504.819 936.665 506.269 937.498C503.264 938.153 500.259 938.811 497.334 939.771C492.794 941.261 485.477 944.022 483.217 948.459C483.191 949.85 483.143 950.225 484.046 951.375C488.988 957.665 511.296 946.452 518.088 944.889C522.212 943.94 525.84 944.139 529.999 944.532C520.198 952.018 517.478 954.86 513.462 966.891L513.031 967.204C509.447 967.9 504.535 967.006 500.861 966.749C483.551 965.536 466.602 963.82 449.769 959.456Q453.198 948.62 457.386 938.055C469.35 942.232 483.648 937.774 495.788 935.657Z"/>
	<path fill="#FE8529" d="M471.97 507.841C485.528 511.814 500.699 515.246 514.872 512.587C521.55 519.474 524.815 525.272 527.919 534.325C515.743 541.402 503.09 546.348 488.776 544.97C483.899 544.501 479.018 543.28 474.165 542.918C471.711 531.348 471.987 519.603 471.97 507.841Z"/>
	<path fill="#FE8529" d="M759.398 928.132Q767.525 929.385 775.706 930.206C770.987 932.719 761.005 937.603 759.391 943.189C759.049 944.371 759.02 945.476 759.776 946.51C760.918 948.07 763.094 949.145 764.973 949.43C772.208 950.528 779.61 942.298 785.114 938.502C783.969 942.432 782.458 947.097 784.102 951.088C785.019 953.316 786.339 954.088 788.498 954.972L789.258 955.046C789.883 957.733 789.412 960.899 788.415 963.433C787.546 964.258 786.662 964.277 785.524 964.474C768.353 964.601 751.655 963.996 734.542 962.491C725.983 961.739 717.492 961.078 709.087 959.19C712.652 953.314 716.36 947.524 718.946 941.134C733.981 940.715 748.36 939.48 759.398 928.132Z"/>
	<path fill="#FDFDF9" d="M482.988 881.987C495.7 891.155 507.792 897.689 522.931 901.971C516.659 910.836 510.368 921.181 502.078 928.301C498.79 928.18 495.681 928.242 492.408 928.593C487.101 929.559 480.454 930.271 475.512 932.378C472.476 933.673 467.626 937.021 464.457 936.766C462.916 936.642 461.669 935.754 460.798 934.571C461.519 927.126 478.702 891.127 482.988 881.987Z"/>
	<path fill="#FDFDF9" d="M745.773 883.503C745.833 883.514 745.899 883.507 745.953 883.535C747.004 884.079 747.242 884.88 747.442 885.997C748.374 891.214 748.182 896.958 748.762 902.277C749.697 910.859 751.425 919.425 753.259 927.855C742.805 935.079 731.039 937.155 718.548 937.507C717.347 935.258 716.293 932.937 715.213 930.628Q707.691 913.823 700.775 896.759C717.143 895.555 731.438 891.436 745.773 883.503Z"/>
	<path fill="#FA937D" d="M472.507 99.997C487.349 105.783 519.715 119.259 530.086 130.999C531.19 132.248 532.259 133.757 532.039 135.507C531.92 136.449 531.196 137.235 530.463 137.791C524.77 142.112 512.582 140.68 505.881 139.764C484.966 137.557 462.779 131.934 443.507 123.539C453.405 116.023 462.744 107.705 472.507 99.997Z"/>
	<path fill="#FA937D" d="M493.595 449.594C494.12 449.619 494.4 449.846 494.849 450.1C495.994 452.299 496.268 454.823 496.716 457.241C486.416 460.193 475.383 463.424 469.163 472.906C464.958 479.314 464.726 486.329 466.281 493.583C438.839 491.999 414.725 486.186 389.855 474.335C383.914 471.634 378.268 468.548 373.071 464.593C376.324 460.668 378.957 456.612 381.325 452.098C425.065 465.256 451.097 459.556 493.595 449.594Z"/>
	<path fill="#FA937D" d="M370.554 466.412C375.882 468.526 380.039 473.139 385.079 475.898Q390.979 479.148 397.119 481.918Q403.259 484.689 409.6 486.962Q415.941 489.235 422.443 490.997Q428.945 492.759 435.566 493.998C439.731 494.779 462.638 496.621 464.312 498.181C464.169 498.471 464.053 498.776 463.883 499.052C459.07 506.842 432.743 510.191 424.125 510.964C415.73 511.185 407.346 511.13 398.977 510.374C381.016 508.752 351.994 502.418 337.149 492.325C333.557 489.883 330.879 486.996 328.116 483.688C344.336 482.82 357.812 475.979 370.554 466.412Z"/>
	<path fill="#FE8529" d="M474.165 542.918C479.018 543.28 483.899 544.501 488.776 544.97C503.09 546.348 515.743 541.402 527.919 534.325Q531.671 544.582 535.576 554.781C538.692 562.684 542.606 570.652 545.209 578.692C525.827 593.743 510.582 598.159 486.111 595.895C484.007 584.947 480.429 574.22 478.159 563.264C476.381 556.605 475.308 549.708 474.165 542.918Z"/>
	<path fill="#FEEAAA" d="M474.165 542.918C479.018 543.28 483.899 544.501 488.776 544.97C503.09 546.348 515.743 541.402 527.919 534.325Q531.671 544.582 535.576 554.781C521.579 564.829 503.132 568.032 486.247 565.108C483.544 564.64 480.771 564.11 478.159 563.264C476.381 556.605 475.308 549.708 474.165 542.918Z"/>
	<path fill="#FEEAAA" d="M667.815 552.96L668.408 553.063C673.362 556.665 696.619 607.825 699.774 615.242Q704.999 627.387 709.22 639.917C699.955 647.66 690.344 654.034 679.59 659.504C678.453 657.715 671.035 629.234 669.583 624.691C662.21 601.629 653.118 576.618 641.43 555.377L646.303 553.878C647.948 554.639 649.62 555.456 651.354 555.993C657.564 557.915 662.432 555.953 667.815 552.96Z"/>
	<path fill="#FA937D" d="M305.703 272.352C317.176 282.623 330.348 316.477 333.128 330.879C337.013 351.001 335.397 367.081 323.829 384.19C319.402 383.57 314.913 383.471 310.451 383.27C309.074 382.269 309.462 379.545 309.461 377.945C309.459 374.399 309.742 370.671 309.45 367.151C307.33 341.585 294.599 316.255 280.414 295.325Q293.469 284.291 305.703 272.352Z"/>
	<path fill="#FEEAAA" d="M520.572 689.799C524.395 692.928 541.654 724.337 545.519 731.183C545.148 739.576 546.672 748.371 544.961 756.642C543.054 765.863 537.626 775.269 533.615 783.759C522.877 806.491 510.932 828.64 500.222 851.376Q497.95 856.113 495.826 860.917C492.321 858.08 488.936 855.087 485.52 852.143Q496.231 823.95 507.346 795.913C511.684 784.65 517.485 772.312 519.287 760.378C520.26 753.936 518.711 747.471 518.763 741.002Q519.184 715.383 520.572 689.799Z"/>
	<path fill="#FA937D" d="M562.468 52.2027C563.762 52.0508 565.194 52.1197 566.223 53.034C567.616 54.272 567.699 56.5 567.58 58.2194C566.073 79.8969 547.123 108.474 530.912 122.799C521.18 116.231 511.136 110.629 500.566 105.531C492.876 101.79 484.709 99.48 476.456 97.3799C499.114 79.93 533.625 55.8221 562.468 52.2027Z"/>
	<path fill="#FE8529" d="M506.081 648.015C532.591 648.197 547.278 643.829 568.507 627.991C571.79 633.504 575.285 638.973 578.366 644.596Q586.305 656.786 594.419 668.859C580.821 680.844 567.293 691.91 548.994 695.475C543.584 696.529 538.104 696.749 532.675 697.565C526.509 688.949 521.734 678.96 516.978 669.534C512.748 662.683 509.447 655.314 506.081 648.015Z"/>
	<path fill="#FEEAAA" d="M506.081 648.015C532.591 648.197 547.278 643.829 568.507 627.991C571.79 633.504 575.285 638.973 578.366 644.596Q577.676 645.321 576.968 646.029Q576.261 646.736 575.536 647.426Q574.81 648.116 574.068 648.787Q573.326 649.459 572.568 650.112Q571.809 650.765 571.034 651.398Q570.26 652.032 569.469 652.646Q568.679 653.26 567.874 653.855Q567.068 654.449 566.249 655.023Q565.429 655.597 564.595 656.15Q563.761 656.704 562.914 657.236Q562.066 657.769 561.206 658.28Q560.345 658.791 559.472 659.281Q558.599 659.77 557.715 660.238Q556.83 660.706 555.934 661.151Q555.037 661.597 554.13 662.02Q553.223 662.443 552.306 662.843Q551.389 663.243 550.462 663.62Q549.535 663.998 548.598 664.352Q547.662 664.706 546.718 665.036Q545.773 665.367 544.82 665.674Q543.868 665.981 542.908 666.264Q541.948 666.547 540.981 666.806Q540.015 667.066 539.042 667.3Q538.069 667.535 537.09 667.746Q536.112 667.957 535.129 668.143Q534.145 668.329 533.157 668.491Q532.17 668.652 531.178 668.789Q530.187 668.926 529.192 669.038Q528.198 669.151 527.201 669.238Q526.204 669.325 525.205 669.388Q524.206 669.45 523.206 669.488Q522.206 669.525 521.205 669.538Q519.091 669.587 516.978 669.534C512.748 662.683 509.447 655.314 506.081 648.015Z"/>
	<path fill="#FE8529" d="M486.111 595.895C510.582 598.159 525.827 593.743 545.209 578.692Q549.454 588.344 553.383 598.129C558.379 608.111 563.706 617.912 568.507 627.991C547.278 643.829 532.591 648.197 506.081 648.015Q499.111 632.085 492.776 615.892C490.021 609.444 488.054 602.622 486.111 595.895Z"/>
	<path fill="#FEEAAA" d="M486.111 595.895C510.582 598.159 525.827 593.743 545.209 578.692Q549.454 588.344 553.383 598.129C537.372 610.966 518.217 619.021 497.367 616.665Q495.053 616.389 492.776 615.892C490.021 609.444 488.054 602.622 486.111 595.895Z"/>
	<path fill="#FEEAAA" d="M485.84 466.483C501.978 467.088 524.414 485.214 536.82 495.456C551.35 507.452 591.742 547.056 592.994 565.207C593.206 568.282 592.474 571.43 590.386 573.768C587.004 577.556 581.618 578.373 576.821 578.679C572.956 577.97 570.159 576.38 567.579 573.444C560.683 565.599 556.473 555.76 550.757 547.092C536.968 526.182 511.243 496.561 488.675 485.546C482.403 482.484 477.146 481.595 470.48 483.899C470.966 482.057 471.423 480.157 472.131 478.386C474.724 471.905 479.841 469.171 485.84 466.483Z"/>
	<path fill="#5D003B" d="M578.888 555.468C580.054 555.432 581.187 555.492 582.329 555.742C584.652 556.249 586.914 557.628 588.167 559.682C589.523 561.906 589.67 564.639 588.948 567.104C587.785 571.072 585.33 572.858 581.943 574.837C580.811 574.898 579.67 574.954 578.544 574.793C576.099 574.444 573.678 573.395 572.279 571.269C571.017 569.349 570.793 566.853 571.301 564.65C572.346 560.121 575.083 557.756 578.888 555.468Z"/>
	<path fill="#FE8529" d="M580.068 558.343C581.733 558.586 583.441 559.344 584.503 560.712C585.688 562.239 585.725 564.214 585.276 566.011C584.503 569.103 582.986 570.451 580.327 572.045C578.997 571.741 577.557 571.278 576.471 570.418C575.27 569.467 574.468 568.09 574.516 566.516C574.626 562.887 577.46 560.412 580.068 558.343Z"/>
	<path fill="#FA937D" d="M436.763 130.197Q444.066 133.537 451.618 136.268Q459.169 138.999 466.919 141.104C465.622 141.953 464.004 142.745 463.514 144.324C455.6 143.966 449.158 145.125 442.363 149.297C450.532 151.781 458.771 153.263 465.828 158.446C468.307 160.267 471.39 163.126 471.54 166.452C471.692 169.814 468.743 172.872 466.442 174.937C437.603 200.818 401.136 206.28 363.945 204.426C378.176 187.199 393.679 171.124 409.499 155.367C418.254 146.648 426.805 137.57 436.763 130.197Z"/>
	<path fill="#FA937D" d="M593.707 225.125C612.96 226.156 632.517 231.848 650.203 239.33C671.345 248.273 689.785 263.222 698.45 284.978C701.707 293.157 704.698 306.099 700.863 314.501C699.921 316.564 698.312 318.145 696.126 318.83C688.776 321.129 678.734 315.165 672.281 311.987C665.94 289.349 659.383 268.621 640.805 252.824C644.247 258.634 648.129 264.158 651.364 270.1C661.517 288.748 664.874 308.654 665.989 329.583Q666.032 336.134 665.262 342.64Q664.492 349.145 662.921 355.505C657.661 376.319 644.844 399.849 625.817 411.053C622.651 412.917 616.128 415.869 612.553 414.302C611.362 413.78 610.862 412.906 610.497 411.717C610.018 410.152 610.567 407.871 610.991 406.355C612.662 400.383 615.596 394.846 617.704 389.031C619.562 383.909 620.405 378.022 622.81 373.153C626.213 366.261 631.293 360.413 635.343 353.92C648.449 332.908 654.436 305.81 648.592 281.481C643.662 260.96 630.174 244.324 611.76 234.2C606.047 231.058 599.745 228.93 594.225 225.459C594.051 225.35 593.88 225.236 593.707 225.125Z"/>
	<path fill="#FEEAAA" d="M639.242 556.634C642.629 561.88 644.862 569.54 647.258 575.36C658.791 603.385 669.293 631.169 676.129 660.759C653.956 671.336 629.727 673.772 605.514 673.998L602.509 669.699C593.977 657.57 570.939 623.19 568.276 609.56C567.104 603.562 567.619 597.272 567.405 591.187C567.251 586.82 566.59 582.522 565.892 578.216C568.932 580.748 571.907 582.986 575.803 584.061Q576.589 584.279 577.393 584.415Q578.196 584.551 579.01 584.605Q579.823 584.659 580.638 584.63Q581.453 584.601 582.26 584.489Q583.068 584.377 583.86 584.183Q584.652 583.99 585.42 583.716Q586.188 583.443 586.925 583.093Q587.661 582.743 588.358 582.32C594.595 578.568 596.869 572.295 598.685 565.67C612.502 564.543 626.015 560.552 639.242 556.634Z"/>
	<path fill="#FEEAAA" d="M714.702 657.418C718.884 662.615 720.826 675.129 722.633 681.705C727.335 698.809 731.733 715.95 735.02 733.391C742.658 773.932 745.574 815.72 746.556 856.939C732.445 866.7 716.947 870.912 700.285 873.993C696.939 861.303 691.097 849.579 685.973 837.56L664.735 787.623C662.755 783.287 661.143 778.768 659.435 774.319C672.643 761.388 684.272 746.818 691.385 729.62C694.935 721.035 702.142 699.396 698.427 690.407C696.145 690.392 694.556 702.849 693.957 705.342C693.383 707.728 692.457 710.101 691.636 712.411C685.137 730.701 673.27 750.701 658.117 763.129L657.481 763.646C660.986 758.468 665.474 754.083 669.454 749.281C685.554 729.855 685.015 703.066 682.843 679.293C694.956 673.405 705.044 666.823 714.702 657.418Z"/>
	<path fill="#FE8529" d="M199.138 141.814C198.041 155.143 196.564 168.611 197.827 181.979C201.388 219.667 219.528 255.151 239.218 286.828C244.117 294.708 249.024 302.973 254.711 310.313C239.666 330.302 223.347 357.107 214.539 380.533C207.54 374.82 200.85 369.049 194.863 362.239C173.765 338.239 156.091 301.662 152.953 269.752C151.317 253.118 154.624 221.008 161.863 205.465C163.07 203.933 164.037 202.873 165.698 201.836C173.139 179.596 184.312 159.997 199.138 141.814Z"/>
	<path fill="#67012E" d="M161.863 205.465C163.07 203.933 164.037 202.873 165.698 201.836C164.255 210.709 163.01 219.462 163.167 228.478C163.761 262.7 179.705 297.018 199.437 324.424Q209.713 338.604 221.976 351.104C213.71 345.999 207.27 338.593 201.243 331.08C183.598 309.083 170.17 283.543 163.736 255.994C161.072 244.588 159.737 233.215 160.558 221.489C160.909 216.464 162.393 210.397 161.863 205.465Z"/>
	<path fill="#FE8529" d="M546.985 44.703C552.181 44.9473 556.484 45.8405 561.434 47.4582C545.449 50.812 529.963 57.5515 515.715 65.4393C493.235 77.884 472.575 93.7455 452.631 109.865Q429.793 128.068 408.417 147.967Q387.04 167.867 367.252 189.346C348.35 210.277 332.045 233.284 313.414 254.416C302.289 267.034 289.826 278.417 277.397 289.72C280.742 283.922 285.109 278.615 289.143 273.28Q298.064 261.516 306.817 249.627C317.392 235.185 327.352 220.336 338.255 206.127Q348.497 192.686 359.453 179.821Q370.409 166.955 382.047 154.703Q393.685 142.451 405.97 130.848Q418.255 119.245 431.152 108.325Q449.09 93.2381 468.225 79.701C475.841 74.3988 485.892 69.1173 492.608 62.9733C488.555 63.204 479.641 69.7056 475.919 71.9691C409.604 112.259 357.639 170.612 312.833 233.155Q297.15 255.25 281.016 277.017C273.471 287.136 265.786 298.133 256.375 306.617C256.312 306.052 256.256 305.494 256.216 304.927C255.146 289.849 258.666 275.579 263.112 261.314C273.134 229.157 287.981 200.897 310.126 175.434C361.059 116.867 468.407 50.1856 546.985 44.703Z"/>
	<path fill="#FEEAAA" d="M604.512 676.455L610.86 677.178C611.225 684.616 611.021 692.228 609.535 699.542C605.295 720.411 590.977 741.644 573.406 753.595C569.025 756.576 563.664 757.849 559.204 760.841L558.606 761.249C566.176 761.393 571.988 758.99 578.033 754.664C597.982 740.388 609.735 715.713 613.754 692.05C635.21 695.671 659.135 687.425 679.428 681.072C680.703 701.228 680.998 721.813 670.651 739.923C669.005 742.805 664.942 750.192 661.792 751.052C661.544 750.009 661.656 749.489 660.804 748.791C653.528 755.893 644.745 772.097 639.116 781.166C632.352 792.063 625.394 802.696 618.113 813.253C607.718 828.132 597.646 843.279 586.795 857.828C580.294 866.544 572.916 874.647 566.652 883.503Q564.359 883.543 562.067 883.492Q559.775 883.44 557.486 883.296Q555.198 883.152 552.917 882.916Q550.636 882.679 548.367 882.352Q546.097 882.024 543.843 881.605Q541.589 881.187 539.353 880.678Q537.117 880.168 534.904 879.57Q532.69 878.971 530.503 878.284Q528.315 877.596 526.157 876.822Q523.999 876.047 521.874 875.186Q519.749 874.325 517.66 873.379Q515.571 872.433 513.522 871.404Q511.473 870.375 509.467 869.264Q507.461 868.153 505.501 866.963Q503.542 865.772 501.632 864.504Q499.721 863.235 497.864 861.891C501.01 855.201 504.69 848.663 508.084 842.09L530.661 798.119C537.142 785.22 545.023 770.392 547.989 756.184C549.361 749.613 548.367 742.885 549.012 736.23L549.099 735.369C550.77 737.929 552.189 740.452 553.488 743.22C551.766 745.04 549.765 746.761 549.786 749.421L550.565 749.991C558.023 750.184 574.618 738.847 579.996 733.698C595.205 719.136 604.16 697.388 604.512 676.455Z"/>
	<path fill="#FA937D" d="M278.067 297.302C278.255 297.375 278.464 297.409 278.631 297.521C282.134 299.88 284.84 308.244 286.389 312.09C296.558 337.341 301.698 357.341 303.057 384.665Q301.488 385.041 299.945 385.512Q298.401 385.982 296.889 386.545Q295.377 387.108 293.902 387.761Q292.427 388.414 290.994 389.156Q289.561 389.897 288.175 390.723Q286.789 391.55 285.456 392.459Q284.123 393.367 282.847 394.355Q281.572 395.343 280.358 396.406Q279.487 397.167 278.654 397.97Q277.822 398.773 277.031 399.617Q276.239 400.461 275.491 401.343Q274.743 402.225 274.04 403.143Q273.337 404.061 272.68 405.014Q272.024 405.966 271.415 406.95Q270.807 407.934 270.249 408.947Q269.691 409.96 269.183 410.999Q268.676 412.039 268.222 413.103Q267.767 414.166 267.366 415.251Q266.965 416.336 266.619 417.44Q266.272 418.543 265.981 419.663Q265.69 420.782 265.456 421.915Q265.221 423.047 265.043 424.19Q264.865 425.333 264.745 426.484Q264.624 427.634 264.561 428.789C263.845 441.542 268.675 453.974 277.203 463.392C290.109 477.645 307.295 482.69 325.943 483.725C336.541 497.771 350.611 509.901 366.582 517.425C371.482 519.734 378.161 521.325 382.273 524.837C383.473 525.863 384.498 527.382 384.463 529.017C384.44 530.131 383.812 531.071 383.057 531.843C375.244 539.838 351.477 540.751 341.004 540.615C314.959 540.278 286.257 533.249 267.596 513.928C249.04 494.715 243.805 464.185 245.077 438.397C245.555 428.688 247.316 418.992 247.461 409.286L247.469 408.55Q246.18 412.569 245.154 416.663C237.427 447.825 241.004 483.519 257.637 511.234C264.03 520.5 271.507 526.883 279.571 534.474C281.248 536.054 286.054 540.373 286.112 542.437C285.715 543.339 285.445 543.818 284.631 544.425C279.999 547.876 268.236 545.587 262.992 544.344C245.029 540.085 227.598 525.588 218.242 509.96C201.301 481.661 214.146 452.154 224.218 424.153C227.25 415.725 229.798 407.379 231.945 398.683C223.521 409.501 213.309 433.938 208.527 447.166C198.332 475.37 199.704 490.083 212.248 516.82C201.87 515.038 192.603 512.365 185.137 504.491C177.986 496.949 174.478 486.565 174.887 476.244C175.161 469.31 177.199 462.739 180.256 456.543C183.901 449.157 188.905 442.593 193.683 435.923C200.523 426.376 207.514 416.647 213.043 406.262C218.784 395.476 221.756 383.596 226.347 372.337C230.504 362.142 236.01 352.628 241.431 343.073C245.195 336.439 248.837 329.635 253.036 323.265C259.845 312.938 269.137 305.641 278.067 297.302Z"/>
	<path fill="#FDFDF9" d="M373.769 52.7082C398.661 51.3885 423.494 58.7687 445.277 70.4534C437.204 75.1597 428.595 78.9793 420.452 83.6064Q406.064 91.7546 392.232 100.815Q378.4 109.876 365.182 119.811C311.533 159.838 263.719 211.178 253.735 279.875C252.885 286.327 252.575 292.745 252.468 299.244C220.376 244.8 192.493 204.859 203.152 137.781C231.886 107.014 286.148 73.7769 326.277 61.2174C341.871 56.3369 357.509 53.8738 373.769 52.7082Z"/>
	<path fill="#FEEAAA" d="M463.514 144.324C464.004 142.745 465.622 141.953 466.919 141.104C485.365 145.804 504.65 148.422 523.666 146.383C537.887 160.368 551.961 173.448 563.394 189.943Q570.523 200.288 577.07 211.01C580.594 216.695 583.939 222.809 588.316 227.894C593.34 233.73 601.164 235.97 607.653 239.736C629.909 252.655 642.298 274.109 642.568 299.74C642.881 329.447 628.069 356.278 607.67 377.017C564.303 421.107 490.528 453.245 428.562 453.542C416.419 453.6 403.135 452.895 391.413 449.642C387.16 448.462 383.083 446.743 378.937 445.239C378.804 445.368 378.668 445.494 378.537 445.625C374.896 449.278 372.707 454.135 369.467 458.126C359.214 470.758 341.837 477.359 325.874 477.564C310.73 477.759 295.266 472.445 284.376 461.73C275.886 453.377 270.411 441.912 270.414 429.897C270.417 419.25 274.786 409.436 282.398 402.039C293.654 391.099 307.15 387.812 322.417 388.133Q324.168 388.155 325.915 388.262C338.011 374.54 341.898 361.16 340.791 342.923C339.172 316.223 327.726 289.429 311.424 268.327C320.943 257.963 330.354 247.565 339.211 236.619C345.973 228.262 352.242 219.419 359.309 211.32C398.857 211.773 438.886 208.267 468.968 179.08C471.995 176.143 474.62 172.968 477.309 169.733C481.702 168.953 486.488 167.435 490.907 167.294C496.477 167.117 511.674 171.538 515.717 166.928C515.839 165.59 515.703 165.025 514.874 163.931C510.283 157.874 502.264 154.359 494.843 153.748C489.231 153.286 483.854 154.414 478.704 156.628C474.519 150.743 470.571 146.687 463.514 144.324Z"/>
	<path fill="#67012E" d="M376.562 304.309C373.469 302.327 369.294 301.935 365.449 299.403L365.716 299.491L365.047 297.908L364.475 298.127L364.924 298.829L365.949 297.848C370.191 298.209 372.786 299.163 376.497 301.217C376.497 302.209 376.382 303.34 376.562 304.309Z"/>
	<path fill="#67012E" d="M542.103 285.326C543.383 285.735 543.753 286.169 544.441 287.238C544.051 288.365 544.276 287.934 543.686 288.864C540.395 294.051 539.435 299.051 537.398 304.659C536.933 304.328 536.596 304.104 536.159 303.711C535.007 302.675 534.557 301.415 534.501 299.904C534.298 294.372 538.434 289.101 542.103 285.326Z"/>
	<path fill="#FE8529" d="M596.628 244.526C599.145 244.386 601.522 244.324 603.914 245.248C606.7 246.323 609.078 248.345 610.161 251.174Q610.317 251.578 610.431 251.995Q610.546 252.413 610.618 252.84Q610.69 253.267 610.718 253.698Q610.747 254.13 610.732 254.563Q610.717 254.996 610.658 255.425Q610.599 255.853 610.498 256.274Q610.396 256.695 610.253 257.104Q610.11 257.512 609.926 257.904C608.198 261.649 605.022 262.957 601.432 264.377C599.518 264.51 597.589 264.452 595.718 263.981C592.833 263.254 590.139 261.654 588.734 258.945Q588.543 258.573 588.39 258.184Q588.237 257.795 588.124 257.393Q588.01 256.991 587.938 256.579Q587.865 256.168 587.834 255.751Q587.803 255.334 587.814 254.917Q587.824 254.499 587.876 254.084Q587.929 253.67 588.022 253.262Q588.115 252.855 588.249 252.459C589.627 248.263 592.925 246.368 596.628 244.526Z"/>
	<path fill="#67012E" d="M574.539 303.857C574.675 304.029 574.826 304.189 574.948 304.371C576.314 306.403 575.804 309.167 575.385 311.427C573.254 322.922 566.853 333.774 557.073 340.308C539.689 351.922 515.112 350.25 495.624 346.269L493.984 345.635L493.747 344.902C496.048 343.562 521.447 345.962 527.137 345.619C533.368 345.244 539.817 343.948 545.661 341.749C556.946 337.502 565.216 329.791 569.403 318.384C571.036 313.933 572.096 309.009 574.113 304.739L574.539 303.857Z"/>
	<path fill="#67012E" d="M306.859 414.694C312.554 413.965 318.842 414.733 324.433 415.89L325.24 416.063C330.36 417.116 335.937 418.924 340.544 421.42C342.557 422.511 345.096 424.139 345.768 426.461L345.126 427.081C340.106 427.329 330.717 422.676 325.519 421.141C325.372 421.398 325.221 421.654 325.077 421.914C313.056 443.565 334.741 449.433 336.121 454.477C335.984 454.537 335.855 454.618 335.711 454.659C333.494 455.284 330.145 453.535 328.112 452.594C323.444 449.557 319.502 445.512 317.74 440.12C315.423 433.027 317.566 426.482 320.683 420.111C312.286 419.323 300.394 418.502 292.936 423.304C288.682 426.043 289.203 429.38 288.015 433.754C287.654 435.08 287.401 435.875 286.233 436.613C285.254 435.844 285.07 435.673 284.934 434.326C284.533 430.35 285.787 425.515 288.277 422.41C292.77 416.809 300.15 415.479 306.859 414.694Z"/>
	<path fill="#210C57" d="M373.904 222.03C375.624 221.948 377.196 222.252 378.734 223.04C380.768 224.08 382.658 225.706 383.272 227.989C384.321 231.898 380.975 234.345 378.583 236.82C371.42 244.229 369.91 255.905 364.49 264.694C363.319 264.653 362.114 264.545 361.037 264.041C358.533 262.87 356.64 260.438 355.686 257.893C353.178 251.202 354.362 242.402 357.419 236.065C360.945 228.755 366.419 224.656 373.904 222.03Z"/>
	<path fill="#FA937D" d="M436.403 363.641C444.989 362.828 454.773 363.443 462.172 368.336C466.108 370.938 469.066 374.756 469.887 379.47C470.644 383.825 469.451 388.071 466.91 391.635C461.227 399.604 450.751 402.673 441.618 404.369C433.494 405.13 425.426 405.051 418.143 400.806C413.849 398.304 410.348 394.49 409.128 389.58C408.066 385.306 408.957 380.976 411.323 377.293C416.695 368.928 427.195 365.546 436.403 363.641Z"/>
	<path fill="#5D003B" d="M530.754 184.594C536.905 184.317 542.709 186.007 547.906 189.239C559.965 196.741 576.458 220.804 579.399 234.592C580.783 241.081 578.496 247.309 575.058 252.744C567.253 265.082 556.634 272.23 542.514 275.35C545.486 276.455 548.464 277.974 551.058 279.804C554.502 282.233 558.709 286.3 559.179 290.731C559.314 292.001 559.166 292.647 558.434 293.663L557.312 293.687C555.829 292.779 555.269 291.53 554.46 290.049L554.098 289.376C549.11 282.515 542.628 279.46 534.725 277.131C533.123 277.727 531.277 278.301 529.897 279.324C526.458 281.869 524.102 289.483 520.518 290.516L519.45 289.919C518.795 288.003 519.476 286.109 520.234 284.316C522.948 277.9 526.209 275.997 532.505 273.487C519.771 262.282 512.454 246.466 509.034 230.041C506.722 218.932 505.729 205.422 512.471 195.573C516.917 189.077 523.294 186.123 530.754 184.594Z"/>
	<path fill="#FA937D" d="M532.207 188.159C539.915 187.88 546.311 191.576 552.14 196.206C550.163 195.319 548.18 194.416 546.158 193.638C538.195 190.573 531.325 190.843 523.552 194.37C518.523 197.598 515.258 201.643 511.133 205.857C512.455 202.726 513.86 199.651 515.973 196.962C520.233 191.54 525.504 189.076 532.207 188.159Z"/>
	<path fill="#64005F" d="M518.353 220.285L518.663 219.888L519.344 221.062C528.471 221.531 536.186 225.602 542.301 232.353C548.74 239.463 552.538 248.85 552.015 258.5C551.826 261.989 551.026 266.037 548.351 268.518C546.203 270.51 542.822 271.027 539.998 270.755C535.402 270.311 531.626 267.627 528.794 264.107C523.372 257.367 514.275 235.672 515.105 226.991C515.359 224.339 518.309 222.774 518.353 220.285Z"/>
	<path fill="#FDFDF9" d="M513.57 222.383C514.084 219.657 514.602 216.867 515.481 214.231C517.513 208.141 521.594 202.795 527.486 200.025C532.99 197.437 539.133 197.52 544.802 199.544C556.703 203.794 566.825 215.843 572.182 226.922C575.019 232.788 576.616 238.93 574.223 245.28C570.499 255.163 561.952 263.705 552.512 268.148C555.583 262.207 556.74 256.379 555.576 249.756C553.786 239.574 547.21 229.817 538.723 223.987C532.394 219.639 526.154 218.489 518.663 219.888L518.353 220.285C516.731 220.905 515.154 221.67 513.57 222.383Z"/>
	<path fill="#5D003B" d="M376.497 301.217C377.668 284.858 379.661 268.665 392.937 257.335Q393.656 256.721 394.405 256.143Q395.154 255.566 395.931 255.027Q396.708 254.488 397.511 253.988Q398.314 253.489 399.141 253.031Q399.968 252.572 400.818 252.156Q401.667 251.74 402.536 251.367Q403.405 250.993 404.291 250.664Q405.178 250.335 406.08 250.051Q406.982 249.767 407.897 249.529Q408.812 249.291 409.738 249.098Q410.664 248.906 411.599 248.761Q412.533 248.616 413.474 248.517Q414.414 248.419 415.359 248.368Q416.303 248.317 417.249 248.314Q418.194 248.31 419.139 248.354Q420.084 248.399 421.025 248.49C440.77 250.25 458.385 263.63 470.603 278.434C478.558 288.073 488.134 301.508 486.626 314.736C485.446 325.087 478.397 333.503 470.432 339.669C456.23 350.665 436.55 357.609 418.489 355.246C406.973 353.739 396.956 347.637 389.944 338.446C383.085 329.456 380.961 319.524 377.29 309.137C373.77 308.701 368.677 308.487 365.755 306.262C366.29 305.205 366.883 305.218 367.994 304.874C370.735 304.023 373.739 304.527 376.562 304.309C376.382 303.34 376.497 302.209 376.497 301.217Z"/>
	<path fill="#FA937D" d="M413.309 252.081C419.894 251.345 425.569 252.892 431.821 254.743C415.828 254.767 404.437 257.43 392.207 268.069C388.701 271.508 385.819 275.437 382.882 279.354C384.141 276.052 385.57 273.016 387.478 270.033C393.715 260.282 402.086 254.574 413.309 252.081Z"/>
	<path fill="#FEEAAA" d="M388.276 290.361C392.543 278.437 398.444 268.58 410.249 262.941C420.289 258.144 432.532 257.871 442.935 261.697C459.19 267.675 472.7 284.599 479.715 299.898C482.633 306.263 484.005 312.951 481.416 319.714C476.986 331.285 464.536 340.313 453.509 344.972C449.809 346.535 438.831 350.892 435.346 350.212L435.431 349.427C434.897 348.759 434.482 348.318 433.537 348.378C432.343 348.454 430.319 349.455 429.046 349.768C422.922 351.275 416.808 350.495 411.051 348.083C400.281 343.569 392.594 335.099 388.242 324.333C383.774 313.278 383.597 301.35 388.276 290.361Z"/>
	<path fill="#64005F" d="M388.276 290.361C388.462 290.324 388.651 290.299 388.835 290.25C391.725 289.483 394.357 287.527 397.299 286.615C404.229 284.468 413.675 287.08 419.917 290.403C430.554 296.065 438.982 306.944 442.354 318.465C444.651 326.317 445.175 335.348 441.059 342.707C439.599 345.318 437.67 347.467 435.431 349.427C434.897 348.759 434.482 348.318 433.537 348.378C432.343 348.454 430.319 349.455 429.046 349.768C422.922 351.275 416.808 350.495 411.051 348.083C400.281 343.569 392.594 335.099 388.242 324.333C383.774 313.278 383.597 301.35 388.276 290.361Z"/>
</svg>
