<?xml version="1.0" encoding="utf-8" ?>
<svg xmlns="http://www.w3.org/2000/svg" xmlns:xlink="http://www.w3.org/1999/xlink" width="1024" height="1024">
	<path fill="#62202D" d="M549.57 45.6983C557.518 44.9882 567.159 45.2032 573.671 50.4485C577.15 53.2513 579.056 57.2338 579.372 61.6625C580.96 83.9654 553.304 116.125 539.385 132.498C556.13 143.758 568.024 160.705 576.264 178.889C579.19 185.347 581.604 192.042 584.587 198.472C587.364 204.457 591.037 210.104 594.064 215.987C626.244 219.401 663.357 226.89 685.108 252.927C697.357 267.588 702.367 285.528 700.665 304.473C699.851 313.533 697.15 327.899 689.492 333.933C688.213 334.941 686.319 335.828 684.658 335.328C680.381 334.042 675.828 325.023 673.469 321.358C673.561 349.782 668.155 369.205 648.54 390.574C644.135 395.372 635.073 404.83 628.054 404.843C626.236 404.847 624.684 404.134 623.411 402.853C618.272 397.68 619.798 385.785 620.036 379.149C614.9 403.685 602.603 423.955 583.017 439.761C578.176 443.668 572.824 447.001 567.747 450.596C607.836 468.829 628.838 489.868 655.309 524.275C659.983 530.349 666.171 535.669 669.849 542.411L667.483 548.162C713.627 613.398 738.126 690.279 748.288 769.067C751.853 796.705 752.756 824.55 755.4 852.254C756.198 860.615 758.221 868.82 759.207 877.172C755.469 880.653 751.83 882.519 747.166 884.567Q753.104 902.116 758.737 919.765C763.617 921.143 768.42 922.843 773.262 924.356C776.185 923.131 779.009 922.086 782.077 921.284C783.747 921.713 785.51 922.199 787.077 922.915C790.158 924.324 791.156 927.378 792.325 930.287C795.13 931.709 797.879 932.853 800.099 935.15C813.812 932.361 827.448 932.873 840.314 938.803C854.123 945.168 858.696 954.08 863.777 967.719C861.314 969.838 858.447 971.439 855.503 972.783C826.777 985.892 773.521 985.87 742.449 982.034C734.961 981.11 726.674 980.275 719.638 977.51C719.343 977.394 719.05 977.273 718.76 977.146C716.554 976.179 714.136 974.911 713.857 972.298C713.148 965.645 715.36 958.749 714.693 951.894C713.196 936.512 701.257 911.379 694.751 896.595C690.551 896.388 686.532 895.675 682.419 894.842C680.208 888.1 678.685 881.188 676.27 874.49C672.414 863.801 667.429 853.503 663.179 842.962C655.829 824.733 648.962 806.294 641.757 788.004C637.933 795.929 631.551 803.676 626.711 811.072C619.778 821.666 613.004 832.39 605.832 842.822C597.459 855 588.629 866.878 580.368 879.131C575.119 886.917 571.948 896.818 564.942 903.23C554.042 905.901 541.604 902.157 530.934 899.77C524.28 907.382 517.847 915.111 511.833 923.241C515.189 928.094 518.396 933.179 522.425 937.507C538.575 937.957 555.033 940.107 569.962 946.521C578.058 950.46 586.365 955.866 591.211 963.655C592.427 965.61 595.342 969.74 594.629 971.99C593.846 974.462 591.126 976.107 588.973 977.274C582.264 980.91 574.369 983.21 566.998 985.048C530.863 994.056 487.746 991.676 452.182 980.894C447.116 979.358 438.718 977.056 436.289 971.852C435.429 970.008 436.004 968.204 436.527 966.344C438.526 959.247 441.927 952.204 444.844 945.427Q453.864 924.739 463.319 904.246C467.598 894.754 472.058 885.411 475.135 875.438C472.941 872.95 471.152 870.442 469.49 867.576C472.039 860.752 476.141 854.622 479.182 848.017C483.73 838.14 487.518 827.789 491.703 817.742C496.915 805.232 506.402 785.487 508.417 772.168C509.564 764.59 508.851 756.714 508.856 749.082Q509.007 733.963 509.683 718.859C510.01 711.12 513.122 689.197 511.264 682.974C511.201 682.763 511.127 682.556 511.06 682.346C509.274 676.748 506.377 671.554 503.976 666.203Q498.939 654.786 494.49 643.127C477.682 598.994 464.948 551.456 464.452 504.01C464.361 504.052 464.271 504.095 464.18 504.136C432.661 518.348 395.067 521.706 362.458 509.271C367.679 512.909 372.935 516.55 378.362 519.875C384.317 523.523 390.584 526.893 396.194 531.05C386.713 539.527 373.794 543.405 361.514 545.624C338.706 549.744 311.195 548.76 289.855 539.419C282.275 536.101 275.567 531.488 268.804 526.793C271.643 530.052 288.311 547.622 288.838 549.511C289.034 550.215 288.619 550.577 288.296 551.171C282.931 554.84 272.43 553.869 266.244 553.272C244.33 551.158 226.414 539.579 212.751 522.881L212.206 523.664C211.668 524.451 211.054 525.636 210.182 526.088C207.191 527.638 199.046 523.9 196.245 522.488C184.667 516.651 175.975 504.887 171.997 492.741C162.669 464.259 181.842 441.787 196.62 419.606C202.278 411.114 207.162 402.358 211.778 393.267Q209.159 391.542 206.619 389.704C173.679 365.673 149.042 324.736 142.882 284.468C141.092 272.773 141.288 261.011 142.557 249.279C146.751 210.498 164.381 178.238 187.211 147.356C185.607 146.607 183.96 145.871 182.435 144.967C176.683 141.559 174.082 136.576 172.402 130.343C174.16 125.446 176.793 120.912 180.464 117.202C184.85 112.77 190.924 109.854 197.233 110.035C204.325 110.237 209.426 114.161 214.102 119.033C241.081 93.176 283.416 68.2866 319.396 57.7147C369.998 42.8461 419.413 50.3262 465.467 75.4883C490.71 60.5623 520.287 48.9202 549.57 45.6983Z"/>
	<path fill="#DBA297" d="M659.468 538.681C660.079 538.989 660.521 539.247 661.053 539.668C662.897 541.129 663.32 542.603 663.613 544.869C662.053 545.047 661.216 545.155 659.868 544.326C658.98 542.609 659.36 540.554 659.468 538.681Z"/>
	<path fill="#F8D7C8" d="M780.963 926.915C782.99 926.996 784.876 927.331 786.442 928.71L786.223 929.542L784.236 930.52C782.906 931.024 781.429 931.765 779.985 931.682C779.174 931.636 779.369 931.535 778.791 930.808C779.081 929.126 779.928 928.198 780.963 926.915Z"/>
	<path fill="#E8E8DC" d="M543.558 739.749C544.981 740.691 546.742 742.229 547.561 743.751C548.265 745.06 548.2 745.691 547.806 747.072C546.939 747.239 545.818 747.564 544.945 747.519C543.646 747.452 543.459 747.021 542.737 746.088C542.394 743.964 543.098 741.821 543.558 739.749Z"/>
	<path fill="#F8D7C8" d="M788.328 935.187L794.287 937.966L790.14 941.856L787.435 946.372C787.507 942.598 787.866 938.932 788.328 935.187Z"/>
	<path fill="#F8D7C8" d="M578.399 560.597C579.991 561.022 580.935 561.389 581.905 562.795C583.528 565.146 582.991 568.653 582.548 571.268C581.176 570.637 579.685 569.936 578.823 568.627C577.115 566.037 577.857 563.406 578.399 560.597Z"/>
	<path fill="#E8E8DC" d="M507.981 926.868C510.519 928.45 512.281 931.92 513.861 934.387L506.5 934.511L500.067 934.335C502.588 931.712 505.276 929.299 507.981 926.868Z"/>
	<path fill="#E8E8DC" d="M769.345 935.218C771.252 935.497 773.128 935.933 775.011 936.34C773.861 939.094 773.004 942.83 770.059 944.149C768.909 944.133 767.662 944.18 766.529 943.99C765.279 943.781 764.854 943.164 764.2 942.176C764.315 939.273 767.36 937.061 769.345 935.218Z"/>
	<path fill="#DBA297" d="M573.526 415.549L573.861 416.192C566.616 423.023 558.303 428.87 550.378 434.88L548.271 429.959C556.627 425.032 565.238 420.617 573.526 415.549Z"/>
	<path fill="#DBA297" d="M472.562 486.996C473.026 485.59 473.136 484.542 474.536 483.724C477.45 482.021 482.41 483.932 485.24 485.099C489.706 486.94 494.357 489.438 498.03 492.602C489.495 491.791 480.832 489.174 472.562 486.996Z"/>
	<path fill="#DBA297" d="M665.414 286.765C665.87 286.96 665.96 286.974 666.42 287.313C675.432 293.938 682.478 319.606 684.064 330.249C680.763 328.924 676.194 320.065 673.074 317.035C671.363 306.61 668.685 296.798 665.414 286.765Z"/>
	<defs>
		<linearGradient id="gradient_0" gradientUnits="userSpaceOnUse" x1="558.10059" y1="485.01929" x2="549.1778" y2="471.86526">
			<stop offset="0" stop-color="#B5B5B5"/>
			<stop offset="1" stop-color="#D2DCD3"/>
		</linearGradient>
	</defs>
	<path fill="url(#gradient_0)" d="M566.023 466.202C569.147 468.294 571.894 470.583 574.605 473.181C564.959 482.995 555.877 487.984 541.952 488.917C541.023 488.979 540.736 489.083 540.009 489.63C536.291 486.637 532.738 483.467 529.171 480.298C536.159 482.363 542.792 483.632 550.107 482.882C555.127 482.367 560.87 481.008 564.058 476.76C566.606 473.366 566.49 470.168 566.023 466.202Z"/>
	<path fill="#DBA297" d="M539.768 142.1C540.502 142.104 541.28 142.259 541.972 142.508C553.408 146.626 564.8 169.007 569.222 179.455L564.641 173.507C555.276 161.352 542.836 151.916 529.544 144.467C532.925 143.588 536.361 142.873 539.768 142.1Z"/>
	<path fill="#DBA297" d="M620.796 522.401L625.294 529.965C612.089 535.143 598.745 540.131 586.026 546.443L582.049 540.092C594.538 533.66 608.912 530.154 620.796 522.401Z"/>
	<path fill="#DBA297" d="M477.474 124.238C498.485 123.038 519.299 128.888 537.763 138.621C531.135 138.238 525.564 136.841 519.253 134.772C506.249 132.107 493.259 129.746 480.035 128.454C471.347 127.606 462.602 127.483 453.939 126.599C461.77 125.161 469.542 124.632 477.474 124.238Z"/>
	<path fill="#E8E8DC" d="M480.932 879.731C494.936 887.814 509.688 893.658 525.131 898.388C522.808 901.124 520.553 904.112 518.022 906.644C515.228 902.247 501.265 898.981 496.126 896.095C490.327 892.838 484.798 888.261 479.322 884.437L480.932 879.731Z"/>
	<path fill="#E8E8DC" d="M574.605 473.181C578.205 474.744 581.051 477.422 583.906 480.051C576.203 490.67 566.104 495.077 553.391 497.089Q550.969 497.469 548.541 497.81L540.009 489.63C540.736 489.083 541.023 488.979 541.952 488.917C555.877 487.984 564.959 482.995 574.605 473.181Z"/>
	<path fill="#E8E8DC" d="M576.236 531.124C588.226 523.255 603.192 521.333 614.689 512.417C616.67 515.776 618.607 519.172 620.796 522.401C608.912 530.154 594.538 533.66 582.049 540.092C579.936 537.245 578.124 534.128 576.236 531.124Z"/>
	<path fill="#DBA297" d="M195.307 115.028C202.067 114.738 205.959 118.125 210.736 122.324C204.844 128.562 198.8 134.67 192.83 140.835C192.019 141.691 191.164 142.501 190.317 143.321L189.414 143.192C186.125 140.612 181.857 137.68 180.044 133.808C179.062 131.708 179.062 129.472 179.917 127.329C182.379 121.165 189.565 117.5 195.307 115.028Z"/>
	<path fill="#DBA297" d="M655.358 326.449C655.099 331.04 653.823 335.918 652.763 340.395C647.824 361.257 639.589 382.918 625.545 399.376C622.093 392.508 623.354 382.995 623.532 375.518C632.008 365.89 640.323 356.467 646.48 345.104C649.556 339.428 651.699 331.475 655.358 326.449Z"/>
	<path fill="#E8E8DC" d="M472.562 486.996C480.832 489.174 489.495 491.791 498.03 492.602C505.132 497.153 510.539 502.89 516.042 509.196C499.142 511.14 486.937 507.852 470.978 503.174C471.022 497.783 471.736 492.313 472.562 486.996Z"/>
	<path fill="#DBA297" d="M325.51 485.549C325.712 484.799 325.624 484.154 326.385 483.786C327.904 483.05 330.389 483.389 332.064 483.416C343.065 497.976 355.517 510.682 371.33 520.081C377.892 523.981 385.096 527.253 391.396 531.525C377.626 531.698 365.825 526.73 353.565 521.18C353.278 520.732 353.466 520.947 352.868 520.54C337.006 509.749 334.11 501.444 325.51 485.549Z"/>
	<path fill="#DBA297" d="M480.421 96.3817C490.768 101.964 498.245 111.322 503.591 121.6C489.129 120.703 475.347 120.18 460.861 121.09C453.883 121.855 447.664 123.638 441.058 125.88C452.254 114.269 467.211 105.479 480.421 96.3817Z"/>
	<path fill="#DBA297" d="M537.248 715.196C559.081 714.214 571.393 710.586 590.291 699.432C583.575 715.803 568.428 730.965 554.278 741.383C548.043 733.015 542.035 724.497 537.248 715.196Z"/>
	<path fill="#E8E8DC" d="M593.784 680.301L596.269 683.948C594.843 689.72 593.305 694.317 590.291 699.432C571.393 710.586 559.081 714.214 537.248 715.196C534.81 711.569 532.661 707.859 530.559 704.029C535.58 701.444 543.499 702.779 549.123 701.871C566.798 699.019 579.432 690.076 593.784 680.301Z"/>
	<path fill="#E8E8DC" d="M749.504 861.437C749.639 861.502 749.789 861.543 749.91 861.631C752.148 863.255 752.433 872.473 752.62 875.204C732.414 885.036 709.073 888.593 686.927 890.575C685.113 886.255 684.255 881.66 683.242 877.103C706.425 875.605 728.315 871.295 749.504 861.437Z"/>
	<path fill="#E8E8DC" d="M600.845 678.289C601.671 677.219 601.991 676.545 603.475 676.431C605.215 676.297 606.97 677.678 608.03 678.931C608.736 679.766 609.004 680.514 609.302 681.551C606.911 703.467 593.976 726.267 577.826 741.048C571.005 747.29 549.928 762.161 540.793 761.791C537.964 759.755 537.627 756.046 536.874 752.856C553.285 750.401 566.823 739.927 577.617 727.856C588.833 715.311 601.893 696.002 600.845 678.289Z"/>
	<path fill="#E8E8DC" d="M530.762 943.969C549.156 945.213 563.664 949.289 579.105 959.464Q571.176 962.404 563.115 964.963C549.451 969.395 534.596 969.56 520.373 969.956C521.734 959.805 523.567 951.624 530.762 943.969Z"/>
	<path fill="#DBA297" d="M612.46 387.026C612.635 387.394 612.696 387.822 612.659 388.227C612.351 391.547 609.67 396.053 608.184 398.995C597.726 419.712 582.015 435.234 562.867 447.928C559.992 446.87 557.061 445.971 554.143 445.039C552.464 442.398 551.537 438.806 550.591 435.839C565.183 427.827 573.003 418.077 585.442 408.067C594.38 400.874 603.929 394.766 612.46 387.026Z"/>
	<path fill="#E8E8DC" d="M790.524 953.132C791.75 948.253 794.182 944.377 798.538 941.698C807.066 936.455 819.192 937.505 828.457 939.905C837.595 942.273 845.417 946.608 851.763 953.643Q846.309 955.677 840.727 957.331Q835.146 958.986 829.464 960.252Q823.783 961.519 818.027 962.392Q812.272 963.266 806.47 963.741C800.707 961.589 794.725 957.602 790.524 953.132Z"/>
	<path fill="#E8E8DC" d="M651.326 776.823C659.14 783.264 690.414 857.101 696.187 870.329L689.885 871.003C687.124 871.344 684.442 871.794 681.722 872.379C670.328 842.411 656.504 813.303 645.543 783.195C647.371 780.994 649.385 778.926 651.326 776.823Z"/>
	<path fill="#E8E8DC" d="M854.526 958.606C856.457 960.016 857.16 963.31 857.875 965.498C833.877 979.633 780.88 980.503 753.43 977.799C742.454 976.717 731.866 974.582 721.13 972.1C720.409 971.906 719.383 971.425 719.016 970.753C717.843 968.607 719.231 965.07 719.784 962.832C762.132 975.562 812.632 971.008 854.526 958.606Z"/>
	<path fill="#E8E8DC" d="M481.878 856.154C488.265 859.157 493.982 863.513 500.357 866.594C522.876 877.481 545.43 883.223 570.079 886.646L562.548 897.632C561.804 898.177 561.208 898.411 560.289 898.472C555.448 898.794 549.85 897.19 545.095 896.285C520.569 891.615 494.927 883.696 475.687 867.226Q478.816 861.709 481.878 856.154Z"/>
	<path fill="#E8E8DC" d="M557.522 452.927C558.698 452.925 559.759 453.015 560.908 453.284C566.512 454.592 571.581 458.035 576.708 460.577C610.554 477.357 636.926 503.716 656.728 535.638C655.083 537.832 653.692 540.677 654.143 543.497C654.693 546.933 657.037 548.592 659.727 550.402C659.277 551.121 659.382 551.141 658.641 551.583C656.515 552.853 653.744 552.07 651.457 551.668C631.894 518.15 615.708 498.17 585.219 474.016C576.093 466.786 565.02 462.051 557.522 452.927Z"/>
	<path fill="#E8E8DC" d="M479.322 884.437C484.798 888.261 490.327 892.838 496.126 896.095C501.265 898.981 515.228 902.247 518.022 906.644C509.816 915.871 500.651 924.405 491.811 933.029C481.729 931.187 472.266 927.047 462.823 923.218C467.477 909.935 473.516 897.243 479.322 884.437Z"/>
	<path fill="#E8E8DC" d="M740.499 887.568C743.175 889.084 750.682 917.062 752.299 922.391C743.029 926.378 733.318 930.819 723.155 931.771C720.752 931.996 718.824 932.33 716.922 930.773Q709.154 913.637 702.023 896.227C715.222 894.377 727.785 891.553 740.499 887.568Z"/>
	<path fill="#E8E8DC" d="M445.59 959.275C445.843 959.406 446.092 959.543 446.349 959.666C457.125 964.808 470.011 967.37 481.732 969.519C519.475 976.439 547.326 976.905 583.966 963.268C585.596 965.628 586.903 968.219 588.284 970.731L584.03 973.496L583.116 973.867C542.433 990.302 481.621 986.812 441.445 969.734C442.627 966.177 444.145 962.732 445.59 959.275Z"/>
	<path fill="#E8E8DC" d="M642.094 560.929C642.301 561.001 642.529 561.03 642.715 561.144C645.209 562.675 647.528 568.383 648.874 570.991Q657.237 587.325 664.109 604.34Q670.981 621.355 676.306 638.916C680.855 653.548 692.107 690.881 690.151 705.416C689.362 711.277 686.322 716.449 683.615 721.598L683.365 721.71C681.541 720.32 678.544 690.72 677.672 686.126C669.502 643.092 655.849 602.595 635.27 563.914L642.094 560.929Z"/>
	<path fill="#DBA297" d="M460.603 926.912C469.78 931.971 479.746 933.649 489.127 937.831C487.793 939.696 485.422 942.456 485.667 944.9C485.819 946.42 486.187 946.769 487.222 947.761C491.345 948.845 494.105 946.018 497.971 945.548L498.395 946.034C497.725 947.611 497.154 948.832 497.506 950.593C497.841 952.267 499.124 954.19 500.642 955.004C501.693 955.566 502.823 955.528 503.875 954.996C506.054 953.896 506.44 950.941 507.04 948.789C512.146 946.881 517.3 945.751 522.668 944.86Q520.062 951.832 518.5 959.11C517.945 962.653 517.662 966.108 517.52 969.691C497.778 968.489 466.376 963.092 448.091 955.698Q453.719 941.032 460.603 926.912Z"/>
	<path fill="#E8E8DC" d="M543.468 432.457C545.899 434.158 548.393 445.838 549.945 449.31C552.94 456.01 557.927 462.363 562.005 468.485C560.318 471.411 558.66 473.781 555.745 475.6C547.693 480.628 537.252 478.108 528.667 476.162C521.21 473.67 514.312 470.42 507.315 466.884C508.26 460.285 508.507 453.933 508.375 447.286C520.379 442.91 531.991 438.077 543.468 432.457Z"/>
	<path fill="#DBA297" d="M583.906 480.051C591.574 485.672 612.336 503.921 614.689 512.417C603.192 521.333 588.226 523.255 576.236 531.124C567.318 519.699 558.42 508.434 548.541 497.81Q550.969 497.469 553.391 497.089C566.104 495.077 576.203 490.67 583.906 480.051Z"/>
	<path fill="#DBA297" d="M717.073 936.619C731.55 935.039 744.495 931.279 757.759 925.346C762.64 927.022 767.506 928.404 772.568 929.413C770.037 930.511 767.398 931.643 765.167 933.285C762.493 935.254 760 938.121 759.645 941.551C759.444 943.486 759.931 945.489 761.207 946.985C762.513 948.516 764.34 949.282 766.322 949.427C773.37 949.939 775.151 944.801 778.717 940.228C779.918 938.688 781.511 937.339 782.953 936.023C783.089 941.298 782.74 949.016 785.177 953.773C785.819 955.026 786.277 955.307 787.589 955.683C789.085 955.154 789.62 954.348 790.524 953.132C794.725 957.602 800.707 961.589 806.47 963.741C790.8 967.75 763.424 966.278 747.273 963.987C738.554 962.75 729.966 960.673 721.255 959.333Q719.032 948 717.073 936.619Z"/>
	<path fill="#DBA297" d="M366.927 469.319C369.746 469.908 381.275 479.771 386.002 482.162C405.131 491.837 425.623 495.799 446.949 496.096C452.795 496.178 458.716 495.32 464.525 495.679L465.379 496.776C465.425 497.441 465.627 498.024 465.259 498.618C462.341 503.318 439.659 506.458 433.613 507.505C420.778 509.33 407.877 510.16 394.926 509.185C371.077 507.389 352.636 501.76 336.669 483.264C349.547 480.232 356.572 477.509 366.927 469.319Z"/>
	<path fill="#DBA297" d="M470.978 503.174C486.937 507.852 499.142 511.14 516.042 509.196C523.815 518.092 527.487 527.092 531.254 538.173C532.3 541.25 533.159 544.661 534.488 547.611C514.722 552.975 494.294 554.436 474.672 547.448C472.3 532.628 471.078 518.187 470.978 503.174Z"/>
	<path fill="#DBA297" d="M578.166 650.861Q585.778 665.686 593.784 680.301C579.432 690.076 566.798 699.019 549.123 701.871C543.499 702.779 535.58 701.444 530.559 704.029C523.618 692.292 517.75 680.164 512.207 667.712C516.774 667.448 521.456 667.815 526.059 667.622C547.269 666.732 560.376 662.12 578.166 650.861Z"/>
	<path fill="#DBA297" d="M500.186 450.535C501.092 450.361 500.583 450.363 501.702 450.708C502.406 452.677 502.086 455.09 502.032 457.163C495.122 458.367 487.617 460.167 481.463 463.664C469.912 470.228 467.913 481.59 464.769 493.352C435.267 495.334 409.169 490.998 382.755 477.112Q375.524 472.945 368.931 467.829Q372.033 462.077 375.347 456.444C418.633 469.407 457.777 462.839 500.186 450.535Z"/>
	<path fill="#DBA297" d="M555.148 62.1709C556.146 62.0144 555.701 62.0607 556.849 61.9966C559.94 61.8242 564.045 61.5478 566.422 63.9178C567.625 65.1176 568.003 66.6904 567.979 68.3396C567.823 79.3667 550.133 104.484 543.054 112.94C538.696 118.145 533.929 122.822 528.965 127.431C522.616 125.49 513.865 124.373 509.598 118.847C502.829 108.694 496.262 100.312 486.203 93.2308C506.843 80.9405 531.029 65.7694 555.148 62.1709Z"/>
	<path fill="#E8E8DC" d="M516.605 694.208C517.712 694.724 518.351 695.753 518.941 696.783C521.961 702.061 524.48 707.688 527.415 713.032C531.818 721.048 536.678 728.776 541.538 736.518C540.982 740.088 540.603 743.585 540.397 747.192C539.272 747.681 538.081 748.169 537.022 748.796C535.556 749.665 534.554 751.324 534.179 752.958C533.207 757.193 536.155 761.736 538.22 765.218C533.543 783.74 525.247 803.849 517.005 821.076C512.736 829.998 507.974 838.67 503.781 847.631Q501.047 853.51 498.05 859.26L484.84 851.829C490.136 841.736 493.814 830.209 498.098 819.63C503.679 805.845 510.798 791.169 513.88 776.578C515.846 767.269 514.918 756.974 515.148 747.491L516.605 694.208Z"/>
	<path fill="#E8E8DC" d="M293.775 77.654C337.5 55.5054 384.322 53.8273 430.618 69.0096Q436.566 70.9439 442.306 73.4261C428.605 78.0983 415.695 83.6959 403.052 90.7728C399.066 93.0036 387.113 101.289 383.221 100.554C379.694 97.783 374.63 96.0354 370.49 94.2778C352.318 86.5624 334.777 81.0962 315.071 78.7881C308.166 77.9793 301.105 78.6823 294.252 77.7262C294.092 77.704 293.934 77.6781 293.775 77.654Z"/>
	<path fill="#DBA297" d="M474.672 547.448C494.294 554.436 514.722 552.975 534.488 547.611L538.933 559.559C542.872 569.855 546.444 581.054 551.406 590.871C530.561 602.023 510.89 605.719 487.592 600.612C486.617 595.018 484.674 589.417 483.156 583.94Q480.186 573.21 477.717 562.353Q475.988 554.943 474.672 547.448Z"/>
	<path fill="#E8E8DC" d="M474.672 547.448C494.294 554.436 514.722 552.975 534.488 547.611L538.933 559.559C524.467 565.761 508.635 567.449 493.075 565.174C487.925 564.422 482.857 563.093 477.717 562.353Q475.988 554.943 474.672 547.448Z"/>
	<path fill="#DBA297" d="M304.103 259.39C319.224 274.287 330.102 307.799 332.892 328.836C335.733 350.264 333.432 371.432 319.948 388.921C316.468 387.923 313.218 387.456 309.618 387.132C309.355 386.904 308.912 386.786 308.828 386.447C308.45 384.932 309.384 380.826 309.471 379.072C311.032 347.371 296.18 319.06 278.833 293.663C287.735 282.721 295.846 270.84 304.103 259.39Z"/>
	<path fill="#DBA297" d="M596.515 222.114C627.508 227.447 663.702 234.398 683.171 261.757Q684.114 263.094 684.989 264.476Q685.865 265.858 686.671 267.282Q687.478 268.705 688.213 270.167Q688.948 271.628 689.61 273.124Q690.273 274.621 690.86 276.147Q691.448 277.674 691.959 279.228Q692.471 280.782 692.905 282.36Q693.34 283.937 693.696 285.534Q694.052 287.131 694.328 288.743Q694.605 290.356 694.802 291.98Q694.999 293.604 695.115 295.236Q695.232 296.868 695.268 298.504Q695.304 300.139 695.259 301.775Q695.214 303.41 695.089 305.042Q694.963 306.673 694.757 308.296Q694.552 309.919 694.266 311.53C692.91 319.155 690.003 325.735 685.685 332.123C683.819 316.912 680.098 303.151 670.848 290.607C668.469 287.38 665.209 284.986 663.039 281.578C653.43 266.484 648.771 256.409 634.171 245.018C623.117 236.393 611.021 229.761 597.324 226.506C630.161 245.133 653.297 258.246 664.03 297.485C670.906 322.624 668.866 349.131 655.807 371.921C651.161 380.029 639.137 397.817 629.747 400.506C629.03 400.711 628.305 400.8 627.568 400.899C630.098 396.344 633.844 392.342 636.561 387.847C648.665 367.825 654.538 348.975 656.512 325.746C656.825 319.212 657.667 312.585 657.459 306.048C656.923 289.204 649.467 273.284 638.158 260.959C627.917 249.799 614.659 242.006 600.877 236.011C599.459 231.37 598.1 226.701 596.515 222.114Z"/>
	<path fill="#DBA297" d="M552.165 51.2058C556.918 50.5068 563.013 51.2765 567.443 53.0958C569.232 53.8305 570.584 54.5735 571.357 56.3514L570.685 57.2503C567.078 57.4689 563.274 55.6426 559.627 55.3304C555.729 54.9966 551.468 56.2234 547.685 57.0886C508.131 66.1351 448.965 108.201 417.466 134.765Q408.407 142.417 399.719 150.488Q391.031 158.559 382.733 167.03Q374.435 175.502 366.546 184.355Q358.657 193.209 351.194 202.424C344.609 210.534 337.773 218.841 332.662 227.982C328.693 235.081 325.548 242.917 324.855 251.08C325.281 253.057 325.448 255.089 325.675 257.097C318.705 257.019 314.123 255.601 308.076 252.189C322.183 224.45 337.646 198.777 357.471 174.709C401.89 120.783 480.119 58.124 552.165 51.2058Z"/>
	<path fill="#E8E8DC" d="M490.479 468.169C494.255 468.421 497.814 469.292 501.351 470.613C534.606 483.028 575.039 531.689 589.47 563.733C588.592 562.789 587.713 561.823 586.773 560.94C584.694 558.987 581.095 556.441 578.048 556.804C576.278 557.015 575.151 557.769 574.168 559.243C572.552 561.668 572.446 565.552 573.065 568.295C573.645 570.863 575.077 573.532 577.385 574.933C578.908 575.857 580.634 576.036 582.342 575.566C587.468 574.157 591.753 568.942 594.352 564.582C592.827 559.857 590.368 555.613 587.903 551.331C603.162 544.562 618.318 538.409 634.126 533.031L637.425 538.117C640.906 543.567 644.016 549.258 647.212 554.878Q624.992 564.066 602.604 572.838C592.923 576.588 582.953 579.34 573.868 584.467C567.716 574.596 562.825 564.049 556.974 554.014C543.453 530.827 525.052 506.297 503.61 489.903C494.4 482.861 486.223 478.341 474.34 479.929Q475.639 477.723 477.123 475.638C480.686 470.701 484.693 469.093 490.479 468.169Z"/>
	<path fill="#DBA297" d="M487.592 600.612C510.89 605.719 530.561 602.023 551.406 590.871L557.223 604.611C562.375 615.771 566.94 627.242 572.233 638.32C574.315 642.465 576.328 646.6 578.166 650.861C560.376 662.12 547.269 666.732 526.059 667.622C521.456 667.815 516.774 667.448 512.207 667.712C509.589 662.515 507.443 657.087 505.202 651.719C503.844 647.297 501.826 642.872 500.2 638.523Q496.043 627.219 492.133 615.826C490.438 610.78 488.921 605.768 487.592 600.612Z"/>
	<path fill="#E8E8DC" d="M487.592 600.612C510.89 605.719 530.561 602.023 551.406 590.871L557.223 604.611C532.286 615.695 519.559 619.012 492.133 615.826C490.438 610.78 488.921 605.768 487.592 600.612Z"/>
	<path fill="#E8E8DC" d="M572.233 638.32C574.315 642.465 576.328 646.6 578.166 650.861C560.376 662.12 547.269 666.732 526.059 667.622C521.456 667.815 516.774 667.448 512.207 667.712C509.589 662.515 507.443 657.087 505.202 651.719C532.044 656.029 548.426 650.738 572.233 638.32Z"/>
	<path fill="#DBA297" d="M452.365 129.73C475.114 128.679 506.735 134.38 529.126 139.506C514.093 142.781 498.892 144.039 483.562 144.978C468.12 145.924 453.037 146.41 437.973 150.331C441.222 150.355 444.492 150.316 447.709 150.824C456.171 152.159 470.516 156.727 477.748 161.465C479.153 162.386 479.759 163.096 480.116 164.727C477.467 170.91 461.409 179.493 455.426 183.15C423.49 200.488 394.866 204.716 359.111 205.538C375.915 182.311 411.155 147.294 434.318 130.599C440.332 130.427 446.355 130.032 452.365 129.73Z"/>
	<path fill="#DBA297" d="M449.451 76.1071C452.669 77.3661 455.765 79.1184 458.848 80.6826C449.723 87.1418 440.039 92.803 430.989 99.3741C391.893 127.759 357.275 161.269 330.134 201.38C324.909 209.103 319.757 216.942 315.258 225.114C311.63 231.702 308.559 238.674 304.355 244.926C301.077 249.802 297.127 254.268 293.603 258.973C282.881 273.288 271.789 287.563 261.617 302.264L260.519 302.77C257.468 301.491 255.277 297.324 253.509 294.68C257.322 267.316 266.417 241.803 279.63 217.579C309.27 163.24 355.698 121.305 410.414 93.1552C423.191 86.5819 435.603 80.1863 449.451 76.1071Z"/>
	<path fill="#DBA297" d="M205.34 141.388L205.759 141.83C206.406 147.008 203.802 159.653 203.596 166.118C202.425 202.703 221.028 246.988 239.18 278.083C245.022 288.09 251.074 297.882 259.012 306.398C242.002 330.645 225.242 356.8 214.244 384.394C204.332 375.512 194.884 366.601 186.53 356.194C167.972 333.077 153.919 302.528 151.879 272.738C151.33 264.729 151.966 256.87 152.827 248.906C153.004 246.273 153.41 243.602 153.782 240.986C154.13 238.534 154.809 232.01 156.849 230.479L157.042 231.707L157.78 231.088L156.823 231.157C157.906 234.429 157.615 239.407 157.929 242.921Q158.499 249.499 159.706 255.99C165.796 289.035 181.984 319.442 204.272 344.405C209.949 350.762 215.743 356.981 222.788 361.849C218.275 356.975 213.487 352.423 209.133 347.39C187.632 322.537 171.081 293.934 163.465 261.783C160.714 250.173 160.659 237.727 157.365 226.363C157.307 226.163 157.244 225.965 157.184 225.767C164.53 195.726 185.047 164.309 205.34 141.388Z"/>
	<path fill="#E8E8DC" d="M664.9 553.992C664.967 554.032 665.04 554.063 665.102 554.111C670.083 558.015 680.769 580.031 684.367 586.737C716.558 646.737 733.88 709.812 741.75 777.311C744.802 803.48 746.304 829.779 748.614 856.016C732.622 862.381 716.162 865.921 699.394 869.525C695.052 859.938 691.199 850.126 687.239 840.377C677.463 816.559 664.811 793.611 659.487 768.237C668.147 755.106 681.218 746.878 694.227 738.598C683.399 741.361 674.79 746.785 665.773 753.176C674.302 740.204 687.048 728.095 691.832 713.084C699.705 688.381 672.872 617.64 662.802 594.022C657.787 582.26 651.961 570.873 646.171 559.48C646.741 559.212 647.309 558.969 647.886 558.719C653.425 556.327 659.343 556.789 664.9 553.992Z"/>
	<path fill="#E8E8DC" d="M289.965 79.9278C315.39 81.1431 333.43 82.9757 357.709 91.313C366.157 94.2141 374.381 98.2562 382.85 100.918L382.913 101.698C382.334 102.843 372.428 108.789 370.508 110.226C357.206 120.183 344.139 129.891 331.927 141.203C293.992 176.343 252.472 236.751 250.438 290.112L249.904 289.342C225.268 253.706 206.521 207.702 206.509 163.831C206.507 154.922 207.671 146.168 209.257 137.424C215.398 132.312 220.546 126.142 226.555 120.881C240.768 108.437 272.175 85.6326 289.965 79.9278Z"/>
	<path fill="#DBA297" d="M210.453 524.513C205.352 522.916 200.642 520.764 196.334 517.567C186.075 509.954 178.843 497.637 177.055 485.006C175.756 475.828 177.36 466.471 180.816 457.926C187.445 441.531 199.961 428.443 208.67 413.228C216.522 399.509 221.654 384.825 228.887 370.87C242.784 344.063 259.909 318.938 277.893 294.737C293.757 322.774 309.123 355.261 302.347 388.222C299.187 389.306 295.993 390.369 292.912 391.664C281.625 396.407 272.977 404.961 268.407 416.391C264.222 426.858 264.583 438.215 269.148 448.488C275.926 463.738 290.33 475.079 306.201 479.672C311.759 481.28 317.693 481.795 323.101 483.853C324.151 484.827 324.441 485.731 324.888 487.044L325.061 487.565C329.473 502.495 339.496 516.116 353.352 523.666Q353.978 524.006 354.616 524.324C361.433 530.369 379.24 533.026 388.139 533.883C366.65 543.266 338.753 543.135 315.805 539.138C294.131 535.363 272.857 525.177 260.004 506.734C244.047 483.834 246.041 451.446 250.861 425.331C244.008 440.014 243.792 457.212 245.735 473.072C249.348 502.558 262.565 531.406 286.371 549.874C276.731 550.195 267.96 548.942 258.795 545.902C240.168 539.725 223.064 528.095 214.166 510.143C203.782 489.191 207.695 464.319 215.766 443.295C219.319 434.041 223.856 425.181 226.988 415.768Q224.135 419.495 221.574 423.429C207.588 445.11 195.656 473.909 202.025 499.988C204.084 508.417 208.585 515.971 210.453 524.513Z"/>
	<path fill="#62202D" d="M200.77 452.374C201.113 455.738 198.527 461.273 197.504 464.675C193.288 478.697 193.419 490.816 198.317 504.602C199.412 507.681 201.39 510.611 202.259 513.679L201.581 513.732C198.425 509.344 195.901 504.841 194.33 499.648C189.673 484.253 193.372 466.319 200.77 452.374Z"/>
	<path fill="#E8E8DC" d="M533.265 528.694C548.701 546.949 557.911 569.018 572.229 587.9C593.434 581.652 612.898 571.382 633.796 564.511C659.973 618.063 674.561 668.071 679.215 727.58C669.946 739.704 659.834 751.193 650.771 763.459C635.001 784.8 620.879 807.304 606.149 829.363C594.611 846.644 582.294 863.501 571.121 881.007C546.074 877.555 522.837 871.825 500.34 859.936C516.563 829.539 530.799 798.944 541.156 766.027C546.886 764.058 552.6 762.151 558.04 759.452C577.354 749.87 592.579 733.141 601.962 713.887C606.275 705.037 609.175 695.84 611.143 686.211C611.553 683.849 611.981 681.643 610.797 679.43C609.542 677.086 606.942 674.094 604.16 673.618C602.817 673.387 601.712 673.516 600.618 674.386C599.341 675.402 599.235 677.422 598.984 678.927L598.259 679.078C595.799 676.023 594.083 671.628 592.213 668.141C583.876 652.593 577.499 637.167 569.939 621.401C571.304 609.146 570.821 597.013 567.222 585.162Q566.704 598.857 566.365 612.558C562.741 601.478 557.956 590.988 553.508 580.239C549.266 569.99 545.712 559.476 541.654 549.158C538.958 542.303 535.775 535.618 533.265 528.694Z"/>
	<path fill="#E8E8DC" d="M523.499 146.233C528.723 147.451 534 152.379 538.142 155.642C558.755 171.883 575.185 190.64 586.73 214.372C589.951 220.992 594.91 238.002 598.583 242.224C601.634 245.733 608.059 247.208 612.081 249.415C622.211 254.972 632.124 264.186 638.599 273.74Q639.419 274.928 640.178 276.156Q640.938 277.384 641.635 278.648Q642.332 279.912 642.965 281.21Q643.598 282.507 644.166 283.834Q644.734 285.162 645.234 286.516Q645.735 287.87 646.168 289.247Q646.6 290.625 646.964 292.022Q647.327 293.419 647.62 294.833Q647.913 296.246 648.135 297.673Q648.357 299.099 648.508 300.535Q648.659 301.971 648.737 303.412Q648.816 304.854 648.823 306.297Q648.83 307.741 648.765 309.183Q648.699 310.625 648.562 312.063Q648.425 313.5 648.216 314.928Q648.008 316.357 647.728 317.773C641.254 351.022 608.145 382.288 580.909 400.658C569.338 408.462 557.463 415.937 545.058 422.354C504.635 443.265 453.447 458.819 407.55 456.949C396.926 456.516 386.688 454.643 376.284 452.617C376.061 450.733 375.919 447.902 374.377 446.624C372.947 447.838 371.977 450.422 371.082 452.073C365.623 462.143 360.582 467.342 350.406 472.633C339.506 477.274 325.706 476.999 314.273 474.83C299.777 472.081 286.469 464.359 278.17 451.982C272.689 443.807 269.875 434.192 271.836 424.397C273.885 414.167 280.838 404.918 289.436 399.187C304.697 389.014 318.686 392.128 335.379 395.577C331.835 393.358 328.027 391.503 324.331 389.55C330.665 382.308 334.76 374.683 337.089 365.309C345.798 330.261 333.043 293.041 315.055 263.097C318.267 264.094 321.534 264.935 324.905 264.189Q325.393 264.084 325.868 263.932Q326.343 263.781 326.802 263.585Q327.26 263.388 327.698 263.149Q328.135 262.909 328.548 262.629Q328.96 262.349 329.344 262.03Q329.728 261.711 330.079 261.357Q330.43 261.003 330.746 260.617Q331.062 260.231 331.339 259.816C335.678 253.269 337.221 243.757 340.348 236.459C344.014 227.905 349.281 219.846 354.066 211.875C392.673 212.264 426.852 206.883 460.737 187.576C468.263 183.288 484.821 174.172 486.865 165.533C487.304 163.676 486.999 161.853 485.969 160.245C482.701 155.147 474.73 153.626 469.223 152.403C476.533 150.77 484.516 150.764 491.997 150.09Q507.815 148.706 523.499 146.233Z"/>
	<path fill="#62202D" d="M528.06 275.534C530.646 275.382 533.154 275.305 535.652 276.107C538.954 277.168 541.517 279.323 542.979 282.481C545.916 288.823 543.92 295.702 541.702 301.889C541.568 297.527 541.345 293.219 540.9 288.877C540.358 285.941 539.039 282.092 536.577 280.182C530.495 275.466 525.638 286.542 520.943 287.368L520.404 286.488C520.388 285.251 520.41 284.06 520.756 282.862C521.845 279.089 524.876 277.346 528.06 275.534Z"/>
	<path fill="#62202D" d="M512.717 158.115C516.014 158.096 519.223 158.787 522.122 160.384C523.534 161.162 524.862 162.086 525.192 163.768C526.093 168.358 514.974 164.689 510.096 171.112C509.973 171.275 509.854 171.44 509.732 171.603C509.094 172.87 508.331 174.619 507.219 175.541C506.139 176.436 505.355 176.37 504.031 176.281C502.86 175.496 502.202 174.733 501.791 173.375C500.901 170.436 501.807 167.041 503.32 164.466C505.483 160.787 508.746 159.209 512.717 158.115Z"/>
	<path fill="#62202D" d="M567.239 293.965C569.494 295.281 571.148 296.752 572.467 299.041C576.515 306.072 575.729 315.899 573.611 323.451C570.903 333.114 564.89 340.926 556.109 345.836C539.921 354.887 520.245 352.855 503.1 348.095C502.509 347.841 502.15 347.714 501.59 347.337C500.6 346.672 500.114 345.868 499.848 344.752C500.725 344.09 500.732 344.079 501.773 344.131C505.113 344.3 508.833 345.474 512.137 346.125Q520.244 347.773 528.51 348.085Q531.989 348.197 535.45 347.836Q538.912 347.476 542.293 346.65C552.046 344.329 560.8 339.075 566.059 330.357C570.23 323.444 572.717 312.797 570.757 304.871C569.897 301.392 568.158 298.092 567.389 294.671C567.336 294.436 567.289 294.2 567.239 293.965Z"/>
	<path fill="#62202D" d="M367.128 233.63C369.69 233.357 371.933 233.244 374.487 233.742C377.158 234.263 379.954 234.748 381.557 237.105C380.921 241.057 372.762 244.665 369.933 247.807C366.769 251.319 364.48 255.721 362.163 259.815C361.481 260.939 360.771 262.345 359.713 263.154C358.914 263.764 357.784 263.999 356.821 263.687C355.313 263.198 354.194 261.607 353.562 260.227C351.489 255.703 352.353 249.59 354.225 245.15C356.812 239.013 361.185 236.003 367.128 233.63Z"/>
	<path fill="#DBA297" d="M366.404 239.952C366.65 243.341 360.734 250.42 358.725 253.173C358.271 251.484 358.273 249.776 358.72 248.08C359.776 244.075 362.952 241.806 366.404 239.952Z"/>
	<path fill="#62202D" d="M306.952 418.619C313.329 418.164 319.768 418.589 325.891 420.504C332.056 422.431 340.855 426.643 343.924 432.604L343.495 433.324C337.72 434.35 331.218 428.87 326.467 429.74C325.806 429.861 325.462 430.465 325.171 431.021C323.578 434.063 325.077 440.618 326.202 443.632C326.295 443.883 326.398 444.129 326.493 444.379C327.931 448.144 332.75 449.835 335.124 453.026C335.797 453.931 335.778 454.13 335.64 455.182C335.492 455.264 335.354 455.366 335.197 455.428C332.595 456.453 327.399 453.828 325 452.583C322.479 450.745 320.21 448.843 318.448 446.223C313.892 439.447 315.032 431.985 316.653 424.525C314.855 424.5 313.049 424.469 311.253 424.544C305 424.804 295.797 426.217 293.62 433.1C292.613 436.282 292.67 439.168 290.303 441.781L289.448 441.657C288.731 440.809 288.222 440.084 287.851 439.024C286.827 436.098 288.41 432.384 289.809 429.82C293.636 422.812 299.712 420.608 306.952 418.619Z"/>
	<path fill="#DBA297" d="M597.971 265.564C602.035 265.386 605.762 265.244 609.701 266.528C613.889 267.895 617.904 270.676 619.899 274.702C621.082 277.088 621.416 279.907 620.496 282.442C618.716 287.342 613.915 289.815 609.457 291.805C606.015 292.301 602.665 292.377 599.269 291.504C594.792 290.353 590.345 287.693 588.091 283.53C586.673 280.912 586.303 277.815 587.297 274.987C589.028 270.063 593.564 267.676 597.971 265.564Z"/>
	<path fill="#DBA297" d="M448.486 367.618C454.197 367.1 460.588 367.692 465.518 370.847C468.734 372.906 470.801 376.076 471.497 379.818C472.492 385.164 470.636 390.549 467.518 394.869C461.382 403.375 451.526 407.924 441.41 409.56C435.557 410.369 428.571 409.896 423.37 406.878C420.34 405.12 418.212 402.466 417.375 399.04C416.129 393.932 417.656 388.744 420.405 384.408C426.607 374.624 437.618 369.985 448.486 367.618Z"/>
	<path fill="#62202D" d="M548.677 175.849C549.074 176.363 549.283 176.832 549.443 177.48C550.666 182.431 547.646 185.504 545.651 189.467L546.366 190.137C550.564 190.223 552.957 183.881 555.759 181.321C555.875 184.686 553.663 188.076 552.015 190.874C554.42 191.253 556.96 191.498 558.944 193.021L558.704 193.736C556.967 194.623 555.089 194.656 553.18 194.833Q555.752 196.886 558.249 199.03C572.422 211.448 582.83 232.063 583.921 250.914C584.374 258.749 582.834 266.05 577.321 271.994C571.405 278.372 564.072 280.492 555.668 280.948C545.014 279.903 536.258 276.148 528.956 268.118C516.199 254.09 509.456 232.118 510.382 213.352C510.777 205.323 512.995 196.961 519.279 191.473C524.702 186.737 530.655 186.535 537.425 187.118C536.53 183.234 535.908 179.441 535.677 175.461C537.391 178.622 538.774 186.706 541.753 188.2C544.838 186.808 546.353 179.251 548.386 176.259C548.48 176.12 548.58 175.986 548.677 175.849Z"/>
	<path fill="#865C5A" d="M521.942 218.04Q523.22 217.918 524.503 217.9C531.55 217.858 537.936 221.73 542.743 226.63C550.45 234.486 555.168 245.586 555.018 256.633C554.934 262.854 553.179 267.904 548.718 272.288C547.297 273.181 545.772 273.846 544.065 273.757C540.628 273.578 537.193 270.121 535.089 267.669C526.945 258.174 516.143 238.283 517.491 225.374C517.873 221.72 519.108 220.231 521.942 218.04Z"/>
	<path fill="#E8E8DC" d="M529.74 194.529L530.432 194.507C540.974 194.247 549.808 199.725 557.171 206.822C569.065 218.285 579.163 237.469 579.307 254.252C579.36 260.322 577.341 266.05 572.976 270.355C567.663 275.595 561.07 276.836 553.921 276.897C552.821 276.732 552.247 276.641 551.251 276.103C551.351 274.016 557.461 267.765 558.537 264.363C561.519 254.932 558.415 241.849 553.783 233.436C549.331 225.351 541.369 216.93 532.199 214.481C525.897 212.797 521.214 214.515 515.849 217.653C516.191 213.33 516.778 208.928 518.453 204.897C520.758 199.351 524.347 196.648 529.74 194.529Z"/>
	<path fill="#62202D" d="M413.134 247.174C426.152 245.234 441.122 249.426 452.201 256.204Q453.58 257.052 454.916 257.967Q456.253 258.881 457.543 259.86Q458.833 260.838 460.074 261.878Q461.316 262.918 462.505 264.016Q463.694 265.115 464.829 266.271Q465.963 267.426 467.04 268.635Q468.117 269.844 469.134 271.104Q470.151 272.364 471.105 273.672Q472.06 274.98 472.949 276.333Q473.839 277.686 474.662 279.08Q475.485 280.475 476.24 281.908Q476.994 283.34 477.678 284.808Q478.362 286.276 478.973 287.775Q479.585 289.274 480.123 290.802Q480.661 292.329 481.124 293.88Q481.588 295.432 481.975 297.004C485.117 310.251 483.536 324.022 476.321 335.695C468.773 347.907 456.559 355.812 442.655 358.942C427.684 362.312 412.998 359.682 400.065 351.559C382.812 339.983 384.017 330.734 375.595 314.428L375.228 313.727C372.788 314.281 370.035 315.137 367.541 315.208C366.216 315.245 365.116 315.346 364.103 314.474C364.148 314.331 364.173 314.181 364.238 314.047C365.263 311.931 369.289 310.532 371.348 309.568C368.87 309.596 365.374 310.148 363.382 308.658L363.404 307.959C366.647 306.023 371.253 306.908 374.391 304.804C375.051 304.362 374.925 304.069 375.062 303.357C372.742 299.148 365.649 298.262 361.669 296.012C360.228 295.197 359.223 294.412 358.773 292.748L359.869 293.176L359.763 291.676L360.028 292.588C363.943 292.77 368.059 293.871 371.97 293.555C373.219 293.454 373.817 293.264 374.637 292.335C373.157 288.427 369.978 285.11 367.901 281.478C366.503 279.034 365.612 276.261 364.665 273.615C367.931 277.794 371.195 281.777 375.124 285.359C377.499 277.072 380.018 268.955 385.292 261.986C392.241 252.804 401.98 248.657 413.134 247.174Z"/>
	<path fill="#865C5A" d="M397.829 290.595C402.612 290.375 407.242 290.613 411.88 291.894C421.441 294.535 429.25 300.937 434.083 309.563C438.427 317.314 440.53 327.488 437.838 336.13C435.576 343.389 430.523 347.49 424.005 350.79C418.873 352.108 414.287 351.587 409.46 349.418C397.788 344.173 389.129 331.439 384.989 319.726C382.773 313.453 381.555 306.139 384.734 299.971C387.58 294.45 392.261 292.426 397.829 290.595Z"/>
	<path fill="#E8E8DC" d="M416.726 253.633C419.622 253.332 422.728 253.32 425.63 253.528C440.993 254.628 455.32 262.932 465.171 274.571C474.285 285.341 480.463 299.745 479.148 314.053C478.035 326.152 471.921 336.961 462.576 344.631C449.976 354.974 437.134 356.701 421.392 355.195Q425.043 353.98 428.674 352.706C432.08 350.765 435.165 348.387 437.633 345.318C442.827 338.857 444.368 330.402 443.363 322.323C441.986 311.248 435.729 301.051 426.965 294.242C419.105 288.135 408.387 284.641 398.424 286.107C390.452 287.28 385.639 291.52 380.926 297.627C382.68 287.633 384.724 277.281 390.623 268.792C396.973 259.652 406.062 255.571 416.726 253.633Z"/>
</svg>
