<?xml version="1.0" encoding="utf-8" ?>
<svg xmlns="http://www.w3.org/2000/svg" xmlns:xlink="http://www.w3.org/1999/xlink" width="1024" height="1024">
	<path fill="#8F3928" d="M353.02 28.397L354.237 28.4349C364.466 34.174 359.997 62.5259 363.736 68.2107C365.073 68.2908 366.118 67.9448 367.371 67.4838C372.506 65.5951 377.486 63.0689 382.561 60.9908Q397.052 55.1827 411.902 50.3646C426.64 45.6991 441.988 41.9371 457.51 41.6882C469.24 41.5001 482.679 43.7198 491.316 52.3991C495.951 57.0574 498.309 63.0705 498.239 69.6178C497.984 93.7016 474.284 118.312 458.116 134.164C462.092 136.306 476.655 147.592 479.316 147.443C482.656 145.018 478.874 140.285 480.608 137.295C480.764 137.262 480.917 137.209 481.076 137.196C482.163 137.105 483.268 137.653 484.089 138.337C488.896 142.342 490.102 151.906 490.824 157.682C498.384 162.681 504.073 170.044 511.101 175.701C522.411 184.804 536.747 190.742 545.723 202.52C554.257 213.717 555.699 228.166 553.852 241.742C550.121 269.17 531.696 297.441 512.365 316.794C503.927 325.241 494.722 332.534 485.198 339.705Q488.704 344.239 492.139 348.828C500.308 347.976 508.675 348.469 516.893 348.01C524.476 347.587 532.007 346.548 539.602 346.245C574.756 344.842 643.036 345.001 672.015 366.067C679.452 371.473 684.413 379.074 685.804 388.22C690.142 416.741 662.552 459.258 645.953 481.599C651.391 484.297 656.405 487.333 659.427 492.848C662.343 498.169 662.338 504.285 660.652 509.995C657.646 520.174 650.281 527.208 641.214 532.226C644.706 540.613 648.728 548.77 652.218 557.158Q656.569 567.674 660.138 578.48Q663.707 589.287 666.474 600.326C676.513 641.075 677.602 683.337 681.526 724.941C686.529 777.969 695.279 832.104 710.323 883.261C711.72 882.314 713.135 881.388 714.616 880.578C718.07 878.689 723.315 877.047 727.23 878.373C737.941 882.004 734.092 901.148 737.293 906.553C737.82 907.443 738.209 907.906 739.138 908.372C742.884 910.251 759.307 913.044 765.163 914.753C780.978 919.367 810.061 927.032 818.222 942.509C819.581 945.086 820.65 948.041 819.664 950.934C818.66 953.882 815.804 955.899 813.097 957.157C787.703 968.961 733.222 962.928 705.435 958.224C698 956.965 690.23 955.96 683.102 953.441C665.853 947.347 672.393 942.335 674.526 930.036C675.237 925.933 674.755 921.4 673.865 917.353C671.043 904.517 663.515 892.306 658.457 880.243Q641.344 839.275 621.746 799.436C609.921 775.901 596.969 752.963 585.109 729.444C575.84 711.064 567.248 692.316 558.449 673.706C550.903 681.322 545.022 690.97 539.125 699.874Q530.43 713.085 521.522 726.153L443.904 841.251C428.891 864.467 415.034 888.359 399.873 911.465C392.367 922.906 394.851 920.76 397.293 933.189C398.243 938.023 398.787 944.446 395.777 948.644C388.684 958.539 332.515 966.534 318.81 968.386C304.141 970.367 267.794 972.463 256.355 963.219C254.636 961.83 253.424 959.915 253.322 957.663C253.115 953.08 256.942 947.669 259.88 944.333C274.599 927.619 314.237 913.186 336.094 911.752C336.282 906.085 336.386 900.439 337.386 894.843C338.158 890.517 339.212 885.153 343.183 882.603C346.586 880.417 350.218 881.162 353.964 881.851C357.888 874.001 360.754 865.204 363.975 857.018L382.587 809.595L406.183 749.691C413.001 732.677 420.169 715.734 425.966 698.336C431.115 682.881 434.315 666.848 438.363 651.087C442.836 633.668 448.098 616.489 452.408 599.017C420.981 588.425 364.82 573.473 343.083 548.5C337.279 541.833 335.188 533.81 335.867 525.118C338.669 489.225 401.155 410.065 426.631 385.004C432.654 379.08 440.366 375.645 446.694 370.139L447.308 369.6C446.01 366.409 444.407 363.38 442.829 360.322C433.987 362.67 424.195 364.607 416.077 368.961C410.237 372.094 405.853 376.298 399.599 378.99C374.802 389.664 346.666 396.981 319.762 390.349C313.008 388.684 306.634 385.893 300.193 383.319C305.55 406.384 318.447 428.241 343.418 432.821C348.567 433.766 358.042 433.621 361.772 437.355C361.857 443.906 354.98 451.59 350.664 456.065C328.553 478.987 300.027 492.257 268.046 492.726C248.636 493.01 228.838 488.079 214.624 474.139C202.445 462.193 196.817 445.306 196.686 428.47C196.494 403.657 207.313 378.353 223.634 359.918C228.638 354.265 234.536 349.65 239.671 344.199C242.554 341.14 243.34 337.3 246.381 334.244C228.707 320.83 213.219 306.04 199.543 288.511C185.836 270.942 172.174 249.217 175.246 226.086C175.782 222.049 174.515 218.017 175.099 214.189C175.456 211.844 176.887 210.885 178.647 209.528C187.214 175.784 202.985 147.371 227.867 122.882C234.121 116.727 240.918 111.132 247.506 105.342C244.702 102.602 239.194 98.08 239.179 93.873C239.177 93.2829 239.277 92.3018 239.777 91.8925C240.655 91.1741 242 90.9152 243.085 90.6904C247.378 89.801 251.807 89.7223 256.121 88.93C264.561 87.3799 272.785 85.0584 281.336 84.0958C286.651 83.4976 292.146 83.3696 297.495 83.3837C302.838 83.3978 308.139 85.2815 313.512 85.4153C315.783 85.4719 316.297 84.6969 317.815 83.1816C315.351 75.9129 314.423 69.1526 317.155 61.736C322.615 46.9137 339.215 34.7571 353.02 28.397ZM438.447 131.888C407.675 158.981 379.29 180.108 338.01 187.813C325.846 190.083 313.429 190.929 301.183 192.669C295.744 202.333 290.482 212.132 286.442 222.482C305.365 248.974 311.879 278.162 314.648 309.928C316.514 311.277 319.028 313.067 319.59 315.439L319.192 316.066C313.577 317.239 307.518 311.998 302.335 310.403C291.253 306.992 278.067 311.475 271.644 321.149C267.998 326.641 266.215 333.784 267.715 340.284C269.322 347.249 274.394 352.62 280.377 356.203C289.581 361.718 302.143 364.134 312.573 361.369C317.855 359.968 322.256 357.573 326.867 354.694C328.581 353.625 330.521 352.114 332.383 351.358C333.553 350.883 334.357 351.132 335.462 351.652C335.522 351.68 335.565 351.734 335.617 351.775C336.085 353.742 336.529 354.763 338.292 355.854C342.949 358.737 349.345 359.442 354.66 360.444C380.359 365.286 406.419 364.879 431.783 358.293C474.032 347.323 508.979 319.342 530.927 281.908C541.26 264.285 550.537 241.398 545.195 220.684C543.385 213.666 539.87 206.44 534.893 201.119C526.105 191.723 513.436 187.722 503.609 179.696C488.399 167.274 480.714 153.603 462.606 143.105C454.899 138.637 446.735 135.114 438.447 131.888ZM448.788 454.5C437.274 466.702 426.777 479.629 416.593 492.951C410.321 501.156 404.423 510.109 397.296 517.583C411.14 526.99 422.71 538.529 438.133 545.754C442.882 548.075 447.639 550.682 452.544 552.642C460.923 536.067 465.096 526.33 482.92 518.555C477.121 502.096 467.934 486.36 459.222 471.308C455.979 465.705 452.898 459.526 448.788 454.5ZM486.09 587.277Q465.11 656.128 440.406 723.732C434.4 739.916 426.978 755.531 420.956 771.658C423.407 772.97 425.809 773.921 428.424 774.835L429.821 775.778L431.053 775.874C433.945 773.704 435.576 765.107 437.117 761.525Q451.595 727.479 464.421 692.778Q477.247 658.076 488.393 622.799C492.829 609.191 499.039 595.306 501.316 581.158C496.278 584.485 491.998 586.053 486.09 587.277ZM502.168 524.949Q503.135 528.759 504.183 532.547L505.121 534.82C505.23 534.965 505.331 535.115 505.447 535.254C506.138 536.077 506.87 536.574 507.948 536.623C513.666 536.884 521.736 533.178 527.225 531.323C561.492 519.743 600.478 503.01 628.079 479.209C626.033 475.36 623.956 472.021 620.896 468.886C583.486 492.119 544.775 513.012 502.168 524.949ZM740.291 931.978C739.024 934.088 737.58 934.432 735.378 935.122C733.271 934.776 731.169 934.425 729.051 934.154C724.504 936.615 720.634 939.482 717.12 943.296C743.616 947.11 770.689 951.764 797.525 949.274C800.973 948.954 805.213 948.793 808.455 947.515C810.064 946.88 810.695 946.231 811.424 944.69C811.388 943.144 810.531 942.349 809.595 941.224L806.703 938.843C791.871 942.423 779.293 941.553 764.486 938.171L763.512 939.003L763.442 938.475C759.886 936.167 745.236 933.232 740.291 931.978ZM579.228 404.074C580.052 408.113 606.041 439.258 610.34 443.855C611.284 444.018 611.133 444.213 611.789 443.65C613.577 442.113 614.039 438.463 614.585 436.239C617.127 426.194 619.669 416.164 622.891 406.309C608.591 404.376 593.649 403.355 579.228 404.074ZM339.294 953.37C334.866 953.747 330.475 954.496 326.084 955.17C307.295 957.116 279.882 961.376 263.221 951.349C261.754 953.693 260.538 956.168 259.281 958.628C289.853 970.985 360.924 958.36 391.866 947.486C392.29 945.034 392.951 942.06 392.19 939.654L391.217 939.379C374.479 947.255 356.934 948.914 339.294 953.37ZM363.675 924.954C356.177 929.706 348.066 932.903 339.816 936.065C340.644 937.111 341.035 937.452 341.252 938.748C339.538 940.662 336.843 939.608 336.48 942.736C337.803 943.848 340.037 944.132 340.948 945.433C339.879 946.677 338.001 947.201 336.491 947.839C337.013 948.138 337.204 948.266 337.702 948.497C343.282 951.087 383.891 938.943 392.029 935.723C391.311 932.131 390.817 928.532 390.347 924.9C381.54 925.932 372.49 925.802 363.675 924.954ZM755.35 918.929C755.218 919.005 755.09 919.088 754.954 919.156C751.232 921.029 746.954 921.761 745.232 926.31C745.155 926.514 745.094 926.723 745.025 926.929L744.219 926.845L744.423 927.485C755.798 932.469 789.112 939.261 800.836 935.628L801.144 935.25L800.955 934.961C797.918 935.439 795.444 935.731 792.371 935.255L791.648 935.031C790.837 935.167 790.529 935.151 789.723 934.866C788.769 934.529 788.917 934.298 788.53 933.438C788.875 931.431 789.577 930.346 790.761 928.709C786.395 927.003 781.96 924.923 777.408 923.83L776.614 924.469C776.178 923.705 775.418 923.477 774.667 923.044C772.913 923.041 772.524 923.391 771.046 924.255C771.446 923.499 771.683 922.804 771.948 921.995C771.765 921.844 771.599 921.67 771.4 921.541C768.934 919.944 758.22 916.892 755.394 917.718L755.35 918.929ZM345.872 884.263C342.005 894.398 340.714 904.023 340.444 914.83C342.88 915.168 345.336 915.665 347.794 915.389C348.675 915.119 349.638 914.987 350.543 914.803L354.141 911.806C354.581 906.763 361.995 895.292 363.994 889.965C362.8 887.701 360.403 888.449 359.115 886.334C354.783 885.296 350.269 884.981 345.872 884.263ZM359.278 914.844C360.734 916.742 362.568 919.814 364.519 921.066C371.347 919.192 380.963 919.412 387.982 920.301C390.608 915.244 394.054 910.921 396.265 905.612C386.776 904.358 377.017 903.562 367.473 902.749C365.126 907.045 361.851 910.701 359.278 914.844ZM641.136 487.75L640.481 488.308C639.564 489.4 638.648 490.487 637.78 491.619C642.835 494.403 644.755 496.102 646.405 501.829C646.535 502.281 646.655 502.735 646.775 503.189C645.418 504.974 644.128 506.709 642.489 508.253C640.172 509.623 637.912 510.799 635.43 511.849C634.498 512.133 634.535 511.961 633.942 512.831C635.295 518.157 638.054 523.459 639.887 528.702C642.968 526.716 645.368 524.477 647.571 521.569C652.074 515.627 657.001 506.417 655.741 498.764C655.174 495.319 653.253 491.671 650.256 489.747C648.49 488.613 643.943 485.822 642.019 486.261L641.136 487.75ZM282.096 937.594C280.873 938.242 279.383 938.866 278.295 939.701C279.252 940.878 279.814 941.329 280.06 942.848C279.904 943.07 279.742 943.289 279.59 943.515C278.799 944.693 278.384 945.273 278.671 946.674C280.378 947.524 281.997 948.342 283.549 949.456L283.441 950.529L283.764 950.422C283.223 951.275 282.166 951.252 281.206 951.488C288.954 951.213 296.723 951.243 304.476 951.034C305.773 951.02 307.064 950.868 308.356 950.752L312.091 950.305C311.05 950.023 310.744 949.563 310.091 948.735C309.815 947.394 309.643 946.8 310.401 945.53C311.187 944.214 312.472 943.969 313.827 943.614L312.457 942.251C308.308 940.66 302.722 940.044 298.299 939.657Q290.22 938.445 282.096 937.594ZM193.623 236.923C194.112 238.315 194.91 239.905 194.789 241.397L194.221 242.223C192.952 242.187 191.861 241.988 190.626 241.724L189.608 242.259C188.503 246.133 188.518 248.403 186.056 251.78L185.573 251.892L186.02 253.579C187.394 256.43 188.688 259.394 190.316 262.107C190.86 263.094 191.367 264.275 192.033 265.172C192.994 266.763 194.173 269.492 195.631 270.568L196.552 269.33C200.103 268.229 201.905 270.404 205.19 270.54C205.432 270.55 205.674 270.546 205.915 270.548L205.751 269.273C205.006 268.949 204.519 268.608 203.91 268.073C203.461 265.401 205.47 263.554 205.189 261.152C205.107 260.446 204.948 260.542 204.34 259.988C203.067 260.066 201.903 260.307 200.791 259.555C198.19 255.906 197.81 251.303 197.925 246.939L198.128 247.157C198.325 245.986 198.373 246.483 198.138 245.543C197.885 244.528 197.818 243.623 197.735 242.58C196.638 241.552 196.176 240.356 195.575 239.014C195.138 238.255 194.245 237.552 193.623 236.923ZM676.436 902.022C677.748 901.44 679.109 901.059 680.525 901.647C680.838 901.777 681.128 901.955 681.429 902.109C681.37 902.357 681.306 902.604 681.25 902.853C681.007 903.954 681.071 903.516 681.086 904.693C686.173 910.337 694.511 911.897 701.813 912.273C703.76 912.373 705.632 912.365 707.393 911.438C708.175 910.008 708.208 908.592 708.346 907.006C707.737 904.476 706.482 901.924 705.525 899.496C700.557 899.503 679.277 898.609 676.505 900.786L676.436 902.022ZM676.436 902.022C678.174 907.836 680.15 913.875 685.952 916.857C693.92 920.953 706.528 918.528 715.261 917.872L712.916 914.037L712.592 914.358C711.658 915.265 710.92 915.853 709.712 916.398L708.63 916.25C707.747 915.063 707.788 914.189 707.766 912.781L708.249 912.028C709.251 912.208 710.247 912.362 711.257 912.489C711.516 911.393 710.857 910.707 710.271 909.797C709.66 908.848 708.996 907.929 708.346 907.006C708.208 908.592 708.175 910.008 707.393 911.438C705.632 912.365 703.76 912.373 701.813 912.273C694.511 911.897 686.173 910.337 681.086 904.693C681.071 903.516 681.007 903.954 681.25 902.853C681.306 902.604 681.37 902.357 681.429 902.109C681.128 901.955 680.838 901.777 680.525 901.647C679.109 901.059 677.748 901.44 676.436 902.022ZM312.457 942.251L313.827 943.614C312.472 943.969 311.187 944.214 310.401 945.53C309.643 946.8 309.815 947.394 310.091 948.735C310.744 949.563 311.05 950.023 312.091 950.305L308.356 950.752C307.064 950.868 305.773 951.02 304.476 951.034C296.723 951.243 288.954 951.213 281.206 951.488C279.135 951.57 277.27 951.445 275.223 951.119L272.383 951.107L272.063 951.497C272.263 951.668 272.437 951.876 272.664 952.009C274.087 952.848 277.277 953.067 278.909 953.275C296.939 955.572 316.174 953.239 334.138 950.745C327.268 946.735 320.138 944.232 312.457 942.251ZM714.64 887.44C713.109 889.161 712.335 890.163 712.5 892.581C712.774 896.612 714.749 900.512 715.562 904.461L717.302 908.969C718.476 911.039 719.52 913.319 721.322 914.91C722.008 914.984 722.279 915.069 722.925 914.783C724.33 912.5 727.306 911.613 728.412 909.245C729.415 907.098 727.46 903.517 726.677 901.435C725.503 900.623 724.567 899.883 723.696 898.737C721.336 895.632 720.682 896.545 717.514 895.076C716.219 891.401 719.892 889.249 719.69 885.954C717.743 885.665 716.379 886.614 714.64 887.44ZM714.64 887.44C716.379 886.614 717.743 885.665 719.69 885.954C719.892 889.249 716.219 891.401 717.514 895.076C720.682 896.545 721.336 895.632 723.696 898.737C724.567 899.883 725.503 900.623 726.677 901.435C727.46 903.517 729.415 907.098 728.412 909.245C727.306 911.613 724.33 912.5 722.925 914.783C725.695 913.9 728.345 912.319 730.941 911.013C731.521 906.626 731.826 902.064 731.623 897.641C731.423 893.303 730.565 887.684 727.051 884.743C725.211 883.203 722.802 882.768 720.46 883.027C717.81 883.319 716.194 885.523 714.64 887.44ZM307.349 929.583C306.117 930.026 305.312 930.033 304.587 931.175C305.871 931.687 307.109 932.133 308.448 932.48C307.239 933.789 306.66 934.16 304.86 934.25C302.893 934.348 300.861 934.407 298.925 934.024C298.446 932.674 298.146 931.253 296.968 930.345C295.574 930.201 294.507 931.105 293.369 931.804Q289.13 933.745 285.01 935.926Q293.469 936.091 301.889 936.914C307.954 937.475 314.74 938.966 320.781 937.999C324.3 937.436 327.572 935.931 330.835 934.553C323.933 931.171 314.828 931.252 307.349 929.583ZM727.668 917.652C726.25 917.58 723.817 919.513 722.525 920.278C727.92 922.116 733.794 925.213 739.268 926.4C740.983 925.633 741.697 923.7 742.627 922.074C744.103 919.495 746.175 917.789 748.38 915.85C744.575 914.954 739.729 913.364 735.856 914.359L734.74 913.753C732.225 914.621 729.932 916.271 727.668 917.652ZM195.575 239.014C196.176 240.356 196.638 241.552 197.735 242.58C197.818 243.623 197.885 244.528 198.138 245.543C198.373 246.483 198.325 245.986 198.128 247.157L197.925 246.939C197.81 251.303 198.19 255.906 200.791 259.555C201.903 260.307 203.067 260.066 204.34 259.988C204.948 260.542 205.107 260.446 205.189 261.152C205.47 263.554 203.461 265.401 203.91 268.073C204.519 268.608 205.006 268.949 205.751 269.273L205.915 270.548L206.112 271.82L207.293 264.161L209.921 252.061C204.945 247.957 200.309 243.395 195.575 239.014ZM181.487 234.934C181.818 240.792 183.374 246.461 185.573 251.892L186.056 251.78C188.518 248.403 188.503 246.133 189.608 242.259L190.626 241.724C191.861 241.988 192.952 242.187 194.221 242.223L194.789 241.397C194.91 239.905 194.112 238.315 193.623 236.923L192.363 235.404C192.01 236.181 192.1 236.169 191.491 236.777C188.26 240.008 186.194 234.744 183.245 234.715L182.447 235.834L181.487 234.934ZM278.295 939.701C275.872 941.189 273.537 942.682 271.27 944.404C269.813 945.493 268.807 946.275 267.931 947.888C267.842 949.18 267.785 949.219 268.518 950.272C269.847 950.904 270.947 951.001 272.383 951.107L275.223 951.119C277.27 951.445 279.135 951.57 281.206 951.488C282.166 951.252 283.223 951.275 283.764 950.422L283.441 950.529L283.549 949.456C281.997 948.342 280.378 947.524 278.671 946.674C278.384 945.273 278.799 944.693 279.59 943.515C279.742 943.289 279.904 943.07 280.06 942.848C279.814 941.329 279.252 940.878 278.295 939.701ZM250.791 338.334L247.386 342.563C251.241 346.677 255.008 350.727 259.547 354.098C260.826 353.615 261.162 353.349 262.491 353.953C263.36 354.347 264.238 355.071 265.024 355.62C266.262 355.6 266.247 355.616 267.181 354.806C261.307 349.745 256.161 343.915 250.791 338.334ZM323.322 941.556C327.769 943.529 332.262 945.422 336.491 947.839C338.001 947.201 339.879 946.677 340.948 945.433C340.037 944.132 337.803 943.848 336.48 942.736C336.843 939.608 339.538 940.662 341.252 938.748C341.035 937.452 340.644 937.111 339.816 936.065C334.327 937.915 328.853 939.838 323.322 941.556ZM316.371 922.291C311.33 924.21 306.298 926.251 301.203 928.016C301.496 928.652 301.43 928.868 302.086 929.172C303.248 929.712 303.951 929.991 304.587 931.175C305.312 930.033 306.117 930.026 307.349 929.583L307.307 929.401C309.359 928.485 313.484 928.902 315.883 928.813C314.814 928.207 312.772 928.345 311.524 928.349L311.621 928.73C313.729 925.521 320.733 929.143 325.575 925.05C322.49 924.176 319.413 923.307 316.371 922.291ZM181.594 224.385C181.377 227.897 181.459 231.417 181.487 234.934L182.447 235.834L183.245 234.715C186.194 234.744 188.26 240.008 191.491 236.777C192.1 236.169 192.01 236.181 192.363 235.404C189 231.169 186.194 227.389 181.594 224.385ZM195.631 270.568C197.459 273.468 199.809 278.492 203.049 279.768C204.196 279.453 204.564 279.305 205.123 278.118C205.94 276.382 205.938 273.731 206.112 271.82L205.915 270.548C205.674 270.546 205.432 270.55 205.19 270.54C201.905 270.404 200.103 268.229 196.552 269.33L195.631 270.568ZM453.205 450.185C454.303 449.8 454.847 450.206 455.836 450.708C457.882 451.746 458.707 452.205 461.102 451.507Q461.645 451.345 462.181 451.164L464.007 452.029C464.026 451.415 464.062 451.709 463.87 451.058C463.389 449.433 463.247 448.26 463.382 446.571C462.213 446.556 460.824 446.617 459.669 446.401C458.034 446.095 457.29 444.927 456.384 443.672C455.042 445.325 453.139 447.174 452.588 449.252L453.205 450.185ZM456.384 443.672C457.29 444.927 458.034 446.095 459.669 446.401C460.824 446.617 462.213 446.556 463.382 446.571C464.213 443.744 465.096 440.726 463.921 437.883C463.086 437.396 463.279 437.284 462.455 437.458C459.71 438.037 457.885 441.522 456.384 443.672ZM469.579 468.845L464.769 471.498L470.159 480.269C471.072 479.826 471.262 479.557 471.872 478.781C472.312 476.984 471.413 475.171 470.819 473.481C471.244 472.213 471.79 471.059 472.378 469.864L472.013 469.177L469.579 468.845ZM440.37 389.107C441.616 389.176 442.407 389.205 443.612 388.792C444.391 387.132 443.942 385.475 443.779 383.674C442.482 382.65 441.49 381.704 439.673 381.991C438.904 382.112 438.321 382.329 437.955 383.025C437.471 383.944 437.332 385.514 437.842 386.49C438.349 387.463 439.559 388.374 440.37 389.107ZM453.205 450.185C454.816 452.807 456.056 455.601 459.155 456.637C460.68 456.364 461.675 456.056 462.568 454.705C463.119 453.872 463.571 452.925 464.007 452.029L462.181 451.164Q461.645 451.345 461.102 451.507C458.707 452.205 457.882 451.746 455.836 450.708C454.847 450.206 454.303 449.8 453.205 450.185ZM336.122 47.3188C341.653 43.6319 347.265 40.3342 353.007 37.0071C351.817 36.2617 350.809 35.5433 349.323 35.8231C347.044 36.2521 346.865 38.7972 345.125 39.8967C340.971 42.52 339.918 40.4703 336.854 45.7302C336.556 46.2423 336.343 46.7706 336.122 47.3188ZM259.547 354.098C264.457 357.777 269.403 360.433 275.205 362.433C272.786 359.621 270.351 356.801 267.181 354.806C266.247 355.616 266.262 355.6 265.024 355.62C264.238 355.071 263.36 354.347 262.491 353.953C261.162 353.349 260.826 353.615 259.547 354.098ZM791.648 935.031L792.371 935.255C794.523 935.242 797.226 935.458 799.149 934.436L798.759 933.614C797.258 932.689 795.598 931.37 793.803 931.317C792.494 932.386 792.278 933.483 791.648 935.031Z"/>
	<path fill="#F6E5CC" fill-opacity="0.0078431377" d="M791.648 935.031C792.278 933.483 792.494 932.386 793.803 931.317C795.598 931.37 797.258 932.689 798.759 933.614L799.149 934.436C797.226 935.458 794.523 935.242 792.371 935.255L791.648 935.031Z"/>
	<path fill="#A73623" d="M678.573 937.548C678.944 936.35 679.264 935.171 679.569 933.957C679.803 933.025 680.054 932.664 680.68 931.963L681.791 932.215C682.422 934.792 682.806 937.27 683.095 939.901C681.219 939.405 680.074 938.773 678.573 937.548Z"/>
	<path fill="#F6E5CC" d="M347.794 915.389C348.675 915.119 349.638 914.987 350.543 914.803C354.238 916.387 357.299 917.439 359.815 920.712L359.443 921.095C354.883 920.146 351.506 918.11 347.794 915.389Z"/>
	<path fill="#2196C8" fill-opacity="0.98039216" d="M259.547 354.098C260.826 353.615 261.162 353.349 262.491 353.953C263.36 354.347 264.238 355.071 265.024 355.62C266.262 355.6 266.247 355.616 267.181 354.806C270.351 356.801 272.786 359.621 275.205 362.433C269.403 360.433 264.457 357.777 259.547 354.098Z"/>
	<path fill="#F6E5CC" d="M632.679 493.56C633.232 493.562 633.812 493.736 634.355 493.844L634.782 494.877C634.086 498.118 631.606 500.635 629.493 503.071L626.514 495.299L632.679 493.56Z"/>
	<path fill="#ADD7E6" d="M364.519 921.066C371.347 919.192 380.963 919.412 387.982 920.301C386.469 922.083 382.227 922.016 379.893 922.207C375.742 922.547 368.546 923.45 364.703 921.646L364.519 921.066Z"/>
	<path fill="#ADD7E6" fill-opacity="0.9254902" d="M469.579 468.845L472.013 469.177L472.378 469.864C471.79 471.059 471.244 472.213 470.819 473.481C471.413 475.171 472.312 476.984 471.872 478.781C471.262 479.557 471.072 479.826 470.159 480.269L464.769 471.498L469.579 468.845Z"/>
	<path fill="#ADD7E6" fill-opacity="0.14901961" d="M453.205 450.185L452.588 449.252C453.139 447.174 455.042 445.325 456.384 443.672C457.29 444.927 458.034 446.095 459.669 446.401C460.824 446.617 462.213 446.556 463.382 446.571C463.247 448.26 463.389 449.433 463.87 451.058C464.062 451.709 464.026 451.415 464.007 452.029L462.181 451.164Q461.645 451.345 461.102 451.507C458.707 452.205 457.882 451.746 455.836 450.708C454.847 450.206 454.303 449.8 453.205 450.185Z"/>
	<path fill="#F6E5CC" d="M638.788 496.323C639.85 497.08 640.854 497.831 641.495 499.014C642.078 500.092 642.308 501.315 641.828 502.473C640.606 505.427 636.98 506.441 634.27 507.477C633.563 507.498 632.912 507.33 632.22 507.2L631.612 506.264C631.949 503.015 636.603 498.802 638.788 496.323Z"/>
	<path fill="#F6E5CC" d="M359.115 886.334C361.873 886.695 364.514 887.209 367.219 887.853C364.511 895.623 361.045 906.711 354.141 911.806C354.581 906.763 361.995 895.292 363.994 889.965C362.8 887.701 360.403 888.449 359.115 886.334Z"/>
	<path fill="#F6E5CC" fill-opacity="0.89411765" d="M316.371 922.291C319.413 923.307 322.49 924.176 325.575 925.05C320.733 929.143 313.729 925.521 311.621 928.73L311.524 928.349C312.772 928.345 314.814 928.207 315.883 928.813C313.484 928.902 309.359 928.485 307.307 929.401L307.349 929.583C306.117 930.026 305.312 930.033 304.587 931.175C303.951 929.991 303.248 929.712 302.086 929.172C301.43 928.868 301.496 928.652 301.203 928.016C306.298 926.251 311.33 924.21 316.371 922.291Z"/>
	<path fill="#2196C8" fill-opacity="0.78431374" d="M323.322 941.556C328.853 939.838 334.327 937.915 339.816 936.065C340.644 937.111 341.035 937.452 341.252 938.748C339.538 940.662 336.843 939.608 336.48 942.736C337.803 943.848 340.037 944.132 340.948 945.433C339.879 946.677 338.001 947.201 336.491 947.839C332.262 945.422 327.769 943.529 323.322 941.556Z"/>
	<path fill="#F6E5CC" d="M325.575 925.05C331.196 926.645 336.818 928.187 342.239 930.393C339.46 931.637 336.007 933.709 332.896 933.473C328.228 929.973 321.484 929.355 315.883 928.813C314.814 928.207 312.772 928.345 311.524 928.349L311.621 928.73C313.729 925.521 320.733 929.143 325.575 925.05Z"/>
	<path fill="#2196C8" fill-opacity="0.82352942" d="M250.791 338.334C256.161 343.915 261.307 349.745 267.181 354.806C266.247 355.616 266.262 355.6 265.024 355.62C264.238 355.071 263.36 354.347 262.491 353.953C261.162 353.349 260.826 353.615 259.547 354.098C255.008 350.727 251.241 346.677 247.386 342.563L250.791 338.334Z"/>
	<path fill="#F6E5CC" fill-opacity="0.34509805" d="M278.295 939.701C279.252 940.878 279.814 941.329 280.06 942.848C279.904 943.07 279.742 943.289 279.59 943.515C278.799 944.693 278.384 945.273 278.671 946.674C280.378 947.524 281.997 948.342 283.549 949.456L283.441 950.529L283.764 950.422C283.223 951.275 282.166 951.252 281.206 951.488C279.135 951.57 277.27 951.445 275.223 951.119L272.383 951.107C270.947 951.001 269.847 950.904 268.518 950.272C267.785 949.219 267.842 949.18 267.931 947.888C268.807 946.275 269.813 945.493 271.27 944.404C273.537 942.682 275.872 941.189 278.295 939.701ZM271.27 944.404C269.813 945.493 268.807 946.275 267.931 947.888C267.842 949.18 267.785 949.219 268.518 950.272C269.847 950.904 270.947 951.001 272.383 951.107L275.223 951.119L277.947 950.906L277.998 950.282C277.004 947.848 273.397 945.915 271.27 944.404Z"/>
	<path fill="#F6E5CC" fill-opacity="0.13333334" d="M271.27 944.404C273.397 945.915 277.004 947.848 277.998 950.282L277.947 950.906L275.223 951.119L272.383 951.107C270.947 951.001 269.847 950.904 268.518 950.272C267.785 949.219 267.842 949.18 267.931 947.888C268.807 946.275 269.813 945.493 271.27 944.404Z"/>
	<path fill="#ADD7E6" fill-opacity="0.33333334" d="M181.487 234.934L182.447 235.834L183.245 234.715C186.194 234.744 188.26 240.008 191.491 236.777C192.1 236.169 192.01 236.181 192.363 235.404L193.623 236.923C194.112 238.315 194.91 239.905 194.789 241.397L194.221 242.223C192.952 242.187 191.861 241.988 190.626 241.724L189.608 242.259C188.503 246.133 188.518 248.403 186.056 251.78L185.573 251.892C183.374 246.461 181.818 240.792 181.487 234.934Z"/>
	<path fill="#2196C8" d="M500.486 351.489C519.766 351.822 533.491 360.413 546.767 374.059C548.717 376.064 550.669 378.093 552.389 380.301C543.081 373.592 523.644 356.761 513.318 353.978C511.596 353.514 509.794 353.726 508.041 353.869C507.096 354.644 507.444 354.217 506.918 355.08L505.88 355.59L500.486 351.489Z"/>
	<path fill="#F6E5CC" d="M328.433 918.124C338.412 919.447 347.92 921.143 357.491 924.403C354.719 925.718 351.781 926.652 348.889 927.665C343.388 928.948 326.827 922.239 320.218 920.516L328.433 918.124Z"/>
	<path fill="#ADD7E6" fill-opacity="0.71764708" d="M195.575 239.014C200.309 243.395 204.945 247.957 209.921 252.061L207.293 264.161L206.112 271.82L205.915 270.548L205.751 269.273C205.006 268.949 204.519 268.608 203.91 268.073C203.461 265.401 205.47 263.554 205.189 261.152C205.107 260.446 204.948 260.542 204.34 259.988C203.067 260.066 201.903 260.307 200.791 259.555C198.19 255.906 197.81 251.303 197.925 246.939L198.128 247.157C198.325 245.986 198.373 246.483 198.138 245.543C197.885 244.528 197.818 243.623 197.735 242.58C196.638 241.552 196.176 240.356 195.575 239.014ZM197.735 242.58C197.818 243.623 197.885 244.528 198.138 245.543C198.373 246.483 198.325 245.986 198.128 247.157L197.925 246.939C197.81 251.303 198.19 255.906 200.791 259.555C201.903 260.307 203.067 260.066 204.34 259.988C204.948 260.542 205.107 260.446 205.189 261.152C205.47 263.554 203.461 265.401 203.91 268.073C204.519 268.608 205.006 268.949 205.751 269.273L205.915 270.548L206.112 271.82L207.293 264.161C204.868 261.411 206.994 257.025 206.466 253.759C206.244 252.383 205.945 251.535 204.871 250.7C203.457 252.79 204.194 256.002 203.037 258.438L202.181 258.594C201.69 258.224 201.625 258.207 201.161 257.681C198.475 254.631 199.779 250.686 199.955 247.092C200.055 245.058 198.979 244.016 197.735 242.58Z"/>
	<path fill="#ADD7E6" fill-opacity="0.64705884" d="M197.735 242.58C198.979 244.016 200.055 245.058 199.955 247.092C199.779 250.686 198.475 254.631 201.161 257.681C201.625 258.207 201.69 258.224 202.181 258.594L203.037 258.438C204.194 256.002 203.457 252.79 204.871 250.7C205.945 251.535 206.244 252.383 206.466 253.759C206.994 257.025 204.868 261.411 207.293 264.161L206.112 271.82L205.915 270.548L205.751 269.273C205.006 268.949 204.519 268.608 203.91 268.073C203.461 265.401 205.47 263.554 205.189 261.152C205.107 260.446 204.948 260.542 204.34 259.988C203.067 260.066 201.903 260.307 200.791 259.555C198.19 255.906 197.81 251.303 197.925 246.939L198.128 247.157C198.325 245.986 198.373 246.483 198.138 245.543C197.885 244.528 197.818 243.623 197.735 242.58Z"/>
	<path fill="#F6E5CC" d="M727.668 917.652C729.932 916.271 732.225 914.621 734.74 913.753L735.856 914.359C739.729 913.364 744.575 914.954 748.38 915.85C746.175 917.789 744.103 919.495 742.627 922.074C741.697 923.7 740.983 925.633 739.268 926.4C733.794 925.213 727.92 922.116 722.525 920.278C723.817 919.513 726.25 917.58 727.668 917.652ZM727.668 917.652C729.101 920.446 733.659 921.801 736.444 922.953C737.076 920.996 738.118 918.846 739.219 917.109L742.207 916.63C739.91 916.081 737.911 915.592 735.856 914.359L734.74 913.753C732.225 914.621 729.932 916.271 727.668 917.652ZM742.207 916.63L739.219 917.109C738.118 918.846 737.076 920.996 736.444 922.953L737.963 922.832C740.032 921.353 742.128 919.791 743.639 917.728L743.484 916.853L742.207 916.63Z"/>
	<path fill="#F6E5CC" fill-opacity="0.25098041" d="M742.207 916.63L743.484 916.853L743.639 917.728C742.128 919.791 740.032 921.353 737.963 922.832L736.444 922.953C737.076 920.996 738.118 918.846 739.219 917.109L742.207 916.63Z"/>
	<path fill="#F6E5CC" fill-opacity="0.18431373" d="M727.668 917.652C729.932 916.271 732.225 914.621 734.74 913.753L735.856 914.359C737.911 915.592 739.91 916.081 742.207 916.63L739.219 917.109C738.118 918.846 737.076 920.996 736.444 922.953C733.659 921.801 729.101 920.446 727.668 917.652Z"/>
	<path fill="#F6E5CC" fill-opacity="0.98823529" d="M307.349 929.583C314.828 931.252 323.933 931.171 330.835 934.553C327.572 935.931 324.3 937.436 320.781 937.999C314.74 938.966 307.954 937.475 301.889 936.914Q293.469 936.091 285.01 935.926Q289.13 933.745 293.369 931.804C294.507 931.105 295.574 930.201 296.968 930.345C298.146 931.253 298.446 932.674 298.925 934.024C300.861 934.407 302.893 934.348 304.86 934.25C306.66 934.16 307.239 933.789 308.448 932.48C307.109 932.133 305.871 931.687 304.587 931.175C305.312 930.033 306.117 930.026 307.349 929.583ZM293.369 931.804C293.306 931.972 293.263 932.149 293.18 932.309C292.641 933.35 291.624 933.991 290.712 934.686L290.598 934.977C292.929 935.801 296.526 934.56 298.925 934.024C298.446 932.674 298.146 931.253 296.968 930.345C295.574 930.201 294.507 931.105 293.369 931.804Z"/>
	<path fill="#F6E5CC" fill-opacity="0.87843138" d="M293.369 931.804C294.507 931.105 295.574 930.201 296.968 930.345C298.146 931.253 298.446 932.674 298.925 934.024C296.526 934.56 292.929 935.801 290.598 934.977L290.712 934.686C291.624 933.991 292.641 933.35 293.18 932.309C293.263 932.149 293.306 931.972 293.369 931.804Z"/>
	<path fill="#F6E5CC" fill-opacity="0.74901962" d="M714.64 887.44C716.194 885.523 717.81 883.319 720.46 883.027C722.802 882.768 725.211 883.203 727.051 884.743C730.565 887.684 731.423 893.303 731.623 897.641C731.826 902.064 731.521 906.626 730.941 911.013C728.345 912.319 725.695 913.9 722.925 914.783C724.33 912.5 727.306 911.613 728.412 909.245C729.415 907.098 727.46 903.517 726.677 901.435C725.503 900.623 724.567 899.883 723.696 898.737C721.336 895.632 720.682 896.545 717.514 895.076C716.219 891.401 719.892 889.249 719.69 885.954C717.743 885.665 716.379 886.614 714.64 887.44Z"/>
	<path fill="#F6E5CC" fill-opacity="0.3019608" d="M714.64 887.44C716.379 886.614 717.743 885.665 719.69 885.954C719.892 889.249 716.219 891.401 717.514 895.076C720.682 896.545 721.336 895.632 723.696 898.737C724.567 899.883 725.503 900.623 726.677 901.435C727.46 903.517 729.415 907.098 728.412 909.245C727.306 911.613 724.33 912.5 722.925 914.783C722.279 915.069 722.008 914.984 721.322 914.91C719.52 913.319 718.476 911.039 717.302 908.969L715.562 904.461C714.749 900.512 712.774 896.612 712.5 892.581C712.335 890.163 713.109 889.161 714.64 887.44ZM715.562 904.461L717.302 908.969C718.015 908.386 719.014 907.688 719.543 906.94C720.404 905.723 720.247 904.617 720.059 903.252C719.288 902.181 719.36 902.159 718.081 901.886C716.658 902.524 716.34 903.18 715.562 904.461ZM722.907 907.977C722.161 909.048 721.523 909.457 721.673 910.804C722.916 911.288 724.028 911.247 725.335 911.245C726.217 910.546 726.349 910.674 726.633 909.518C725.573 908.346 724.399 908.246 722.907 907.977Z"/>
	<path fill="#F6E5CC" fill-opacity="0.25098041" d="M722.907 907.977C724.399 908.246 725.573 908.346 726.633 909.518C726.349 910.674 726.217 910.546 725.335 911.245C724.028 911.247 722.916 911.288 721.673 910.804C721.523 909.457 722.161 909.048 722.907 907.977Z"/>
	<path fill="#F6E5CC" fill-opacity="0.16862746" d="M715.562 904.461C716.34 903.18 716.658 902.524 718.081 901.886C719.36 902.159 719.288 902.181 720.059 903.252C720.247 904.617 720.404 905.723 719.543 906.94C719.014 907.688 718.015 908.386 717.302 908.969L715.562 904.461Z"/>
	<path fill="#F6E5CC" d="M312.457 942.251C320.138 944.232 327.268 946.735 334.138 950.745C316.174 953.239 296.939 955.572 278.909 953.275C277.277 953.067 274.087 952.848 272.664 952.009C272.437 951.876 272.263 951.668 272.063 951.497L272.383 951.107L275.223 951.119C277.27 951.445 279.135 951.57 281.206 951.488C288.954 951.213 296.723 951.243 304.476 951.034C305.773 951.02 307.064 950.868 308.356 950.752L312.091 950.305C311.05 950.023 310.744 949.563 310.091 948.735C309.815 947.394 309.643 946.8 310.401 945.53C311.187 944.214 312.472 943.969 313.827 943.614L312.457 942.251ZM313.827 943.614C312.472 943.969 311.187 944.214 310.401 945.53C309.643 946.8 309.815 947.394 310.091 948.735C310.744 949.563 311.05 950.023 312.091 950.305C314.541 949.843 318.864 949.525 320.521 947.577L320.26 946.607C318.424 945.009 316.091 944.405 313.827 943.614Z"/>
	<path fill="#F6E5CC" fill-opacity="0.38039216" d="M313.827 943.614C316.091 944.405 318.424 945.009 320.26 946.607L320.521 947.577C318.864 949.525 314.541 949.843 312.091 950.305C311.05 950.023 310.744 949.563 310.091 948.735C309.815 947.394 309.643 946.8 310.401 945.53C311.187 944.214 312.472 943.969 313.827 943.614Z"/>
	<path fill="#ADD7E6" fill-opacity="0.96078432" d="M676.436 902.022C677.748 901.44 679.109 901.059 680.525 901.647C680.838 901.777 681.128 901.955 681.429 902.109C681.37 902.357 681.306 902.604 681.25 902.853C681.007 903.954 681.071 903.516 681.086 904.693C686.173 910.337 694.511 911.897 701.813 912.273C703.76 912.373 705.632 912.365 707.393 911.438C708.175 910.008 708.208 908.592 708.346 907.006C708.996 907.929 709.66 908.848 710.271 909.797C710.857 910.707 711.516 911.393 711.257 912.489C710.247 912.362 709.251 912.208 708.249 912.028L707.766 912.781C707.788 914.189 707.747 915.063 708.63 916.25L709.712 916.398C710.92 915.853 711.658 915.265 712.592 914.358L712.916 914.037L715.261 917.872C706.528 918.528 693.92 920.953 685.952 916.857C680.15 913.875 678.174 907.836 676.436 902.022Z"/>
	<path fill="#F6E5CC" fill-opacity="0.98823529" d="M676.436 902.022L676.505 900.786C679.277 898.609 700.557 899.503 705.525 899.496C706.482 901.924 707.737 904.476 708.346 907.006C708.208 908.592 708.175 910.008 707.393 911.438C705.632 912.365 703.76 912.373 701.813 912.273C694.511 911.897 686.173 910.337 681.086 904.693C681.071 903.516 681.007 903.954 681.25 902.853C681.306 902.604 681.37 902.357 681.429 902.109C681.128 901.955 680.838 901.777 680.525 901.647C679.109 901.059 677.748 901.44 676.436 902.022Z"/>
	<path fill="#ADD7E6" fill-opacity="0.58823532" d="M193.623 236.923C194.245 237.552 195.138 238.255 195.575 239.014C196.176 240.356 196.638 241.552 197.735 242.58C197.818 243.623 197.885 244.528 198.138 245.543C198.373 246.483 198.325 245.986 198.128 247.157L197.925 246.939C197.81 251.303 198.19 255.906 200.791 259.555C201.903 260.307 203.067 260.066 204.34 259.988C204.948 260.542 205.107 260.446 205.189 261.152C205.47 263.554 203.461 265.401 203.91 268.073C204.519 268.608 205.006 268.949 205.751 269.273L205.915 270.548C205.674 270.546 205.432 270.55 205.19 270.54C201.905 270.404 200.103 268.229 196.552 269.33L195.631 270.568C194.173 269.492 192.994 266.763 192.033 265.172C191.367 264.275 190.86 263.094 190.316 262.107C188.688 259.394 187.394 256.43 186.02 253.579L185.573 251.892L186.056 251.78C188.518 248.403 188.503 246.133 189.608 242.259L190.626 241.724C191.861 241.988 192.952 242.187 194.221 242.223L194.789 241.397C194.91 239.905 194.112 238.315 193.623 236.923ZM190.316 262.107C190.86 263.094 191.367 264.275 192.033 265.172C195.158 261.9 195.995 265.602 199.138 264.663C199.984 261.719 196.542 259.347 195.869 256.388C195.836 256.242 195.81 256.095 195.781 255.949C194.601 255.363 194.568 255.18 193.321 255.526C191.961 257.798 192.597 260.456 190.316 262.107ZM186.02 253.579C187.394 256.43 188.688 259.394 190.316 262.107C192.597 260.456 191.961 257.798 193.321 255.526C194.568 255.18 194.601 255.363 195.781 255.949L195.776 255.778L196.059 255.832L195.394 254.65C192.972 253.874 191.613 252.384 189.837 250.661L189.01 250.832C188.196 251.819 187.392 252.539 186.383 253.306L186.02 253.579Z"/>
	<path fill="#ADD7E6" fill-opacity="0.63529414" d="M186.02 253.579L186.383 253.306C187.392 252.539 188.196 251.819 189.01 250.832L189.837 250.661C191.613 252.384 192.972 253.874 195.394 254.65L196.059 255.832L195.776 255.778L195.781 255.949C194.601 255.363 194.568 255.18 193.321 255.526C191.961 257.798 192.597 260.456 190.316 262.107C188.688 259.394 187.394 256.43 186.02 253.579Z"/>
	<path fill="#ADD7E6" fill-opacity="0.70588237" d="M190.316 262.107C192.597 260.456 191.961 257.798 193.321 255.526C194.568 255.18 194.601 255.363 195.781 255.949C195.81 256.095 195.836 256.242 195.869 256.388C196.542 259.347 199.984 261.719 199.138 264.663C195.995 265.602 195.158 261.9 192.033 265.172C191.367 264.275 190.86 263.094 190.316 262.107Z"/>
	<path fill="#F6E5CC" fill-opacity="0.68627453" d="M282.096 937.594Q290.22 938.445 298.299 939.657C302.722 940.044 308.308 940.66 312.457 942.251L313.827 943.614C312.472 943.969 311.187 944.214 310.401 945.53C309.643 946.8 309.815 947.394 310.091 948.735C310.744 949.563 311.05 950.023 312.091 950.305L308.356 950.752C307.064 950.868 305.773 951.02 304.476 951.034C296.723 951.243 288.954 951.213 281.206 951.488C282.166 951.252 283.223 951.275 283.764 950.422L283.441 950.529L283.549 949.456C281.997 948.342 280.378 947.524 278.671 946.674C278.384 945.273 278.799 944.693 279.59 943.515C279.742 943.289 279.904 943.07 280.06 942.848C279.814 941.329 279.252 940.878 278.295 939.701C279.383 938.866 280.873 938.242 282.096 937.594ZM298.299 939.657C298.111 939.805 297.93 939.963 297.735 940.103C295.096 942.012 290.396 939.751 287.375 942.244L287.316 943.119C288.999 942.979 290.116 941.909 291.761 942.15L292.11 942.68L290.016 943.498L289.686 944.316L290.453 944.826C293.89 943.7 301.216 941.464 304.651 943.111C304.796 943.181 304.925 943.28 305.062 943.364L306.479 943.908L306.657 947.316C306.712 948.537 306.919 949.232 307.516 950.294L308.356 950.752L312.091 950.305C311.05 950.023 310.744 949.563 310.091 948.735C309.815 947.394 309.643 946.8 310.401 945.53C311.187 944.214 312.472 943.969 313.827 943.614L312.457 942.251C308.308 940.66 302.722 940.044 298.299 939.657ZM305.062 943.364L304.536 944.282C301.029 944.086 295.127 942.962 292.198 945.007L291.623 946.236C292.559 947.592 294.779 947.882 296.364 948.169C299.628 948.762 301.566 949.313 304.476 951.034C305.773 951.02 307.064 950.868 308.356 950.752L307.516 950.294C306.919 949.232 306.712 948.537 306.657 947.316L306.479 943.908L305.062 943.364Z"/>
	<path fill="#F6E5CC" fill-opacity="0.74509805" d="M305.062 943.364L306.479 943.908L306.657 947.316C306.712 948.537 306.919 949.232 307.516 950.294L308.356 950.752C307.064 950.868 305.773 951.02 304.476 951.034C301.566 949.313 299.628 948.762 296.364 948.169C294.779 947.882 292.559 947.592 291.623 946.236L292.198 945.007C295.127 942.962 301.029 944.086 304.536 944.282L305.062 943.364Z"/>
	<path fill="#F6E5CC" fill-opacity="0.66274512" d="M298.299 939.657C302.722 940.044 308.308 940.66 312.457 942.251L313.827 943.614C312.472 943.969 311.187 944.214 310.401 945.53C309.643 946.8 309.815 947.394 310.091 948.735C310.744 949.563 311.05 950.023 312.091 950.305L308.356 950.752L307.516 950.294C306.919 949.232 306.712 948.537 306.657 947.316L306.479 943.908L305.062 943.364C304.925 943.28 304.796 943.181 304.651 943.111C301.216 941.464 293.89 943.7 290.453 944.826L289.686 944.316L290.016 943.498L292.11 942.68L291.761 942.15C290.116 941.909 288.999 942.979 287.316 943.119L287.375 942.244C290.396 939.751 295.096 942.012 297.735 940.103C297.93 939.963 298.111 939.805 298.299 939.657Z"/>
	<path fill="#2196C8" d="M496.795 353.777C499.599 354.611 501.713 356.615 503.837 358.556C510.797 364.916 523.266 377.379 523.435 387.237C523.481 389.915 522.453 392.371 520.558 394.257C515.911 398.883 507.396 399.742 501.123 399.762C484.788 399.814 468.809 394.176 457.085 382.64C455.244 380.489 453.634 378.115 451.963 375.831C464.569 386.18 479.154 395.371 495.803 396.765C502.714 397.344 509.721 396.29 515.084 391.534C517.102 389.744 518.688 387.513 518.744 384.728C518.937 375.044 503.088 360.304 496.795 353.777Z"/>
	<path fill="#F6E5CC" d="M641.136 487.75L642.019 486.261C643.943 485.822 648.49 488.613 650.256 489.747C653.253 491.671 655.174 495.319 655.741 498.764C657.001 506.417 652.074 515.627 647.571 521.569C645.368 524.477 642.968 526.716 639.887 528.702C638.054 523.459 635.295 518.157 633.942 512.831C634.535 511.961 634.498 512.133 635.43 511.849C637.912 510.799 640.172 509.623 642.489 508.253C644.128 506.709 645.418 504.974 646.775 503.189C646.655 502.735 646.535 502.281 646.405 501.829C644.755 496.102 642.835 494.403 637.78 491.619C638.648 490.487 639.564 489.4 640.481 488.308L641.136 487.75ZM637.78 491.619C642.835 494.403 644.755 496.102 646.405 501.829C646.535 502.281 646.655 502.735 646.775 503.189C645.418 504.974 644.128 506.709 642.489 508.253C644.028 508.113 644.56 507.88 645.934 508.653C646.757 511.858 645.996 515.023 646.711 518.271C646.885 519.061 646.926 519.801 646.934 520.607C647.058 520.41 647.187 520.216 647.307 520.017C648.182 518.565 653.641 504.531 653.941 502.898C654.214 501.412 653.902 499.88 653.575 498.429C653.094 496.794 652.317 495.291 651.587 493.757C649.785 492.672 648.042 491.655 646.107 490.818C645.225 491.392 644.434 491.935 643.454 492.333C642.507 492.038 641.348 491.812 640.611 491.12C640.109 490.647 640.444 489.005 640.481 488.308C639.564 489.4 638.648 490.487 637.78 491.619ZM642.489 508.253C640.172 509.623 637.912 510.799 635.43 511.849C636.116 516.993 638.847 522.6 641.256 527.179L646.934 520.607C646.926 519.801 646.885 519.061 646.711 518.271C645.996 515.023 646.757 511.858 645.934 508.653C644.56 507.88 644.028 508.113 642.489 508.253ZM641.136 487.75L640.481 488.308C640.444 489.005 640.109 490.647 640.611 491.12C641.348 491.812 642.507 492.038 643.454 492.333C644.434 491.935 645.225 491.392 646.107 490.818C644.48 489.107 643.548 488.118 641.136 487.75Z"/>
	<path fill="#F6E5CC" fill-opacity="0.76078433" d="M642.489 508.253C644.028 508.113 644.56 507.88 645.934 508.653C646.757 511.858 645.996 515.023 646.711 518.271C646.885 519.061 646.926 519.801 646.934 520.607L641.256 527.179C638.847 522.6 636.116 516.993 635.43 511.849C637.912 510.799 640.172 509.623 642.489 508.253Z"/>
	<path fill="#F6E5CC" fill-opacity="0.80000001" d="M637.78 491.619C638.648 490.487 639.564 489.4 640.481 488.308C640.444 489.005 640.109 490.647 640.611 491.12C641.348 491.812 642.507 492.038 643.454 492.333C644.434 491.935 645.225 491.392 646.107 490.818C648.042 491.655 649.785 492.672 651.587 493.757C652.317 495.291 653.094 496.794 653.575 498.429C653.902 499.88 654.214 501.412 653.941 502.898C653.641 504.531 648.182 518.565 647.307 520.017C647.187 520.216 647.058 520.41 646.934 520.607C646.926 519.801 646.885 519.061 646.711 518.271C645.996 515.023 646.757 511.858 645.934 508.653C644.56 507.88 644.028 508.113 642.489 508.253C644.128 506.709 645.418 504.974 646.775 503.189C646.655 502.735 646.535 502.281 646.405 501.829C644.755 496.102 642.835 494.403 637.78 491.619ZM646.107 490.818C645.225 491.392 644.434 491.935 643.454 492.333C645.611 493.224 647.135 496.024 648.713 497.816C648.733 498.731 648.626 499.424 648.389 500.308C650.1 499.611 651.819 499.004 653.575 498.429C653.094 496.794 652.317 495.291 651.587 493.757C649.785 492.672 648.042 491.655 646.107 490.818ZM648.389 500.308C648.393 500.454 648.392 500.601 648.402 500.747C648.517 502.421 648.989 502.727 650.205 503.804C651.397 503.94 651.512 503.806 652.584 503.225C653.712 501.471 653.511 500.483 653.575 498.429C651.819 499.004 650.1 499.611 648.389 500.308Z"/>
	<path fill="#F6E5CC" fill-opacity="0.67450982" d="M648.389 500.308C650.1 499.611 651.819 499.004 653.575 498.429C653.511 500.483 653.712 501.471 652.584 503.225C651.512 503.806 651.397 503.94 650.205 503.804C648.989 502.727 648.517 502.421 648.402 500.747C648.392 500.601 648.393 500.454 648.389 500.308Z"/>
	<path fill="#F6E5CC" fill-opacity="0.73333335" d="M646.107 490.818C648.042 491.655 649.785 492.672 651.587 493.757C652.317 495.291 653.094 496.794 653.575 498.429C651.819 499.004 650.1 499.611 648.389 500.308C648.626 499.424 648.733 498.731 648.713 497.816C647.135 496.024 645.611 493.224 643.454 492.333C644.434 491.935 645.225 491.392 646.107 490.818Z"/>
	<path fill="#2196C8" d="M443.779 383.674C447.752 387.502 451.1 392.406 454.29 396.902C464.136 410.78 475.106 427.401 475.414 445C475.533 451.815 473.599 458.667 468.784 463.682C467.136 465.397 465.037 466.848 463.084 468.199C461.303 465.779 459.475 463.389 457.912 460.819C462.211 459.483 465.416 458.061 467.607 453.827C471.539 446.228 469.846 435.675 467.175 427.957C463.439 417.161 456.645 407.377 449.136 398.869C446.3 395.655 442.88 392.552 440.37 389.107C441.616 389.176 442.407 389.205 443.612 388.792C444.391 387.132 443.942 385.475 443.779 383.674Z"/>
	<path fill="#F6E5CC" fill-opacity="0.82352942" d="M345.872 884.263C350.269 884.981 354.783 885.296 359.115 886.334C360.403 888.449 362.8 887.701 363.994 889.965C361.995 895.292 354.581 906.763 354.141 911.806L350.543 914.803C349.638 914.987 348.675 915.119 347.794 915.389C345.336 915.665 342.88 915.168 340.444 914.83C340.714 904.023 342.005 894.398 345.872 884.263Z"/>
	<path fill="#F6E5CC" d="M755.35 918.929L755.394 917.718C758.22 916.892 768.934 919.944 771.4 921.541C771.599 921.67 771.765 921.844 771.948 921.995C771.683 922.804 771.446 923.499 771.046 924.255C772.524 923.391 772.913 923.041 774.667 923.044C775.418 923.477 776.178 923.705 776.614 924.469L777.408 923.83C781.96 924.923 786.395 927.003 790.761 928.709C789.577 930.346 788.875 931.431 788.53 933.438C788.917 934.298 788.769 934.529 789.723 934.866C790.529 935.151 790.837 935.167 791.648 935.031L792.371 935.255C795.444 935.731 797.918 935.439 800.955 934.961L801.144 935.25L800.836 935.628C789.112 939.261 755.798 932.469 744.423 927.485L744.219 926.845L745.025 926.929C745.094 926.723 745.155 926.514 745.232 926.31C746.954 921.761 751.232 921.029 754.954 919.156C755.09 919.088 755.218 919.005 755.35 918.929ZM771.046 924.255L770.615 925.133C769.321 926.503 768.049 928.034 766.576 929.212L766.757 930.528C769.038 932.945 770.62 931.499 773.42 931.986C774.304 932.139 774.479 932.935 774.933 933.644C777.063 934.775 780.652 934.933 783.044 934.849C784.805 934.788 786.147 934.578 787.412 933.271C787.709 931.803 787.518 931.472 787.013 930.036C784.884 928.227 781.707 927.282 779.144 926.193L776.614 924.469C776.178 923.705 775.418 923.477 774.667 923.044C772.913 923.041 772.524 923.391 771.046 924.255ZM755.35 918.929C755.218 919.005 755.09 919.088 754.954 919.156C751.232 921.029 746.954 921.761 745.232 926.31C745.155 926.514 745.094 926.723 745.025 926.929C748.756 926.874 752.319 927.292 756.012 927.788C757.985 925.198 760.592 924.04 763.26 922.268L763.292 921.549C760.819 920.128 758.088 919.648 755.35 918.929Z"/>
	<path fill="#8F3928" d="M766.576 929.212C764.852 930.05 763.844 930.711 761.889 930.443L761.414 929.504C761.572 928.772 761.582 928.586 761.899 927.833C762.858 925.554 765.723 923.852 767.83 922.837C769.525 922.901 769.735 923.255 771.046 924.255L770.615 925.133C769.321 926.503 768.049 928.034 766.576 929.212Z"/>
	<path fill="#F6E5CC" fill-opacity="0.42352942" d="M771.046 924.255C772.524 923.391 772.913 923.041 774.667 923.044C775.418 923.477 776.178 923.705 776.614 924.469L779.144 926.193C781.707 927.282 784.884 928.227 787.013 930.036C787.518 931.472 787.709 931.803 787.412 933.271C786.147 934.578 784.805 934.788 783.044 934.849C780.652 934.933 777.063 934.775 774.933 933.644C774.479 932.935 774.304 932.139 773.42 931.986C770.62 931.499 769.038 932.945 766.757 930.528L766.576 929.212C768.049 928.034 769.321 926.503 770.615 925.133L771.046 924.255ZM771.046 924.255L770.615 925.133C770.454 926.776 770.065 927.453 771.071 928.812C773.654 929.503 775.43 928.495 777.665 927.188C778.184 926.885 778.658 926.546 779.144 926.193L776.614 924.469C776.178 923.705 775.418 923.477 774.667 923.044C772.913 923.041 772.524 923.391 771.046 924.255Z"/>
	<path fill="#2196C8" d="M214.332 255.442C219.395 258.312 224.039 261.815 228.732 265.238C224.637 277.872 221.739 290.179 220.796 303.484C216.351 298.674 212.46 293.689 208.806 288.252C210.774 277.36 211.519 266.168 214.332 255.442Z"/>
	<path fill="#DA9C48" d="M332.695 357.947C337.746 359.247 342.263 362.044 347.213 363.652C359.899 367.772 373.625 367.952 386.834 368.092C380.754 370.701 374.339 372.264 367.95 373.906C350.01 377.366 331.225 374.902 314.433 367.963C321.033 365.155 326.792 362.069 332.695 357.947Z"/>
	<path fill="#F6E5CC" d="M678.573 937.548C680.074 938.773 681.219 939.405 683.095 939.901C686.031 940.328 689.105 941.437 691.985 942.192Q700.941 944.629 710.035 946.485Q727.529 949.932 745.271 951.699Q763.013 953.465 780.843 953.534C786.928 953.573 792.972 953.552 799.002 952.615C802.433 952.082 805.82 951.028 809.245 950.565C810.498 950.396 811.266 950.4 812.347 951.094L811.912 951.892C797.804 960.268 754.975 957.524 738.2 956.056C725.389 954.934 684.552 952.437 677.097 943.549C676.99 941.444 677.886 939.506 678.573 937.548Z"/>
	<path fill="#2196C8" fill-opacity="0.98823529" d="M363.675 924.954C372.49 925.802 381.54 925.932 390.347 924.9C390.817 928.532 391.311 932.131 392.029 935.723C383.891 938.943 343.282 951.087 337.702 948.497C337.204 948.266 337.013 948.138 336.491 947.839C338.001 947.201 339.879 946.677 340.948 945.433C340.037 944.132 337.803 943.848 336.48 942.736C336.843 939.608 339.538 940.662 341.252 938.748C341.035 937.452 340.644 937.111 339.816 936.065C348.066 932.903 356.177 929.706 363.675 924.954Z"/>
	<path fill="#2196C8" d="M681.045 919.746C686.719 921.323 692.397 922.645 698.305 922.886C704.525 923.14 710.799 922.596 716.969 923.614C725.075 924.952 732.809 928.708 740.291 931.978C739.024 934.088 737.58 934.432 735.378 935.122C733.271 934.776 731.169 934.425 729.051 934.154C724.504 936.615 720.634 939.482 717.12 943.296C705.983 940.935 693.094 940.863 683.137 934.677Q682.214 927.194 681.045 919.746Z"/>
	<path fill="#DA9C48" d="M405.099 367.705L413.506 367.419C403.169 373.505 392.331 377.946 380.783 381.154C353.154 388.832 323.576 388.839 298.074 374.443C294.914 372.524 291.922 370.171 288.912 368.015C295.956 368.47 303.407 368.163 310.299 369.74C314.05 370.598 317.404 373.072 321.024 374.393C332.218 378.482 344.672 379.601 356.5 378.943C373.432 378.001 388.147 368.92 405.099 367.705Z"/>
	<path fill="#F6E5CC" fill-opacity="0.97647059" d="M339.294 953.37C356.934 948.914 374.479 947.255 391.217 939.379L392.19 939.654C392.951 942.06 392.29 945.034 391.866 947.486C360.924 958.36 289.853 970.985 259.281 958.628C260.538 956.168 261.754 953.693 263.221 951.349C279.882 961.376 307.295 957.116 326.084 955.17C330.475 954.496 334.866 953.747 339.294 953.37Z"/>
	<path fill="#F6E5CC" d="M326.084 955.17C330.475 954.496 334.866 953.747 339.294 953.37C336.429 955.519 331.496 956.533 327.98 955.875C327.247 955.738 326.711 955.536 326.084 955.17Z"/>
	<path fill="#2196C8" d="M677.696 782.146C679.092 781.943 679.129 781.842 680.311 782.577C682.86 787.014 682.75 793.285 683.197 798.309C669.135 800.647 657.185 801.241 642.987 801.61C639.632 801.697 634.939 802.348 631.733 801.489C630.831 801.248 630.613 800.426 630.135 799.682C627.566 794.524 624.806 789.496 622.002 784.464C640.576 788.139 659.324 785.514 677.696 782.146Z"/>
	<path fill="#F6E5CC" d="M740.291 931.978C745.236 933.232 759.886 936.167 763.442 938.475L763.512 939.003L764.486 938.171C779.293 941.553 791.871 942.423 806.703 938.843L809.595 941.224C810.531 942.349 811.388 943.144 811.424 944.69C810.695 946.231 810.064 946.88 808.455 947.515C805.213 948.793 800.973 948.954 797.525 949.274C770.689 951.764 743.616 947.11 717.12 943.296C720.634 939.482 724.504 936.615 729.051 934.154C731.169 934.425 733.271 934.776 735.378 935.122C737.58 934.432 739.024 934.088 740.291 931.978ZM763.512 939.003C765.24 939.828 767.058 940.398 767.944 942.205L767.774 943.302C766.55 944.041 765.272 944.117 763.901 943.791C762.64 943.491 761.696 942.951 760.636 942.23C761.019 942.842 761.457 943.639 762.093 944.027C763.415 944.833 766.541 944.609 768.133 944.875C783.379 947.418 788.985 948.219 804.618 944.571C807.225 943.963 808.21 943.488 809.595 941.224L806.703 938.843C791.871 942.423 779.293 941.553 764.486 938.171L763.512 939.003ZM740.291 931.978C739.024 934.088 737.58 934.432 735.378 935.122C739.158 935.827 743.541 936.03 747.133 937.31C753.723 939.66 752.209 941.25 760.636 942.23C761.696 942.951 762.64 943.491 763.901 943.791C765.272 944.117 766.55 944.041 767.774 943.302L767.944 942.205C767.058 940.398 765.24 939.828 763.512 939.003L763.442 938.475C759.886 936.167 745.236 933.232 740.291 931.978Z"/>
	<defs>
		<linearGradient id="gradient_0" gradientUnits="userSpaceOnUse" x1="788.65942" y1="946.06757" x2="788.79889" y2="940.57587">
			<stop offset="0" stop-color="#F6E6CE" stop-opacity="0.86274511"/>
			<stop offset="1" stop-color="#F7E6CD" stop-opacity="0.93333334"/>
		</linearGradient>
	</defs>
	<path fill="url(#gradient_0)" d="M763.512 939.003L764.486 938.171C779.293 941.553 791.871 942.423 806.703 938.843L809.595 941.224C808.21 943.488 807.225 943.963 804.618 944.571C788.985 948.219 783.379 947.418 768.133 944.875C766.541 944.609 763.415 944.833 762.093 944.027C761.457 943.639 761.019 942.842 760.636 942.23C761.696 942.951 762.64 943.491 763.901 943.791C765.272 944.117 766.55 944.041 767.774 943.302L767.944 942.205C767.058 940.398 765.24 939.828 763.512 939.003Z"/>
	<path fill="#2196C8" d="M406.021 772.084C427.716 780.381 447.744 786.976 471.31 787.403C468.607 791.689 465.751 795.888 462.958 800.116C462.133 800.814 461.233 801.485 460.199 801.835C451.715 804.707 425.393 796.903 416.458 793.646C410.998 791.655 405.736 789.109 400.47 786.662C402.152 781.756 404.16 776.927 406.021 772.084Z"/>
	<path fill="#DA9C48" d="M413.144 130.138C414.382 129.865 413.796 129.806 414.908 130.256L414.592 131.293C410.71 134.829 405.295 137.022 400.599 139.271Q395.986 141.439 391.294 143.43Q386.602 145.421 381.838 147.233Q377.074 149.044 372.245 150.675Q367.416 152.305 362.528 153.75Q357.641 155.196 352.702 156.456Q347.763 157.715 342.78 158.787Q337.797 159.858 332.777 160.74Q327.757 161.622 322.707 162.313L321.249 162.401L320.708 161.759C321.268 157.082 332.004 143.634 335.02 139.449C361.721 139.443 387.108 135.733 413.144 130.138Z"/>
	<path fill="#DA9C48" d="M283.5 229.285C284.676 230.267 285.809 231.356 286.754 232.564C297.811 246.691 306.004 278.302 307.87 295.959C308.203 299.111 308.816 302.598 308.368 305.732C306.802 306.037 305.166 305.447 303.62 305.089C299.177 304.178 294.646 303.834 290.137 303.396C287.414 282.978 286.717 262.882 278.04 243.767C279.664 238.878 281.638 234.089 283.5 229.285Z"/>
	<path fill="#DA9C48" d="M276.125 248.307C280.999 252.738 284.806 295.242 285.644 304.029C281.32 305.853 277.162 307.692 273.49 310.667C265.023 317.527 262.941 326.758 261.855 337.115C261.823 338.241 261.926 338.292 261.298 339.316C258.912 338.842 256.846 335.314 255.423 333.414C255.399 306.908 263.659 271.701 276.125 248.307Z"/>
	<path fill="#2196C8" d="M228.732 265.238C231.97 267.208 235.21 269.142 238.269 271.384C244.496 274.837 250.709 278.174 257.352 280.777C253.607 296.81 249.944 312.463 249.425 329.01C243.366 323.795 236.894 319.244 231.163 313.624C227.609 310.344 224.213 306.904 220.796 303.484C221.739 290.179 224.637 277.872 228.732 265.238Z"/>
	<path fill="#F6E5CC" d="M228.732 265.238C231.97 267.208 235.21 269.142 238.269 271.384Q236.006 282.584 234.33 293.886C233.385 300.448 232.901 307.214 231.163 313.624C227.609 310.344 224.213 306.904 220.796 303.484C221.739 290.179 224.637 277.872 228.732 265.238Z"/>
	<path fill="#ADD7E6" d="M502.168 524.949C544.775 513.012 583.486 492.119 620.896 468.886C623.956 472.021 626.033 475.36 628.079 479.209C600.478 503.01 561.492 519.743 527.225 531.323C521.736 533.178 513.666 536.884 507.948 536.623C506.87 536.574 506.138 536.077 505.447 535.254C505.331 535.115 505.23 534.965 505.121 534.82L504.183 532.547Q503.135 528.759 502.168 524.949ZM504.183 532.547L505.121 534.82C507.321 534.778 509.511 534.832 511.606 534.055C512.248 533.817 512.272 533.368 512.552 532.795C511.142 532.406 509.393 532.217 508.492 530.975C508.322 529.335 509.526 527.399 510.213 525.91L509.492 525.028C508.477 525.099 507.368 525.111 506.408 525.472C505.241 525.911 505.233 526.17 504.718 527.237C504.877 528.739 505.157 530.282 504.558 531.719C504.442 531.999 504.308 532.271 504.183 532.547Z"/>
	<path fill="#ADD7E6" fill-opacity="0.8392157" d="M504.183 532.547C504.308 532.271 504.442 531.999 504.558 531.719C505.157 530.282 504.877 528.739 504.718 527.237C505.233 526.17 505.241 525.911 506.408 525.472C507.368 525.111 508.477 525.099 509.492 525.028L510.213 525.91C509.526 527.399 508.322 529.335 508.492 530.975C509.393 532.217 511.142 532.406 512.552 532.795C512.272 533.368 512.248 533.817 511.606 534.055C509.511 534.832 507.321 534.778 505.121 534.82L504.183 532.547Z"/>
	<path fill="#DA9C48" d="M281.083 368.736C286.249 371.599 290.54 375.544 294.849 379.535C296.632 393.575 299.13 406.356 307.881 417.917C319.213 432.889 334.49 436.189 352.114 438.715L343.453 442.296C332.795 445.831 321.45 447.282 310.388 444.782C299.635 442.352 290.27 436.092 284.407 426.692C273.602 409.369 276.681 387.549 281.083 368.736Z"/>
	<path fill="#F6E5CC" d="M479.926 340.9C482.637 341.597 486.046 347.539 487.52 349.826C493.627 359.298 502.85 366.431 509.394 375.649C511.629 378.796 515.012 383.85 513.937 387.863C513.575 389.216 512.698 390.295 511.5 390.99C504.026 395.323 492.13 392.312 484.326 390.345C483.486 390.14 482.686 389.879 481.873 389.589C465.254 383.654 454.596 374.849 446.998 358.85Q463.628 350.18 479.926 340.9Z"/>
	<path fill="#DA9C48" d="M265.477 365.406C269.544 366.772 273.732 367.786 277.879 368.879C272.331 384.759 269.789 403.718 275.284 419.965C279.112 431.285 286.882 440.84 297.742 446.035C315.507 454.531 333.234 449.436 350.728 443.236C348.032 445.613 345.292 447.742 342.286 449.715C340.128 450.779 337.958 451.842 335.717 452.72C318.73 459.371 297.266 459.852 280.479 452.3Q279.478 451.862 278.501 451.374Q277.524 450.886 276.572 450.35Q275.62 449.814 274.696 449.232Q273.773 448.649 272.879 448.02Q271.986 447.392 271.125 446.719Q270.264 446.047 269.438 445.332Q268.612 444.617 267.823 443.862Q267.034 443.107 266.283 442.314Q265.533 441.52 264.823 440.69Q264.113 439.86 263.446 438.995Q262.778 438.13 262.155 437.233Q261.532 436.336 260.954 435.409Q260.377 434.482 259.846 433.527Q259.316 432.572 258.834 431.592Q258.352 430.612 257.92 429.609Q257.488 428.605 257.106 427.582C249.369 406.931 256.861 384.461 265.477 365.406Z"/>
	<path fill="#2196C8" d="M575.93 653.886C579.978 656.81 588.834 680.982 591.642 687.435C605.505 719.293 620.892 750.3 635.97 781.582L622.962 781.474C622.225 781.287 622.321 781.356 621.609 780.975C614.949 777.407 569.812 681.133 566.556 668.926C566.279 667.886 566.112 667.398 565.356 666.639C565.144 666.426 564.924 666.221 564.707 666.012C564.979 662.341 573.066 656.358 575.93 653.886Z"/>
	<path fill="#2196C8" d="M481.158 582.753C481.55 583.098 481.728 583.531 481.98 583.983C482.002 594.891 473.091 612.811 469.516 623.459C463.17 642.356 457.457 661.468 450.906 680.299Q434.959 725.802 416.469 770.333C414.035 769.521 411.116 769.12 409.222 767.334C408.808 765.718 409.193 765.037 409.657 763.461L410.157 763.413C410.815 765.014 411.212 766.135 412.63 767.183C414.053 767.48 414.234 767.521 415.582 767.007C416.157 765.742 415.995 765.691 415.585 764.338C414.226 762.652 412.312 762.147 410.352 761.389C418.007 739.89 426.874 718.915 433.962 697.175C444.227 665.69 451.64 633.238 458.344 600.831L464.514 601.66C472.822 596.861 476.438 590.752 481.158 582.753Z"/>
	<path fill="#2196C8" d="M633.504 530.469L634.342 530.826C637.542 534.949 638.617 541.918 639.98 546.925C598.33 565.89 559.747 569.21 514.757 571.971C512.919 572.037 511.265 572.009 509.445 571.732C507.707 569.27 507.392 556.9 507.065 553.342C550.838 554.561 593.402 548.587 633.504 530.469Z"/>
	<path fill="#2196C8" d="M353.007 37.0071C355.552 48.4457 355.46 61.0876 356.097 72.7551C342.215 80.662 329.131 88.8191 316.201 98.2265C309.056 96.5694 280.803 90.8952 275.762 93.0067C276.122 94.1789 277.192 94.6149 278.25 95.1944C286.074 99.4799 304.606 100.774 313.594 100.4C307.762 105.412 301.811 110.237 295.443 114.559C279.214 114.561 264.007 114.241 251.755 102.104Q248.481 98.8116 245.557 95.2056C262.279 93.0935 279.082 88.4013 295.93 88.0636C304.81 87.8856 315.409 92.4318 323.518 91.1982C324.222 90.2729 323.951 89.4899 323.771 88.3587C321.736 75.6158 317.209 67.9924 325.742 55.9256C327.464 53.4906 329.523 51.6092 332.332 50.5848C333.873 50.0227 335.229 48.6828 336.122 47.3188C341.653 43.6319 347.265 40.3342 353.007 37.0071Z"/>
	<path fill="#8F3928" d="M333.358 54.1778C334.436 54.5596 334.683 54.6386 335.428 55.4877C335.842 59.9071 332.071 64.2096 330.991 68.3989C329.174 75.4504 330.088 82.381 327.34 89.3805C326.053 87.919 325.266 86.7254 324.888 84.7887C322.91 74.6405 327.662 62.4072 333.358 54.1778Z"/>
	<path fill="#ADD7E6" d="M486.09 587.277C491.998 586.053 496.278 584.485 501.316 581.158C499.039 595.306 492.829 609.191 488.393 622.799Q477.247 658.076 464.421 692.778Q451.595 727.479 437.117 761.525C435.576 765.107 433.945 773.704 431.053 775.874L429.821 775.778L428.424 774.835C425.809 773.921 423.407 772.97 420.956 771.658C426.978 755.531 434.4 739.916 440.406 723.732Q465.11 656.128 486.09 587.277ZM428.424 774.835L429.821 775.778C430.532 774.675 431.019 773.722 431.318 772.43C431.926 769.806 432.468 768.377 434.161 766.234C434.116 763.304 434.139 759.742 433.163 756.962C432.704 755.654 432.386 755.205 431.138 754.647C430.961 754.72 430.773 754.772 430.606 754.867C427.879 756.425 423.79 766.916 423.33 769.847C423.221 770.538 427.384 773.267 428.158 774.422C428.249 774.558 428.335 774.698 428.424 774.835Z"/>
	<path fill="#ADD7E6" fill-opacity="0.78431374" d="M428.424 774.835C428.335 774.698 428.249 774.558 428.158 774.422C427.384 773.267 423.221 770.538 423.33 769.847C423.79 766.916 427.879 756.425 430.606 754.867C430.773 754.772 430.961 754.72 431.138 754.647C432.386 755.205 432.704 755.654 433.163 756.962C434.139 759.742 434.116 763.304 434.161 766.234C432.468 768.377 431.926 769.806 431.318 772.43C431.019 773.722 430.532 774.675 429.821 775.778L428.424 774.835Z"/>
	<path fill="#F6E5CC" d="M618.425 494.906C624.085 498.946 629.846 517.803 632.634 525.044C602.131 543.672 553.526 549.234 518.438 549.51L506.861 549.519L504.229 542.258C514.606 539.987 524.901 537.781 535.063 534.64C564.767 525.458 591.663 510.441 618.425 494.906Z"/>
	<path fill="#2196C8" d="M215.634 251.804C221.636 225.817 237.851 192.728 252.796 170.464C278.64 131.962 305.647 109.911 344.719 85.8007C353.717 80.248 363.511 72.9335 374.034 70.8744C373.903 70.9917 373.774 71.1106 373.642 71.2263C369.426 74.9222 364.421 77.8817 359.692 80.884C350.538 86.6963 341.277 92.2605 333.029 99.3568C291.753 134.871 261.742 179.56 240.833 229.607C236.619 239.693 231.416 250.317 229.701 261.166C225.323 257.651 220.406 254.747 215.634 251.804Z"/>
	<path fill="#DA9C48" d="M253.409 358.796C256.517 360.232 259.302 362.287 262.13 364.198Q258.796 369.944 256.083 376.008C248.692 392.606 245.189 412.778 251.945 430.171Q252.372 431.28 252.854 432.366Q253.336 433.452 253.871 434.512Q254.406 435.573 254.994 436.606Q255.581 437.639 256.219 438.641Q256.857 439.643 257.544 440.612Q258.231 441.582 258.966 442.516Q259.7 443.45 260.48 444.346Q261.26 445.242 262.084 446.098Q262.907 446.955 263.773 447.769Q264.638 448.583 265.542 449.353Q266.447 450.124 267.389 450.848Q268.33 451.572 269.307 452.249Q270.284 452.926 271.293 453.553Q272.302 454.18 273.341 454.756Q274.38 455.332 275.446 455.856Q276.513 456.38 277.604 456.85C291.606 462.97 309.281 463.733 324.034 460.18C330.029 458.737 335.73 456.458 341.471 454.244C336.145 458.097 330.334 461.292 324.636 464.551C314.113 469.771 303.271 473.115 291.49 473.786C274.415 474.758 256.275 470.089 243.34 458.507C232.307 448.629 226.454 434.162 225.657 419.535C224.351 395.548 238.174 375.837 253.409 358.796Z"/>
	<path fill="#DA9C48" d="M243.963 347.916C246.294 350.234 248.33 352.82 250.416 355.355C234.165 372.038 220.204 392.742 219.988 416.872C219.844 432.913 225.521 448.781 236.971 460.203C249.933 473.133 268.022 478.155 285.949 478.035C315.464 477.837 336.145 462.98 356.048 442.689C353.551 447.605 349.441 451.874 345.866 456.036C344.356 458.117 342.349 460.03 340.457 461.764C320.757 479.814 292.72 490.221 266.002 488.945C248.437 488.105 230.25 481.606 218.241 468.33C206.779 455.659 202.983 438.772 203.938 422.054C205.619 392.643 222.622 367.098 243.963 347.916Z"/>
	<path fill="#DA9C48" d="M362.662 105.471C374.529 105.417 387.127 108.872 398.646 111.464Q419.701 116.175 440.636 121.392C400.331 160.219 363.417 183.586 306.055 185.694C308.298 180.623 311.267 175.86 314.039 171.064L316.477 167.17C361.189 161.161 392.644 154.798 427.38 122.707C398.688 133.003 368.432 133.944 338.298 135.475C345.247 124.744 354.327 115.151 362.662 105.471Z"/>
	<path fill="#F6E5CC" d="M682.589 802.701L683.068 803.007C685.008 807.159 687.469 824.064 688.981 830.188C694.285 851.678 701.11 872.56 705.706 894.254C694.736 896.006 684.03 895.735 673.014 894.781L668.172 883.37C663.903 873.469 659.194 863.746 654.769 853.913L632.828 804.202C649.718 807.428 665.841 805.595 682.589 802.701Z"/>
	<path fill="#F6E5CC" d="M399.156 790.747C416.841 801.793 436.795 805.924 457.417 806.539C449.537 819.187 440.948 831.369 432.991 843.964C423.75 858.592 415.165 873.643 406.451 888.588L399.503 900.583C389.356 900.441 379.429 899.526 369.357 898.329C370.157 896.334 371.051 894.296 371.613 892.221C372.207 890.03 372.328 887.601 371.035 885.63C369.293 882.972 366.008 882.4 363.149 881.683C374.181 851.01 388.156 821.438 399.156 790.747Z"/>
	<path fill="#ADD7E6" d="M251.67 109.418C254.366 110.679 256.891 112.424 259.594 113.733C270.1 118.817 279.503 119.617 291.03 118.909C253.34 152.825 231.115 191.49 214.037 238.863C213.059 241.555 212.311 244.354 211.487 247.098C200.466 237.522 191.279 226.79 182.174 215.418C186.37 204.879 189.335 193.895 193.677 183.402C206.194 153.152 227.871 131.14 251.67 109.418Z"/>
	<path fill="#2196C8" d="M456.67 48.2195C465.824 48.4565 477.246 49.2226 484.289 55.9071C488.228 59.6451 489.898 64.8486 489.912 70.1896C489.974 93.0472 467.059 116.456 451.861 131.804C449.028 130.218 446.022 128.931 443.072 127.577C444.362 124.886 445.515 122.185 446.602 119.406C439.389 116.858 432.041 114.683 424.733 112.428C405.564 106.98 386.497 103.431 366.687 101.351C391.737 76.9376 419.975 50.8106 456.67 48.2195Z"/>
	<path fill="#2196C8" d="M374.034 70.8744C378.374 69.2436 382.652 66.9973 386.899 65.1111C398.232 60.0787 409.284 56.1305 421.567 54.0635C414.079 57.8761 406.96 62.3486 399.547 66.2988L399.055 66.8031C393.503 72.4029 386.584 76.4471 380.359 81.232C374.582 85.6731 369.305 90.7932 364.199 95.9829C314.379 146.612 278.618 212.289 257.617 279.794C251.516 276.503 244.771 273.229 239.675 268.46C236.281 266.13 233.004 263.623 229.701 261.166C231.416 250.317 236.619 239.693 240.833 229.607C261.742 179.56 291.753 134.871 333.029 99.3568C341.277 92.2605 350.538 86.6963 359.692 80.884C364.421 77.8817 369.426 74.9222 373.642 71.2263C373.774 71.1106 373.903 70.9917 374.034 70.8744Z"/>
	<path fill="#F6E5CC" d="M374.034 70.8744C378.374 69.2436 382.652 66.9973 386.899 65.1111C398.232 60.0787 409.284 56.1305 421.567 54.0635C414.079 57.8761 406.96 62.3486 399.547 66.2988C388.644 69.3719 379.559 76.2069 370.375 82.5955C327.27 112.583 293.828 152.343 268.257 198.053Q263.528 206.327 259.362 214.899Q255.197 223.47 251.612 232.301Q248.027 241.131 245.04 250.181Q242.052 259.231 239.675 268.46C236.281 266.13 233.004 263.623 229.701 261.166C231.416 250.317 236.619 239.693 240.833 229.607C261.742 179.56 291.753 134.871 333.029 99.3568C341.277 92.2605 350.538 86.6963 359.692 80.884C364.421 77.8817 369.426 74.9222 373.642 71.2263C373.774 71.1106 373.903 70.9917 374.034 70.8744Z"/>
	<path fill="#F6E5CC" d="M546.64 350.729C580.689 350.398 625.849 350.658 657.468 364.779C665.928 368.557 673.276 373.946 676.632 382.949C684.868 405.043 663.261 441.782 651.881 460.511C646.045 470.117 639.459 479.249 634.637 489.436C631.437 489.506 628.219 489.909 625.032 490.214C628.305 487.015 631.763 484.052 635.231 481.071C632.426 474.861 628.887 469.177 625.139 463.509L616.434 452.038Q619.699 441.036 622.36 429.873C625.513 416.822 629.446 392.77 639.729 383.75C643.919 380.075 650.342 378.916 655.08 375.952L655.3 374.79L654.494 373.864C652.456 373.176 650.225 373.136 648.189 373.892C634.226 379.079 630.094 388.48 624.39 401.118C607.325 399.755 590.26 398.467 573.129 398.643C558.168 378.355 544.888 364.682 522.722 351.805Q534.669 351.006 546.64 350.729Z"/>
	<path fill="#2196C8" d="M640.972 550.982C644.645 554.748 646.145 562.611 647.814 567.545Q651.614 578.759 654.734 590.181Q657.854 601.604 660.282 613.192Q662.711 624.781 664.44 636.495Q666.168 648.209 667.191 660.005C668.749 676.305 669.286 692.69 670.795 708.999Q674.002 743.58 679.897 777.805C667.13 780.125 653.883 781.024 640.933 781.544C635.707 768.419 629.368 755.763 623.25 743.039Q601.223 697.056 580.818 650.332C588.746 642.979 598.034 637.359 607.571 632.352C612.415 629.809 617.497 627.48 621.996 624.354C623.424 623.363 624.587 622.571 624.902 620.812L624.105 620.205C617.447 620.027 608.439 625.916 602.632 628.912C607.404 607.385 606.458 586.905 599.55 565.962Q610.22 563.153 620.597 559.4Q630.973 555.648 640.972 550.982Z"/>
	<path fill="#F6E5CC" d="M431.889 387.857C445.062 399.162 454.509 412.863 462.198 428.332C456.076 435.323 450.383 442.836 444.444 450.002C426.772 471.327 409.486 492.741 392.734 514.802C387.958 512.029 382.704 508.803 377.007 509.022C372.94 509.179 369.261 510.703 366.563 513.767L366.664 514.693C369.405 515.991 375.246 513.902 378.076 513.251C394.32 517.625 411.976 534.861 426.152 544.556C433.967 549.901 441.924 554.034 450.784 557.357C450.046 561.332 448.35 568.163 450.465 571.831C451.344 572.177 451.162 572.312 451.918 572.014C455.571 570.576 457.216 556.885 458.768 552.88C462.726 542.66 469.481 530.484 480.114 526.024C483.904 524.435 489.054 523.57 492.941 525.322C497.3 527.286 498.641 532.415 500.108 536.532C498.788 536.128 497.461 535.741 496.102 535.495C493.028 534.938 485.934 534.505 483.486 536.757C482.346 537.806 482.336 538.328 482.093 539.783C484.63 542.156 490.816 538.935 494.034 540.256C498.681 542.164 500.377 550.371 501.593 554.651C498.873 552.511 496.131 550.554 493.218 548.685C492.969 548.62 492.728 548.496 492.471 548.489C489.474 548.407 485.312 551.333 482.821 552.879C488.115 554.662 494.147 554.098 497.695 559.255C499.595 562.016 502.049 567.827 501.103 571.21C500.886 571.986 500.847 571.76 499.998 572.217C495.955 570.413 494.777 564.38 490.18 562.697C488.74 562.169 487.553 562.361 486.172 562.986C485.894 565.33 491.88 568.166 493.3 570.842C493.439 571.105 493.563 571.376 493.701 571.639C493.991 572.191 494.306 572.73 494.585 573.287C495.514 575.14 496.195 576.785 495.499 578.828C490.042 584.206 481.066 572.389 475.116 573.374L474.573 574.316C474.82 576.272 475.842 577.708 476.847 579.359C473.044 585.764 468.956 591.268 463.665 596.529C435.758 590.562 370.231 566.369 350.188 546.791C344.903 541.629 342.282 535.588 342.245 528.198C342.203 519.572 345.331 511.082 348.852 503.335C356.043 487.512 366.161 473.1 375.917 458.786C387.085 442.401 398.43 426.068 411.067 410.771Q420.941 398.826 431.889 387.857Z"/>
	<path fill="#ADD7E6" d="M506.918 355.08C507.056 355.132 507.193 355.187 507.332 355.236C509.046 355.845 510.26 355.779 512.037 355.529L511.1 355.813L512.264 355.544C522.483 363.391 533.743 369.943 543.582 378.224C561.668 393.445 576.754 412.106 591.526 430.44C600.814 441.969 610.144 453.424 618.712 465.506Q599.161 477.658 578.709 488.225Q558.258 498.791 537.034 507.706C524.945 512.761 512.457 516.737 500.314 521.635C496.424 519.725 492.667 518.525 488.4 517.751C483.604 504.409 477.443 492.398 470.159 480.269C471.072 479.826 471.262 479.557 471.872 478.781C472.312 476.984 471.413 475.171 470.819 473.481C471.244 472.213 471.79 471.059 472.378 469.864L472.013 469.177L469.579 468.845C473.19 466.267 476.033 463.459 478.036 459.444C487.772 439.93 469.168 408.895 457.417 393.774C454.553 390.089 447.213 383.589 445.865 379.672L447.621 379.334L448.017 378.723L447.169 377.792C445.696 377.752 445.791 377.696 444.714 378.697L444.419 377.515C444.996 376.268 445.25 376.27 446.481 375.606C446.879 375.609 447.319 375.436 447.676 375.614C449.103 376.323 453.76 384.842 455.849 386.869C467.859 398.525 485.033 404.812 501.667 404.578C509.343 404.47 519.566 402.842 525.036 396.947C527.437 394.359 528.534 390.956 528.327 387.45C527.58 374.801 514.622 363.522 505.88 355.59L506.918 355.08Z"/>
	<path fill="#8F3928" d="M539.448 410.076C541.575 409.979 543.941 410.041 545.933 410.862C547.458 411.491 549.479 412.642 550.16 414.195L549.597 414.932C546.791 415.213 544.367 414.1 541.781 413.165C531.653 415.237 524.732 421.5 517.421 428.386L510.294 436.399C511.344 433.835 512.488 431.29 513.88 428.891C519.513 419.182 528.656 412.824 539.448 410.076Z"/>
	<path fill="#8F3928" d="M545.031 422.175L545.797 422.466L546.104 423.159C542.565 427.232 536.209 428.747 531.706 431.683C522.892 437.429 516.744 445.256 510.465 453.524L510.028 453.392L509.593 452.53C510.081 448.187 512.931 443.753 515.488 440.288Q516.144 439.392 516.843 438.528Q517.542 437.665 518.282 436.836Q519.023 436.008 519.802 435.216Q520.582 434.425 521.399 433.672Q522.216 432.92 523.069 432.208Q523.921 431.495 524.807 430.826Q525.694 430.156 526.612 429.53Q527.529 428.904 528.476 428.323Q529.423 427.742 530.398 427.208Q531.372 426.674 532.371 426.188Q533.37 425.702 534.391 425.266Q535.413 424.829 536.454 424.442Q537.495 424.055 538.554 423.719Q539.613 423.384 540.687 423.1Q541.761 422.816 542.848 422.585Q543.935 422.353 545.031 422.175Z"/>
	<path fill="#2196C8" d="M592.734 567.667L594.244 567.58C595.054 568.088 595.528 568.562 595.976 569.397C600.548 577.933 601.05 604.238 600.237 614.568Q599.919 618.95 599.139 623.273Q598.359 627.597 597.126 631.813C584.952 638.885 573.165 646.053 563.063 656.027C546.401 672.478 534.234 693.743 521.287 713.111L473.687 783.939C464.875 782.533 455.956 781.679 447.121 780.303C443.151 779.383 439.258 778.274 435.349 777.124C441.288 763.04 447.737 749.177 453.491 735.013Q475.684 680.082 493.165 623.476C498.115 607.676 503.28 591.898 507.413 575.862C536.276 575.943 564.354 572.624 592.734 567.667Z"/>
	<path fill="#F6E5CC" d="M438.447 131.888C446.735 135.114 454.899 138.637 462.606 143.105C480.714 153.603 488.399 167.274 503.609 179.696C513.436 187.722 526.105 191.723 534.893 201.119C539.87 206.44 543.385 213.666 545.195 220.684C550.537 241.398 541.26 264.285 530.927 281.908C508.979 319.342 474.032 347.323 431.783 358.293C406.419 364.879 380.359 365.286 354.66 360.444C349.345 359.442 342.949 358.737 338.292 355.854C336.529 354.763 336.085 353.742 335.617 351.775C335.565 351.734 335.522 351.68 335.462 351.652C334.357 351.132 333.553 350.883 332.383 351.358C330.521 352.114 328.581 353.625 326.867 354.694C322.256 357.573 317.855 359.968 312.573 361.369C302.143 364.134 289.581 361.718 280.377 356.203C274.394 352.62 269.322 347.249 267.715 340.284C266.215 333.784 267.998 326.641 271.644 321.149C278.067 311.475 291.253 306.992 302.335 310.403C307.518 311.998 313.577 317.239 319.192 316.066L319.59 315.439C319.028 313.067 316.514 311.277 314.648 309.928C311.879 278.162 305.365 248.974 286.442 222.482C290.482 212.132 295.744 202.333 301.183 192.669C313.429 190.929 325.846 190.083 338.01 187.813C379.29 180.108 407.675 158.981 438.447 131.888ZM496.006 174.403C493.03 170.579 488.728 167.648 485.525 163.93L483.977 163.605C483.249 164.348 483.316 164.617 483.322 165.632C483.339 168.112 484.966 170.475 486.724 172.101C489.727 174.879 493.53 176.663 496.511 179.503C497.581 179.786 498.217 180.042 499.278 179.628C499.538 178.744 499.691 178.929 499.277 178.232C498.361 176.69 496.618 176.136 496.006 174.403Z"/>
	<path fill="#F6E5CC" fill-opacity="0.89411765" d="M496.006 174.403C496.618 176.136 498.361 176.69 499.277 178.232C499.691 178.929 499.538 178.744 499.278 179.628C498.217 180.042 497.581 179.786 496.511 179.503C493.53 176.663 489.727 174.879 486.724 172.101C484.966 170.475 483.339 168.112 483.322 165.632C483.316 164.617 483.249 164.348 483.977 163.605L485.525 163.93C488.728 167.648 493.03 170.579 496.006 174.403ZM485.525 163.93C485.008 165.261 484.513 165.736 485.178 167.084C486.532 169.827 491.028 174.908 494.017 175.77C495.189 175.433 495.239 175.361 496.006 174.403C493.03 170.579 488.728 167.648 485.525 163.93Z"/>
	<path fill="#F6E5CC" fill-opacity="0.8509804" d="M485.525 163.93C488.728 167.648 493.03 170.579 496.006 174.403C495.239 175.361 495.189 175.433 494.017 175.77C491.028 174.908 486.532 169.827 485.178 167.084C484.513 165.736 485.008 165.261 485.525 163.93Z"/>
	<path fill="#8F3928" d="M439.983 144.161C441.199 144.281 442.625 144.426 443.684 145.102C444.825 145.829 445.177 146.486 445.529 147.741L444.94 148.767C441.692 151.072 437.311 151.427 433.469 152.034C431.452 155.135 429.578 158.346 427.65 161.504C426.902 161.908 426.333 162.063 425.517 162.265C424.424 161.796 423.873 161.683 423.485 160.425C422.665 157.769 424.217 154.172 425.707 152.025C429.162 147.046 434.236 145.102 439.983 144.161Z"/>
	<path fill="#8F3928" d="M286.114 325.576C294.366 325.069 301.276 325.934 308.472 330.195C312.636 332.661 317.318 336.154 318.58 341.021C318.31 342.166 318.545 342.115 317.5 342.834C314.008 343.294 311.852 340.884 309.097 339.096C307.152 340.064 305.107 341.381 302.855 341.056C301.866 340.913 302.194 340.997 301.53 340.134C301.569 339.948 301.59 339.758 301.646 339.577C302.325 337.358 305.124 336.357 307.024 335.372C301.172 331.827 295.755 330.089 289.052 328.75C287.692 329.407 286.135 330.244 284.672 330.585C283.453 330.868 282.747 330.585 281.72 329.984L281.842 328.858C282.962 327.264 284.453 326.535 286.114 325.576Z"/>
	<path fill="#8F3928" d="M353.274 188.71C356.302 188.893 359.633 188.811 362.132 190.774C363.168 191.588 363.652 191.974 363.762 193.3C361.283 195.621 346.332 194.36 340.1 198.502C334.773 202.042 332.959 207.636 331.666 213.563C331.482 215.059 331.261 216.168 330.599 217.529C329.468 218.251 329.532 218.299 328.221 218.072C326.525 216.666 325.794 214.819 325.556 212.658C325.036 207.938 327.11 202.889 330.027 199.265C335.819 192.067 344.543 189.803 353.274 188.71Z"/>
	<path fill="#8F3928" d="M486.479 257.647C487.133 257.818 487.681 258.026 488.249 258.418C489.583 259.34 490.148 260.721 490.271 262.286C490.695 267.663 486.493 274.23 483.216 278.288C477.389 285.5 469.238 290.557 459.907 291.463C449.582 292.467 441.227 288.329 433.483 281.872C432.523 280.635 432.077 279.68 431.553 278.201C431.74 276.863 431.666 276.819 432.66 275.927C435.938 275.981 442.842 283.033 447.96 284.951Q448.584 285.184 449.22 285.384Q449.855 285.585 450.5 285.753Q451.145 285.921 451.797 286.056Q452.45 286.191 453.108 286.293Q453.767 286.395 454.43 286.463Q455.093 286.531 455.758 286.565Q456.424 286.599 457.09 286.6Q457.756 286.6 458.422 286.567Q459.087 286.534 459.75 286.466Q460.413 286.399 461.072 286.298Q461.73 286.198 462.383 286.063Q463.036 285.929 463.681 285.762Q464.326 285.595 464.962 285.395Q465.597 285.195 466.222 284.963Q466.847 284.732 467.459 284.468Q468.071 284.205 468.669 283.911C479.314 278.745 482.825 267.969 486.479 257.647Z"/>
	<path fill="#8F3928" d="M419.711 189.808C424.783 192.321 433.095 204.092 437.372 208.601C441.252 212.691 445.374 216.495 449.578 220.248C453.205 216.494 457.457 212.576 462.634 211.234C465.562 210.476 468.74 210.726 471.325 212.384C474.002 214.101 475.581 216.998 476.176 220.063C477.511 226.944 474.315 233.873 470.689 239.525C469.877 239.705 469.134 239.74 468.306 239.784C465.532 236.424 474.383 221.338 470.319 215.923C469.583 214.944 468.579 214.581 467.398 214.526C460.649 214.214 454.358 221.34 450.082 225.775C436.633 216.858 425.569 205.04 419.711 189.808Z"/>
	<path fill="#ADD7E6" d="M509.904 195.549C514.151 195.394 518.464 195.914 522.262 197.945Q522.927 198.293 523.555 198.706Q524.182 199.118 524.765 199.591Q525.348 200.065 525.881 200.593Q526.414 201.122 526.892 201.701Q527.369 202.281 527.787 202.905Q528.204 203.529 528.558 204.191Q528.911 204.854 529.197 205.548Q529.482 206.243 529.697 206.962Q529.925 207.736 530.074 208.529Q530.223 209.322 530.29 210.126Q530.357 210.93 530.342 211.737Q530.327 212.544 530.23 213.345Q530.134 214.146 529.956 214.933Q529.778 215.72 529.521 216.485Q529.265 217.25 528.931 217.985Q528.598 218.72 528.192 219.417C524.623 225.668 518.859 228.032 512.286 229.819C508.435 230.039 504.568 229.645 500.964 228.196C497.27 226.71 494.185 224.096 492.655 220.359C491.03 216.388 491.379 211.887 493.16 208.03C496.491 200.814 502.876 198.018 509.904 195.549Z"/>
	<path fill="#8F3928" d="M458.402 161.542C460.061 161.47 461.754 161.371 463.411 161.501C470.782 162.082 477.363 167.406 481.889 172.935C486.594 178.683 490.431 186.364 489.513 193.971C489.193 196.622 488.175 199.115 485.981 200.746C483.246 202.78 479.288 202.953 476.057 202.349C468.234 200.888 463.283 194.416 458.931 188.357C455.31 181.115 454.471 174.763 453.898 166.775C448.63 172.62 445.972 177.434 446.455 185.509C446.586 187.703 446.905 190.028 446.564 192.207C446.33 193.703 445.825 194.886 444.596 195.827L443.834 195.569C443.458 194.987 443.111 194.446 442.86 193.796C440.444 187.551 441.114 179.358 443.81 173.314C446.761 166.698 451.964 163.961 458.402 161.542Z"/>
	<path fill="#ADD7E6" d="M388.05 274.67C393.103 274.087 399.501 275.177 403.791 277.926Q404.405 278.319 404.976 278.773Q405.547 279.227 406.069 279.736Q406.591 280.246 407.058 280.806Q407.526 281.366 407.933 281.971Q408.341 282.575 408.685 283.218Q409.029 283.862 409.306 284.536Q409.583 285.211 409.79 285.911Q409.997 286.61 410.131 287.327C411.065 292.126 409.655 296.95 406.883 300.901C401.558 308.493 393.633 311.16 384.936 312.582C381.237 312.646 377.695 312.722 374.077 311.802C368.226 310.314 363.919 306.707 360.825 301.609C361.304 295.921 362.049 290.495 365.496 285.713C370.826 278.318 379.516 275.945 388.05 274.67Z"/>
	<path fill="#8F3928" d="M369.537 213.538C372.27 213.437 374.973 213.618 377.629 214.315C386.935 216.756 395.296 223.67 400.046 231.966C402.939 237.018 404.615 243.161 402.926 248.901C401.916 252.333 399.099 255.479 395.864 256.988C391.932 258.822 386.864 258.569 382.914 256.949C373.088 252.918 368.03 242.472 364.204 233.288C363.146 229.285 362.861 225.04 362.389 220.933C355.383 227.416 354.854 234.317 355.577 243.254C355.751 245.408 356.172 247.587 355.443 249.667C354.498 249.98 353.61 249.459 352.688 249.131C348.822 247.758 338.828 243.643 337.037 239.923C337.45 239.043 337.195 239.128 338.002 238.826C341.47 237.526 346.292 240.127 349.495 241.477C349.43 235.937 349.441 230.526 352.068 225.463C355.701 218.462 362.497 215.826 369.537 213.538Z"/>
</svg>
