<?xml version="1.0" encoding="utf-8" ?>
<svg xmlns="http://www.w3.org/2000/svg" xmlns:xlink="http://www.w3.org/1999/xlink" width="1024" height="1024">
	<path fill="#1D3658" d="M464.305 30.2186C491.2 29.1303 517.494 32.4608 543.072 40.9869C554.281 44.7234 566.455 49.3741 576.163 56.2043C580.638 59.3526 584.443 63.5588 589.107 66.3946C595.284 70.1511 602.585 72.3525 609.012 75.7815C630.223 87.0975 648.82 104.416 659.546 126.134C670.551 148.417 673.531 173.834 665.405 197.491C667.553 205.807 668.399 213.855 668.504 222.436C675.26 227.817 682.228 232.965 688.729 238.655C704.886 252.797 717.831 271.743 719.194 293.743C722.485 346.866 659.29 389.753 617.953 411.315C610.49 415.208 587.891 424.332 583.488 429.353C583.376 430.537 583.466 430.701 583.999 431.778C586.563 433.818 589.533 433.849 592.526 434.86C608.075 440.113 625.362 453.443 634.58 466.978C637.48 471.236 639.136 476.337 642.16 480.466C646.424 486.288 651.651 491.308 655.765 497.307C661.713 505.979 666.39 515.432 672.289 524.101C678.756 533.603 687.807 541.086 693.122 551.44C703.035 570.752 698.009 597.164 691.759 616.816C695.247 621.488 698.307 626.075 698.649 632.12C699.133 640.671 694.463 647.4 689.002 653.384C690.75 657.402 693.795 661.885 694.305 666.282C694.692 669.62 693.699 671.069 691.671 673.589C691.109 717.76 685.887 761.631 673.938 804.254C671.708 812.21 669.25 820.199 666.465 827.981C662.969 837.748 658.459 847.469 657.075 857.832C655.047 873.022 657.683 894.021 658.496 909.8C669.498 917.036 683.723 926.131 689.818 938.152C691.49 941.45 692.725 945.588 691.346 949.206C690.311 951.922 687.954 953.657 685.382 954.809C671.121 961.195 642.033 956.524 626.742 952.327C619.7 950.395 612.781 947.587 605.898 945.14C601.118 947.354 595.303 950.527 589.891 949.485C576.956 946.995 575.968 917.621 569.776 908.084L569.341 907.421C569.554 893.906 573.666 880.554 576.587 867.428C579.188 855.743 581.417 843.888 583.755 832.141C587.545 813.096 589.243 793.808 591.417 774.542C586.663 783.324 581.423 791.872 576.528 800.582C562.318 825.867 548.215 851.691 536.638 878.298C530.812 891.688 525.894 905.559 521.366 919.436C519.086 926.422 516.601 940.24 513.006 945.834C511.727 947.823 508.535 948.366 506.417 948.886C503.181 958.768 499.892 966.892 493.928 975.535C491.888 978.531 490.337 981.906 488.368 984.977C487.181 985.554 485.99 986.09 484.731 986.491C478.716 988.406 473.903 987.924 468.404 984.98C450.379 994.443 432.317 1002.17 411.704 1003.7C406.144 1004.11 400.421 1004.3 394.937 1003.12C390.589 1002.18 385.461 1000.47 383.062 996.453C381.564 993.943 381.411 990.391 382.202 987.619C386.475 972.634 410.484 952.613 420.644 939.518C420.921 939.161 422.707 937.094 422.73 936.751C422.882 934.541 421.564 932.527 422.207 930.154C422.267 929.93 422.343 929.711 422.405 929.488C426.963 912.994 436.283 895.741 443.764 880.268C447.178 873.207 450.9 866.167 453.19 858.642C456.858 846.586 458.452 831.815 460.665 819.235C467.139 782.449 472.069 745.411 478.099 708.548C475.29 707.183 472.242 705.485 470.803 702.568C468.843 698.592 470.501 694.676 471.946 690.874C469.449 687.364 468.118 683.835 466.797 679.786C465.211 681.029 463.201 682.97 461.056 682.932C458.156 682.88 454.385 679.53 452.225 677.703C442.6 669.564 434.205 659.746 425.333 650.801C414.184 639.561 401.13 628.814 392.112 615.722C389.619 612.104 387.407 607.788 387.186 603.334C386.444 588.398 428.27 524.754 437.653 507.578C442.343 498.992 444.811 488.638 450.611 480.778C455.909 473.599 463.58 468.889 470.403 463.332C473.618 460.714 476.471 457.802 479.308 454.784C474.736 451.541 469.684 447.082 464.16 445.678C452.259 442.653 438.957 443.825 426.727 442.663C399.218 440.05 373.122 433.232 347.338 423.476C340.172 444.289 325.214 462.776 305.998 473.644Q305.112 474.144 304.214 474.623Q303.316 475.101 302.406 475.557Q301.497 476.014 300.577 476.447Q299.656 476.881 298.725 477.292Q297.795 477.703 296.854 478.091Q295.913 478.48 294.964 478.844Q294.014 479.209 293.055 479.551Q292.097 479.892 291.13 480.21Q290.164 480.528 289.19 480.822Q288.216 481.116 287.234 481.386Q286.253 481.656 285.266 481.902Q284.279 482.148 283.286 482.37Q282.293 482.592 281.294 482.789Q280.296 482.986 279.293 483.159Q278.291 483.331 277.284 483.48Q276.277 483.628 275.267 483.751Q274.257 483.874 273.245 483.973Q272.232 484.071 271.217 484.145Q270.202 484.218 269.186 484.267Q268.169 484.315 267.152 484.339Q266.135 484.363 265.118 484.362Q264.1 484.36 263.083 484.334Q262.066 484.308 261.049 484.257Q260.033 484.206 259.019 484.13Q258.004 484.053 256.991 483.953Q255.979 483.852 254.969 483.726Q253.96 483.6 252.953 483.45Q251.947 483.299 250.945 483.124Q249.942 482.949 248.945 482.749Q247.947 482.549 246.954 482.325Q245.962 482.101 244.975 481.853Q243.988 481.605 243.008 481.332C233.962 478.769 223.434 474.363 218.748 465.651C217.584 463.487 216.208 460.402 217.239 457.932C220.268 450.675 238.889 457.506 248.197 452.259C253.679 449.168 259.563 443.838 261.049 437.552C264.665 422.252 241.149 404.174 232.027 393.629C225.129 385.655 218.719 377.126 213.397 368.017Q212.564 366.601 211.766 365.165Q210.968 363.729 210.206 362.274Q209.444 360.818 208.719 359.344Q207.993 357.871 207.304 356.379Q206.615 354.888 205.964 353.38Q205.312 351.872 204.698 350.348Q204.084 348.824 203.508 347.285Q202.932 345.747 202.395 344.195Q201.857 342.642 201.358 341.077Q200.86 339.512 200.4 337.935Q199.94 336.358 199.519 334.77Q199.099 333.181 198.717 331.584Q198.336 329.986 197.995 328.379Q197.654 326.772 197.353 325.157Q197.051 323.542 196.79 321.92Q196.529 320.298 196.308 318.67Q196.087 317.042 195.907 315.409Q195.727 313.776 195.587 312.14Q195.447 310.503 195.348 308.863Q195.249 307.223 195.191 305.581Q195.132 303.94 195.115 302.297Q195.097 300.654 195.12 299.012Q195.143 297.369 195.207 295.727Q195.271 294.086 195.376 292.446Q195.481 290.807 195.626 289.17Q195.771 287.534 195.957 285.902Q196.143 284.27 196.369 282.642Q196.596 281.015 196.862 279.394Q197.129 277.773 197.436 276.159Q197.743 274.546 198.089 272.94Q198.436 271.334 198.823 269.737Q199.209 268.141 199.635 266.554C205.609 244.453 218.978 223.802 239.161 212.312C240.457 176.732 262.051 141.142 285.165 115.044C329.357 65.1474 398.242 34.2995 464.305 30.2186ZM488.854 569.331C482.141 576.471 476.091 584.143 469.479 591.35C477.576 599.188 487.339 605.729 496.941 611.596L500.536 613.648L505.022 610.547C507.111 610.704 509.224 610.802 511.298 611.096C511.837 607.785 512.425 604.473 512.832 601.144C508.24 595.711 503.393 590.316 499.215 584.56C495.816 579.875 492.922 573.276 488.854 569.331Z"/>
	<path fill="#F5FAF2" d="M400.468 981.879L404.981 976.544C409.418 977.541 413.538 977.579 418.051 977.489C414.465 979.996 404.822 982.308 400.468 981.879Z"/>
	<path fill="#F5FAF2" d="M570.453 438.562C574.165 438.782 577.3 439.367 580.662 440.98C585.316 443.213 589.381 446.775 591.142 451.72C583.944 450.484 577.346 446.353 570.213 444.534C570.185 442.547 570.348 440.546 570.453 438.562Z"/>
	<path fill="#F5FAF2" d="M648.568 915.973C653.358 917.77 658.698 925.3 661.7 929.27C653.408 930.048 645.933 928.927 637.816 927.368C632.494 926.218 627.229 924.789 621.957 923.432C631.154 921.431 639.91 919.929 648.568 915.973Z"/>
	<path fill="#F5FAF2" d="M630.33 628.251C636.113 631.512 641.69 647.927 644.103 654.028C641.866 654.889 639.597 655.652 637.33 656.428C632.986 657.347 628.598 657.75 624.188 658.2C625.925 648.181 628.245 638.206 630.33 628.251Z"/>
	<path fill="#F5FAF2" d="M529.516 435.782L529.959 435.898C533.869 436.882 537.921 437.211 541.872 438.016C550.837 439.844 557.959 443.771 565.75 448.383C565.632 449.275 565.381 449.375 564.819 450.044C556.946 453.734 535.629 447.851 527.788 445.164Q528.719 440.485 529.516 435.782Z"/>
	<path fill="#F5FAF2" d="M585.186 81.3638C585.504 80.646 585.613 79.7357 586.415 79.4622C590.479 78.0774 603.685 86.3466 607.751 88.7952C629.348 101.798 649.161 124.508 655.317 149.36C656.747 155.135 660.168 170.61 658.783 176.117L658.237 176.018C657.698 174.956 657.194 173.905 656.728 172.808C657.608 162.772 654.735 153.032 651.034 143.795C638.913 113.541 614.483 93.9442 585.186 81.3638Z"/>
	<path fill="#F5FAF2" d="M588.154 455.545C590.109 455.737 592.088 455.801 594.05 455.917C611.724 484.72 632.955 512.014 634.897 547.175C633.253 545.852 626.12 524.082 624.417 520.188C618.804 507.351 609.482 497.412 602.61 485.47C599.432 479.949 597.599 473.827 595.02 468.032C593.087 463.691 590.59 459.617 588.154 455.545Z"/>
	<path fill="#457B9E" d="M644.175 660.571L645.417 660.506C647.94 663.541 649.082 673.894 649.896 678.035C641.01 681.705 632.942 684.853 623.292 685.945L617.475 685.959C618.878 677.838 621.186 669.803 623.336 661.855C630.838 662.665 636.869 662.473 644.175 660.571Z"/>
	<path fill="#F5FAF2" d="M398.586 603.754C402.23 591.753 408.82 580.738 414.759 569.759C424.055 552.575 433.82 535.654 443.186 518.51C448.243 509.255 451.948 499.139 457.498 490.189C459.227 487.402 461.312 485.38 463.778 483.254C467.475 480.067 482.023 467.699 486.063 467.985C483.536 472.106 478.474 475.846 475.024 479.309C471.956 482.389 469.255 485.743 466.621 489.196C464.695 488.725 462.341 487.864 460.487 489.003C459.639 489.524 459.198 490.337 458.688 491.154C453.622 516.46 432.679 547.866 419.095 569.78C414.564 577.088 404.641 590.392 403.517 598.404C402.233 607.553 410.494 613.095 410.388 619.373C405.517 614.946 401.799 609.45 398.586 603.754Z"/>
	<path fill="#A7D9DB" d="M409.623 386.134C398.697 385.67 387.887 383.89 377.723 379.739C364.891 374.499 353.8 364.98 348.409 352C344.4 342.345 343.555 330.509 347.71 320.755C351.19 312.584 357.202 307.778 365.237 304.538C362.745 308.511 359.644 312.09 357.241 316.091C352.616 323.791 351.914 334.123 353.934 342.747C357.062 356.094 366.704 365.996 378.099 372.996C384.694 377.047 391.689 379.637 399.117 381.713C401.821 382.469 405.21 382.909 407.745 384.022C408.975 384.562 409.063 384.988 409.623 386.134Z"/>
	<path fill="#1ABCE3" d="M568.884 453.037C573.575 453.284 577.86 454.199 582.38 455.438C588.014 464.101 590.668 474.037 595.93 482.851C593.136 484.878 590.408 486.563 587.288 488.039C585.262 488.732 583.194 489.323 581.148 489.953C573.963 486.443 567.756 481.973 561.292 477.317C561.636 473.469 562.24 469.554 562.874 465.742C563.657 461.026 564.833 455.973 568.884 453.037Z"/>
	<path fill="#F5FAF2" d="M433.376 942.378C448.257 951.4 463.009 953.191 480.143 951.874C470.101 956.337 460.479 960.725 450.128 964.523C437.129 968.9 424.315 970.905 410.62 970.956C416.083 960.683 425.767 951.199 433.376 942.378Z"/>
	<path fill="#F5FAF2" d="M426.274 243.555L427.748 243.057C428.7 243.957 428.748 244.65 428.776 245.924C428.878 250.618 427.574 255.332 427.301 260.029C426.731 269.808 427.084 279.843 427.403 289.634Q427.486 292.259 427.617 294.883Q427.748 297.506 427.926 300.126Q428.104 302.747 428.329 305.364Q428.555 307.981 428.828 310.593Q429.101 313.206 429.421 315.813Q429.741 318.42 430.108 321.02Q430.476 323.621 430.89 326.215Q431.304 328.809 431.766 331.394Q432.227 333.98 432.735 336.557Q433.243 339.134 433.797 341.701Q434.352 344.269 434.953 346.826Q435.554 349.383 436.201 351.928Q436.848 354.474 437.541 357.007Q438.234 359.541 438.973 362.061Q439.712 364.582 440.497 367.089Q441.281 369.595 442.111 372.087Q442.94 374.58 443.815 377.056Q444.69 379.533 445.609 381.993Q446.528 384.454 447.492 386.897Q448.456 389.341 449.464 391.766Q450.471 394.192 451.523 396.599Q452.574 399.005 453.669 401.393Q454.764 403.78 455.902 406.148Q457.04 408.515 458.221 410.861Q459.402 413.207 460.625 415.532Q461.848 417.856 463.113 420.158Q464.378 422.46 465.684 424.739Q466.99 427.018 468.338 429.272Q469.685 431.527 471.073 433.757Q472.461 435.987 473.889 438.191Q475.317 440.395 476.785 442.574Q478.253 444.752 479.76 446.903C475.815 443.84 471.469 440.828 468.489 436.77C466.609 431.936 463.237 427.558 460.418 423.235C453.659 412.869 448.559 401.769 443.894 390.339C426.012 346.528 416.399 290.324 426.274 243.555Z"/>
	<path fill="#F5FAF2" d="M558.517 483.784C562.836 486.488 566.318 489.488 569.065 493.814C576.192 505.04 583.667 541.458 587.355 556.361C584.453 552.361 581.752 548.198 578.989 544.101C572.716 535.154 567.106 525.707 560.898 516.7C554.292 507.117 547.026 497.985 539.918 488.772C543.471 489.924 548.224 491.783 551.941 490.735C555.502 489.731 556.904 486.791 558.517 483.784Z"/>
	<path fill="#457B9E" d="M585.559 916.659C593.79 920.011 602.235 921.213 610.691 923.696C632.588 930.125 643.2 937.982 667.652 933.198C672.942 936.952 677.213 941.646 681.54 946.43L669.648 946.421C643.022 944.554 619.475 937.635 594.586 928.284C594.097 933.02 594 937.724 593.916 942.48C590.523 934.12 587.298 925.528 585.559 916.659Z"/>
	<path fill="#457B9E" d="M418.051 977.489C418.246 977.44 418.44 977.387 418.635 977.34C426.216 975.5 434.048 975.625 441.677 973.544C460.429 968.431 477.37 959.107 495.182 951.645C494.424 953.647 493.707 955.911 492.412 957.633C486.219 965.867 472.466 971.09 463.214 975.266C445.799 983.125 428.228 989.98 408.972 991.493C405.491 991.766 401.134 992.271 397.784 991.112C396.673 990.728 396.098 990.273 395.467 989.301C395.374 987.672 395.561 986.848 396.681 985.605C397.858 984.299 399.128 983.017 400.468 981.879C404.822 982.308 414.465 979.996 418.051 977.489Z"/>
	<path fill="#A7D9DB" d="M591.944 446.399C592.484 446.548 592.994 446.693 593.512 446.909C608.07 452.99 623.618 466.763 629.976 481.34C626.935 479.642 622.768 477.573 619.218 478.536L618.812 479.385C621.137 485.873 636.23 493.005 641.044 499.466C650.734 512.473 648.208 547.432 645.832 563.546C645.022 569.517 643.809 575.478 642.754 581.413C641.859 566.409 643.197 551.67 641.039 536.69Q640.217 530.674 638.687 524.798Q637.156 518.922 634.939 513.27C627.44 494.651 605.725 460.783 591.944 446.399Z"/>
	<path fill="#F5FAF2" d="M255.271 399.858C247.163 392.55 239.801 383.542 233.376 374.734C213.893 348.029 205.017 315.397 210.247 282.581C213.762 260.53 223.654 239.463 242.01 226.068C241.625 228.962 241.571 231.84 241.505 234.754C227.364 244.663 220.386 266.535 217.513 282.722C210.835 320.35 223.095 354.609 244.479 385.076C246.153 387.461 255.232 397.908 255.271 399.858Z"/>
	<path fill="#F5FAF2" d="M493.113 470.153C492.355 467.461 492.286 464.407 492.348 461.617C492.488 455.35 493.852 447.151 498.711 442.762C500.631 441.028 503.518 439.863 506.127 440.402C510.706 441.349 514.699 445.843 519.012 447.771C530.48 452.898 548.402 454.189 561.034 454.523C558.033 464.587 553.65 474.248 550.573 484.324C545.787 483.482 540.943 482.67 536.547 480.498C526.634 475.6 518.953 462.27 512.954 453.291C510.747 449.989 508.537 445.821 505.449 443.31L504.375 443.433C503.547 447.179 500.019 450.006 498.389 453.446C495.887 458.726 496.26 465.017 493.113 470.153Z"/>
	<path fill="#A6A5A5" d="M585.186 81.3638C614.483 93.9442 638.913 113.541 651.034 143.795C654.735 153.032 657.608 162.772 656.728 172.808C656.657 172.556 656.603 172.299 656.516 172.053C654.713 166.957 651.238 161.761 648.544 157.06C632.976 129.884 610.773 108.607 581.46 96.9478C583.71 92.2678 585.578 86.6161 585.186 81.3638Z"/>
	<path fill="#A7D9DB" d="M662.397 527.361C667.038 531.044 669.902 538.888 673.127 543.829C675.736 547.826 678.926 551.436 681.485 555.472C689.686 568.406 686.436 594.567 683.114 609.072C677.405 601.899 671.844 594.846 664.542 589.198L664.74 589.64L665.08 590.372C668.768 598.483 674.393 605.886 679.395 613.246C682.345 617.452 685.964 622.021 687.65 626.897C689.637 632.642 687.726 637.185 685.094 642.255C682.29 634.234 678.754 626.047 674.373 618.763C671.143 613.393 666.399 608.606 664.501 602.535C659.898 587.814 664.364 566.367 664.594 550.893C664.711 542.983 663.479 535.175 662.397 527.361Z"/>
	<path fill="#F5FAF2" d="M496.761 631.87C497.661 631.998 497.504 631.926 498.263 632.19C506.637 635.095 522.797 647.037 526.602 655.133C527.457 656.952 527.562 658.638 526.765 660.5C523.157 668.932 506.653 679.6 498.348 683.055C492.481 685.496 488.773 684.336 483.153 682.008C481.783 681.074 480.596 680.055 479.66 678.672C478.494 676.95 477.88 675.511 478.259 673.416C479.035 672.609 479.267 672.401 480.492 672.438C483.934 672.54 487.653 676.944 489.92 679.137L490.111 672.402C493.069 671.018 495.69 669.593 498.383 667.737C487.24 667.124 482.98 665.785 474.661 657.911C481.217 648.067 487.541 639.434 496.761 631.87Z"/>
	<path fill="#F5FAF2" d="M365.237 304.538C370.817 303.936 375.643 303.846 381.197 304.662C382.485 309.518 383.961 314.395 384.975 319.314C379.948 320.222 375.807 321.801 372.756 326.21C369.304 331.2 369.21 337.853 370.451 343.599C371.776 349.734 375.231 357.929 380.665 361.45C381.727 362.138 382.596 362.411 383.871 362.512C385.293 361.96 385.433 361.823 386.349 360.596C387.197 355.743 367.288 337.418 382.708 326.802C383.787 326.06 384.917 325.455 386.086 324.868C391.116 339.925 396.506 354.598 403.714 368.765C405.266 371.815 413.039 383.852 413.178 385.617C411.989 386.243 410.923 386.15 409.623 386.134C409.063 384.988 408.975 384.562 407.745 384.022C405.21 382.909 401.821 382.469 399.117 381.713C391.689 379.637 384.694 377.047 378.099 372.996C366.704 365.996 357.062 356.094 353.934 342.747C351.914 334.123 352.616 323.791 357.241 316.091C359.644 312.09 362.745 308.511 365.237 304.538Z"/>
	<path fill="#A7D9DB" d="M470.363 422.065C476.579 422.107 482.867 421.451 489.07 420.994C534.954 417.611 580.666 405.1 623.059 387.474Q630.024 384.52 636.738 381.034C643.596 377.419 652.462 370.565 660.12 369.684C646.358 383.792 617.334 398.666 599.264 406.897C593.237 409.642 570.209 416.608 567.04 420.128C564.234 423.244 564.89 431.193 564.941 435.231Q565.069 441.824 565.75 448.383C557.959 443.771 550.837 439.844 541.872 438.016C537.921 437.211 533.869 436.882 529.959 435.898L529.516 435.782C529.576 433.78 529.381 431.711 528.114 430.097C525.026 428.395 483.558 432.767 476.382 433.075C474.279 429.452 472.309 425.774 470.363 422.065Z"/>
	<path fill="#A7D9DB" d="M652.564 515.86C653.725 516.82 654.117 518.859 654.412 520.308C656.577 530.935 657.694 541.461 657.438 552.321C657.123 565.752 655.386 579.262 657.257 592.663C658.918 604.567 665.514 614.531 669.672 625.59C674.869 639.411 679.115 653.553 683.46 667.657C676.845 674.306 670.072 680.23 662.299 685.498L658.593 687.652C654.137 663.051 648.479 644.456 634.042 623.476C644.459 601.374 652.157 564.248 653.316 539.853C653.696 531.855 653.037 523.841 652.564 515.86Z"/>
	<path fill="#F5FAF2" d="M249.646 269.924C246.034 247.173 246.245 223.339 252.08 200.981C262.829 159.793 289.006 122.442 322.417 96.3601C332.84 88.224 344.061 81.39 355.469 74.7364C407.371 44.4672 468.146 34.0295 526.546 49.5318C540.87 53.3341 574.556 64.2175 581.519 77.0245C582.487 78.8057 582.362 79.96 581.85 81.8634C575.839 76.4237 569.672 71.7344 562.538 67.8435C536.291 53.5283 495.816 46.273 466.018 47.7204C416.869 50.1077 371.912 70.865 332.935 100.056C321.363 108.722 310.278 117.573 300.572 128.353C270.868 161.342 252.655 207.557 251.26 251.899C251.192 254.06 251.269 269.19 249.646 269.924Z"/>
	<defs>
		<linearGradient id="gradient_0" gradientUnits="userSpaceOnUse" x1="383.73926" y1="338.41946" x2="307.60138" y2="393.6214">
			<stop offset="0" stop-color="#767885"/>
			<stop offset="1" stop-color="#908E8D"/>
		</linearGradient>
	</defs>
	<path fill="url(#gradient_0)" d="M252.794 289.342C252.9 289.459 253.008 289.575 253.111 289.694C257.58 294.847 260.699 302.253 264.26 308.132Q272.432 321.551 282.019 333.998C303.661 362.356 333.736 388.387 365.901 404.063C380.707 411.279 396.14 416.387 412.152 420.135C420.313 422.046 428.765 424.052 437.129 424.772C439.493 424.976 442.736 425.508 444.904 424.422C448.016 426.738 450.805 429.415 453.639 432.055C444.068 431.982 434.401 430.855 424.902 429.78C383.472 425.091 338.341 414.08 305.911 386.274C281.227 365.11 255.353 322.052 252.794 289.342Z"/>
	<path fill="#1ABCE3" d="M597.992 487.884C600.157 489.192 608.843 504.039 610.579 507.024C621.554 525.884 634.454 561.317 634.801 582.937C634.988 594.575 632.212 607.733 629.205 618.973C626.732 616.29 624.43 613.485 622.124 610.658C612.998 599.77 603.91 587.006 598.074 574.031C593.235 563.27 590.979 551.482 587.955 540.125L576.083 497.156C585.396 496.949 591.105 493.853 597.992 487.884Z"/>
	<path fill="#A7D9DB" d="M504.375 443.433C504.884 450.716 509.476 457.511 513.248 463.505C525.716 483.314 542.086 500.438 555.122 519.936C575.555 550.498 591.535 584.084 615.501 612.185C600.065 602.077 586.176 588.62 572.086 576.737C559.456 566.086 530.106 543.911 521.71 531.259C522.573 528.501 523.412 525.698 524.538 523.035C526.425 518.573 530.651 513.079 530.269 508.194C529.449 506.799 528.838 506.093 527.195 505.744C523.263 504.907 518.224 506.361 514.373 507.175C503.862 496.787 497.065 484.353 493.113 470.153C496.26 465.017 495.887 458.726 498.389 453.446C500.019 450.006 503.547 447.179 504.375 443.433Z"/>
	<path fill="#A6A5A5" d="M381.871 263.37C397.206 257.769 411.794 251.098 426.274 243.555C416.399 290.324 426.012 346.528 443.894 390.339C448.559 401.769 453.659 412.869 460.418 423.235C463.237 427.558 466.609 431.936 468.489 436.77C465.542 435.227 462.79 432.781 460.263 430.646C422.126 398.423 397.199 348.674 386.882 300.395C384.263 288.136 382.887 275.852 381.871 263.37Z"/>
	<path fill="#A6A5A5" d="M255.271 399.858C255.232 397.908 246.153 387.461 244.479 385.076C223.095 354.609 210.835 320.35 217.513 282.722C220.386 266.535 227.364 244.663 241.505 234.754C241.441 244.206 241.252 253.648 242.022 263.078C245.706 308.202 262.956 351.753 295.049 384.204C307.621 396.916 322.259 406.838 337.809 415.526C326.614 439.04 312.916 458.451 287.409 467.517C269.361 473.932 252.723 471.126 234.712 466.373C247.904 464.408 261.388 462.347 269.894 450.87C274.355 444.852 276.091 437.624 274.87 430.242C272.764 417.51 263.227 409.168 255.271 399.858Z"/>
	<path fill="#A7D9DB" d="M486.063 467.985L486.273 468.735C487.248 472.316 487.424 475.983 488.652 479.546C492.845 491.717 502.781 507.063 513.46 514.487L522.576 511.603C519.671 518.273 516.277 525.288 515.169 532.529C523.455 545.948 543.238 560.101 555.561 570.403C568.49 581.211 581.285 592.207 594.801 602.283C605.048 609.922 616.427 616.648 625.799 625.377C620.978 652.574 611.63 679.297 602.376 705.244C568.727 711.324 533.947 712.514 500.636 703.912C495.387 702.556 488.743 701.352 484.201 698.389C483.381 697.855 482.925 697.374 482.511 696.469C482.746 695.677 482.627 695.433 483.409 694.981C487.13 692.829 497.146 694.461 502.225 693.334C512.337 691.088 535.587 671.124 538.684 661.19C539.883 657.344 538.436 653.197 536.491 649.887C533.069 644.062 528.416 636.968 522.841 633.123C521.227 632.01 514.313 630.07 514.466 629.294L515.07 628.735C521.784 622.463 525.249 608.91 525.656 599.94C522.134 592.657 516.167 587.14 511.177 580.879C506.013 574.399 501.977 567.085 498.466 559.604C501.173 555.693 506.044 549.442 505.08 544.364C504.862 543.215 504.619 543.101 503.749 542.409C498.73 542.316 492.242 549.547 488.762 552.898C477.821 563.434 467.919 575.077 458.573 587.037C451.422 583.752 441.278 579.718 433.283 582.467C431.739 582.999 431.416 583.692 430.75 585.053L430.91 585.975C436.934 588.746 444.421 587.936 450.394 591.162C458.687 595.642 466.172 603.669 473.642 609.529C480.734 615.092 488.383 620.031 495.741 625.239C478.564 639.028 472.574 651.615 460.824 669.056C450.165 659.054 439.793 648.824 429.321 638.635C422.888 632.376 415.967 626.429 410.388 619.373C410.494 613.095 402.233 607.553 403.517 598.404C404.641 590.392 414.564 577.088 419.095 569.78C432.679 547.866 453.622 516.46 458.688 491.154C459.198 490.337 459.639 489.524 460.487 489.003C462.341 487.864 464.695 488.725 466.621 489.196C469.255 485.743 471.956 482.389 475.024 479.309C478.474 475.846 483.536 472.106 486.063 467.985Z"/>
	<path fill="#1D3658" d="M458.688 491.154C459.198 490.337 459.639 489.524 460.487 489.003C462.341 487.864 464.695 488.725 466.621 489.196C478.884 495.014 489.361 505.535 494.053 518.469C494.895 520.789 496.155 524.861 495.173 527.213L494.338 527.429C491.449 525.245 489.456 521.43 487.541 518.389C478.112 503.421 474.253 499.715 458.688 491.154Z"/>
	<path fill="#A7D9DB" d="M679.975 680.905C683.19 684.543 672.267 757.977 670.753 766.197Q667.595 783.362 662.983 800.194Q659.314 813.198 654.716 825.903C651.728 833.995 647.899 842.035 646.503 850.594C643.396 869.646 647.11 889.919 647.538 909.122C643.154 911.472 638.793 913.599 634.004 915.001C616.305 920.182 597.793 916.102 582.003 907.346C585.125 882.436 591.265 857.87 595.789 833.182Q599.769 811.88 601.945 790.32Q604.122 768.759 604.48 747.092C612.415 740.672 644.524 721.97 647.365 715.186L647.021 714.508C645.191 714.109 643.517 714.551 641.756 715.076C635.166 717.041 628.886 721.002 623.035 724.591C614.198 730.013 605.379 735.883 598.236 743.461C589.117 753.135 582.907 765.456 576.355 776.924Q565.011 796.736 554.189 816.838C539.936 843.175 526.842 869.871 516.107 897.865C510.985 911.225 507.483 925.235 502.122 938.467C489.608 943.689 477.105 947.155 463.448 946.527C450.719 945.942 441.05 941.628 432.443 932.269C438.447 918.23 445.191 904.523 451.785 890.757C455.989 881.981 460.602 873.185 463.582 863.905C467.643 851.256 469.642 834.318 472.038 820.898C478.69 783.627 483.758 746.15 490.961 708.964C520.946 717.973 552.729 718.177 583.621 715.022C589.881 714.383 597.658 714.358 603.335 711.624C610.619 708.115 613.287 697.505 615.887 690.45C628.986 690.706 638.925 688.974 650.955 683.817C651.198 686.661 651.261 689.785 652.059 692.536C652.504 694.074 653.051 694.834 654.425 695.62C661.98 695.402 673.966 685.34 679.975 680.905Z"/>
	<path fill="#A6A5A5" d="M249.646 269.924C251.269 269.19 251.192 254.06 251.26 251.899C252.655 207.557 270.868 161.342 300.572 128.353C310.278 117.573 321.363 108.722 332.935 100.056C371.912 70.865 416.869 50.1077 466.018 47.7204C495.816 46.273 536.291 53.5283 562.538 67.8435C569.672 71.7344 575.839 76.4237 581.85 81.8634C553.307 143.718 497.444 197.376 438.539 230.561C417.766 242.264 395.895 251.584 373.54 259.809C360.692 264.536 347.888 268.169 334.377 270.458C346.604 263.737 358.85 257.412 370.533 249.739C420.716 216.775 460.623 169.707 490.054 117.731C494.894 109.181 498.849 100.404 503.323 91.6951C504.377 89.644 505.161 85.7264 504.298 83.5084C504.231 83.3375 504.125 83.1851 504.038 83.0234C503.026 82.7415 503.391 82.6348 502.561 83.1013C497.958 85.686 490.905 103.003 487.834 108.639Q481.728 120.057 474.869 131.039Q468.01 142.022 460.43 152.519C438.521 182.696 409.928 214.811 379.483 236.559C379.519 208.838 385.784 180.083 395.355 154.146C398.153 146.563 411.253 121.15 410.913 116.492C409.758 115.609 409.811 115.625 408.36 115.729C397.435 122.249 384.314 164.337 381.005 177.412Q379.026 185.06 377.603 192.831Q376.179 200.602 375.317 208.455Q374.455 216.308 374.16 224.202Q373.865 232.097 374.138 239.992C364.463 246.535 354.782 252.968 344.775 259.001C340.31 261.692 320.43 271.249 318.713 274.501C319.223 275.786 319.323 276.049 320.674 276.656C329.129 280.455 365.753 268.468 375.91 265.38C376.785 276.717 378.174 287.753 379.956 298.98C370.55 297.205 362.351 297.279 354.056 302.838C345.669 308.458 340.198 317.631 338.305 327.46C335.901 339.937 339.392 353.124 346.462 363.535C356.231 377.92 372.464 386.024 389.208 389.192C398.196 390.893 407.239 390.705 416.337 390.445Q422.576 399.659 429.737 408.176Q436.898 416.693 444.904 424.422C442.736 425.508 439.493 424.976 437.129 424.772C428.765 424.052 420.313 422.046 412.152 420.135C396.14 416.387 380.707 411.279 365.901 404.063C333.736 388.387 303.661 362.356 282.019 333.998Q272.432 321.551 264.26 308.132C260.699 302.253 257.58 294.847 253.111 289.694C253.008 289.575 252.9 289.459 252.794 289.342C250.871 283.051 250.363 276.434 249.646 269.924Z"/>
	<path fill="#F5FAF2" d="M578.618 102.777C600.614 115.855 623.596 140.455 636.954 162.144Q641.661 169.814 645.422 177.99Q649.183 186.166 651.944 194.731C655.72 206.366 655.577 219.902 662.08 230.516C666.424 237.606 674.005 242.788 680.335 248.028C685.85 252.626 691.09 258.094 695.413 263.83C704.569 278.399 709.247 292.964 705.32 310.17C700.816 329.911 687.04 346.778 672.354 360.076C668.786 363.306 664.666 367.117 660.48 369.517C660.365 369.583 660.24 369.628 660.12 369.684C652.462 370.565 643.596 377.419 636.738 381.034Q630.024 384.52 623.059 387.474C580.666 405.1 534.954 417.611 489.07 420.994C482.867 421.451 476.579 422.107 470.363 422.065C438.537 365.642 430.301 303.912 433.532 240.094C451.712 230.854 468.396 219.339 484.388 206.728C492.486 200.342 500.12 193.396 508.541 187.425C517.445 186.612 526.622 186.774 535.346 188.889C541.718 190.434 555.531 198.223 560.623 197.57L561.169 196.752C561.046 195.473 560.818 194.863 559.904 193.918C549.517 183.19 528.588 181.719 514.801 181.491C539.889 158.467 561.992 132.567 578.618 102.777Z"/>
	<path fill="#1D3658" d="M627.902 263.606C631.309 264.51 635.176 266.377 638.18 268.211C640.31 269.513 642.368 271.599 642.871 274.126C643.786 278.714 640.423 283.794 638.011 287.451C637.046 287.801 636.251 287.968 635.25 287.649C634.369 287.368 634.42 286.931 634.044 286.157C633.979 282.232 636.314 278.599 638.094 275.235C634.789 273.535 630.453 271.938 628.329 268.729C627.153 266.952 627.535 265.56 627.902 263.606Z"/>
	<path fill="#1D3658" d="M622.409 152.554C624.094 152.426 626.429 152.242 628.009 152.886C628.912 153.255 628.58 153.018 629.013 154.035C627.644 155.836 622.062 156.831 619.822 158.394C612.441 163.54 611.146 173.215 609.67 181.391L609.151 182.311C607.994 182.954 608.024 182.952 606.727 182.691C605.971 182.025 605.575 181.604 605.207 180.638C603.455 176.037 605.484 169.84 607.525 165.606C610.768 158.873 615.43 154.997 622.409 152.554Z"/>
	<path fill="#DAB2A5" d="M680.335 248.028C685.85 252.626 691.09 258.094 695.413 263.83C692.676 265.184 689.799 266.155 686.742 266.416C683.025 266.734 678.674 266.09 675.853 263.437C674.428 262.097 673.598 260.305 673.633 258.342C673.715 253.839 677.309 250.844 680.335 248.028Z"/>
	<path fill="#1D3658" d="M639.215 326.358C640.712 327.194 641.405 327.858 642.039 329.463C642.037 330.92 641.628 331.681 640.722 332.77C631.652 343.669 615.903 348.724 602.241 350.158C583.882 352.086 567.34 348.388 552.929 336.709C551.787 335.499 550.568 334.066 550.326 332.347C550.146 331.072 550.241 330.843 550.993 329.924C556.028 328.356 563.589 337.246 568.095 339.564C572.29 341.723 578.109 342.756 582.765 343.379C605.011 346.354 621.771 339.698 639.215 326.358Z"/>
	<path fill="#1D3658" d="M642.063 184.07C643.325 184.418 644.049 184.794 644.881 185.788C647.27 188.64 647.518 192.573 647.25 196.12C646.772 202.427 644.86 207.323 640.003 211.442C645.829 220.888 651.05 231.468 653.33 242.383C654.098 246.06 655.297 252.503 652.804 255.654C652.008 256.66 650.756 257.522 649.434 257.642C646.541 257.904 644.391 255.571 642.432 253.782C641.488 252.719 640.587 251.628 639.775 250.46C633.346 241.22 621.927 216.359 624.323 204.912C624.744 202.9 625.553 201.701 627.227 200.554C631.404 199.576 633.541 204.186 637.287 204.8C638.553 205.007 639.578 204.564 640.482 203.708C644.209 200.184 642.216 188.862 642.063 184.07Z"/>
	<path fill="#F5FAF2" d="M632.433 212.332C634.803 212.349 636.383 212.545 638.165 214.173C641.327 217.065 641.893 221.735 642.012 225.776C640.517 225.594 639.29 225.354 638.012 224.507C634.004 221.849 633.251 216.692 632.433 212.332Z"/>
	<path fill="#DAB2A5" d="M499.139 290.606C505.066 290.222 512.054 290.028 517.299 293.189C519.971 294.799 521.904 297.304 522.558 300.379C523.382 304.255 522.098 308.149 519.951 311.371C514.51 319.54 505.56 322.772 496.384 324.614C490.112 325.363 482.134 325.424 476.584 322.033C474.228 320.593 472.515 318.465 471.881 315.756C470.987 311.929 472.285 307.938 474.394 304.742C479.833 296.5 489.818 292.416 499.139 290.606Z"/>
	<path fill="#1D3658" d="M532.533 218.453C533.444 218.568 534.363 218.691 535.256 218.911C542.202 220.624 547.213 227.107 550.757 232.94C557.902 244.699 565.563 265.101 561.789 279.015C561.083 281.619 559.497 285.366 556.795 286.501C555.241 287.154 553.842 287.102 552.289 286.554C543.757 283.542 538.755 273.019 535.001 265.488C531.421 257.835 529.83 249.608 528.301 241.363C521.734 241.836 516.336 242.077 510.473 238.492C505.914 235.705 500.129 230.388 499.059 224.98C498.716 223.246 499.024 221.998 500.05 220.543C503.498 220.94 510.264 233.469 518.825 236.189C520.716 236.79 523.503 237.093 525.237 235.859C528.073 233.841 527.588 228 528.104 224.796C528.598 221.732 530.058 220.18 532.533 218.453Z"/>
	<path fill="#F5FAF2" d="M543.014 231.109C543.626 231.255 544.211 231.435 544.791 231.682C547.562 232.863 549.691 235.365 550.693 238.188C551.965 241.774 551.613 244.53 549.935 247.85C546.795 246.036 543.885 243.378 542.571 239.914C541.321 236.621 541.663 234.274 543.014 231.109Z"/>
</svg>
