<?xml version="1.0" encoding="utf-8" ?>
<svg xmlns="http://www.w3.org/2000/svg" xmlns:xlink="http://www.w3.org/1999/xlink" width="1024" height="1024">
	<path fill="#D4A375" d="M853.74 562.797C853.255 555.435 852.734 548.047 852.549 540.67C854.982 547.674 855.57 555.781 856.176 563.146L855.533 563.656L853.74 562.797Z"/>
	<path fill="#AA7961" d="M856.176 563.146C858.532 572.946 856.513 593.163 852.71 602.691C852.325 598.636 854.247 590.551 854.585 585.975C855.157 578.232 854.369 570.512 853.74 562.797L855.533 563.656L856.176 563.146Z"/>
	<path fill="#502D13" d="M202.766 416.227Q201.708 417.895 200.823 419.662Q199.939 421.429 199.237 423.276Q198.535 425.122 198.023 427.031Q197.511 428.939 197.194 430.889C196.377 435.64 197.69 448.123 194.851 451.354C193.59 451.219 192.925 450.603 192.059 449.738C183.396 441.075 179.801 428.221 179.848 416.255C179.975 384.231 206.833 355.464 236.135 345.585C240.557 344.094 245.346 342.848 249.993 342.348C252.306 342.1 255.224 342.36 257.42 341.651C258.439 341.322 258.929 340.952 259.672 340.214C259.873 339.655 260.197 339.126 260.273 338.538C260.493 336.853 252.85 331.082 251.365 329.834C234.691 315.818 222.726 294.291 216.549 273.651Q216.054 271.977 215.601 270.29Q215.147 268.604 214.735 266.908Q214.323 265.211 213.953 263.504Q213.583 261.798 213.255 260.083Q212.927 258.368 212.641 256.646Q212.355 254.923 212.112 253.194Q211.869 251.465 211.668 249.731Q211.467 247.996 211.309 246.257Q211.151 244.519 211.036 242.776Q210.92 241.034 210.848 239.29Q210.776 237.545 210.746 235.799Q210.717 234.053 210.73 232.307Q210.744 230.561 210.8 228.816Q210.857 227.071 210.956 225.328Q211.055 223.585 211.198 221.844Q211.34 220.104 211.525 218.368Q211.709 216.632 211.937 214.901Q212.165 213.169 212.435 211.444Q212.705 209.719 213.017 208.001Q213.329 206.284 213.684 204.574Q214.038 202.864 214.435 201.164Q214.831 199.463 215.269 197.773Q215.708 196.083 216.187 194.404Q216.667 192.725 217.187 191.059Q217.708 189.392 218.27 187.739Q218.831 186.085 219.433 184.447Q220.035 182.808 220.677 181.184Q221.319 179.56 222.001 177.953Q222.683 176.345 223.404 174.755Q224.125 173.165 224.886 171.593Q225.646 170.021 226.444 168.468Q227.243 166.916 228.079 165.383C251.039 123.063 293.495 95.6066 339.457 84.0592C345.566 82.5244 351.955 81.0948 358.206 80.3107C362.953 79.7151 368.506 80.157 373.059 78.7261C379.175 76.8038 385.023 71.6378 390.646 68.4793C399.502 63.5051 409.472 59.7196 419.205 56.8637C438.672 51.1521 477.302 43.9035 495.199 53.6738C504.075 66.5678 501.229 89.0282 499.799 103.777Q501.776 104.023 503.743 104.343Q505.71 104.663 507.663 105.056Q509.617 105.449 511.554 105.915Q513.491 106.38 515.41 106.918Q517.329 107.456 519.226 108.065Q521.123 108.674 522.996 109.353Q524.87 110.032 526.716 110.781Q528.563 111.53 530.38 112.347Q532.197 113.164 533.983 114.048Q535.768 114.933 537.52 115.883Q539.271 116.833 540.986 117.849Q542.7 118.864 544.376 119.942Q546.051 121.02 547.685 122.161Q549.32 123.301 550.91 124.501Q552.5 125.702 554.045 126.96Q555.589 128.219 557.086 129.535C575.974 146.306 586.394 170.348 587.872 195.42C573.516 187.43 563.203 183.823 546.736 182.911C546.156 201.923 547.152 222.377 558.321 238.518C563.955 246.659 570.037 254.446 574.323 263.425C582.113 279.744 583.332 297.95 577.259 315.052C565.395 348.46 530.861 370.275 498.523 380.799C491.121 383.207 476.655 385.748 471.042 388.408C472.007 392.613 487.414 397.956 491.777 400.218C494.289 401.52 496.54 403.166 498.76 404.91C509.596 413.419 519.407 423.509 528.387 433.936C546.091 454.495 592.492 518.153 595.972 543.9C598.078 559.476 593.966 575.639 590.259 590.691C588.879 596.296 587.008 602.16 586.727 607.948C586.067 621.547 589.912 635.992 591.131 649.59C592.968 670.075 592.952 690.921 595.379 711.318C596.275 725.283 600.345 762.953 596.516 774.715C592.715 788.948 576.626 800.918 565.129 808.716Q563.717 829.241 560.67 849.587Q557.623 869.933 552.961 889.971C550.644 900.094 547.549 910.013 545.14 920.104C544.615 922.307 543.146 927.768 544.12 929.825C546.561 934.984 584.887 942.005 591.413 953.485C592.239 954.937 592.878 957.311 592.2 958.941C591.17 961.416 588.281 962.91 585.98 963.964C562.835 974.563 525.496 970.807 502.084 961.98C502.028 953.357 501.457 944.709 500.984 936.1C498.446 936.016 493.339 936.331 491.463 934.441C488.356 931.312 488.197 921.596 487.731 917.176Q485.846 898.247 485.173 879.237Q484.5 860.227 485.042 841.212C485.3 830.507 486.434 819.767 486.435 809.08L485.594 808.911L486.216 807.125C486.058 807.141 485.893 807.125 485.742 807.173C483.824 807.782 482.73 809.907 481.891 811.572C480.267 814.796 479.339 818.405 478.034 821.77Q473.582 832.935 469.58 844.268Q457.675 876.719 446.642 909.477C442.416 922.385 439.551 936.623 433.639 948.863C433.543 949.061 433.443 949.257 433.346 949.454C432.338 950.059 430.739 950.798 429.998 951.673C427.319 954.836 428.217 962.245 427.536 966.313C427.186 968.409 426.53 970.305 425.714 972.26C409.586 984.116 384.443 987.217 364.822 987.894C358.685 988.106 346.91 989.205 342.257 984.479C341.103 983.308 340.543 981.757 340.652 980.12C341.409 968.706 369.192 951.013 377.608 943.944C376.509 943.105 375.675 942.391 374.797 941.303C373.632 931.2 374.874 920.134 375.442 909.973Q377.517 873.565 382.431 837.43C383.617 828.027 384.552 818.556 386.042 809.199C369.1 799.476 353.688 786.254 339.608 772.821C341.056 766.609 343.793 760.455 345.976 754.453Q349.85 743.65 353.228 732.681Q368.287 685.112 381.871 637.1C375.516 631.73 369.384 626.014 363.17 620.475C349.632 608.406 334.904 595.802 324.828 580.566C320.707 574.335 318.749 569.004 320.349 561.43C326.975 530.081 379.482 460.888 400.401 432.137C406.436 423.842 414.37 408.96 422.623 403.596L430.472 403.405C435.869 400.295 438.388 395.976 440.006 390.125C431.694 391.526 424.162 396.01 416.069 398.307C383.361 407.591 344.752 398.006 317.13 379.296C309.143 373.886 298.536 363.716 291.048 359.678C290.887 359.592 290.723 359.511 290.561 359.427C294.464 365.65 300.239 371.147 305.096 376.641C317.126 390.25 327.214 407.267 329.445 425.574C330.094 430.896 330.837 439.81 327.161 444.168C325.596 446.023 323.387 446.937 320.991 447.063C309.948 447.643 300.291 437.075 292.963 430.176C294.098 442.734 297.218 459.471 307.418 468.085C311.548 471.574 316.561 474.058 320.382 477.886C320.415 478.835 320.556 478.489 319.984 479.245C316.418 483.957 301.583 485.339 296.161 485.951C272.662 488.603 246.169 485.965 227.119 470.661C208.877 456.007 205.137 438.361 202.766 416.227ZM483.777 410.639C485.465 413.794 486.8 417.206 487.835 420.632C488.953 423.622 488.686 427.849 487.335 430.724C485.677 434.255 482.229 436.429 478.631 437.601C466.022 441.708 454.178 436.169 443.244 430.41C448.242 442.062 454.009 453.403 459.014 465.075Q472.346 496.234 482.852 528.456C487.365 531.166 491.407 533.97 494.528 538.298C498.935 544.408 500.636 552.36 499.334 559.764C497.651 569.335 491.501 574.765 483.945 579.976C484.56 593.667 485.165 607.495 483.887 621.165C512.671 617.514 533.734 611.23 558.494 595.091C556.397 587.357 555.54 579.128 554.032 571.252Q552.407 562.585 549.975 554.109Q547.544 545.633 544.327 537.422C539.469 536.566 535.753 535.404 531.915 532.075C521.167 522.751 517.12 503.847 516.507 490.328C516.284 485.394 516.811 480.44 516.51 475.508C515.659 461.582 494.506 418.291 483.857 408.874L483.328 408.989L483.777 410.639ZM525.582 438.966C527.25 441.52 528.84 443.919 529.902 446.797C538.678 459.388 548.699 473.488 553.955 487.997C557.434 497.599 556.159 507.92 557.99 517.821C560.355 530.607 565.078 543.06 567.891 555.805Q570.632 568.055 572.662 580.443C573.583 585.917 574.168 591.716 575.643 597.061L584.121 600.69C594.801 557.856 599.803 547.636 575.889 507.872C563.345 487.015 550.409 464.733 533.804 446.839C530.774 444.69 528.245 441.573 525.582 438.966ZM404.263 520.651C397.371 531.765 390.676 542.87 384.582 554.45C385.573 554.277 386.474 554.125 387.479 554.06C389.535 556.706 388.416 558.751 391.679 560.947C393.883 565.168 390.541 572.003 393.534 575.491C395.966 575.847 395.839 577.391 397.859 578.002C398.162 577.113 398.209 576.89 398.163 576.011C399.719 575.639 402.441 576.195 403.847 576.994C405.996 578.214 406.093 580.646 408.177 581.9Q410.728 571.978 412.467 561.882Q414.206 551.786 415.122 541.582C414.801 540.67 414.423 540.3 413.701 539.707C412.407 538.643 411.203 537.508 409.986 536.358C410.793 533.954 412.28 530.578 412.076 528.053C411.986 526.934 411.247 526.393 410.475 525.698C409.861 525.144 409.406 524.802 408.989 524.064C408.907 523.919 408.855 523.759 408.787 523.607C408.507 522.99 408.197 522.102 407.765 521.589C406.806 520.448 405.618 520.718 404.263 520.651ZM547.951 535.322C546.99 539.088 550.857 547.365 552.138 551.234C555.402 563.967 558.537 576.651 560.547 589.656C562.11 599.774 562.839 609.998 564.346 620.112L564.521 619.957C565.667 620.024 566.176 619.84 567.243 619.481C568.471 617.715 568.931 615.632 569.541 613.593L569.796 612.002C570.269 609.079 570.433 606.267 570.538 603.311C571.731 599.854 570.282 595.837 571.832 592.593C571.592 590.544 571.287 588.616 570.738 586.626C568.834 570.921 563.749 550.202 559.3 534.969C558.581 531.405 557.183 527.953 555.802 524.605C553.642 528.887 551.367 531.947 547.951 535.322ZM532.666 500.887C534.644 506.135 540.988 526.107 545.531 528.347C547.191 528.485 548.868 528.687 550.264 527.54C552.122 526.014 552.751 523.069 553.022 520.812C554.64 507.363 543.873 484.801 535.658 474.567C533.799 472.022 531.175 468.679 528.221 467.441C526.959 467.534 526.622 467.474 525.754 468.519C523.234 471.552 523.973 478.976 524.838 482.492C526.303 488.447 529.369 495.693 532.666 500.887ZM539.802 932.409C536.284 933.198 532.669 933.505 529.143 934.293L530.036 934.876C525.19 936.485 511.852 935.284 508.578 938.225L508.777 938.862L509.184 938.767L509.482 939.273L508.921 940.851C519.534 946.293 539.754 948.727 551.124 946.056L548.86 945.851L548.758 945.586C550.361 944.921 551.813 944.091 553.312 943.22C555.871 943.585 558.182 943.513 560.739 943.331L560.943 944.019C562.115 943.577 563.09 943.314 563.87 942.265C562.849 941.236 542.503 933.332 539.802 932.409ZM410.135 424.563C412.688 437.202 414.732 450.853 419.924 462.72L426.02 465.268C426.109 461.809 426.172 458.433 425.807 454.983C425.13 448.577 420.198 427.874 422.692 423.087C421.908 420.269 421.485 417.465 419.673 415.11C419.077 414.815 418.647 414.374 417.966 414.622C415.222 415.622 411.95 422.094 410.135 424.563ZM384.582 554.45L383.361 556.8L380.613 562.132L378.962 565.494C385.629 574.199 395.49 586.073 404.34 592.362L405 592.114C406.369 588.837 407.216 585.316 408.177 581.9C406.093 580.646 405.996 578.214 403.847 576.994C402.441 576.195 399.719 575.639 398.163 576.011C398.209 576.89 398.162 577.113 397.859 578.002C395.839 577.391 395.966 575.847 393.534 575.491C390.541 572.003 393.883 565.168 391.679 560.947C388.416 558.751 389.535 556.706 387.479 554.06C386.474 554.125 385.573 554.277 384.582 554.45ZM487.57 406.19C489.658 408.911 492.268 411.768 493.663 414.894C494.822 416.482 495.539 418.601 496.557 420.347C502.685 430.85 507.847 441.495 512.59 452.689C513.977 451.207 516.921 448.173 519.001 447.781C519.908 447.61 519.199 447.966 520.23 447.147C520.079 440.327 510.763 427.534 506.178 422.478C503.82 419.878 500.999 417.738 498.558 415.215C495.962 412.531 493.482 409.399 490.672 406.96C489.461 405.908 489.135 406.113 487.57 406.19ZM391.956 959.217C390.322 959.359 388.574 959.56 386.943 959.342C383.695 958.907 379.766 956.594 376.869 958.791C378.359 958.991 379.779 958.983 380.913 960.079C381.321 961.338 381.517 961.559 381.124 962.797C379.214 964.218 376.444 963.801 374.219 964.534C374.677 964.689 375.13 964.85 375.595 964.985C387.124 968.337 403.84 960.596 413.731 955.329L413.491 954.012C411.203 953.249 408.778 952.779 406.432 952.216C404.155 951.607 401.325 951.824 398.945 951.687C397.608 951.85 397.36 951.794 396.561 953.007C394.896 955.535 394.471 957.204 391.956 959.217ZM393.419 949.13C392.417 950.786 391.637 951.907 389.672 952.374C386.352 953.162 382.539 951.783 379.066 952.012L378.04 952.666C376.562 954.38 373.852 956.993 373.927 959.35L374.538 959.675C375.312 959.407 376.153 959.188 376.869 958.791C379.766 956.594 383.695 958.907 386.943 959.342C388.574 959.56 390.322 959.359 391.956 959.217C394.471 957.204 394.896 955.535 396.561 953.007C397.36 951.794 397.608 951.85 398.945 951.687L398.756 950.917L399.353 950.314C397.786 949.581 395.168 949.453 393.419 949.13ZM409.696 512.753C408.141 515.083 406.34 517.449 405.029 519.915L404.263 520.651C405.618 520.718 406.806 520.448 407.765 521.589C408.197 522.102 408.507 522.99 408.787 523.607C408.855 523.759 408.907 523.919 408.989 524.064C409.406 524.802 409.861 525.144 410.475 525.698C411.247 526.393 411.986 526.934 412.076 528.053C412.28 530.578 410.793 533.954 409.986 536.358C411.203 537.508 412.407 538.643 413.701 539.707C414.423 540.3 414.801 540.67 415.122 541.582C415.891 535.192 415.962 528.475 415.552 522.059C413.731 519.727 413.321 517.469 412.148 514.887C411.528 513.523 411.053 513.342 409.696 512.753ZM582.378 633.182L583.553 630.391L583.708 628.961L584.699 628.525C585.597 622.26 583.582 611.633 582.921 605.159C580.789 603.743 578.706 602.305 576.379 601.22C577.35 609.571 579.493 625.719 582.378 633.182ZM365.886 958.422C368.444 961.262 370.566 963.135 374.219 964.534C376.444 963.801 379.214 964.218 381.124 962.797C381.517 961.559 381.321 961.338 380.913 960.079C379.779 958.983 378.359 958.991 376.869 958.791C376.153 959.188 375.312 959.407 374.538 959.675L373.927 959.35C373.852 956.993 376.562 954.38 378.04 952.666L379.066 952.012C379.845 950.475 379.361 949.57 378.977 948.007C374.393 951.225 369.712 954.272 365.886 958.422ZM520.23 447.147C519.199 447.966 519.908 447.61 519.001 447.781C516.921 448.173 513.977 451.207 512.59 452.689C516.643 455.27 514.91 460.125 518.134 461.811C519.812 461.302 520.465 460.259 521.428 458.811L520.556 458.862L520.056 458.288C519.69 456.111 521.005 451.901 522.189 449.986L520.23 447.147ZM378.977 948.007C379.361 949.57 379.845 950.475 379.066 952.012C382.539 951.783 386.352 953.162 389.672 952.374C391.637 951.907 392.417 950.786 393.419 949.13C389.297 948.178 385.378 946.884 381.437 945.357C380.595 945.957 379.8 946.626 378.992 947.272L378.977 948.007ZM522.189 449.986C521.005 451.901 519.69 456.111 520.056 458.288L520.556 458.862L521.428 458.811C521.885 458.927 522.644 459.134 523.092 459.183C524.296 459.316 524.457 459.298 525.34 458.491C525.336 455.715 523.364 452.513 522.189 449.986Z"/>
	<path fill="#F2F3D3" d="M553.312 943.22C555.871 943.585 558.182 943.513 560.739 943.331L560.943 944.019C557.736 944.955 554.483 945.9 551.124 946.056L548.86 945.851L548.758 945.586C550.361 944.921 551.813 944.091 553.312 943.22Z"/>
	<path fill="#FCFAE9" fill-opacity="0.031372551" d="M522.189 449.986C523.364 452.513 525.336 455.715 525.34 458.491C524.457 459.298 524.296 459.316 523.092 459.183C522.644 459.134 521.885 458.927 521.428 458.811L520.556 458.862L520.056 458.288C519.69 456.111 521.005 451.901 522.189 449.986Z"/>
	<path fill="#F2F3D3" d="M503.745 936.597Q516.466 935.684 529.143 934.293L530.036 934.876C525.19 936.485 511.852 935.284 508.578 938.225L508.777 938.862L509.184 938.767L509.482 939.273L508.921 940.851C507.047 939.582 505.424 938.106 503.745 936.597Z"/>
	<path fill="#3C2715" d="M520.272 467.659C519.335 466.133 519.369 466.027 519.511 464.23C520.071 463.448 520.599 462.821 521.447 462.352C525.171 460.292 528.91 460.833 532.751 462.02L532.308 463.727C529.855 464.782 527.805 462.252 524.987 463.621C523.082 464.733 521.762 466.047 520.272 467.659Z"/>
	<path fill="#F2F3D3" d="M399.353 950.314Q410.468 951.46 421.62 952.167C419.059 953.196 416.363 954.552 413.731 955.329L413.491 954.012C411.203 953.249 408.778 952.779 406.432 952.216C404.155 951.607 401.325 951.824 398.945 951.687L398.756 950.917L399.353 950.314Z"/>
	<path fill="#FCFAE9" d="M409.696 512.753L413.83 506.958C414.796 511.92 415.628 516.988 415.552 522.059C413.731 519.727 413.321 517.469 412.148 514.887C411.528 513.523 411.053 513.342 409.696 512.753Z"/>
	<path fill="#FCFAE9" d="M583.553 630.391L584.88 630.187C586.708 633.572 586.761 644.183 587.099 648.503C585.064 643.683 582.91 638.436 582.378 633.182L583.553 630.391Z"/>
	<path fill="#F2F3D3" d="M525.929 447.147L529.092 451.057C531.284 453.875 536.452 459.573 536.034 463.238L535.123 463.529C534.303 463.054 533.516 462.582 532.751 462.02C530.343 457.124 527.883 452.248 525.929 447.147Z"/>
	<path fill="#FCFAE9" d="M493.663 414.894L492.928 415.116Q488.325 408.986 482.872 403.599C480.052 400.818 476.929 398.32 474.368 395.29C478.017 397.107 488.022 402.135 489.831 405.449L488.003 405.636L487.57 406.19C489.658 408.911 492.268 411.768 493.663 414.894Z"/>
	<path fill="#F2F3D3" fill-opacity="0.76078433" d="M378.977 948.007L378.992 947.272C379.8 946.626 380.595 945.957 381.437 945.357C385.378 946.884 389.297 948.178 393.419 949.13C392.417 950.786 391.637 951.907 389.672 952.374C386.352 953.162 382.539 951.783 379.066 952.012C379.845 950.475 379.361 949.57 378.977 948.007Z"/>
	<path fill="#FCFAE9" fill-opacity="0.078431375" d="M520.23 447.147L522.189 449.986C521.005 451.901 519.69 456.111 520.056 458.288L520.556 458.862L521.428 458.811C520.465 460.259 519.812 461.302 518.134 461.811C514.91 460.125 516.643 455.27 512.59 452.689C513.977 451.207 516.921 448.173 519.001 447.781C519.908 447.61 519.199 447.966 520.23 447.147Z"/>
	<path fill="#F2F3D3" d="M525.594 493.935C530.618 498.258 537.078 519.544 539.51 526.707C539.249 526.573 538.981 526.454 538.728 526.307C530.826 521.703 526.953 502.128 525.594 493.935Z"/>
	<path fill="#DEB68A" d="M443.266 390.021L466.411 388.801C466.551 390.803 466.876 392.942 466.667 394.934C460.499 392.442 449.019 395.083 442.042 394.998L443.266 390.021Z"/>
	<path fill="#FCFAE9" d="M529.902 446.797C522.662 441.417 515.529 428.482 509.771 421.154C506.303 416.739 502.104 412.856 498.289 408.733L498.234 408.231C504.318 413.41 532.295 440.415 533.804 446.839C530.774 444.69 528.245 441.573 525.582 438.966C527.25 441.52 528.84 443.919 529.902 446.797Z"/>
	<path fill="#F2F3D3" d="M396.987 653.895C401.814 653.474 406.371 652.593 411.018 651.221C411.109 654.429 411.082 657.693 411.336 660.889C406.611 662.088 401.735 662.526 396.903 663.095L396.987 653.895Z"/>
	<defs>
		<linearGradient id="gradient_0" gradientUnits="userSpaceOnUse" x1="409.84781" y1="522.94897" x2="412.44879" y2="520.9339">
			<stop offset="0" stop-color="white" stop-opacity="0.80784315"/>
			<stop offset="1" stop-color="white" stop-opacity="0.84705883"/>
		</linearGradient>
	</defs>
	<path fill="url(#gradient_0)" d="M409.696 512.753C411.053 513.342 411.528 513.523 412.148 514.887C413.321 517.469 413.731 519.727 415.552 522.059C415.962 528.475 415.891 535.192 415.122 541.582C414.801 540.67 414.423 540.3 413.701 539.707C412.407 538.643 411.203 537.508 409.986 536.358C410.793 533.954 412.28 530.578 412.076 528.053C411.986 526.934 411.247 526.393 410.475 525.698C409.861 525.144 409.406 524.802 408.989 524.064C408.907 523.919 408.855 523.759 408.787 523.607C408.507 522.99 408.197 522.102 407.765 521.589C406.806 520.448 405.618 520.718 404.263 520.651L405.029 519.915C406.34 517.449 408.141 515.083 409.696 512.753ZM405.029 519.915L404.263 520.651C405.618 520.718 406.806 520.448 407.765 521.589C408.197 522.102 408.507 522.99 408.787 523.607C408.559 522.342 408.067 521.357 408.726 520.215L411.479 519.831C411.513 519.685 411.56 519.541 411.581 519.392C411.809 517.786 411.417 515.618 410.561 514.253C409.284 514.86 408.659 517.417 408.12 518.756C407.297 519.38 406.885 519.651 405.832 519.824C405.566 519.868 405.297 519.885 405.029 519.915Z"/>
	<path fill="#FCFAE9" fill-opacity="0.76078433" d="M405.029 519.915C405.297 519.885 405.566 519.868 405.832 519.824C406.885 519.651 407.297 519.38 408.12 518.756C408.659 517.417 409.284 514.86 410.561 514.253C411.417 515.618 411.809 517.786 411.581 519.392C411.56 519.541 411.513 519.685 411.479 519.831L408.726 520.215C408.067 521.357 408.559 522.342 408.787 523.607C408.507 522.99 408.197 522.102 407.765 521.589C406.806 520.448 405.618 520.718 404.263 520.651L405.029 519.915Z"/>
	<path fill="#F2F3D3" fill-opacity="0.90980393" d="M393.419 949.13C395.168 949.453 397.786 949.581 399.353 950.314L398.756 950.917L398.945 951.687C397.608 951.85 397.36 951.794 396.561 953.007C394.896 955.535 394.471 957.204 391.956 959.217C390.322 959.359 388.574 959.56 386.943 959.342C383.695 958.907 379.766 956.594 376.869 958.791C376.153 959.188 375.312 959.407 374.538 959.675L373.927 959.35C373.852 956.993 376.562 954.38 378.04 952.666L379.066 952.012C382.539 951.783 386.352 953.162 389.672 952.374C391.637 951.907 392.417 950.786 393.419 949.13ZM378.04 952.666C378.069 953.942 378.124 954.708 378.649 955.903C380.273 956.743 381.693 956.44 383.479 956.375C383.522 955.2 383.468 954.495 383.023 953.402C381.362 952.434 379.916 952.682 378.04 952.666Z"/>
	<path fill="#F2F3D3" fill-opacity="0.98431373" d="M378.04 952.666C379.916 952.682 381.362 952.434 383.023 953.402C383.468 954.495 383.522 955.2 383.479 956.375C381.693 956.44 380.273 956.743 378.649 955.903C378.124 954.708 378.069 953.942 378.04 952.666Z"/>
	<path fill="#FCFAE9" d="M524.987 463.621L524.628 464.164C518.514 473.62 521.159 489.158 523.448 499.465C525.082 506.816 529.979 524.529 536.902 528.822C539.858 530.654 543.975 530.743 546.675 532.967L546.638 533.67C544.641 534.637 543.158 534.263 541.13 533.567C534.242 531.202 530.024 525.86 527.036 519.474C520.519 505.549 516.169 482.766 520.272 467.659C521.762 466.047 523.082 464.733 524.987 463.621Z"/>
	<path fill="#F2F3D3" fill-opacity="0.78431374" d="M391.956 959.217C394.471 957.204 394.896 955.535 396.561 953.007C397.36 951.794 397.608 951.85 398.945 951.687C401.325 951.824 404.155 951.607 406.432 952.216C408.778 952.779 411.203 953.249 413.491 954.012L413.731 955.329C403.84 960.596 387.124 968.337 375.595 964.985C375.13 964.85 374.677 964.689 374.219 964.534C376.444 963.801 379.214 964.218 381.124 962.797C381.517 961.559 381.321 961.338 380.913 960.079C379.779 958.983 378.359 958.991 376.869 958.791C379.766 956.594 383.695 958.907 386.943 959.342C388.574 959.56 390.322 959.359 391.956 959.217ZM406.432 952.216C404.44 952.326 402.529 952.204 400.864 953.445L400.023 954.908C400.441 955.914 400.495 956.133 401.544 956.618C404.635 958.048 407.798 956.588 410.662 955.399C411.647 954.991 412.617 954.633 413.491 954.012C411.203 953.249 408.778 952.779 406.432 952.216Z"/>
	<path fill="#CCD5AE" d="M421.942 407.804C422.886 408.292 423.457 408.741 423.926 409.724C425.882 413.827 426.778 418.69 428.55 422.943C433.16 434.01 438.657 444.693 443.182 455.811C449.779 472.021 454.828 488.651 460.001 505.35C461.849 511.316 464.887 518.416 465.36 524.61C465.437 525.611 465.185 526.45 464.888 527.394C463.721 526.787 462.837 526.254 462.116 525.11C461.096 523.494 457.775 506.475 456.679 502.661C450.607 481.528 441.819 461.106 433.279 440.873C429.245 431.315 424.655 421.724 421.528 411.832C420.977 410.086 421.123 409.422 421.942 407.804Z"/>
	<path fill="#FCFAE9" fill-opacity="0.46666667" d="M384.582 554.45C385.573 554.277 386.474 554.125 387.479 554.06C389.535 556.706 388.416 558.751 391.679 560.947C393.883 565.168 390.541 572.003 393.534 575.491C395.966 575.847 395.839 577.391 397.859 578.002C398.162 577.113 398.209 576.89 398.163 576.011C399.719 575.639 402.441 576.195 403.847 576.994C405.996 578.214 406.093 580.646 408.177 581.9C407.216 585.316 406.369 588.837 405 592.114L404.34 592.362C395.49 586.073 385.629 574.199 378.962 565.494L380.613 562.132L383.361 556.8L384.582 554.45ZM380.613 562.132C381.886 562.092 382.872 561.914 384.046 562.475C384.227 563.485 384.332 564.301 384.822 565.217C385.216 565.955 385.458 565.815 386.207 566.019L387.1 565.423C388.046 562.217 385.505 561.617 384.326 559.022C383.993 558.291 383.699 557.534 383.361 556.8L380.613 562.132Z"/>
	<path fill="#FCFAE9" fill-opacity="0.53333336" d="M380.613 562.132L383.361 556.8C383.699 557.534 383.993 558.291 384.326 559.022C385.505 561.617 388.046 562.217 387.1 565.423L386.207 566.019C385.458 565.815 385.216 565.955 384.822 565.217C384.332 564.301 384.227 563.485 384.046 562.475C382.872 561.914 381.886 562.092 380.613 562.132Z"/>
	<path fill="#F2F3D3" fill-opacity="0.98823529" d="M410.135 424.563C411.95 422.094 415.222 415.622 417.966 414.622C418.647 414.374 419.077 414.815 419.673 415.11C421.485 417.465 421.908 420.269 422.692 423.087C420.198 427.874 425.13 448.577 425.807 454.983C426.172 458.433 426.109 461.809 426.02 465.268L419.924 462.72C414.732 450.853 412.688 437.202 410.135 424.563Z"/>
	<path fill="#F2F3D3" fill-opacity="0.96078432" d="M539.802 932.409C542.503 933.332 562.849 941.236 563.87 942.265C563.09 943.314 562.115 943.577 560.943 944.019L560.739 943.331C558.182 943.513 555.871 943.585 553.312 943.22C551.813 944.091 550.361 944.921 548.758 945.586L548.86 945.851L551.124 946.056C539.754 948.727 519.534 946.293 508.921 940.851L509.482 939.273L509.184 938.767L508.777 938.862L508.578 938.225C511.852 935.284 525.19 936.485 530.036 934.876L529.143 934.293C532.669 933.505 536.284 933.198 539.802 932.409ZM553.312 943.22C555.871 943.585 558.182 943.513 560.739 943.331L560.923 942.697L560.481 941.96C558.072 940.871 555.814 941.172 553.421 940.421C550.588 939.533 548.075 937.007 544.983 937.262C544.077 937.949 543.441 939.45 543.328 940.579C543.189 941.97 543.496 942.168 544.38 943.096C547.166 943.931 550.432 943.385 553.312 943.22Z"/>
	<path fill="#F2F3D3" fill-opacity="0.78823531" d="M553.312 943.22C550.432 943.385 547.166 943.931 544.38 943.096C543.496 942.168 543.189 941.97 543.328 940.579C543.441 939.45 544.077 937.949 544.983 937.262C548.075 937.007 550.588 939.533 553.421 940.421C555.814 941.172 558.072 940.871 560.481 941.96L560.923 942.697L560.739 943.331C558.182 943.513 555.871 943.585 553.312 943.22Z"/>
	<path fill="#FCFAE9" d="M411.018 651.221C428.221 643.956 444.543 635.287 460.904 626.326C461.535 630.105 462.882 635.438 460.524 638.847C456.323 644.918 419.641 658.964 411.336 660.889C411.082 657.693 411.109 654.429 411.018 651.221Z"/>
	<path fill="#FCFAE9" d="M426.944 408.258C427.269 408.355 427.744 408.472 428.043 408.657C431.054 410.516 434.492 420.181 436.145 423.584C447.472 446.912 458.072 470.323 467.419 494.522C471.535 505.177 475.613 515.732 478.794 526.711L468.735 525.892C467.293 516.639 464.458 507.607 461.752 498.663Q453.252 470.391 441.698 443.223C437.163 432.767 429.29 419.035 426.944 408.258Z"/>
	<path fill="#FCFAE9" fill-opacity="0.88627452" d="M532.666 500.887C529.369 495.693 526.303 488.447 524.838 482.492C523.973 478.976 523.234 471.552 525.754 468.519C526.622 467.474 526.959 467.534 528.221 467.441C531.175 468.679 533.799 472.022 535.658 474.567C543.873 484.801 554.64 507.363 553.022 520.812C552.751 523.069 552.122 526.014 550.264 527.54C548.868 528.687 547.191 528.485 545.531 528.347C540.988 526.107 534.644 506.135 532.666 500.887ZM535.658 474.567C535.63 475.26 535.558 476.041 535.731 476.728C536.154 478.411 537.922 480.749 538.773 482.334C542.014 488.369 545.193 494.41 546.438 501.187L547.197 501.683C547.874 500.21 546.543 498.978 547.273 497.492C547.867 499.919 549.925 502.877 549.676 505.202L548.727 505.886C548.394 510.63 552.42 512.026 549.618 518.579C550.032 520.742 550.927 522.86 550.276 525.027C549.26 526.346 548.1 527.401 546.357 527.568C545.646 527.636 545.394 527.201 544.869 526.789C544.047 524.206 545.073 521.953 542.453 520.593C542.22 520.473 541.983 520.36 541.748 520.244C538.475 514.714 542.182 512.459 536.13 507.16C535.987 505.132 536.061 503.034 535.051 501.223C534.035 500.629 533.991 500.537 532.821 500.822C532.766 500.835 532.718 500.865 532.666 500.887C534.644 506.135 540.988 526.107 545.531 528.347C547.191 528.485 548.868 528.687 550.264 527.54C552.122 526.014 552.751 523.069 553.022 520.812C554.64 507.363 543.873 484.801 535.658 474.567Z"/>
	<path fill="#FCFAE9" fill-opacity="0.98823529" d="M535.658 474.567C543.873 484.801 554.64 507.363 553.022 520.812C552.751 523.069 552.122 526.014 550.264 527.54C548.868 528.687 547.191 528.485 545.531 528.347C540.988 526.107 534.644 506.135 532.666 500.887C532.718 500.865 532.766 500.835 532.821 500.822C533.991 500.537 534.035 500.629 535.051 501.223C536.061 503.034 535.987 505.132 536.13 507.16C542.182 512.459 538.475 514.714 541.748 520.244C541.983 520.36 542.22 520.473 542.453 520.593C545.073 521.953 544.047 524.206 544.869 526.789C545.394 527.201 545.646 527.636 546.357 527.568C548.1 527.401 549.26 526.346 550.276 525.027C550.927 522.86 550.032 520.742 549.618 518.579C552.42 512.026 548.394 510.63 548.727 505.886L549.676 505.202C549.925 502.877 547.867 499.919 547.273 497.492C546.543 498.978 547.874 500.21 547.197 501.683L546.438 501.187C545.193 494.41 542.014 488.369 538.773 482.334C537.922 480.749 536.154 478.411 535.731 476.728C535.558 476.041 535.63 475.26 535.658 474.567Z"/>
	<path fill="#F2F3D3" fill-opacity="0.92941177" d="M547.951 535.322C551.367 531.947 553.642 528.887 555.802 524.605C557.183 527.953 558.581 531.405 559.3 534.969C563.749 550.202 568.834 570.921 570.738 586.626C571.287 588.616 571.592 590.544 571.832 592.593C570.282 595.837 571.731 599.854 570.538 603.311C570.433 606.267 570.269 609.079 569.796 612.002L569.541 613.593C568.931 615.632 568.471 617.715 567.243 619.481C566.176 619.84 565.667 620.024 564.521 619.957L564.346 620.112C562.839 609.998 562.11 599.774 560.547 589.656C558.537 576.651 555.402 563.967 552.138 551.234C550.857 547.365 546.99 539.088 547.951 535.322ZM569.541 613.593L569.796 612.002C570.269 609.079 570.433 606.267 570.538 603.311C570.513 601.456 570.728 599.396 569.706 597.782C568.548 596.998 568 596.75 566.596 596.72C565.217 597.536 564.569 598.168 564.212 599.782C563.226 604.231 564.54 610.866 565.687 615.222C567.149 615.005 568.25 614.279 569.541 613.593Z"/>
	<path fill="#F2F3D3" d="M547.951 535.322C548.868 536.102 549.358 538.169 550.06 539.314C552.31 542.985 552.933 546.996 552.138 551.234C550.857 547.365 546.99 539.088 547.951 535.322Z"/>
	<path fill="#F2F3D3" d="M559.3 534.969C563.749 550.202 568.834 570.921 570.738 586.626L570.371 587.208C569.503 585.609 564.113 557.746 563.013 552.96C562.999 555.472 562.282 560.612 563.489 562.722C563.965 563.554 564.198 564.114 564.453 565.032L563.806 564.906C561.733 561.67 562.281 554.161 562.124 550.354C561.037 548.956 559.765 547.683 558.557 546.387C558.727 542.569 558.945 538.774 559.3 534.969Z"/>
	<path fill="#F2F3D3" fill-opacity="0.13333334" d="M569.541 613.593C568.25 614.279 567.149 615.005 565.687 615.222C564.54 610.866 563.226 604.231 564.212 599.782C564.569 598.168 565.217 597.536 566.596 596.72C568 596.75 568.548 596.998 569.706 597.782C570.728 599.396 570.513 601.456 570.538 603.311C570.433 606.267 570.269 609.079 569.796 612.002L569.541 613.593Z"/>
	<path fill="#FCFAE9" d="M426.02 465.268C426.109 461.809 426.172 458.433 425.807 454.983C425.13 448.577 420.198 427.874 422.692 423.087C427.666 433.611 431.867 444.502 436.246 455.283C446.163 479.696 455.077 503.56 459.859 529.551C448.136 518.327 438.502 505.807 430.182 491.896C434.488 488.244 441.476 483.157 442.063 477.106C442.258 475.087 441.579 473.167 440.25 471.65C436.961 467.897 430.668 466.624 426.02 465.268Z"/>
	<defs>
		<linearGradient id="gradient_1" gradientUnits="userSpaceOnUse" x1="389.09119" y1="551.2049" x2="411.55283" y2="549.06696">
			<stop offset="0" stop-color="#FFFFFE" stop-opacity="0.64705884"/>
			<stop offset="1" stop-color="white" stop-opacity="0.71372551"/>
		</linearGradient>
	</defs>
	<path fill="url(#gradient_1)" d="M404.263 520.651C405.618 520.718 406.806 520.448 407.765 521.589C408.197 522.102 408.507 522.99 408.787 523.607C408.855 523.759 408.907 523.919 408.989 524.064C409.406 524.802 409.861 525.144 410.475 525.698C411.247 526.393 411.986 526.934 412.076 528.053C412.28 530.578 410.793 533.954 409.986 536.358C411.203 537.508 412.407 538.643 413.701 539.707C414.423 540.3 414.801 540.67 415.122 541.582Q414.206 551.786 412.467 561.882Q410.728 571.978 408.177 581.9C406.093 580.646 405.996 578.214 403.847 576.994C402.441 576.195 399.719 575.639 398.163 576.011C398.209 576.89 398.162 577.113 397.859 578.002C395.839 577.391 395.966 575.847 393.534 575.491C390.541 572.003 393.883 565.168 391.679 560.947C388.416 558.751 389.535 556.706 387.479 554.06C386.474 554.125 385.573 554.277 384.582 554.45C390.676 542.87 397.371 531.765 404.263 520.651ZM396.514 540.21C396.408 541.907 396.121 543.439 397.011 544.973C398.061 545.452 398.171 545.505 399.303 545.324C399.796 544.111 400.38 543.074 400.074 541.738C399.106 540.579 397.912 540.497 396.514 540.21ZM394.679 540.364C393.658 541.385 393.028 542.049 392.588 543.477C392.754 544.753 392.871 545.27 393.755 546.221C394.854 544.89 395.578 543.705 395.321 541.872C395.209 541.07 395.116 541.094 394.679 540.364Z"/>
	<path fill="#FCFAE9" fill-opacity="0.59607846" d="M394.679 540.364C395.116 541.094 395.209 541.07 395.321 541.872C395.578 543.705 394.854 544.89 393.755 546.221C392.871 545.27 392.754 544.753 392.588 543.477C393.028 542.049 393.658 541.385 394.679 540.364Z"/>
	<path fill="#FCFAE9" fill-opacity="0.73333335" d="M396.514 540.21C397.912 540.497 399.106 540.579 400.074 541.738C400.38 543.074 399.796 544.111 399.303 545.324C398.171 545.505 398.061 545.452 397.011 544.973C396.121 543.439 396.408 541.907 396.514 540.21Z"/>
	<path fill="#D4A375" d="M424.985 953.461C425.265 953.725 425.443 953.855 425.629 954.22C426.948 956.802 425.362 964.127 424.37 966.867C422.976 970.72 420.268 972.44 416.694 974.131C403.013 980.605 361.314 989.415 347.235 983.808C344.964 982.904 344.134 981.84 343.196 979.626C348.212 971.761 355.611 965.698 362.944 960.101C365.998 963.373 369.054 965.807 373.407 967.209C390.063 972.571 410.624 960.784 424.985 953.461Z"/>
	<path fill="#D4A375" d="M504.56 941.754C508.708 943.516 512.873 945.4 517.161 946.794C533.671 952.163 553.899 951.493 569.423 943.476C575.482 946.451 583.561 949.7 588.37 954.512C589.334 955.476 589.638 956.018 589.642 957.359L588.399 958.51C562.526 973.443 532.212 966.445 504.965 959.982L504.56 941.754Z"/>
	<path fill="#F2F3D3" d="M442.042 394.998C449.019 395.083 460.499 392.442 466.667 394.934C466.749 396.886 466.845 398.449 467.561 400.278L468.268 400.923C469.537 400.152 469.784 397.924 471.049 397.946C474.738 401.616 478.88 406.216 481.345 410.808L483.777 410.639C485.465 413.794 486.8 417.206 487.835 420.632L487.045 421.731L485.83 421.925C485.613 423.77 485.472 425.786 484.758 427.514C483.315 431.01 480.274 433.725 476.749 435.002C469.294 437.703 459.845 435.208 452.885 432.062C441.044 426.712 435.805 418.543 431.39 406.69C435.983 403.466 439.148 399.753 442.042 394.998Z"/>
	<path fill="#3C2715" d="M483.777 410.639C485.465 413.794 486.8 417.206 487.835 420.632L487.045 421.731L485.83 421.925C484.723 418.02 483.124 414.444 481.345 410.808L483.777 410.639Z"/>
	<path fill="#D4A375" d="M278.541 332.679C289.042 340.215 297.828 349.459 308.048 357.204C329.835 373.713 366.072 389.778 393.601 385.274C395.388 384.982 397.11 384.595 398.81 383.962L399.082 383.554L398.561 383.207C381.968 377.578 369.756 367.785 357.7 355.374C353.821 357.09 349.613 359.336 345.387 359.903C343.19 360.198 341.927 359.951 340.191 358.556C346.709 357.432 352.203 355.555 358.25 352.93C369.284 366.49 382.836 375.569 399.128 381.758C409.715 385.632 420.472 387.602 431.566 389.267C417.296 396.213 400.677 399.479 384.846 398.992C356.643 398.124 330.658 385.062 308.236 368.771C303.335 365.21 298.816 361.177 293.974 357.56C287.602 352.8 284.396 353.055 278.036 346.278C277.99 341.701 278.046 337.237 278.541 332.679Z"/>
	<path fill="#D4A375" d="M558.312 598.429C561.141 603.447 561.124 615.436 561.611 621.431C538.076 637.513 513.16 646.458 485.126 650.774C484.149 650.929 484.058 650.912 483.057 650.553C481.42 646.437 483.289 629.361 483.519 623.696C514.89 619.844 531.267 617.05 558.312 598.429Z"/>
	<path fill="#CCD5AE" d="M468.548 528.61C473.897 528.501 478.781 529.295 483.5 531.924Q484.065 532.241 484.615 532.586Q485.164 532.93 485.696 533.301Q486.227 533.672 486.74 534.069Q487.253 534.466 487.745 534.887Q488.238 535.308 488.709 535.753Q489.181 536.199 489.63 536.666Q490.079 537.134 490.504 537.623Q490.93 538.112 491.331 538.622Q491.731 539.131 492.107 539.66Q492.482 540.188 492.831 540.735Q493.18 541.281 493.502 541.844Q493.824 542.407 494.118 542.985Q494.411 543.563 494.676 544.154Q494.941 544.746 495.177 545.35Q495.412 545.954 495.618 546.569Q495.824 547.184 495.999 547.808C497.846 554.386 497.198 561.683 493.638 567.581C489.327 574.726 482.587 577.433 474.944 579.398C469.703 579.377 464.657 578.575 460.001 576.022Q459.429 575.706 458.874 575.362Q458.319 575.019 457.781 574.648Q457.243 574.277 456.725 573.88Q456.206 573.483 455.708 573.06Q455.209 572.638 454.733 572.192Q454.256 571.745 453.802 571.276Q453.348 570.806 452.918 570.315Q452.487 569.823 452.082 569.311Q451.677 568.799 451.297 568.267Q450.918 567.736 450.565 567.186Q450.212 566.636 449.887 566.069Q449.562 565.503 449.266 564.921Q448.969 564.339 448.702 563.743Q448.435 563.147 448.197 562.538Q447.96 561.93 447.753 561.31Q447.546 560.691 447.37 560.062C445.511 553.461 446.26 546.218 449.834 540.322C454.187 533.142 460.808 530.523 468.548 528.61Z"/>
	<path fill="#502D13" d="M470.168 539.21C471.857 539.323 473.473 539.493 475.08 540.062C478.315 541.208 481.099 543.418 482.558 546.563C483.994 549.659 484.066 553.415 482.82 556.585C480.886 561.508 477.13 563.733 472.507 565.631C469.448 565.581 466.771 565.199 464.185 563.424Q463.641 563.048 463.136 562.621Q462.631 562.194 462.171 561.719Q461.71 561.245 461.299 560.727Q460.887 560.21 460.529 559.654Q460.17 559.099 459.868 558.51Q459.565 557.922 459.322 557.307Q459.079 556.692 458.898 556.056Q458.716 555.421 458.598 554.77C457.955 551.322 458.571 547.618 460.593 544.717C462.978 541.294 466.211 540.001 470.168 539.21Z"/>
	<path fill="#CCD5AE" d="M468.647 542.024C469.909 542.016 471.214 542.02 472.462 542.22C475.271 542.67 478.025 544.565 479.5 546.985C480.842 549.187 481.184 551.956 480.554 554.44C479.525 558.492 477.031 560.431 473.554 562.431C472.295 562.466 471.004 562.513 469.763 562.265C466.886 561.689 464.16 560.028 462.677 557.447C461.332 555.104 461.067 552.234 461.783 549.649C462.878 545.691 465.316 543.995 468.647 542.024Z"/>
	<path fill="#F2F3D3" d="M460.794 642.002C460.878 642.12 460.982 642.227 461.048 642.356C461.909 644.039 461.23 648.34 461.133 650.266Q460.798 657.454 460.071 664.613Q459.343 671.773 458.225 678.881Q457.107 685.99 455.603 693.027Q454.098 700.064 452.21 707.008Q444.8 711.19 436.902 714.355C426.026 718.643 411.092 723.307 399.751 718.407C394.238 710.717 396.49 674.099 396.995 663.913C421.822 665.061 439.456 652.037 460.794 642.002Z"/>
	<path fill="#F2F3D3" d="M571.832 592.593C574.519 607.841 576.432 623.574 580.527 638.511C582.478 645.627 587.014 651.938 588.384 659.189C591.588 676.15 590.74 695.842 592.538 713.322C592.846 725.266 593.731 737.23 594.245 749.173C594.565 756.61 594.263 764.685 595.271 772.016C590.853 782.875 574.685 797.733 565.479 804.959C565.498 794.274 566.552 783.577 567.143 772.911C567.614 764.403 567.649 755.845 567.764 747.326Q568.631 683.65 564.346 620.112L564.521 619.957C565.667 620.024 566.176 619.84 567.243 619.481C568.471 617.715 568.931 615.632 569.541 613.593L569.796 612.002C570.269 609.079 570.433 606.267 570.538 603.311C571.731 599.854 570.282 595.837 571.832 592.593Z"/>
	<path fill="#DEB68A" d="M485.964 105.221Q487.998 105.279 490.029 105.412Q492.059 105.545 494.084 105.752Q496.108 105.959 498.124 106.239Q500.139 106.52 502.143 106.874Q504.147 107.228 506.137 107.655Q508.126 108.083 510.099 108.582Q512.072 109.082 514.025 109.653Q515.978 110.225 517.909 110.867Q519.839 111.509 521.746 112.222Q523.652 112.934 525.531 113.716Q527.409 114.498 529.258 115.348Q531.107 116.198 532.924 117.114Q534.741 118.031 536.523 119.014Q538.305 119.997 540.05 121.044Q541.794 122.091 543.5 123.201Q545.205 124.311 546.869 125.483C569.261 141.225 579.815 162.536 584.335 188.978C557.32 176.81 531.96 181.732 503.882 177.794C464.082 173.077 428.797 155.526 393.096 138.407C421.016 118.46 451.497 106.637 485.964 105.221Z"/>
	<path fill="#502D13" d="M434.963 138.9C440.666 140.112 446.028 143.454 451.346 145.754C456.626 148.038 462.223 149.861 467.69 151.653C491.271 159.379 516.712 163.605 541.567 161.997C548.418 161.554 555.102 159.321 561.94 158.991C562.687 158.955 563.12 159.032 563.786 159.356L563.404 159.988C559.192 161.287 554.976 162.332 550.621 163.04C522.191 167.658 492.717 162.642 465.698 153.502C454.839 149.829 444.31 145.666 434.963 138.9Z"/>
	<path fill="#CCD5AE" d="M483.777 410.639L483.328 408.989L483.857 408.874C494.506 418.291 515.659 461.582 516.51 475.508C516.811 480.44 516.284 485.394 516.507 490.328C517.12 503.847 521.167 522.751 531.915 532.075C535.753 535.404 539.469 536.566 544.327 537.422Q547.544 545.633 549.975 554.109Q552.407 562.585 554.032 571.252C555.54 579.128 556.397 587.357 558.494 595.091C533.734 611.23 512.671 617.514 483.887 621.165C485.165 607.495 484.56 593.667 483.945 579.976C491.501 574.765 497.651 569.335 499.334 559.764C500.636 552.36 498.935 544.408 494.528 538.298C491.407 533.97 487.365 531.166 482.852 528.456Q472.346 496.234 459.014 465.075C454.009 453.403 448.242 442.062 443.244 430.41C454.178 436.169 466.022 441.708 478.631 437.601C482.229 436.429 485.677 434.255 487.335 430.724C488.686 427.849 488.953 423.622 487.835 420.632C486.8 417.206 485.465 413.794 483.777 410.639ZM491.06 426.789C489.88 428.797 488.676 430.525 488.456 432.898L489.415 434.009C490.673 433.15 491.966 432.162 492.239 430.548C492.449 429.306 492.305 428.271 491.514 427.264C491.379 427.091 491.211 426.947 491.06 426.789Z"/>
	<path fill="#CCD5AE" fill-opacity="0.92941177" d="M491.06 426.789C491.211 426.947 491.379 427.091 491.514 427.264C492.305 428.271 492.449 429.306 492.239 430.548C491.966 432.162 490.673 433.15 489.415 434.009L488.456 432.898C488.676 430.525 489.88 428.797 491.06 426.789Z"/>
	<path fill="#DEB68A" d="M278.541 332.679C279.081 321.488 281.9 310.283 284.886 299.518C300.061 244.803 333.604 192.38 375.537 154.289Q378.936 151.161 382.479 148.196C396.95 187.61 399.345 222.596 381.166 261.687C372.09 281.202 359.26 296.137 338.661 303.528L337.952 303.78C329.036 300.602 319.784 298.126 310.707 302.51C305.392 305.077 301.493 309.711 299.665 315.302C297.152 322.991 298.606 331.498 302.339 338.534C307.073 347.456 315.243 353.657 324.836 356.582C329.911 358.129 334.912 358.536 340.191 358.556C341.927 359.951 343.19 360.198 345.387 359.903C349.613 359.336 353.821 357.09 357.7 355.374C369.756 367.785 381.968 377.578 398.561 383.207L399.082 383.554L398.81 383.962C397.11 384.595 395.388 384.982 393.601 385.274C366.072 389.778 329.835 373.713 308.048 357.204C297.828 349.459 289.042 340.215 278.541 332.679Z"/>
	<path fill="#3C2715" d="M385.612 220.326C385.821 220.931 385.881 220.995 385.923 221.738C386.41 230.225 373.602 250.107 368.422 256.779C364.739 261.523 360.647 265.774 356.379 269.978C356.402 267.838 365.991 256.434 367.913 253.691C375.106 243.426 380.359 231.648 385.612 220.326Z"/>
	<path fill="#502D13" d="M352.742 192.621C352.879 192.69 353.023 192.747 353.154 192.827C354.49 193.649 355.039 194.99 355.359 196.454C356.389 201.168 355.726 206.792 355.55 211.596C354.594 237.849 346.614 260.012 333.014 282.236L332.391 282.725C332.242 279.36 336.944 273.314 338.5 270.34C343.167 261.42 346.47 250.781 348.965 241.031C351.355 231.695 352.919 222.159 352.955 212.502C352.98 205.872 352.468 199.251 352.742 192.621Z"/>
	<path fill="#DEB68A" d="M365.762 82.6836C366.936 82.489 367.614 82.3854 368.748 82.7858C362.29 90.2222 353.101 96.3496 346.022 103.435Q343.718 105.756 341.465 108.126Q339.211 110.496 337.009 112.914Q334.806 115.332 332.656 117.796Q330.506 120.26 328.409 122.77Q326.313 125.28 324.27 127.834Q322.227 130.388 320.24 132.985Q318.252 135.582 316.321 138.221Q314.389 140.86 312.515 143.54Q310.64 146.22 308.823 148.939Q307.007 151.658 305.249 154.416Q303.49 157.174 301.792 159.968Q300.093 162.763 298.454 165.593Q296.816 168.424 295.238 171.288Q293.661 174.153 292.145 177.051Q290.629 179.949 289.176 182.878Q287.722 185.808 286.332 188.768Q284.941 191.728 283.614 194.717Q282.288 197.707 281.025 200.723Q279.763 203.74 278.565 206.783Q277.367 209.827 276.235 212.895Q275.103 215.963 274.037 219.055Q272.97 222.146 271.97 225.26Q270.97 228.374 270.037 231.508Q269.104 234.643 268.239 237.797Q267.373 240.95 266.575 244.122Q265.777 247.293 265.047 250.481Q264.317 253.669 263.655 256.872Q262.994 260.075 262.401 263.291Q261.808 266.507 261.284 269.735Q260.76 272.963 260.306 276.202Q259.851 279.441 259.466 282.688Q259.081 285.936 258.765 289.191C257.512 302.135 257.79 315.148 257.803 328.135C248.934 316.158 242.173 302.802 239.614 288.023C232.604 247.526 250.531 211.179 273.21 179.192C264.117 186.52 258.107 195.686 252.441 205.741C247.917 214.136 244.369 223.583 241.556 232.691C233.952 257.305 231.972 287.3 244.564 310.722C248.426 317.906 254.315 323.755 258.069 330.994L258.439 331.715C234.714 313.744 219.415 283.783 215.255 254.594Q215.004 252.89 214.796 251.181Q214.587 249.471 214.42 247.758Q214.253 246.044 214.129 244.326Q214.004 242.608 213.921 240.888Q213.839 239.168 213.799 237.447Q213.758 235.725 213.76 234.003Q213.762 232.281 213.806 230.559Q213.85 228.838 213.937 227.118Q214.023 225.398 214.151 223.681Q214.28 221.963 214.45 220.25Q214.621 218.536 214.834 216.827Q215.046 215.118 215.3 213.415Q215.555 211.712 215.851 210.016Q216.147 208.319 216.485 206.63Q216.822 204.942 217.201 203.262Q217.58 201.582 218 199.912Q218.42 198.242 218.881 196.583Q219.342 194.923 219.843 193.276Q220.344 191.628 220.886 189.994Q221.428 188.359 222.009 186.738Q222.591 185.117 223.212 183.511Q223.833 181.905 224.493 180.314Q225.153 178.724 225.853 177.15Q226.552 175.576 227.289 174.02Q228.027 172.464 228.802 170.926Q229.578 169.389 230.391 167.871Q231.204 166.352 232.053 164.855Q232.903 163.357 233.79 161.881Q234.676 160.404 235.598 158.95Q236.521 157.496 237.479 156.064Q238.436 154.633 239.429 153.226Q240.421 151.819 241.448 150.436C271.606 110.454 317.035 89.4056 365.762 82.6836Z"/>
	<path fill="#502D13" d="M331.811 108.667C333.72 108.437 335.259 108.147 337.094 108.825L337.14 109.347C333.098 111.348 323.54 112.181 318.577 113.75C300.309 119.527 283.359 128.269 267.578 139.065L261.752 143.086L261.998 142.748C275.707 124.276 309.533 112.006 331.811 108.667Z"/>
	<path fill="#DEB68A" d="M259.613 344.293L266.931 343.706C272.161 346.777 276.68 350.52 281.051 354.715C294.277 367.408 312.022 387.945 319.892 404.384C323.918 412.795 326.587 422.592 326.752 431.942C326.817 435.616 326.625 440.605 323.787 443.308C315.047 451.628 296.819 424.785 290.989 424.421C290.811 424.674 290.584 424.899 290.455 425.18C288.871 428.635 290.323 437.058 290.995 440.756C294.02 457.395 302.139 468.843 315.9 478.382C293.358 484.916 270.855 485.892 248.378 478.696C233.648 473.452 221.272 463.5 213.861 449.636C203.996 431.177 205.262 413.731 211.212 394.304C199.461 409.851 195.301 426.512 192.274 445.395C187.146 438.064 183.921 430.115 183.141 421.16C181.611 403.59 188.912 387.096 200.171 373.941C216.663 354.672 234.725 346.253 259.613 344.293Z"/>
	<path fill="#502D13" d="M269.784 362.166C274.292 361.969 278.658 362.654 283.052 363.583C270.121 364.695 258.216 365.677 248.825 375.735C237.113 388.28 232.527 406.824 233.165 423.619C233.539 427.845 234.512 432.025 235.341 436.181C233.277 430.946 231.534 426.003 230.826 420.386C228.939 405.421 234.964 388.938 244.088 377.214C250.647 368.786 259.15 363.513 269.784 362.166Z"/>
	<path fill="#F2F3D3" d="M462.781 52.7035C468.171 51.901 474.817 52.0701 480.213 52.5426C485.123 52.9726 490.318 54.0776 493.544 58.1369C500.856 67.3349 497.8 92.1835 496.742 103.553C459.518 101.568 425.736 110.678 395.626 132.967C384.139 141.469 373.726 151.332 363.704 161.485C320.301 205.45 286.137 262.458 276.83 324.17C276.409 327.597 276.838 337.705 274.917 340.005L272.728 339.388C272.064 340.438 272.313 341.927 272.232 343.178C268.369 340.464 264.792 337.041 261.181 333.985Q260.912 332.465 260.763 330.929C255.531 274.997 274.626 212.008 302.645 164.044C308.225 154.492 314.405 145.858 320.92 136.955C324.01 132.732 326.954 128.37 330.309 124.351C352.519 97.7487 382.64 72.358 415.911 61.442C430.96 56.5046 447.054 54.1621 462.781 52.7035Z"/>
	<path fill="#CCD5AE" d="M426.254 66.3665C432.299 69.0662 435.807 73.7987 440.221 78.4874C442.899 78.4392 445.896 78.2637 448.364 79.4981C449.83 80.2316 450.215 81.0192 450.675 82.5374C450.126 85.8618 447.619 87.3144 445.15 89.2341C446.23 92.0017 448.258 97.119 446.771 99.9557C446.121 101.194 445.502 101.632 444.18 102.066C441.225 103.037 437.284 100.408 434.801 99.0786C431.561 100.196 431.221 104.667 428.338 106.208C427.219 106.806 426.314 106.64 425.139 106.373C422.343 103.815 424.062 99.6264 423.084 96.2013C421.558 94.0456 417.787 93.3799 415.406 92.4439C413.857 91.8353 413.26 91.246 412.605 89.7474C413.794 85.4474 419.094 85.8286 421.171 82.3821C424.591 76.7069 419.615 73.1719 426.254 66.3665Z"/>
	<path fill="#F2F3D3" d="M406.848 429.478C409.23 433.041 415.64 459.727 417.249 465.527C425.073 468.434 433.054 471.177 440.45 475.078C436.074 480.58 431.272 485.776 426.784 491.197C434.151 506.203 444.261 518.138 456.038 529.821C453.598 531.974 451.041 534.11 449.036 536.691C444.293 542.795 442.339 549.542 443.29 557.242Q443.377 557.936 443.499 558.625Q443.621 559.313 443.776 559.995Q443.932 560.677 444.121 561.35Q444.31 562.024 444.532 562.687Q444.755 563.35 445.01 564.001Q445.265 564.653 445.551 565.29Q445.838 565.928 446.156 566.551Q446.474 567.174 446.823 567.78Q447.172 568.386 447.55 568.975Q447.928 569.563 448.335 570.132Q448.742 570.701 449.176 571.249Q449.611 571.797 450.072 572.323Q450.533 572.848 451.02 573.351Q451.507 573.853 452.017 574.331Q452.528 574.808 453.062 575.26Q453.596 575.711 454.152 576.136C462.378 582.428 471.037 582.723 480.892 581.298C482.947 595.715 481.561 611.299 480.813 625.808C477.274 694.375 462.619 759.797 444.615 825.731C403.943 819.674 373.415 798.858 343.654 771.919C349.754 756.175 354.709 740.008 359.789 723.915Q372.953 682.423 384.625 640.487C388.169 643.876 391.887 647.061 395.597 650.266C394.279 664.524 391.579 702.398 394.638 715.093C395.303 717.853 396.361 720.013 398.883 721.456C407.924 726.632 422.95 722.092 432.325 719.567C440.399 717.051 447.441 713.848 454.134 708.654C462.822 682.887 465.749 648.082 463.087 621.08C452.397 627.815 441.553 634.346 430.104 639.723C431.584 636.117 433.676 631.946 433.991 628.033C434.059 627.189 434.017 625.913 433.729 625.117C433.576 624.694 410.012 600.053 407.315 597.064C417.571 564.519 420.859 532.771 416.04 498.942Q414.618 500.021 413.366 501.293Q412.113 502.564 411.056 504.002C405.864 510.918 401.905 518.722 397.484 526.136C389.745 539.113 381.51 551.902 375.268 565.692C381.972 575.868 390.966 584.507 399.362 593.281Q415.261 610.206 431.804 626.502C430.013 631.366 428.461 636.22 427.029 641.199C418.535 643.801 410.569 648.156 402.03 650.897C392.918 645.5 384.464 636.843 376.821 629.565Q366.801 619.986 356.952 610.231C348.109 601.645 322.399 579.493 322.499 567.416C322.675 546.165 367.096 483.849 381.268 463.586C389.23 452.202 397.003 439.297 406.848 429.478Z"/>
	<path fill="#CCD5AE" d="M560.976 624.881L561.553 625.051C563.884 629.71 563.829 657.682 564.052 664.045Q566.235 720.993 563.525 777.918C562.824 794.591 562.439 811.374 560.558 827.963C558.459 846.482 554.927 864.785 551.272 883.048C548.136 898.72 544.985 914.269 539.994 929.479Q534.244 930.876 528.394 931.77Q522.544 932.665 516.638 933.049Q510.733 933.434 504.817 933.306Q498.9 933.178 493.017 932.538C485.525 897.992 488.096 857.387 489.343 822.092C489.724 811.287 488.957 799.907 491.407 789.337C493.68 779.53 498.787 770.538 502.49 761.23C513.035 734.724 522.463 708.26 536.881 683.521C533.11 687.228 530.016 691.295 527.377 695.878C521.597 705.913 517.436 717.115 512.997 727.786Q502.32 753.512 491.93 779.356Q474.493 820.668 459.292 862.855Q444.091 905.041 431.169 947.981C412.454 948.657 394.533 948.846 377.509 939.821C377.491 920.546 379.236 901.242 380.967 882.059Q384.191 846.197 388.169 810.411C406.541 819.698 425.327 826.461 445.991 828.102Q451.381 811.507 456.053 794.696Q460.726 777.885 464.672 760.889Q468.619 743.892 471.833 726.743Q475.047 709.593 477.522 692.321C479.369 679.661 480.609 666.904 482.094 654.198C511.833 649.756 535.853 641.817 560.976 624.881Z"/>
	<path fill="#F2F3D3" d="M391.071 140.893C427.229 158.652 464.732 176.61 505.229 181.229C517.943 182.679 530.75 182.285 543.511 183.019C543.39 197.133 543.504 211.488 548.127 224.996C555.816 247.463 574.742 260.997 577.459 286.25C579.423 304.516 573.097 321.933 561.706 336.088C536.858 366.966 495.589 382.165 457.12 386.223C456.058 386.448 454.89 386.433 453.803 386.475C414.96 387.984 388.236 377.847 359.823 351.496C361.214 350.042 363.055 348.333 363.432 346.305L362.676 346.014C359.439 347.214 356.765 349.406 353.845 351.197C345.801 356.131 336.765 356.459 327.774 354.22C318.6 351.936 310.843 346.438 306.061 338.224C302.357 331.861 300.575 324.083 302.611 316.866C303.963 312.077 306.988 308.112 311.412 305.784C320.265 301.126 328.81 304.085 337.566 306.884C341.329 305.958 344.855 304.718 348.34 303.01C368.82 292.972 381.645 272.594 388.831 251.623C401.119 215.763 401.054 181.024 384.088 146.548C386.364 144.587 388.692 142.728 391.071 140.893Z"/>
	<path fill="#502D13" d="M440.061 197.489C441.143 197.544 441.713 197.772 442.704 198.168C442.773 198.417 442.951 198.66 442.91 198.915C442.844 199.333 435.001 202.546 433.865 203.131C427.855 206.226 425.062 210.944 422.03 216.679C421.715 217.048 421.354 217.336 420.986 217.65C420.545 215.318 422.507 211.18 423.604 209.028C426.943 202.474 433.554 199.82 440.061 197.489Z"/>
	<path fill="#502D13" d="M528.478 266.501C530.536 266.391 532.666 266.7 534.565 267.514C537.282 268.679 539.528 270.924 540.526 273.725Q540.683 274.163 540.794 274.614Q540.906 275.066 540.971 275.526Q541.036 275.987 541.054 276.451Q541.072 276.916 541.043 277.38Q541.014 277.844 540.938 278.303Q540.862 278.762 540.74 279.21Q540.618 279.659 540.451 280.093Q540.284 280.527 540.074 280.942C538.582 283.905 535.321 286.189 532.17 287.056C530.975 287.385 531.456 287.467 530.549 286.937L531.566 285.676C532.888 284.537 534.15 283.293 535.242 281.929C536.802 279.98 538.63 277.36 538.07 274.707C537.828 273.566 537.1 272.608 536.172 271.929C531.783 268.714 524.938 270.485 520.079 271.321C522.827 269.386 525.43 267.886 528.478 266.501Z"/>
	<path fill="#502D13" d="M322.187 315.484C327.484 315.319 332.018 316.432 336.712 318.82C340.477 320.735 346.163 324.088 347.54 328.221C347.345 329.096 347.418 329.52 346.718 330.158C344.525 332.157 340.787 331.582 338.014 331.56C339.092 333.304 340.56 335.013 340.806 337.077L340.258 337.545C337.659 336.312 336.477 334.492 334.963 332.104C335.068 331.95 335.168 331.792 335.278 331.642C337.648 328.428 340.159 328.239 343.851 327.664C339.999 324.26 335.967 320.602 330.905 319.171C323.951 317.206 318.136 320.637 312.255 323.867C315.316 320.267 317.965 317.725 322.187 315.484Z"/>
	<path fill="#502D13" d="M531.529 319.988C531.99 320.347 532.132 320.731 532.402 321.24C532.242 321.801 532.17 322.173 531.841 322.698C528.509 328.009 516.937 331.58 511.144 332.639C496.954 335.232 485.338 331.984 473.6 323.917L472.696 322.689L472.992 321.726C478.609 321.573 484.483 328.333 490.021 329.535C490.242 329.583 490.465 329.62 490.687 329.665C506.327 332.864 518.395 328.252 531.529 319.988Z"/>
	<path fill="#502D13" d="M528.199 220.355C530.051 220.545 531.674 220.909 533.279 221.901C537.782 224.686 540.051 229.799 541.104 234.802C542.496 241.421 541.834 247.055 538.146 252.739C536.218 253.132 534.24 252.51 532.602 251.475C528.43 248.837 526.506 242.619 525.591 237.983C524.345 231.667 524.583 225.846 528.199 220.355Z"/>
	<path fill="#502D13" d="M453.656 244.309C455.304 244.423 456.855 244.791 458.323 245.567C463.237 248.162 466.083 253.33 467.606 258.491C469.644 265.396 469.269 271.486 465.773 277.798C463.958 277.758 462.19 277.683 460.517 276.896C456.273 274.9 453.801 270.641 452.397 266.349C449.908 258.741 450.021 251.516 453.656 244.309Z"/>
	<path fill="#DEB68A" d="M418.496 282.615C424.403 281.984 430.688 282.225 436.162 284.766C439.722 286.419 442.72 289.115 443.962 292.923C445.284 296.978 444.412 301.344 442.372 305C437.899 313.012 430.145 316.154 421.814 318.499C415.626 319.628 407.514 319.619 401.936 316.473C398.835 314.724 396.458 311.951 395.524 308.484C394.359 304.163 395.562 299.675 397.845 295.934C402.573 288.187 410.097 284.804 418.496 282.615Z"/>
</svg>
