<?xml version="1.0" encoding="utf-8" ?>
<svg xmlns="http://www.w3.org/2000/svg" xmlns:xlink="http://www.w3.org/1999/xlink" width="1024" height="1024">
	<path fill="#623C1C" d="M372.84 628.892C372.346 628.526 371.858 628.164 371.391 627.764C357.968 616.294 321.157 585.296 320.082 568.359C318.507 543.548 365.871 479.57 381.288 458.297C387.639 449.536 393.765 440.159 400.76 431.914C400.719 432.183 400.687 432.452 400.636 432.719C400.262 434.678 398.392 436.821 397.247 438.452C398.159 437.723 398.858 437.138 399.55 436.182L400.658 436.032L400.346 436.59C397.5 441.564 393.067 446.206 389.747 450.951C385.079 457.624 380.653 464.493 376.005 471.192C363.796 488.789 318.41 551.639 323.126 570.932C326.141 583.265 350.437 603.978 359.947 613.024C362.75 615.689 367.003 618.985 369.118 622.175C373.953 626.548 378.529 631.192 383.283 635.652L381.826 636.569C378.659 634.387 375.422 631.743 372.84 628.892Z"/>
	<path fill="#583315" d="M194.955 451.771C187.195 446.512 182.788 436.406 181.077 427.464C177.834 410.519 182.647 393.264 192.283 379.209C204.212 361.81 224.132 347.133 245.144 343.392C249.03 342.701 256.78 342.776 259.592 340.06C259.892 339.352 260.439 338.722 260.104 337.965C258.495 334.32 249.624 328.213 246.378 325.095Q242.682 321.483 239.41 317.482C211.274 283.064 204.313 233.521 217.199 191.595C229.472 151.663 258.788 120.278 295.356 101.074Q302.196 97.5285 309.277 94.4935Q316.358 91.4585 323.642 88.9504Q330.926 86.4423 338.375 84.4744Q345.823 82.5066 353.396 81.0897C359.883 79.8748 366.879 80.6425 373.154 78.6197C381.47 75.9391 388.385 69.3634 396.3 65.6002C419.48 54.5799 464.812 43.6302 489.461 51.3854C491.409 51.9984 493.195 52.8431 495.007 53.7795C504.656 67.9721 500.957 87.8673 499.766 103.871C526.738 107.692 552.107 120.433 568.764 142.465C579.631 156.839 587.435 176.871 587.645 195.007C574.397 188.413 561.833 183.123 546.741 182.908C546.569 197.188 546.621 212.363 551.677 225.9C556.254 238.156 565.633 247.906 572.026 259.214C589.561 290.234 579.712 324.054 555.303 347.913C539.37 363.488 517.653 375.064 496.282 381.282C487.905 383.719 478.875 385.066 470.86 388.497C470.986 388.645 471.11 388.796 471.239 388.943C476.023 394.436 484.196 396.618 490.582 399.784Q493.67 401.338 496.546 403.255Q499.422 405.172 502.044 407.424Q515.927 419.434 527.946 433.31C547.903 456.36 586.308 509.54 594.498 537.913C596.429 544.604 596.618 551.431 596.19 558.347C595.091 576.062 586.663 595.557 586.826 611.359C586.96 624.412 589.806 637.184 591.137 650.12C592.753 665.818 593.078 681.818 594.157 697.58C595.326 714.65 601.05 759.327 596.578 774.567C593.823 783.958 587.034 791.283 579.831 797.584Q572.828 803.597 565.137 808.7C561.693 843.056 557.761 872.354 548.736 905.836C547.583 910.114 542.258 926.726 544.814 930.152C550.315 937.525 593.377 943.009 592.108 957.517C591.953 959.281 590.861 960.641 589.517 961.698C576.906 971.614 544.687 970.951 529.227 968.592C520.201 967.215 510.593 965.324 502.134 961.843Q502.125 948.963 500.964 936.136C497.816 935.987 493.441 936.37 491.169 933.778C485.248 927.024 484.853 856.592 485.041 844.826C485.201 834.836 486.209 824.884 486.418 814.916C486.453 813.223 486.678 812.163 485.572 810.807L486.126 811.076L485.64 810.84C485.494 810.91 485.354 810.993 485.203 811.05C484.324 811.381 483.537 811.287 482.614 811.26C479.092 815.401 469.136 845.217 466.395 852.8Q455.995 881.303 446.403 910.089C443.007 920.614 440.421 931.439 436.723 941.861C434.948 946.862 429.926 950.591 428.668 954.633C426.878 960.39 428.028 966.098 425.645 971.927C410.445 983.96 370.729 990.115 351.031 987.696C347.932 987.315 344.047 986.464 342.057 983.811C341.037 982.45 340.769 980.826 341.039 979.178C342.871 968.027 368.859 950.816 377.611 944.001C376.615 942.962 375.615 941.968 374.748 940.817C374.027 929.221 375.073 917.729 375.83 906.162Q377.795 873.739 381.983 841.527C383.27 830.925 383.953 819.685 386.208 809.261C369.651 799.019 353.109 786.882 339.777 772.608C342.527 761.722 347.394 751.224 350.826 740.492Q363.475 700.723 375.148 660.657C376.804 654.954 381.681 641.713 381.826 636.569L383.283 635.652C378.529 631.192 373.953 626.548 369.118 622.175C367.003 618.985 362.75 615.689 359.947 613.024C350.437 603.978 326.141 583.265 323.126 570.932C318.41 551.639 363.796 488.789 376.005 471.192C380.653 464.493 385.079 457.624 389.747 450.951C393.067 446.206 397.5 441.564 400.346 436.59L400.658 436.032L399.55 436.182C398.858 437.138 398.159 437.723 397.247 438.452C398.392 436.821 400.262 434.678 400.636 432.719C400.687 432.452 400.719 432.183 400.76 431.914C404.688 423.907 415.459 408.829 422.588 403.573L430.543 403.384C435.808 399.686 437.822 396.125 440.113 390.236C430.382 392.28 421.666 397.046 412.011 399.243C380.627 406.387 345.87 397.767 319.136 380.546C309.339 374.235 301.357 365.347 290.958 359.94C296.88 367.907 303.954 374.74 310.041 382.527C321.313 396.949 332.233 418.792 329.564 437.669C329.154 440.567 328.174 443.842 325.624 445.576C322.84 447.469 318.828 447.129 315.741 446.324C306.908 444.021 299.608 436.317 293.022 430.366C293.923 442.721 296.884 458.874 306.772 467.489C311.283 471.419 316.844 474.116 320.826 478.655C308.856 487.789 279.412 487.544 265.007 485.649C246.066 483.157 228.587 475.268 216.766 459.861C206.786 446.853 205.045 431.777 202.78 416.073C193.615 431.789 199.555 438.712 194.955 451.771ZM483.1 408.898L483.32 409.682C485.543 417.325 491.002 423.57 486.417 431.818C484.651 434.996 481.567 436.721 478.143 437.63C465.477 440.991 454.164 435.655 442.971 430.202C448.013 441.7 453.536 452.985 458.514 464.507Q471.984 495.866 482.502 528.334C490.492 533.709 497.055 539.194 498.987 549.241C500.327 556.209 499.163 563.347 495.157 569.266C492.256 573.552 488.206 576.814 483.952 579.687C484.068 588.143 484.272 596.614 484.223 605.07C484.194 610.224 483.735 615.523 484.113 620.657C485.621 621.144 486.608 621.016 488.123 620.776C514.978 616.908 535.518 609.613 558.81 595.225C556.473 586.185 555.339 576.896 553.483 567.754C551.369 557.336 548.22 547.235 544.54 537.271C536.381 535.567 530.717 531.983 526.183 524.942C519.764 514.974 516.912 501.242 516.877 489.516C516.859 483.652 517.423 477.594 516.182 471.822C513.897 461.186 492.703 411.337 483.1 408.898ZM553.654 528.039C551.604 530.829 549.447 533.495 547.223 536.147C548.332 541.421 549.747 547.165 552.233 551.987C555.432 565.257 558.521 578.4 560.711 591.884C561.745 600.736 563.772 611.97 564.288 620.49C566.073 631.245 566.03 648.791 566.502 660.232Q568.745 712.788 567.422 765.375C567.117 778.581 565.522 791.739 565.481 804.955C576.541 796.336 589.337 784.96 595.184 772.072C594.323 762.956 594.42 753.708 593.994 744.555L591.501 696.888C590.941 685.175 590.641 673.383 588.858 661.775C587.65 653.906 583.409 647.211 580.943 639.755C578.529 632.456 577.347 624.52 575.78 616.99C573.901 602.219 571.472 586.96 568.666 572.347C567.497 566.257 559.024 527.59 555.862 525.444C554.535 526.059 554.369 526.792 553.654 528.039ZM532.331 446.679C531.793 448.28 531.753 448.685 532.503 450.207C534.61 454.478 537.946 458.443 540.614 462.4C545.504 469.655 550.156 478.025 553.222 486.215C557.257 496.997 556.425 508.775 558.474 519.987C560.853 533.008 565.609 545.666 568.455 558.632C570.129 566.256 571.514 573.886 572.794 581.585C573.633 586.629 574.195 591.936 575.611 596.848C578.411 598.242 581.215 599.505 584.113 600.682C584.669 598.546 585.328 596.394 585.782 594.236C595.3 558.542 597.597 544.999 578.33 511.779C572.449 501.64 541.425 449.7 532.776 446.79C532.631 446.741 532.48 446.716 532.331 446.679ZM400.753 526.379C392.319 538.218 384.982 552.345 378.892 565.517Q385.831 574.752 393.885 583.033C396.744 585.948 400.267 588.628 402.885 591.716L404.107 589.988C404.052 587.612 405.211 585.315 405.403 582.948C405.555 581.065 404.399 579.469 404.272 577.684C404.069 574.84 408.024 567.941 408.881 564.671C409.826 561.064 408.918 556.486 409.356 552.708C410.1 546.29 414.971 530.344 411.851 525.268C409.6 523.798 408.919 523.074 408.336 520.381C408.295 520.19 408.258 519.999 408.219 519.809C404.505 518.636 404.556 525.259 401.294 526.261C401.118 526.316 400.934 526.34 400.753 526.379ZM442.429 476.452C441.23 480.133 439.798 482.825 437.242 485.798L436.858 486.21L430.188 491.9C438.567 505.789 448.328 518.334 459.989 529.612C457.256 517.231 451.485 490.875 445.84 480.521C444.388 479.343 444.077 478.147 443.496 476.398L443.268 475.69L442.871 476.87L442.429 476.452ZM381.159 945.084C377.038 950.433 370.668 953.715 365.782 958.375C370.124 962.937 374.829 965.592 381.295 965.72C392.308 965.937 404.955 959.731 414.634 954.88C409.134 951.345 404.323 952.994 398.514 951.331L396.516 951.306L395.309 950.219L396.253 950.023C391.292 948.208 386.102 947.009 381.159 945.084ZM483.457 401.488C485.719 407.376 490.174 409.348 493.298 414.326C499.96 424.942 505.249 436.652 510.674 447.94C512.931 452.634 515.507 457.095 517.523 461.91C517.561 462.002 517.609 462.089 517.652 462.179C519.916 460.425 521.45 459.033 524.373 458.574L525.124 458.241C525.126 454.412 522.857 451.431 521.306 448.093C516.254 437.223 513.451 429.751 504.663 420.847C500.403 416.53 488.049 403.426 483.457 401.488ZM545.59 490.795L544.715 491.319L544.655 492.728L543.248 492.908L543.915 493.177C543.761 493.19 543.607 493.199 543.454 493.215C541.303 493.449 539.897 494.346 538.105 495.487C537.304 497.377 536.712 499.393 535.081 500.72C534.86 500.762 534.638 500.8 534.417 500.846C533.745 500.988 533.29 501.145 532.687 501.447L534.678 506.902C536.25 510.842 538.954 515.76 539.778 519.825C541.116 522.73 542.506 525.804 544.849 528.052C546.046 529.199 546.96 529.42 548.573 529.353C550.644 528.277 551.629 526.012 552.264 523.869C555.27 513.721 550.307 499.749 545.59 490.795ZM409.868 426.44C411.962 429.799 413.401 441.881 414.528 446.524C415.856 451.993 417.439 457.536 419.738 462.685C421.717 463.583 423.681 464.516 425.721 465.27C425.779 465.126 425.841 464.982 425.897 464.836C425.98 464.621 426.053 464.402 426.138 464.188C428.06 459.382 424.902 446.21 423.904 440.608C423.434 438.159 423.115 435.883 423.047 433.38C423.432 430.57 422.365 428.527 423.82 425.845C423.374 423.343 422.177 420.522 421.414 418.068L420.41 418.65L418.067 417.26C416.015 417.862 412.96 422.508 411.887 424.496C411.535 425.148 411.367 425.719 411.166 426.427C410.451 426.778 410.875 426.692 409.868 426.44ZM423.047 433.38C423.115 435.883 423.434 438.159 423.904 440.608C424.902 446.21 428.06 459.382 426.138 464.188C426.053 464.402 425.98 464.621 425.897 464.836C425.841 464.982 425.779 465.126 425.721 465.27C430.781 466.512 438.016 467.977 440.976 472.733C441.665 473.84 442.036 475.215 442.429 476.452L442.871 476.87L443.268 475.69L443.496 476.398C444.077 478.147 444.388 479.343 445.84 480.521C443.225 471.914 439.543 463.497 436.201 455.142C432.277 445.333 428.523 435.308 423.82 425.845C422.365 428.527 423.432 430.57 423.047 433.38ZM538.09 932.392C536.735 932.668 535.382 932.993 534.008 933.151L531.926 933.792C531.449 935.237 530.735 935.901 529.344 936.553C525.297 938.45 519.774 938.083 515.404 938.786C516.483 939.695 517.669 940.795 518.914 941.468C521.888 943.074 526.137 942.587 527.41 946.187C529.336 946.661 531.102 946.834 533.083 946.891C536.473 944.614 545.182 946.712 550.53 943.834C551.33 941.694 551.485 941.097 550.693 938.946C548.682 937.241 545.577 937.104 543.761 935.257C543.2 934.686 543.411 934.448 543.464 933.73C541.639 932.782 540.147 932.392 538.09 932.392ZM408.241 514.827C405.461 518.313 402.788 522.408 400.753 526.379C400.934 526.34 401.118 526.316 401.294 526.261C404.556 525.259 404.505 518.636 408.219 519.809C408.258 519.999 408.295 520.19 408.336 520.381C408.919 523.074 409.6 523.798 411.851 525.268C414.971 530.344 410.1 546.29 409.356 552.708C408.918 556.486 409.826 561.064 408.881 564.671C408.024 567.941 404.069 574.84 404.272 577.684C404.399 579.469 405.555 581.065 405.403 582.948C405.211 585.315 404.052 587.612 404.107 589.988C407.498 584.956 405.51 581.092 406.605 575.736C407.226 572.695 409.19 569.999 409.936 566.987C411.153 562.075 411.123 556.442 411.662 551.377C412.624 542.355 414.31 534.345 413.929 525.196C413.764 524.612 413.665 524.09 413.648 523.481C413.636 523.028 413.633 522.574 413.604 522.121C413.442 519.589 412.843 515.152 410.906 513.508C410.193 514.016 409.62 514.455 408.766 514.706C408.594 514.756 408.416 514.787 408.241 514.827ZM582.285 632.173L583.538 629.943C586.514 624.38 584.078 611.284 582.953 605.077C580.804 603.721 578.698 602.306 576.374 601.266C577.5 609.915 578.566 624.565 582.285 632.173ZM539.31 484.48C538.9 486.37 538.451 487.72 537.455 489.384L535.238 492.46C534.421 492.96 534.909 492.786 533.725 492.814C532.816 491.127 533.817 488.333 533.624 486.32C532.374 485.52 532.324 485.479 530.85 485.583C528.544 487.25 528.336 489.164 527.868 491.803Q530.119 496.704 532.687 501.447C533.29 501.145 533.745 500.988 534.417 500.846C534.638 500.8 534.86 500.762 535.081 500.72C536.712 499.393 537.304 497.377 538.105 495.487C539.897 494.346 541.303 493.449 543.454 493.215C543.607 493.199 543.761 493.19 543.915 493.177L543.248 492.908L544.655 492.728L544.715 491.319L545.59 490.795L545.46 489.765C543.873 490.325 543.142 490.676 541.404 490.406C540.442 489.522 540.286 488.874 540.016 487.655L539.31 484.48ZM529.405 467.472C528.55 468.654 527.894 469.462 527.758 470.972C528.72 472.031 528.053 471.484 529.245 472.103C530.595 472.805 531.086 473.541 531.428 475.022C532.433 479.374 528.149 485.941 527.382 490.506L527.868 491.803C528.336 489.164 528.544 487.25 530.85 485.583C532.324 485.479 532.374 485.52 533.624 486.32C533.817 488.333 532.816 491.127 533.725 492.814C534.909 492.786 534.421 492.96 535.238 492.46L537.455 489.384C538.451 487.72 538.9 486.37 539.31 484.48C537.972 483.926 537.025 483.47 536.368 482.105C535.351 479.991 533.887 475.444 534.701 473.225C533.263 471.044 531.262 469.294 529.405 467.472ZM543.464 933.73C543.411 934.448 543.2 934.686 543.761 935.257C545.577 937.104 548.682 937.241 550.693 938.946C551.485 941.097 551.33 941.694 550.53 943.834C545.182 946.712 536.473 944.614 533.083 946.891C537.357 947.201 541.661 947.299 545.932 946.9C549.867 946.533 561.156 945.434 563.56 942.51C561.544 939.601 547.363 935.181 543.464 933.73ZM527.382 490.506C528.149 485.941 532.433 479.374 531.428 475.022C531.086 473.541 530.595 472.805 529.245 472.103C528.053 471.484 528.72 472.031 527.758 470.972C527.894 469.462 528.55 468.654 529.405 467.472C528.03 467.365 527.249 467.144 526.059 468.012C524.322 469.277 523.929 472.136 523.859 474.116C523.675 479.317 524.9 485.92 527.382 490.506ZM534.701 473.225C533.887 475.444 535.351 479.991 536.368 482.105C537.025 483.47 537.972 483.926 539.31 484.48L540.016 487.655C540.286 488.874 540.442 489.522 541.404 490.406C543.142 490.676 543.873 490.325 545.46 489.765C543.813 487.825 542.673 485.037 541.374 482.824C539.369 479.408 537.197 476.298 534.701 473.225Z"/>
	<path fill="#F2F3D3" d="M409.868 426.44C410.08 423.515 413.212 418.387 415.371 416.423C416.51 415.387 417.474 414.786 419.069 414.852C420.459 415.786 420.674 416.592 421.414 418.068L420.41 418.65L418.067 417.26C416.015 417.862 412.96 422.508 411.887 424.496C411.535 425.148 411.367 425.719 411.166 426.427C410.451 426.778 410.875 426.692 409.868 426.44Z"/>
	<path fill="#F2F3D3" d="M398.514 951.331L398.819 950.404C406.209 950.167 414.091 951.65 421.518 952.179C419.307 953.128 416.982 954.357 414.634 954.88C409.134 951.345 404.323 952.994 398.514 951.331Z"/>
	<path fill="#F2F3D3" d="M526.715 448.83C527.238 449.148 527.312 449.167 527.839 449.643C531.417 452.877 535.531 458.737 536.058 463.577C535.657 463.471 535.26 463.348 534.871 463.203C531.051 461.778 528.223 452.494 526.715 448.83Z"/>
	<path fill="#FDFBED" d="M583.538 629.943C584.89 630.643 585.192 630.956 585.609 632.448C586.998 637.423 586.817 643.312 587.005 648.44C584.909 643.022 583.091 637.952 582.285 632.173L583.538 629.943Z"/>
	<path fill="#FDFBED" d="M413.793 507.118C414.789 511.799 415.551 516.559 415.511 521.357L414.728 521.249C414.177 522.606 414.043 523.759 413.929 525.196C413.764 524.612 413.665 524.09 413.648 523.481C413.636 523.028 413.633 522.574 413.604 522.121C413.442 519.589 412.843 515.152 410.906 513.508C410.193 514.016 409.62 514.455 408.766 514.706C408.594 514.756 408.416 514.787 408.241 514.827C409.953 512.154 411.881 509.648 413.793 507.118Z"/>
	<path fill="#FDFBED" fill-opacity="0.49411765" d="M527.382 490.506C524.9 485.92 523.675 479.317 523.859 474.116C523.929 472.136 524.322 469.277 526.059 468.012C527.249 467.144 528.03 467.365 529.405 467.472C528.55 468.654 527.894 469.462 527.758 470.972C528.72 472.031 528.053 471.484 529.245 472.103C530.595 472.805 531.086 473.541 531.428 475.022C532.433 479.374 528.149 485.941 527.382 490.506Z"/>
	<path fill="#F2F3D3" d="M526.044 494.457C532.334 501.278 536.46 517.268 539.271 526.298C538.192 525.798 537.411 525.306 536.564 524.458C530.698 518.583 526.137 502.433 526.044 494.457Z"/>
	<path fill="#F2F3D3" d="M543.464 933.73C547.363 935.181 561.544 939.601 563.56 942.51C561.156 945.434 549.867 946.533 545.932 946.9C541.661 947.299 537.357 947.201 533.083 946.891C536.473 944.614 545.182 946.712 550.53 943.834C551.33 941.694 551.485 941.097 550.693 938.946C548.682 937.241 545.577 937.104 543.761 935.257C543.2 934.686 543.411 934.448 543.464 933.73ZM550.693 938.946C551.485 941.097 551.33 941.694 550.53 943.834C553.895 942.85 557.275 943.363 560.684 942.718C559.678 940.75 553.636 940.213 551.471 939.291C551.21 939.179 550.952 939.061 550.693 938.946Z"/>
	<path fill="#FDFBED" fill-opacity="0.32156864" d="M529.405 467.472C531.262 469.294 533.263 471.044 534.701 473.225C533.887 475.444 535.351 479.991 536.368 482.105C537.025 483.47 537.972 483.926 539.31 484.48C538.9 486.37 538.451 487.72 537.455 489.384L535.238 492.46C534.421 492.96 534.909 492.786 533.725 492.814C532.816 491.127 533.817 488.333 533.624 486.32C532.374 485.52 532.324 485.479 530.85 485.583C528.544 487.25 528.336 489.164 527.868 491.803L527.382 490.506C528.149 485.941 532.433 479.374 531.428 475.022C531.086 473.541 530.595 472.805 529.245 472.103C528.053 471.484 528.72 472.031 527.758 470.972C527.894 469.462 528.55 468.654 529.405 467.472ZM535.238 492.46L537.455 489.384L537.123 487.5L536.255 486.976C535.123 487.407 534.528 487.688 534.085 488.967C533.682 490.129 533.949 490.849 534.411 491.869L535.238 492.46Z"/>
	<path fill="#FDFBED" fill-opacity="0.38039216" d="M535.238 492.46L534.411 491.869C533.949 490.849 533.682 490.129 534.085 488.967C534.528 487.688 535.123 487.407 536.255 486.976L537.123 487.5L537.455 489.384L535.238 492.46Z"/>
	<path fill="#DEB68A" d="M443.251 390.062C450.976 389.653 458.715 389.125 466.445 388.86L466.704 395.195C459.255 392.639 449.82 395.026 442.018 395.012L443.251 390.062Z"/>
	<path fill="#FDFBED" d="M500.865 411.329C501.106 411.47 501.35 411.607 501.589 411.752C507.168 415.142 531.854 440.647 533.233 446.408C532.05 446.202 531.971 445.813 531.164 444.974C530.306 443.897 529.524 442.645 528.262 442.024C528.805 444.13 530.172 446.067 531.267 447.936C522.624 440.785 517.205 431.196 510.588 422.322C507.656 418.39 504.25 414.866 500.865 411.329Z"/>
	<path fill="#FDFBED" fill-opacity="0.30980393" d="M539.31 484.48L540.016 487.655C540.286 488.874 540.442 489.522 541.404 490.406C543.142 490.676 543.873 490.325 545.46 489.765L545.59 490.795L544.715 491.319L544.655 492.728L543.248 492.908L543.915 493.177C543.761 493.19 543.607 493.199 543.454 493.215C541.303 493.449 539.897 494.346 538.105 495.487C537.304 497.377 536.712 499.393 535.081 500.72C534.86 500.762 534.638 500.8 534.417 500.846C533.745 500.988 533.29 501.145 532.687 501.447Q530.119 496.704 527.868 491.803C528.336 489.164 528.544 487.25 530.85 485.583C532.324 485.479 532.374 485.52 533.624 486.32C533.817 488.333 532.816 491.127 533.725 492.814C534.909 492.786 534.421 492.96 535.238 492.46L537.455 489.384C538.451 487.72 538.9 486.37 539.31 484.48Z"/>
	<path fill="#F2F3D3" d="M503.792 936.616C513.132 935.891 522.698 935.428 531.926 933.792C531.449 935.237 530.735 935.901 529.344 936.553C525.297 938.45 519.774 938.083 515.404 938.786C516.483 939.695 517.669 940.795 518.914 941.468C521.888 943.074 526.137 942.587 527.41 946.187C518.603 945.661 510.316 942.507 503.792 936.616Z"/>
	<path fill="#F2F3D3" d="M396.978 653.905C401.916 653.344 406.59 652.576 411.319 651.01C411.976 654.251 412.089 657.409 412.185 660.707C407.16 661.876 402.031 662.453 396.921 663.12L396.978 653.905Z"/>
	<path fill="#FEFEFE" d="M413.929 525.196C414.043 523.759 414.177 522.606 414.728 521.249L415.511 521.357C417.829 538.826 412.524 565.667 407.982 582.958C407.331 585.437 406.752 589.645 405.152 591.596C405.009 591.771 404.849 591.933 404.698 592.101C403.454 592.155 404.061 592.271 402.885 591.716L404.107 589.988C407.498 584.956 405.51 581.092 406.605 575.736C407.226 572.695 409.19 569.999 409.936 566.987C411.153 562.075 411.123 556.442 411.662 551.377C412.624 542.355 414.31 534.345 413.929 525.196Z"/>
	<path fill="#FEFEFE" fill-opacity="0.88627452" d="M408.241 514.827C408.416 514.787 408.594 514.756 408.766 514.706C409.62 514.455 410.193 514.016 410.906 513.508C412.843 515.152 413.442 519.589 413.604 522.121C413.633 522.574 413.636 523.028 413.648 523.481C413.665 524.09 413.764 524.612 413.929 525.196C414.31 534.345 412.624 542.355 411.662 551.377C411.123 556.442 411.153 562.075 409.936 566.987C409.19 569.999 407.226 572.695 406.605 575.736C405.51 581.092 407.498 584.956 404.107 589.988C404.052 587.612 405.211 585.315 405.403 582.948C405.555 581.065 404.399 579.469 404.272 577.684C404.069 574.84 408.024 567.941 408.881 564.671C409.826 561.064 408.918 556.486 409.356 552.708C410.1 546.29 414.971 530.344 411.851 525.268C409.6 523.798 408.919 523.074 408.336 520.381C408.295 520.19 408.258 519.999 408.219 519.809C404.505 518.636 404.556 525.259 401.294 526.261C401.118 526.316 400.934 526.34 400.753 526.379C402.788 522.408 405.461 518.313 408.241 514.827Z"/>
	<path fill="#FDFBED" d="M523.75 464.434C523.879 466.476 522.353 469.349 521.82 471.421C518.389 484.755 524.193 506.777 529.781 519.045C530.704 521.072 531.74 523.808 533.302 525.419C536.296 528.506 545.06 531.369 546.239 533.354L545.463 534.439C539.527 533.621 535.089 531.013 531.314 526.32C521.734 514.409 517.285 489.333 518.977 474.458C519.492 469.936 520.137 467.266 523.75 464.434Z"/>
	<path fill="#F2F3D3" fill-opacity="0.9137255" d="M538.09 932.392C540.147 932.392 541.639 932.782 543.464 933.73C543.411 934.448 543.2 934.686 543.761 935.257C545.577 937.104 548.682 937.241 550.693 938.946C551.485 941.097 551.33 941.694 550.53 943.834C545.182 946.712 536.473 944.614 533.083 946.891C531.102 946.834 529.336 946.661 527.41 946.187C526.137 942.587 521.888 943.074 518.914 941.468C517.669 940.795 516.483 939.695 515.404 938.786C519.774 938.083 525.297 938.45 529.344 936.553C530.735 935.901 531.449 935.237 531.926 933.792L534.008 933.151C535.382 932.993 536.735 932.668 538.09 932.392ZM534.008 933.151C534.313 934.521 534.312 934.69 535.322 935.641C538.091 936.361 539.459 936.129 541.989 934.807L542.132 934.166C540.898 933.937 539.6 933.803 538.638 932.926C538.449 932.754 538.272 932.57 538.09 932.392C536.735 932.668 535.382 932.993 534.008 933.151Z"/>
	<path fill="#F2F3D3" fill-opacity="0.84313726" d="M534.008 933.151C535.382 932.993 536.735 932.668 538.09 932.392C538.272 932.57 538.449 932.754 538.638 932.926C539.6 933.803 540.898 933.937 542.132 934.166L541.989 934.807C539.459 936.129 538.091 936.361 535.322 935.641C534.312 934.69 534.313 934.521 534.008 933.151Z"/>
	<path fill="#FDFBED" d="M423.047 433.38C423.432 430.57 422.365 428.527 423.82 425.845C428.523 435.308 432.277 445.333 436.201 455.142C439.543 463.497 443.225 471.914 445.84 480.521C444.388 479.343 444.077 478.147 443.496 476.398L443.268 475.69L442.871 476.87L442.429 476.452C442.036 475.215 441.665 473.84 440.976 472.733C438.016 467.977 430.781 466.512 425.721 465.27C425.779 465.126 425.841 464.982 425.897 464.836C425.98 464.621 426.053 464.402 426.138 464.188C428.06 459.382 424.902 446.21 423.904 440.608C423.434 438.159 423.115 435.883 423.047 433.38ZM423.047 433.38C423.115 435.883 423.434 438.159 423.904 440.608C424.902 440.403 425.665 440.24 426.539 439.704C426.997 438.363 427.317 437.519 426.782 436.133C426.189 434.6 425.248 433.664 423.828 432.926L423.047 433.38Z"/>
	<path fill="#FDFBED" fill-opacity="0.92941177" d="M423.047 433.38L423.828 432.926C425.248 433.664 426.189 434.6 426.782 436.133C427.317 437.519 426.997 438.363 426.539 439.704C425.665 440.24 424.902 440.403 423.904 440.608C423.434 438.159 423.115 435.883 423.047 433.38Z"/>
	<path fill="#CCD5AE" d="M421.945 407.913C422.465 408.264 422.962 408.587 423.368 409.074C425.818 412.01 427.975 421.235 429.59 425.181C433.73 435.294 438.727 445.051 442.848 455.18C447.003 465.392 466.492 518.502 465.112 527.357C464.977 527.304 464.839 527.258 464.707 527.198C462.031 525.987 461.643 523.998 460.966 521.371C458.894 513.327 457.534 505.193 455.065 497.238C447.498 472.853 436.781 449.667 426.953 426.154C425.065 421.637 420.089 412.43 421.945 407.913Z"/>
	<path fill="#F2F3D3" fill-opacity="0.97647059" d="M409.868 426.44C410.875 426.692 410.451 426.778 411.166 426.427C411.367 425.719 411.535 425.148 411.887 424.496C412.96 422.508 416.015 417.862 418.067 417.26L420.41 418.65L421.414 418.068C422.177 420.522 423.374 423.343 423.82 425.845C422.365 428.527 423.432 430.57 423.047 433.38C423.115 435.883 423.434 438.159 423.904 440.608C424.902 446.21 428.06 459.382 426.138 464.188C426.053 464.402 425.98 464.621 425.897 464.836C425.841 464.982 425.779 465.126 425.721 465.27C423.681 464.516 421.717 463.583 419.738 462.685C417.439 457.536 415.856 451.993 414.528 446.524C413.401 441.881 411.962 429.799 409.868 426.44Z"/>
	<path fill="#FDFBED" fill-opacity="0.41176471" d="M545.59 490.795C550.307 499.749 555.27 513.721 552.264 523.869C551.629 526.012 550.644 528.277 548.573 529.353C546.96 529.42 546.046 529.199 544.849 528.052C542.506 525.804 541.116 522.73 539.778 519.825C538.954 515.76 536.25 510.842 534.678 506.902L532.687 501.447C533.29 501.145 533.745 500.988 534.417 500.846C534.638 500.8 534.86 500.762 535.081 500.72C536.712 499.393 537.304 497.377 538.105 495.487C539.897 494.346 541.303 493.449 543.454 493.215C543.607 493.199 543.761 493.19 543.915 493.177L543.248 492.908L544.655 492.728L544.715 491.319L545.59 490.795ZM534.678 506.902C536.25 510.842 538.954 515.76 539.778 519.825C540.895 519.763 541.592 519.619 542.522 519.009C543.478 518.382 544.401 517.588 544.56 516.397C544.847 514.242 543.481 512.539 542.313 510.858C540.647 508.461 540.553 504.955 538.772 503.019C537.68 503.182 536.855 503.441 536.121 504.394C535.658 504.996 535.125 506.216 534.678 506.902ZM550.014 509.92C548.769 511.118 548.196 511.75 547.848 513.464C548.211 514.735 548.163 515.146 549.306 515.871C549.442 515.957 549.593 516.017 549.736 516.09C550.837 514.515 551.083 512.98 550.716 511.077C550.567 510.304 550.605 510.525 550.014 509.92Z"/>
	<path fill="#FDFBED" fill-opacity="0.32941177" d="M550.014 509.92C550.605 510.525 550.567 510.304 550.716 511.077C551.083 512.98 550.837 514.515 549.736 516.09C549.593 516.017 549.442 515.957 549.306 515.871C548.163 515.146 548.211 514.735 547.848 513.464C548.196 511.75 548.769 511.118 550.014 509.92Z"/>
	<path fill="#F2F3D3" fill-opacity="0.74901962" d="M380.696 953.403C385.981 952.371 390.306 952.67 395.309 950.219L396.516 951.306C395.775 953.753 395.835 956.334 395.006 958.715C390.38 961.493 386.226 956.997 381.774 956.7C379.752 956.564 375.981 958.43 373.987 959.058L374.675 958.572C376.952 956.983 378.782 955.412 380.696 953.403Z"/>
	<path fill="#FDFBED" fill-opacity="0.98039216" d="M442.429 476.452L442.871 476.87L443.268 475.69L443.496 476.398C444.077 478.147 444.388 479.343 445.84 480.521C451.485 490.875 457.256 517.231 459.989 529.612C448.328 518.334 438.567 505.789 430.188 491.9L436.858 486.21L437.242 485.798C439.798 482.825 441.23 480.133 442.429 476.452ZM437.242 485.798L436.858 486.21C436.706 488.067 435.854 488.55 434.599 489.744C433.381 490.901 433.007 491.804 432.979 493.459L433.728 493.914C435.831 493.375 439.123 490.08 440.478 488.356C441.183 487.459 441.182 487.257 441.095 486.186L439.911 485.454C438.946 485.415 438.178 485.573 437.242 485.798Z"/>
	<path fill="#FDFBED" fill-opacity="0.9137255" d="M437.242 485.798C438.178 485.573 438.946 485.415 439.911 485.454L441.095 486.186C441.182 487.257 441.183 487.459 440.478 488.356C439.123 490.08 435.831 493.375 433.728 493.914L432.979 493.459C433.007 491.804 433.381 490.901 434.599 489.744C435.854 488.55 436.706 488.067 436.858 486.21L437.242 485.798Z"/>
	<path fill="#FDFBED" d="M411.319 651.01C428.372 643.901 444.802 635.215 460.964 626.287C461.567 630.294 462.85 635.617 460.042 639.107C453.842 646.812 422.386 657.648 412.185 660.707C412.089 657.409 411.976 654.251 411.319 651.01Z"/>
	<path fill="#FDFBED" d="M427.231 408.409C427.395 408.488 427.566 408.553 427.723 408.646C432.118 411.27 435.954 422.997 438.196 427.747C453.375 459.905 468.141 492.613 478.775 526.597C475.433 526.51 472.071 526.158 468.736 525.904C464.425 500.814 452.248 468.325 442.361 444.711C437.723 433.633 428.658 420.127 427.231 408.409Z"/>
	<path fill="#FEFEFE" fill-opacity="0.81960785" d="M400.753 526.379C400.934 526.34 401.118 526.316 401.294 526.261C404.556 525.259 404.505 518.636 408.219 519.809C408.258 519.999 408.295 520.19 408.336 520.381C408.919 523.074 409.6 523.798 411.851 525.268C414.971 530.344 410.1 546.29 409.356 552.708C408.918 556.486 409.826 561.064 408.881 564.671C408.024 567.941 404.069 574.84 404.272 577.684C404.399 579.469 405.555 581.065 405.403 582.948C405.211 585.315 404.052 587.612 404.107 589.988L402.885 591.716C400.267 588.628 396.744 585.948 393.885 583.033Q385.831 574.752 378.892 565.517C384.982 552.345 392.319 538.218 400.753 526.379ZM396.893 540.061C396.566 541.45 396.443 542.141 396.807 543.569C397.862 544.617 397.937 544.527 399.439 544.665C399.599 543.044 399.858 542.463 399.051 541.011C398.343 540.687 397.629 540.32 396.893 540.061Z"/>
	<path fill="#FDFBED" fill-opacity="0.89019608" d="M396.893 540.061C397.629 540.32 398.343 540.687 399.051 541.011C399.858 542.463 399.599 543.044 399.439 544.665C397.937 544.527 397.862 544.617 396.807 543.569C396.443 542.141 396.566 541.45 396.893 540.061Z"/>
	<path fill="#D4A376" d="M424.796 953.5C425.099 953.773 425.275 953.896 425.494 954.282C426.889 956.74 425.762 961.03 425.191 963.65C424.321 967.643 423.053 970.388 419.487 972.581C406.171 980.768 365.142 988.181 350.34 984.644C346.847 983.81 344.951 982.778 343.099 979.692C348.314 971.821 355.565 965.964 362.859 960.139C366.119 963.373 369.469 965.899 373.915 967.312C390.627 972.62 410.495 960.973 424.796 953.5Z"/>
	<path fill="#D4A376" d="M504.577 941.808Q509.451 943.957 514.446 945.809C532.59 952.371 551.966 951.666 569.438 943.486C575.075 946.164 586.236 950.339 589.308 956.103C589.284 957.594 589.157 957.563 588.152 958.695C561.822 972.904 532.421 966.626 504.947 959.84L504.577 941.808Z"/>
	<path fill="#F2F3D3" d="M442.018 395.012C449.82 395.026 459.255 392.639 466.704 395.195C466.832 396.811 466.748 398.875 467.875 400.064C468.998 399.523 470.577 398.615 471.822 399.122C477.631 401.485 483.773 416.1 485.849 421.6C485.817 421.836 485.782 422.072 485.753 422.308C485.544 423.996 485.412 425.667 484.746 427.253Q484.463 427.93 484.112 428.574Q483.76 429.217 483.344 429.821Q482.928 430.425 482.452 430.983Q481.975 431.541 481.444 432.047Q480.913 432.552 480.332 433Q479.751 433.448 479.127 433.834Q478.503 434.219 477.842 434.538Q477.182 434.857 476.492 435.106C469.288 437.688 460.251 435.341 453.514 432.306C441.806 427.032 435.871 418.362 431.428 406.658C435.892 403.381 438.981 399.595 442.018 395.012Z"/>
	<path fill="#D4A376" d="M557.743 598.902C558.055 598.985 558.508 599.354 558.785 599.533C561.496 605.88 561.266 614.683 561.556 621.493C538.249 636.603 514.807 645.452 487.492 650.376C486.04 650.615 484.635 651.064 483.264 650.354C480.82 645.583 483.159 629.293 483.577 623.646C513.076 621.333 532.737 615.008 557.743 598.902Z"/>
	<path fill="#D4A376" d="M278.942 328.932C279.194 332.539 280.069 333.268 282.752 335.584C285.112 337.622 287.752 339.308 290.119 341.349C297.571 347.774 304.585 354.38 312.685 360.03C333.689 374.683 362.775 387.417 388.755 385.417C391.436 385.211 395.524 385.226 397.715 383.521C393.399 380.78 387.848 379.138 383.281 376.624C373.652 371.324 365.38 363.433 357.426 355.932C353.981 357.539 350.296 359.459 346.491 359.994C343.931 360.354 342.042 360.032 339.982 358.555C346.393 357.31 352.256 355.369 358.32 352.967C369.992 366.394 383.324 376.002 400.128 382.108C409.901 386.046 420.995 387.492 431.345 389.278Q428.845 390.469 426.283 391.521Q423.722 392.572 421.105 393.479Q418.489 394.387 415.827 395.148Q413.164 395.909 410.464 396.522Q407.763 397.135 405.033 397.597Q402.303 398.059 399.551 398.369Q396.799 398.679 394.035 398.837Q391.27 398.994 388.501 398.998C359.778 399.184 332.978 386.357 310.041 369.993C304.589 366.104 299.493 361.765 294.166 357.716C288.762 353.608 282.965 351.132 278.014 346.254C277.931 340.62 278.065 334.496 278.942 328.932Z"/>
	<path fill="#CCD5AE" d="M468.466 528.606C473.411 528.619 478.176 529.313 482.646 531.564Q483.238 531.863 483.814 532.192Q484.389 532.521 484.947 532.879Q485.506 533.237 486.045 533.623Q486.584 534.009 487.103 534.422Q487.622 534.835 488.119 535.274Q488.616 535.713 489.091 536.176Q489.565 536.64 490.015 537.127Q490.465 537.614 490.889 538.123Q491.314 538.633 491.712 539.163Q492.11 539.694 492.48 540.244Q492.851 540.794 493.193 541.362Q493.535 541.93 493.847 542.515Q494.16 543.099 494.442 543.699Q494.725 544.299 494.976 544.913Q495.228 545.527 495.447 546.152Q495.667 546.778 495.855 547.414C497.762 553.891 497.231 561.171 493.835 567.066C489.58 574.455 482.681 577.18 474.928 579.416C469.741 579.294 464.613 578.437 460.01 575.924Q459.429 575.605 458.865 575.257Q458.301 574.908 457.755 574.532Q457.209 574.156 456.683 573.752Q456.157 573.349 455.652 572.919Q455.147 572.49 454.665 572.035Q454.182 571.581 453.723 571.103Q453.264 570.624 452.83 570.123Q452.396 569.622 451.987 569.1Q451.579 568.578 451.198 568.035Q450.817 567.493 450.463 566.932Q450.11 566.371 449.785 565.793Q449.461 565.215 449.166 564.621Q448.871 564.028 448.606 563.42Q448.342 562.812 448.108 562.191Q447.875 561.571 447.673 560.939Q447.471 560.308 447.302 559.667C445.617 553.331 446.321 546.457 449.65 540.768C453.941 533.436 460.723 530.781 468.466 528.606Z"/>
	<path fill="#583315" d="M468.201 539.545C470.359 539.292 472.475 539.353 474.571 539.962C477.847 540.915 480.656 542.92 482.222 545.999Q482.512 546.57 482.743 547.168Q482.975 547.765 483.145 548.383Q483.315 549.001 483.422 549.632Q483.53 550.264 483.573 550.903Q483.617 551.542 483.596 552.183Q483.575 552.823 483.49 553.458Q483.405 554.093 483.256 554.716Q483.108 555.34 482.898 555.945C481.236 560.827 477.598 563.298 473.161 565.368C471.055 565.861 468.399 565.408 466.405 564.665C463.34 563.522 461.128 561.167 459.801 558.209C458.247 554.743 458.035 550.664 459.501 547.132C461.275 542.86 464.139 541.191 468.201 539.545Z"/>
	<path fill="#CCD5AE" d="M468.634 541.972C469.588 541.987 470.553 542.004 471.5 542.125C474.488 542.507 477.428 544.066 479.161 546.57Q479.434 546.968 479.664 547.391Q479.895 547.815 480.081 548.26Q480.267 548.705 480.407 549.166Q480.546 549.628 480.638 550.102Q480.729 550.575 480.772 551.055Q480.814 551.536 480.807 552.018Q480.801 552.5 480.744 552.979Q480.688 553.458 480.583 553.929C479.675 558.169 476.978 560.331 473.443 562.472C472.631 562.491 471.81 562.503 471.002 562.415C468.096 562.102 465.072 560.756 463.292 558.374C461.694 556.235 461.175 553.433 461.657 550.831C462.467 546.458 465.158 544.279 468.634 541.972Z"/>
	<path fill="#F2F3D3" d="M459.758 642.479C460.62 642.492 460.131 642.418 461.193 642.86C462.125 645.662 461.222 650.105 461.008 653.055C459.674 671.445 456.928 689.201 452.176 707.03L451.66 707.315C436.259 715.652 417.577 723.871 399.955 718.574C393.816 709.557 396.268 675.355 397.007 664C421.813 663.851 438.384 653.168 459.758 642.479Z"/>
	<path fill="#F2F3D3" d="M553.654 528.039C554.369 526.792 554.535 526.059 555.862 525.444C559.024 527.59 567.497 566.257 568.666 572.347C571.472 586.96 573.901 602.219 575.78 616.99C577.347 624.52 578.529 632.456 580.943 639.755C583.409 647.211 587.65 653.906 588.858 661.775C590.641 673.383 590.941 685.175 591.501 696.888L593.994 744.555C594.42 753.708 594.323 762.956 595.184 772.072C589.337 784.96 576.541 796.336 565.481 804.955C565.522 791.739 567.117 778.581 567.422 765.375Q568.745 712.788 566.502 660.232C566.03 648.791 566.073 631.245 564.288 620.49C563.772 611.97 561.745 600.736 560.711 591.884C558.521 578.4 555.432 565.257 552.233 551.987C549.747 547.165 548.332 541.421 547.223 536.147C549.447 533.495 551.604 530.829 553.654 528.039ZM553.654 528.039C551.604 530.829 549.447 533.495 547.223 536.147C548.332 541.421 549.747 547.165 552.233 551.987C555.432 565.257 558.521 578.4 560.711 591.884C561.745 600.736 563.772 611.97 564.288 620.49C565.429 621.189 565.658 621.379 566.976 621.395C568.388 620.399 568.887 619.046 569.603 617.537L569.068 616.266C569.377 609.284 570.932 602.464 571.01 595.38C571.874 587.72 566.768 589.768 565.034 585.341C563.626 581.746 566.012 576.38 566.283 572.769C566.516 569.671 564.235 566.07 563.141 563.163C561.77 559.519 563.041 556.171 562.591 552.456C562.285 549.926 559.904 548.596 559.339 546.289C558.366 542.313 559.182 537.797 557.675 533.909C556.862 531.809 555.755 529.049 553.654 528.039Z"/>
	<path fill="#F2F3D3" fill-opacity="0.83529413" d="M553.654 528.039C555.755 529.049 556.862 531.809 557.675 533.909C559.182 537.797 558.366 542.313 559.339 546.289C559.904 548.596 562.285 549.926 562.591 552.456C563.041 556.171 561.77 559.519 563.141 563.163C564.235 566.07 566.516 569.671 566.283 572.769C566.012 576.38 563.626 581.746 565.034 585.341C566.768 589.768 571.874 587.72 571.01 595.38C570.932 602.464 569.377 609.284 569.068 616.266L569.603 617.537C568.887 619.046 568.388 620.399 566.976 621.395C565.658 621.379 565.429 621.189 564.288 620.49C563.772 611.97 561.745 600.736 560.711 591.884C558.521 578.4 555.432 565.257 552.233 551.987C549.747 547.165 548.332 541.421 547.223 536.147C549.447 533.495 551.604 530.829 553.654 528.039ZM563.484 597.891C563.504 602.263 564.176 606.482 564.473 610.82C564.65 613.423 564.463 616.163 564.862 618.732L564.54 617.979L565.484 618.887L566.181 618.357C566.742 617.934 567.208 617.657 567.838 617.323C568.751 616.84 568.349 617.149 569.068 616.266C569.377 609.284 570.932 602.464 571.01 595.38C569.743 594.89 568.275 595.497 567.029 596.008C565.801 596.512 564.64 597.242 563.484 597.891Z"/>
	<path fill="#F2F3D3" d="M552.233 551.987C553.447 553.207 554.118 554.303 554.773 555.9C556.231 559.451 556.729 563.417 557.941 567.065C559.067 570.455 561.794 574.791 561.917 578.291C561.939 578.917 561.887 579.353 561.861 579.992C561.706 583.801 561.481 587.66 561.433 591.469C561.2 591.62 560.984 591.838 560.711 591.884C558.521 578.4 555.432 565.257 552.233 551.987Z"/>
	<path fill="#DEB68A" d="M478.68 105.703C500.773 103.28 525.698 111.522 544.002 123.583C568.51 139.733 578.706 160.915 584.385 188.94C560.31 178.393 534.413 180.696 508.88 178.372C467.521 174.123 430.141 156.366 393.227 138.369C419.235 120.048 446.901 108.955 478.68 105.703Z"/>
	<path fill="#583315" d="M435.682 139.347C441.535 140.13 447.575 144.053 452.97 146.445C456.047 147.81 459.266 148.848 462.459 149.902C487.858 158.292 514.496 163.939 541.39 161.954C547.917 161.473 554.276 159.768 560.785 159.094C561.802 158.988 562.214 158.971 563.2 159.319L562.905 160.103Q557.835 161.59 552.65 162.605C517.948 169.238 464.919 159.046 435.682 139.347Z"/>
	<path fill="#CCD5AE" d="M483.1 408.898C492.703 411.337 513.897 461.186 516.182 471.822C517.423 477.594 516.859 483.652 516.877 489.516C516.912 501.242 519.764 514.974 526.183 524.942C530.717 531.983 536.381 535.567 544.54 537.271C548.22 547.235 551.369 557.336 553.483 567.754C555.339 576.896 556.473 586.185 558.81 595.225C535.518 609.613 514.978 616.908 488.123 620.776C486.608 621.016 485.621 621.144 484.113 620.657C483.735 615.523 484.194 610.224 484.223 605.07C484.272 596.614 484.068 588.143 483.952 579.687C488.206 576.814 492.256 573.552 495.157 569.266C499.163 563.347 500.327 556.209 498.987 549.241C497.055 539.194 490.492 533.709 482.502 528.334Q471.984 495.866 458.514 464.507C453.536 452.985 448.013 441.7 442.971 430.202C454.164 435.655 465.477 440.991 478.143 437.63C481.567 436.721 484.651 434.996 486.417 431.818C491.002 423.57 485.543 417.325 483.32 409.682L483.1 408.898ZM490.476 426.64C489.783 428.896 488.345 431.346 488.284 433.676C488.755 433.875 489.245 434.123 489.737 434.26C491.434 432.941 492.567 431.527 492.809 429.299C492.904 428.418 492.66 427.87 492.286 427.109C491.09 426.572 491.697 426.712 490.476 426.64Z"/>
	<path fill="#CCD5AE" fill-opacity="0.91764706" d="M490.476 426.64C491.697 426.712 491.09 426.572 492.286 427.109C492.66 427.87 492.904 428.418 492.809 429.299C492.567 431.527 491.434 432.941 489.737 434.26C489.245 434.123 488.755 433.875 488.284 433.676C488.345 431.346 489.783 428.896 490.476 426.64Z"/>
	<path fill="#DEB68A" d="M278.942 328.932C279.473 317.745 282.965 305.869 286.156 295.178Q287.704 290.144 289.418 285.164Q291.133 280.184 293.013 275.264Q294.892 270.344 296.935 265.489Q298.978 260.634 301.181 255.85Q303.385 251.067 305.746 246.359Q308.108 241.651 310.626 237.025Q313.143 232.398 315.813 227.859Q318.483 223.319 321.303 218.87Q324.123 214.422 327.09 210.07Q330.057 205.718 333.167 201.468Q336.277 197.217 339.528 193.073Q342.778 188.928 346.164 184.895Q349.551 180.861 353.07 176.942Q356.589 173.024 360.237 169.225Q363.885 165.425 367.658 161.75Q371.43 158.075 375.323 154.527C377.647 152.408 380.022 150.245 382.535 148.358C396.406 187.68 399.221 223.897 380.679 262.665C371.336 282.2 358.358 295.891 338.047 303.825C329.074 300.73 319.671 298.193 310.577 302.613C305.32 305.169 301.499 309.778 299.702 315.313C297.201 323.018 298.631 331.469 302.37 338.513C307.112 347.447 315.524 353.832 325.171 356.656C330.03 358.079 334.942 358.479 339.982 358.555C342.042 360.032 343.931 360.354 346.491 359.994C350.296 359.459 353.981 357.539 357.426 355.932C365.38 363.433 373.652 371.324 383.281 376.624C387.848 379.138 393.399 380.78 397.715 383.521C395.524 385.226 391.436 385.211 388.755 385.417C362.775 387.417 333.689 374.683 312.685 360.03C304.585 354.38 297.571 347.774 290.119 341.349C287.752 339.308 285.112 337.622 282.752 335.584C280.069 333.268 279.194 332.539 278.942 328.932Z"/>
	<path fill="#583315" d="M385.335 220.879L385.926 221.754C386.019 235.148 367.25 258.868 357.943 268.379L357.693 268.213C357.528 266.146 363.61 259.331 365.011 257.511C373.644 246.295 379.444 233.657 385.335 220.879Z"/>
	<path fill="#583315" d="M352.866 192.743C354.272 193.695 354.955 194.851 355.368 196.468C356.565 201.154 355.822 206.72 355.57 211.511C354.211 237.295 346.44 259.401 333.42 281.389L333.014 281.961C332.439 281.29 332.844 280.884 333.134 280.129C334.657 276.16 337.323 272.677 339.262 268.918C341.503 264.575 343.104 259.874 344.751 255.283C349.42 242.269 352.487 228.153 352.857 214.328C353.043 207.362 352.392 200.369 352.819 193.412L352.866 192.743Z"/>
	<path fill="#DEB68A" d="M258.469 331.814C250.016 325 242.568 317.276 236.352 308.358C216.316 279.608 209.759 242.905 216.124 208.657C223.346 169.796 246.611 136.904 278.943 114.776C301.592 99.2754 327.435 89.7106 354.308 84.6103C358.217 83.8684 364.449 82.0571 368.216 82.7611C368.114 83.606 367.418 84.32 366.93 85.0082C366.81 85.2824 366.696 85.5598 366.569 85.8309C365.788 87.498 364.187 89.0006 362.756 90.126L365.569 88.7416C366.159 88.4496 366.738 88.2882 367.37 88.1183C356.625 97.1063 346.609 106.281 337.116 116.59C335.829 117.987 334.025 120.637 332.432 121.559L331.632 120.932C330.256 121.883 328.943 122.876 327.635 123.918C327.574 123.965 327.505 124.004 327.45 124.06C318.687 133.005 309.915 146.945 303.26 157.696Q300.932 161.446 298.713 165.263Q296.495 169.079 294.388 172.958Q292.281 176.837 290.287 180.775Q288.293 184.714 286.414 188.708Q284.535 192.703 282.773 196.75Q281.01 200.797 279.366 204.894Q277.721 208.99 276.196 213.133Q274.671 217.275 273.267 221.46Q271.862 225.645 270.579 229.869Q269.297 234.093 268.137 238.352Q266.977 242.611 265.941 246.903Q264.905 251.194 263.994 255.513Q263.083 259.832 262.297 264.176Q261.512 268.52 260.852 272.884Q260.192 277.249 259.66 281.631Q259.127 286.013 258.721 290.409C257.643 302.967 257.842 315.627 257.782 328.221C249.213 316.237 242.466 303.253 239.784 288.652C232.321 248.024 250.821 211.743 273.054 179.368C257.154 193.604 247.836 212.258 241.653 232.432C234.077 257.155 231.744 286.794 244.421 310.312C248.361 317.622 254.227 323.69 258.077 331.056L258.469 331.814Z"/>
	<path fill="#623C1C" d="M327.635 123.918C338.693 109.048 353.09 97.1295 366.93 85.0082C366.81 85.2824 366.696 85.5598 366.569 85.8309C365.788 87.498 364.187 89.0006 362.756 90.126L365.569 88.7416C366.159 88.4496 366.738 88.2882 367.37 88.1183C356.625 97.1063 346.609 106.281 337.116 116.59C335.829 117.987 334.025 120.637 332.432 121.559L331.632 120.932C330.256 121.883 328.943 122.876 327.635 123.918Z"/>
	<path fill="#583315" d="M331.889 108.677C333.395 108.473 335.479 108.178 336.746 109.042C335.375 111.164 322.098 112.916 318.974 113.732C300.906 118.449 283.119 128.695 267.702 138.996C265.823 140.315 263.868 141.467 261.89 142.626C279.733 122.868 306.114 112.983 331.889 108.677Z"/>
	<path fill="#DEB68A" d="M261.178 344.201L266.912 343.701C287.502 356.199 317.153 392.17 324.009 415.162C326.044 421.986 328.841 435.065 325.031 441.524C324.114 443.079 322.62 444.532 320.78 444.843C312.21 446.29 300.885 430.203 294.281 426.09C293.183 425.406 292.227 424.713 290.942 424.972C288.876 428.592 289.934 434.034 290.538 437.987C293.276 455.926 301.49 467.731 315.86 478.351C292.725 484.831 269.916 485.675 246.909 478.117C233.548 472.449 222.526 464.286 215.046 451.638C203.958 432.886 205.829 414.808 211.008 394.609C199.73 410.268 195.756 426.7 192.172 445.318C187.418 437.977 184.128 430.385 183.263 421.608C181.531 404.037 188.831 387.547 199.912 374.267C216.259 354.675 236.162 346.359 261.178 344.201Z"/>
	<path fill="#583315" d="M270.824 362.187C274.934 362.144 278.919 362.779 282.926 363.629Q280.045 363.886 277.167 364.184C264.585 365.501 254.428 368.463 246.281 378.657C235.612 392.007 231.781 411.181 233.671 427.883L235.423 436.22C233.164 430.943 231.479 425.325 230.828 419.61C229.127 404.678 235.218 388.204 244.554 376.674C251.359 368.271 260.066 363.328 270.824 362.187Z"/>
	<path fill="#F2F3D3" d="M367.37 88.1183C396.958 66.7413 418.409 57.7701 454.731 53.5406C463.889 52.4741 473.439 51.3718 482.615 52.8092C486.711 53.451 491.061 55.0299 493.608 58.4884C501.207 68.8021 497.835 91.3971 496.83 103.534C443.926 102.494 409.935 116.749 372.153 153.15C331.801 192.029 298.656 240.033 283.367 294.396C280.472 304.692 277.761 315.331 276.85 325.996C276.554 329.451 276.859 337.173 274.77 339.768L273.035 339.473C272.344 340.349 272.314 341.021 272.191 342.109L271.524 342.385C267.737 340.502 264.388 336.76 261.173 333.981C253.637 277.962 275.278 210.622 303.413 162.777C310.887 150.067 319.884 137.974 328.828 126.256C330.022 124.692 331.309 123.173 332.432 121.559C334.025 120.637 335.829 117.987 337.116 116.59C346.609 106.281 356.625 97.1063 367.37 88.1183Z"/>
	<path fill="#CCD5AE" d="M426.118 66.3104C431.911 68.8594 436.051 73.9166 440.217 78.4908C442.718 78.4505 445.565 78.3276 447.88 79.4342C449.396 80.1594 449.826 81.0191 450.303 82.5643C449.718 85.8855 447.599 87.2388 445.172 89.2903C445.261 89.5101 445.353 89.7288 445.44 89.9497C446.504 92.652 448.088 96.9681 446.569 99.7367C445.88 100.993 445.136 101.6 443.743 101.945C440.59 102.728 437.18 100.382 434.568 98.9168C432.274 100.564 431.27 103.549 429.173 105.441C428.124 106.387 427.163 106.552 425.78 106.48C421.384 104.056 425.193 98.9269 422.775 95.9102C420.306 92.8281 414.83 93.7774 412.738 89.8225C413.89 85.7463 418.942 85.6502 420.995 82.371C424.162 77.3119 421.253 72.5791 426.118 66.3104Z"/>
	<path fill="#F2F3D3" d="M400.658 436.032Q403.829 432.736 406.958 429.4C411.328 441.124 414.137 453.47 417.284 465.567C425.158 468.46 432.976 471.31 440.476 475.1C435.926 480.466 431.461 485.944 426.763 491.179C434.533 505.911 444.304 518.102 456.044 529.791C449.037 536.061 443.773 542.304 443.097 552.202Q443.054 552.896 443.046 553.592Q443.038 554.287 443.064 554.982Q443.091 555.677 443.153 556.37Q443.215 557.062 443.312 557.751Q443.408 558.44 443.54 559.123Q443.671 559.806 443.836 560.481Q444.002 561.157 444.201 561.823Q444.401 562.489 444.633 563.145Q444.866 563.8 445.131 564.443Q445.397 565.086 445.694 565.715Q445.992 566.343 446.32 566.956Q446.649 567.569 447.008 568.164Q447.367 568.76 447.756 569.337Q448.145 569.913 448.562 570.47Q448.979 571.026 449.424 571.561Q449.869 572.095 450.34 572.607C455.964 578.715 463.628 581.758 471.82 581.928C474.839 581.991 477.862 581.674 480.865 581.398C483.181 596.523 481.654 612.448 480.715 627.657C476.534 695.435 462.124 760.41 444.642 825.781C401.881 817.967 375.633 799.799 343.663 771.927C359.556 728.959 371.952 684.561 384.672 640.567C388.291 643.807 391.874 647.104 395.582 650.243C394.612 662.655 389.974 710.943 396.513 719.267C398.958 722.379 403.152 723.403 406.903 723.705C421.872 724.909 442.136 717.44 454.114 708.663C462.987 680.962 465.861 650.014 463.067 621.09C452.408 627.727 441.64 634.294 430.255 639.631C431.657 636.066 435.137 629.259 433.563 625.575C431.921 621.734 411.568 601.435 407.235 596.984C417.734 564.833 420.151 532.218 416.093 498.738C405.976 508.25 381.952 551.726 375.257 565.704C383.108 576.821 392.576 586.316 401.976 596.092Q416.693 611.547 431.863 626.556C430.121 631.382 428.525 636.172 427.132 641.113C418.72 644.213 410.536 647.942 402.095 650.929C395.25 646.493 389.076 641.394 383.283 635.652C378.529 631.192 373.953 626.548 369.118 622.175C367.003 618.985 362.75 615.689 359.947 613.024C350.437 603.978 326.141 583.265 323.126 570.932C318.41 551.639 363.796 488.789 376.005 471.192C380.653 464.493 385.079 457.624 389.747 450.951C393.067 446.206 397.5 441.564 400.346 436.59L400.658 436.032Z"/>
	<path fill="#CCD5AE" d="M560.989 624.928C561.512 625.364 561.555 625.293 561.818 625.929C564.514 632.449 564.051 661.505 564.268 670.001Q566.085 724.524 563.48 779.016C562.822 794.921 562.357 810.89 560.688 826.729C559.003 842.726 556.049 858.634 552.984 874.416C549.385 892.947 545.569 911.326 540.038 929.395C524.936 933.504 508.488 934.123 493.005 932.409C485.558 896.807 488.062 860.148 489.305 824.082C489.708 812.373 488.778 800.327 491.548 788.843C493.842 779.33 498.743 770.556 502.38 761.506C508.823 745.477 514.805 729.231 521.829 713.44C526.271 703.454 531.339 693.851 536.319 684.133C532.527 688.192 529.401 692.38 526.663 697.221C520.884 707.437 516.728 718.668 512.26 729.505L492.016 779.188Q474.568 820.553 459.339 862.787Q444.111 905.02 431.146 948.002C412.181 948.518 395.006 948.165 377.502 939.821C377.499 919.796 379.343 899.772 381.184 879.847Q384.372 845.136 388.157 810.485C407.223 819.495 424.935 825.719 446.096 828.144C447.881 821.338 450.24 814.598 452.235 807.838Q457.804 789.104 462.448 770.12C471.845 731.75 477.44 693.422 482.119 654.235C512.488 649.231 535.018 641.553 560.989 624.928Z"/>
	<path fill="#F2F3D3" d="M391.1 140.91C394.759 142.304 398.401 144.453 401.949 146.162Q414.168 152.092 426.546 157.683C451.856 168.826 478.484 178.42 506.158 181.288C518.537 182.571 531.088 182.535 543.518 183.045C543.39 197.406 543.59 211.971 548.41 225.682C555.872 246.908 574.204 262.005 577.287 285.211C579.659 303.064 573.638 320.44 562.848 334.561C538.626 366.262 498.34 380.81 460.062 385.861Q457.968 386.199 455.85 386.323C416.242 388.905 389.142 377.316 359.819 351.528C361.121 350.044 362.351 348.659 363.328 346.936L363.088 346.302C360.063 346.375 357.027 348.972 354.554 350.526C346.311 355.704 338.392 356.678 328.971 354.471C319.582 352.272 311.428 346.955 306.37 338.644C302.517 332.312 300.545 324.31 302.543 317.026C303.861 312.221 306.827 308.32 311.216 305.927C319.979 301.15 328.955 304.286 337.741 306.878C341.098 305.86 344.419 304.794 347.601 303.304C367.934 293.783 380.747 273.935 388.166 253.444C401.359 217.005 400.552 181.757 384.075 146.499L391.1 140.91Z"/>
	<path fill="#583315" d="M439.971 197.479C441.188 197.528 442.103 197.807 442.971 198.639C441.533 199.877 439.36 200.613 437.635 201.424C430.192 204.922 426.552 208.431 422.609 215.721C422.238 216.18 421.852 216.529 421.413 216.922L421.084 216.369C421.416 214.126 422.207 212.082 423.114 210.014C426.221 202.928 433.262 200.105 439.971 197.479Z"/>
	<path fill="#583315" d="M528.448 266.452C528.926 266.445 529.404 266.432 529.881 266.455C533.329 266.621 536.37 268.085 538.595 270.736C540.315 272.787 541.364 275.495 541.08 278.192C540.832 280.556 539.549 282.625 537.662 284.046C536.033 285.273 533.042 287.129 530.984 286.914C531.508 285.598 532.493 284.815 533.475 283.822C533.97 283.347 534.437 282.889 534.871 282.356C536.512 280.34 538.864 277.534 538.237 274.751C537.991 273.658 537.174 272.823 536.282 272.206C531.714 269.045 525.113 270.448 520.054 271.206C522.783 269.511 525.636 268.005 528.448 266.452Z"/>
	<path fill="#583315" d="M322.132 315.473C325.048 315.536 327.668 315.682 330.505 316.518C335.147 317.886 345.382 322.375 347.17 327.147C347.662 328.46 347.499 328.688 346.914 329.85C344.242 331.841 341.339 331.607 338.169 331.596C338.7 332.421 339.292 333.27 339.711 334.158C340.189 335.172 340.352 335.817 339.939 336.877C339.039 336.778 338.591 336.492 337.934 335.905C336.468 334.595 335.32 333.217 335.223 331.254C337.976 328.873 340.399 328.293 343.869 327.63C340.2 324.524 336.551 321.198 331.923 319.6C324.756 317.126 318.541 320.494 312.301 323.696C315.265 320.354 318.377 317.876 322.132 315.473Z"/>
	<path fill="#583315" d="M530.773 320.452C531.644 320.49 531.624 320.602 532.296 321.082L532.096 322.261C528.123 327.973 519.836 330.598 513.326 332.119C499.138 335.432 487.044 332.29 474.857 324.758C473.909 324.09 473.412 323.744 472.965 322.657L473.448 322.048C479.144 321.46 483.863 327.97 489.133 329.296C504.498 333.161 517.652 328.195 530.773 320.452Z"/>
	<path fill="#583315" d="M528.146 220.296C529.644 220.547 531.16 220.849 532.518 221.554C536.553 223.647 539.032 227.583 540.348 231.816C542.648 239.215 541.794 246.128 538.128 252.892C536.383 252.873 534.706 252.582 533.165 251.73C529.748 249.841 527.851 246.231 526.719 242.635C524.315 234.996 524.373 227.459 528.146 220.296Z"/>
	<path fill="#583315" d="M453.569 244.258C454.979 244.468 456.381 244.751 457.686 245.346C462.224 247.416 465.11 251.514 466.811 256.077C469.658 263.717 469.075 270.526 465.844 277.869C464.218 277.712 462.484 277.618 460.963 276.977C457.235 275.407 454.615 272.047 453.099 268.397C449.733 260.295 450.422 252.279 453.569 244.258Z"/>
	<path fill="#DEB68A" d="M418.936 282.6C424.697 282.239 430.612 282.174 435.97 284.671C439.585 286.356 442.571 289.189 443.817 293.045C445.128 297.106 444.221 301.447 442.199 305.107C437.782 313.097 429.682 316.287 421.389 318.527C415.507 319.652 407.676 319.584 402.346 316.679C399.028 314.871 396.566 311.917 395.644 308.226C394.563 303.895 395.798 299.347 398.116 295.632C402.857 288.033 410.609 284.645 418.936 282.6Z"/>
</svg>
