<?xml version="1.0" encoding="utf-8" ?>
<svg xmlns="http://www.w3.org/2000/svg" xmlns:xlink="http://www.w3.org/1999/xlink" width="1024" height="1024">
	<path fill="#F9F4DE" fill-opacity="0.35686275" d="M433.152 946.576C437.163 945.847 442.732 946.433 446.478 947.91C452.325 950.218 454.55 954.438 457.005 959.819C451.953 956.101 438.872 948.436 433.152 946.576Z"/>
	<path fill="#31364A" d="M282.9 222.12C280.268 216.036 277.131 209.994 274.971 203.73C269.615 188.199 271.65 170.989 277.635 155.938C293.445 116.174 337.645 85.7562 375.74 69.5617C412.333 54.0056 455.255 46.7311 493.137 62.1915C519.01 72.7507 535.184 91.5326 549.464 114.704C595.127 101.17 639.005 96.7288 686.471 100.341C698.293 101.241 712.131 101.687 722.719 107.531C726.758 109.76 730.167 112.739 731.571 117.267C734.067 125.319 729.41 135.304 725.511 142.222C712.488 165.337 691.207 184.376 671.134 201.286C664.279 207.06 657.208 213.209 649.588 217.969L650.015 218.562C654.798 225.121 662.219 229.685 667.876 235.506Q668.729 236.39 669.557 237.297Q670.384 238.205 671.185 239.136Q671.986 240.067 672.76 241.021Q673.534 241.974 674.28 242.95Q675.027 243.925 675.745 244.921Q676.463 245.918 677.152 246.935Q677.841 247.951 678.501 248.987Q679.16 250.023 679.79 251.078Q680.42 252.132 681.019 253.204Q681.618 254.277 682.186 255.366Q682.754 256.454 683.291 257.559Q683.827 258.664 684.332 259.784Q684.837 260.903 685.309 262.037Q685.781 263.171 686.221 264.318Q686.661 265.464 687.067 266.623Q687.474 267.782 687.847 268.953Q688.22 270.123 688.56 271.303Q688.899 272.483 689.204 273.673Q689.51 274.863 689.781 276.061Q690.052 277.258 690.289 278.464Q690.525 279.669 690.727 280.88Q690.929 282.092 691.096 283.309Q691.263 284.525 691.395 285.746Q691.527 286.967 691.625 288.192Q691.721 289.416 691.783 290.643Q691.845 291.869 691.872 293.097Q691.898 294.325 691.89 295.553Q691.881 296.782 691.837 298.009Q691.793 299.236 691.714 300.462Q691.635 301.688 691.521 302.911Q691.407 304.133 691.257 305.353Q691.108 306.572 690.924 307.786C687.99 327.266 677.411 346.943 661.334 358.692Q655.695 362.786 649.465 365.907C646.245 367.516 642.456 368.923 639.589 371.087C633.258 375.864 627.244 385.314 619.713 391.392C589.41 415.85 554.308 425.238 516.436 430.186C525.649 436.999 535.519 442.746 544.5 449.925C582.468 480.275 594.474 514.109 606.681 559.042C620.501 560.141 634.025 560.549 647.877 559.954C648.312 556.959 648.317 554.188 650.889 552.168C655.801 548.309 667.471 549.416 673.531 549.842L676.54 553.514C690.252 543.035 706.338 529.965 724.793 532.464C733.116 533.591 740.299 537.73 745.336 544.466C747.185 546.939 748.572 549.531 749.613 552.441L748.025 558.26L748.5 558.8C753.547 564.478 759.714 569.074 764.898 574.626C778.613 589.315 790.608 605.976 801.804 622.621C815.833 617.705 830.98 615.266 845.292 611.076C853.531 627.296 862.384 643.217 870.815 659.34Q887.647 691.652 903.38 724.514C913.44 745.524 921.784 767.223 931.422 788.392C921.725 800.787 909.903 811.21 898.326 821.797Q864.838 852.684 828.495 880.155Q820.161 886.594 811.506 892.595C805.564 896.692 799.28 900.496 794.094 905.559Q766.016 908.859 737.98 912.502C722.576 914.473 706.618 917.334 691.061 916.477C689.912 890.317 691.164 864.035 692.008 837.878Q693.472 788.441 695.492 739.024C696.426 717.834 697.984 696.688 698.511 675.479C704.942 672.759 711.199 669.604 717.633 666.93Q716.007 658.31 714.841 649.617Q713.674 640.923 712.972 632.18Q712.269 623.436 712.032 614.668Q711.794 605.9 712.023 597.131C712.279 589.828 713.151 582.642 713.649 575.37C701.709 578.208 689.498 578.396 677.398 580.102C677.744 585.785 680.427 597.423 676.433 602.029C670.492 608.881 642.502 609.318 632.974 609.504C628.075 609.599 623.135 609.776 618.238 609.583L624.098 643.688C625.475 651.807 627.623 660.737 627.32 668.973C627.227 671.472 626.787 673.741 625.317 675.814C623.668 678.14 620.986 679.716 618.506 681.022C618.286 696.82 616.926 712.687 615.552 728.424Q611.484 775.852 604.194 822.892C599.982 851.596 596.13 880.566 589.716 908.876C582.984 913.171 575.73 915.176 568.008 916.956C569.732 928.645 572.934 938.479 582.761 945.793C589.251 950.624 608.322 959.638 609.804 967.58C610.08 969.057 610.033 970.703 609.044 971.923C605.148 976.731 589.651 976.124 583.799 976.105C575.505 976.079 567.061 974.372 558.892 974.526C555.062 974.689 551.546 974.139 547.779 973.5C546.957 974.659 546.427 975.242 545.011 975.619C541.653 976.514 536.839 974.457 533.64 973.462C528.418 954.289 527.749 937.333 530.162 917.624C521.349 916.309 511.942 912.964 504.029 908.872C506.087 899.917 506.909 890.352 508.405 881.246Q514.188 847.446 518.951 813.487C520.582 801.976 521.601 787.601 524.626 776.528C515.717 793.243 508.272 810.685 499.562 827.5C483.591 858.33 466.509 888.551 450.425 919.305C442.144 919.561 433.743 919.7 425.542 918.356C425.437 925.575 425.487 932.581 428.544 939.285C430.488 943.551 433.708 947.982 436.646 951.637C440.211 956.072 454.859 969.073 449.033 974.82C445.277 978.525 436.357 977.771 431.495 977.508C422.858 977.041 403.725 975.507 397.867 968.635C394.842 965.087 393.596 960.056 391.376 955.981C391.157 959.462 391.48 966.289 388.859 968.809C387.933 969.699 386.793 969.757 385.582 969.62C383.279 969.359 380.111 967.176 378.244 965.854C378.159 951.532 377.014 936.388 384.098 923.388C386.638 918.729 389.947 914.523 392.783 910.048C391.279 909.081 389.791 908.068 388.233 907.19C374.686 909.486 361.069 913.528 347.232 911.125C337.875 909.501 329.838 903.931 321.425 899.873C282.956 881.312 247.166 863.396 212.112 838.434C204.715 833.167 198.279 827.42 192.144 820.731C212.878 797.045 234.17 773.833 255.088 750.306C260.882 743.79 266.794 737.37 272.524 730.798C279.932 722.302 286.977 712.879 296.232 706.312C312.207 710.226 322.932 714.604 338.141 720.022C342.853 713.111 347.454 705.912 352.856 699.511C356.132 695.63 360.276 692.639 363.053 688.328C367.391 681.594 370.074 673.527 373.056 666.128C370.541 663.904 367.919 661.728 365.565 659.335C367.346 651.507 369.028 643.21 372.112 635.782C373.467 632.517 376.119 629.637 377.126 626.299C379.87 617.208 381.778 607.776 384.464 598.623C396.381 558.014 412.79 509.957 434.45 473.644C438.607 466.674 443.224 459.673 449.005 453.93C451.306 451.644 454.49 449.938 456.534 447.502C459.945 443.434 461.872 437.775 464.828 433.294L463.361 426.963C445.654 423.97 425.588 418.71 409.73 410.081C389.304 426.436 376.135 424.115 351.479 423.579C343.511 423.405 335.426 424.157 327.493 423.279C312.453 421.614 298.507 413.824 286.646 404.77C268.479 407.192 240.262 411.423 224.727 399.241C219.555 395.186 217.235 389.488 216.632 383.079C212.993 344.428 255.822 288.993 279.726 260.433C280.274 259.778 280.838 259.154 281.416 258.525C267.717 265.03 254.025 271.541 241.009 279.355C235.651 282.572 211.608 300.804 207.608 300.729C205.967 298.841 206.085 296.655 206.27 294.243C207.386 279.649 216.155 266.613 226.174 256.476Q225.212 255.716 224.289 254.911Q223.366 254.105 222.483 253.255Q221.6 252.404 220.761 251.512Q219.921 250.62 219.125 249.687Q218.33 248.755 217.582 247.784Q216.833 246.814 216.133 245.808Q215.433 244.802 214.784 243.763Q214.134 242.724 213.536 241.654Q212.938 240.585 212.393 239.487Q211.848 238.389 211.357 237.266Q210.867 236.143 210.432 234.997Q209.997 233.852 209.619 232.686Q209.241 231.52 208.921 230.337Q208.6 229.154 208.338 227.957Q208.076 226.76 207.873 225.552Q207.67 224.343 207.526 223.126C206.699 215.605 207.306 206.977 212.386 200.956C216.11 196.542 221.59 194.406 227.255 194.035C242.534 193.032 257.961 201.75 269.417 211.045C273.858 214.649 278.128 219.036 282.9 222.12ZM445.375 577.862C437.305 599.599 431.254 622.446 425.685 644.952C423.328 654.475 421.994 664.584 418.82 673.849C418.129 675.867 417.39 676.613 415.432 677.501Q414.812 677.778 414.183 678.036C413.479 685.75 412.702 691.685 408 698.125C409.266 702.486 411.952 708.218 410.724 712.681L410.151 713.343C408.664 712.916 408.062 711.763 407.344 710.454C404.701 705.636 403.748 699.979 402.521 694.67C400.877 703.034 399.303 711.435 397.205 719.699C395.724 725.527 393.628 731.388 392.433 737.256L390.993 742.744C403.833 747.019 416.501 751.308 430.045 752.718C433.636 741.539 437.972 730.1 439.514 718.426C438.118 715.305 436.533 712.302 436.356 708.833C435.903 700.011 438.379 690.663 439.347 681.855C441.301 664.089 448.717 589.883 445.375 577.862ZM725.27 567.364C726.008 582.886 729.471 598.342 732.293 613.595C734.83 627.31 737.065 641.084 740.064 654.708Q747.761 650.945 755.381 647.03L764.167 642.571C759.61 632.25 733.6 570.989 725.27 567.364ZM721.227 563.37C710.108 580.802 715.086 617.154 717.237 637.287C718.211 646.403 718.916 655.755 720.68 664.754L726.646 661.764L737.392 656.366C734.892 645.615 732.964 634.702 730.868 623.865C728.598 612.136 726.172 600.368 724.403 588.551C723.695 583.82 723.289 565.63 721.227 563.37ZM744.324 564.935C740.761 567.006 737.209 568.905 733.467 570.63C739.546 582.246 745.71 593.84 751.24 605.731C756.561 617.173 761.3 628.946 767.047 640.176C768.138 640.07 768.842 639.721 769.811 639.223L781.481 633.109C775.759 622.832 748.898 567.81 744.324 564.935ZM750.055 565.203C754.343 576.021 760.888 585.887 766.378 596.124C772.621 607.763 778.2 619.757 783.881 631.678L794.626 625.967L798.826 623.764C790.735 612.391 761.192 570.538 750.055 565.203ZM395.667 707.343C390.987 712.342 385.915 718.073 378.538 718.383C372.685 718.629 367.709 715.345 363.663 711.443Q362.551 710.39 361.522 709.256C359.746 715.425 358.001 721.582 356.479 727.819L360.874 729.781L387.144 741.061C388.984 735.546 397.769 711.692 395.971 707.62L395.667 707.343ZM359.335 698.355Q350.275 709.87 341.497 721.602L345.823 723.677L352.539 726.571C354.596 720.495 361.187 704.415 359.335 698.355Z"/>
	<path fill="#AFD6DC" d="M547.779 973.5Q547.377 968.586 546.744 963.697C550.418 968.399 553.149 972.203 558.892 974.526C555.062 974.689 551.546 974.139 547.779 973.5Z"/>
	<path fill="#AFD6DC" d="M338.433 724.956C341.906 725.017 346.445 726.404 349.201 728.501C350.951 729.832 351.227 730.963 351.474 733.082C348.58 732.273 345.424 731.379 342.774 729.932C340.468 728.673 339.192 727.475 338.433 724.956Z"/>
	<path fill="#AFD6DC" d="M317.802 716.68C321.718 717.229 326.131 718.124 329.768 719.695C332.648 720.939 334.693 722.038 335.888 725.006C329.341 724.347 322.69 721.077 317.802 716.68Z"/>
	<path fill="#FEA4A1" d="M561.323 206.94Q569.47 206.82 577.609 206.443C572.824 210.732 567.579 214.697 563.135 219.332C561.583 215.486 563.425 211.183 561.323 206.94Z"/>
	<path fill="#C88572" d="M735.353 660.964C736.052 660.919 736.107 660.752 736.575 661.158C738.278 662.634 738.464 667.023 738.776 669.192L724.604 671.544C723.109 671.534 722.618 671.729 721.398 670.807L721.519 669.927C724.731 665.616 730.602 663.132 735.353 660.964Z"/>
	<path fill="#C88572" d="M825.818 619.538C826.425 619.632 826.117 619.496 826.624 620.15C822.902 624.864 811.128 629.553 805.465 632.31L802.997 625.399Q814.446 622.619 825.818 619.538Z"/>
	<path fill="#C88572" d="M798.523 627.384L799.558 627.764C801.056 629.499 801.688 631.555 802.492 633.668L789.464 641.616L788.442 641.247C786.862 639.358 786.121 636.898 785.222 634.629L798.523 627.384Z"/>
	<path fill="#C88572" d="M781.395 636.937C783.517 638.71 784.549 641.067 785.712 643.502Q778.843 647.497 772.044 651.612L771.295 651.605C768.923 649.968 768.639 646.315 768.047 643.643Q774.817 640.481 781.395 636.937Z"/>
	<path fill="#AFD6DC" d="M552.766 252.536C553.472 252.626 553.908 252.576 554.506 253.024C556.703 254.669 557.117 258.684 557.704 261.22Q550.401 262.47 543.116 263.818L541.808 263.863C539.59 262.181 538.952 259.808 538.09 257.264C542.941 255.474 547.798 253.959 552.766 252.536Z"/>
	<path fill="#AFD6DC" d="M354.524 731.122C363.067 732.497 378.04 739.117 385.14 744.166C385.635 745.665 385.161 746.683 384.822 748.205C384.656 748.242 384.494 748.3 384.325 748.316C379.698 748.764 361.309 739.243 357.056 736.133C354.992 734.624 354.954 733.501 354.524 731.122Z"/>
	<path fill="#79AFA0" d="M390.003 745.137C401.988 751.483 415.818 753.725 428.925 756.718L426.481 761.835C422.696 762.098 418.794 761.753 415.001 761.589C414.661 760.325 414.341 758.984 413.667 757.85C410.33 752.233 394.924 752.345 388.301 750.56L390.003 745.137Z"/>
	<path fill="#C88572" d="M764.375 646.179C766.235 647.962 766.792 651.933 767.431 654.384Q755.424 661.182 743.495 668.117L742.509 667.996C740.613 665.808 740.591 661.861 740.315 659.083Q752.261 652.475 764.375 646.179Z"/>
	<path fill="#AFD6DC" d="M414.636 765.005L425.898 765.014C421.484 779.331 417.814 793.965 413.654 808.371C412.538 811.463 411.787 814.762 410.913 817.935C411.483 800.259 413.828 782.669 414.636 765.005Z"/>
	<path fill="#F9F4DE" d="M379.828 364.478C381.563 364.435 383.321 364.564 385.013 364.97C387.927 365.67 390.642 367.504 392.141 370.128Q392.395 370.576 392.602 371.046Q392.81 371.517 392.97 372.006Q393.13 372.495 393.24 372.998Q393.351 373.5 393.411 374.011Q393.471 374.522 393.48 375.037Q393.489 375.551 393.446 376.064Q393.404 376.577 393.311 377.083Q393.218 377.589 393.075 378.083C391.825 382.492 388.824 384.707 385.095 386.911C383.325 387.027 381.746 386.999 380.029 386.487C377.001 385.583 374.451 383.671 372.971 380.852C371.496 378.041 371.179 374.732 372.251 371.73C373.65 367.812 376.323 366.23 379.828 364.478Z"/>
	<path fill="#C88572" d="M553.48 206.387C556.089 206.55 558.726 206.64 561.323 206.94C563.425 211.183 561.583 215.486 563.135 219.332C558.516 226.076 555.594 232.139 554.658 240.329C554.337 243.145 554.369 246.016 553.792 248.792C549.672 250.014 545.464 251.121 541.474 252.723L539.483 252.388L539.269 251.792C542.409 247.111 545.517 241.593 547.254 236.223C549.707 228.642 550.932 221.211 554.374 213.928C553.58 211.543 553.052 208.897 553.48 206.387Z"/>
	<path fill="#AFD6DC" d="M288.551 218.504C290.569 218.449 292.568 218.344 294.514 218.971C298.922 220.39 302.775 224.021 304.757 228.168C306.162 231.107 306.811 234.502 305.537 237.605C304.233 240.781 301.746 242.18 298.757 243.529C296.458 244.085 293.969 244.111 291.611 244.286C289.334 242.942 287.248 241.52 285.478 239.53C282.965 236.701 281.229 233.128 281.54 229.267C281.934 224.371 285.037 221.466 288.551 218.504Z"/>
	<path fill="#C88572" d="M410.737 384.048C411.568 384.964 412.192 385.859 412.332 387.114C412.634 389.812 411.297 392.532 409.641 394.57C405.247 399.978 398.4 403.469 391.503 404.173C380.878 405.257 372.197 400.329 364.171 393.986C361.478 391.225 359.164 388.322 356.855 385.235C361.601 385.957 366.278 386.356 371.078 386.459C373.443 388.505 375.755 390.408 378.874 391.172C384.371 392.519 388.943 389.776 393.509 387.142C400.026 387.524 404.785 386.907 410.737 384.048Z"/>
	<path fill="#AFD6DC" d="M583.43 600.533L584.217 600.99C586.653 604.593 586.627 610.381 587.107 614.653C570.639 621.995 552.724 623.945 535.01 626.072L534.108 625.699C531.37 622.131 531.604 614.878 531.401 610.522C549.579 610.484 566.391 606.386 583.43 600.533Z"/>
	<path fill="#C88572" d="M652.794 256.243C653.362 256.631 653.453 256.651 653.979 257.251C660.617 264.832 661.696 285.951 660.919 295.521C660.395 301.983 657.685 316.989 652.196 321.127C651.435 321.701 651.77 321.546 650.735 321.405L649.897 319.864C646.636 309.023 642.899 299.274 637.461 289.343C646.081 279.249 649.599 268.92 652.794 256.243Z"/>
	<path fill="#AFD6DC" d="M388.629 921.828C389.927 926.478 389.501 931.476 390.819 936.149C393.188 944.549 399.016 952.692 406.701 956.957C416.392 962.335 426.788 961.076 436.978 958.12C439.855 960.726 445.884 965.644 446.045 969.763C446.093 970.974 445.913 971.876 445.022 972.756C441.061 976.667 427.291 973.723 422.07 972.953C414.825 972.286 408.207 970.441 401.418 967.886C397.167 959.868 395.097 950.989 388.923 944.077C387.833 951.38 387.534 958.727 387.227 966.094C385.276 965.395 383.391 964.471 381.501 963.622C381.392 949.864 381.347 934.017 388.629 921.828Z"/>
	<path fill="#FEA4A1" d="M533.517 918.052C543.767 919.312 554.546 918.48 564.811 917.757C565.816 925.797 567.626 935.355 573.194 941.609C575.396 944.082 578.225 946.035 580.691 948.239C582.921 950.232 586.73 953.054 586.912 956.132C584.895 956.698 583.017 957.219 580.898 957.158C566.538 956.751 550.02 946.349 540.382 936.266C535.034 930.671 533.391 925.636 533.517 918.052Z"/>
	<path fill="#AFD6DC" d="M531.676 931.683C535.169 934.256 538.083 938.185 541.203 941.245C550.698 950.559 563.889 959.226 577.545 960.007C583.167 960.328 587.042 958.943 591.184 955.287C598.097 958.808 602.884 963.028 607.067 969.555C598.125 971.61 589.537 972.513 580.384 972.543C572.286 972.633 564.067 971.355 556.215 969.455C549.312 961.608 543.011 953.802 533.463 949.1C536.146 953.067 539.166 956.581 542.372 960.133C542.961 963.79 543.416 967.457 543.86 971.135C541.282 970.967 538.703 970.685 536.13 970.451C534.486 957.675 531.256 944.616 531.676 931.683Z"/>
	<path fill="#AFD6DC" d="M670.361 552.739C671.615 552.774 671.761 552.623 672.851 553.355C673.473 558.633 673.396 564.004 673.68 569.31L675.555 599.643C669.035 602.019 662.845 603.573 655.999 604.63C655.065 604.595 654.954 604.553 654.193 604.112C648.937 593.936 650.22 566.262 652.206 554.864C658.229 553.462 664.211 553.059 670.361 552.739Z"/>
	<path fill="#AFD6DC" d="M742.648 882.413C753.183 884.476 776.676 897.374 786.848 902.73Q761.593 905.764 736.381 909.144C722.729 911.033 708.924 912.131 695.315 914.259C711.882 905.478 727.541 893.507 742.648 882.413Z"/>
	<path fill="#FEA4A1" d="M396.258 910.59C404.931 913.667 413.476 915.896 422.465 917.837C420.971 927.748 423.367 936.988 428.435 945.516C430.263 948.593 432.433 951.631 433.223 955.165C432.291 956.252 431.527 956.34 430.192 956.802Q429.058 957.041 427.91 957.196Q426.762 957.351 425.605 957.422Q424.448 957.492 423.29 957.477Q422.131 957.462 420.977 957.362Q419.822 957.263 418.678 957.078Q417.535 956.894 416.407 956.626Q415.28 956.358 414.175 956.007Q413.071 955.657 411.995 955.227C404.138 952.067 398.337 945.534 395.168 937.793C391.285 928.309 392.418 919.819 396.258 910.59Z"/>
	<path fill="#AFD6DC" d="M284.054 216.984C281.425 211.59 279.035 205.944 277.477 200.144C272.204 180.513 277.047 162.114 287.039 144.946C288.185 151.124 288.903 158.851 294.444 162.777C297.905 165.23 301.975 165.649 306.058 166.107C298.166 181.901 295.109 198.02 292.846 215.357C289.829 215.609 286.989 216.28 284.054 216.984Z"/>
	<path fill="#AFD6DC" d="M375.419 635.626C390.31 642.741 404.616 648.163 421.059 650.7Q418.511 662.715 415.192 674.54C397.207 674.189 383.481 669.186 369.151 658.461Q372.025 646.972 375.419 635.626Z"/>
	<path fill="#FEA4A1" d="M375.811 667.65C382.672 671.091 389.904 674.953 397.489 676.434C401.193 677.157 405.528 676.743 409.05 678.098C410.374 678.608 411.131 679.271 411.542 680.659C412.804 684.917 408.689 691.281 406.655 694.872C404.323 692.335 402.343 689.595 400.329 686.805C398.896 692.289 397.567 697.086 394.66 702C391.465 706.583 387.841 711.516 382.408 713.538C378.787 714.886 374.632 714.514 371.18 712.838C367.933 711.262 365.569 708.44 364.425 705.032C360.631 693.736 370.781 677.428 375.811 667.65Z"/>
	<path fill="#AFD6DC" d="M607.648 562.049C621.24 564.033 634.33 563.872 647.991 563.48C647.142 572.949 647.136 582.717 648.566 592.133C649.177 596.153 650.482 600.226 650.813 604.258L650.88 605.167C639.951 606.248 628.784 606.342 617.807 606.522C614.759 591.64 611.174 576.825 607.648 562.049Z"/>
	<path fill="#AFD6DC" d="M257.465 351.37C259.161 352.475 264.365 370.613 265.769 373.972C270.106 384.347 276.36 393.06 282.998 402.032Q274.144 403.234 265.212 403.457Q256.28 403.679 247.378 402.92Q245.68 402.795 243.989 402.6C234.579 401.514 227.878 398.665 221.821 391.062C228.435 374.659 244.462 362.687 257.465 351.37Z"/>
	<path fill="#F9F4DE" d="M267.793 238.173C276.364 237.254 284.281 243.662 291.532 247.353C279.873 257.599 265.509 262.781 251.964 269.881C242.308 274.943 233.068 280.726 223.898 286.61L209.256 297.048C211.228 286.009 213.725 276.348 220.627 267.244C231.546 252.839 249.672 240.616 267.793 238.173Z"/>
	<path fill="#FEA4A1" d="M717.495 534.601Q718.848 534.536 720.201 534.593Q721.555 534.65 722.897 534.828Q724.24 535.005 725.562 535.303Q726.883 535.6 728.173 536.014C734.303 537.932 740.826 541.909 743.703 547.837C745.213 550.949 745.622 554.529 744.324 557.789C742.152 563.247 736.645 565.588 731.631 567.735C730.414 565.493 729.244 563.097 727.785 561.006C725.605 557.882 722.73 555.321 718.85 554.737C713.561 553.94 706.35 556.682 702.093 559.849L702.159 560.509C707.385 561.544 714.642 559.075 719.788 557.95C719.974 560.268 715.074 568.693 714.115 571.763C701.97 573.733 689.933 575.024 677.682 576.072C676.757 570.481 676.376 564.781 675.851 559.14C686.868 547.164 702.03 539.093 717.495 534.601Z"/>
	<path fill="#F9F4DE" d="M341.333 205.722C354.645 204.994 369.497 207.917 381.082 214.677C383.536 216.109 386.938 219.546 387.543 222.433C387.768 223.509 387.69 224.646 386.947 225.516C383.169 229.937 352.049 231.361 344.874 232.188C332.58 234.089 320.453 237.132 308.474 240.447C308.806 232.964 307.563 227.766 304.293 221.051Q305.673 219.379 307.112 217.758C316.253 207.554 328.453 206.506 341.333 205.722Z"/>
	<path fill="#C88572" d="M287.353 327.948C288.074 328.94 288.305 329.703 288.504 330.921C289.069 334.385 289.111 337.931 289.498 341.419C290.411 349.667 292.044 357.978 294.676 365.855C303.264 391.551 320.033 408.535 343.927 420.478Q337.806 420.627 331.702 420.146Q325.598 419.665 319.576 418.559C311.166 415.839 302.908 412.158 295.563 407.21C275.046 393.388 266.274 371.938 261.665 348.503Q274.405 338.095 287.353 327.948Z"/>
	<path fill="#FEA4A1" d="M467.576 427.299C482.38 430.571 497.94 430.499 513.02 430.507Q514.177 436.853 514.586 443.291Q526.341 456.141 536.261 470.455L530.481 475.754C526.999 478.045 523.599 479.74 519.518 480.701C508.735 483.241 496.923 479.648 487.74 473.924C484.629 471.984 481.654 469.572 479.577 466.52C472.621 456.295 470.454 439.335 467.576 427.299Z"/>
	<path fill="#F9F4DE" d="M224.22 197.102C247.172 196.3 262.575 210.125 279.594 223.357C279.611 228.023 279.757 232.531 280.254 237.176C270.101 235.132 261.789 235.977 252.154 239.708C243.383 243.732 235.704 249.579 227.883 255.15C221.843 248.272 216.32 241.231 213.128 232.544C210.268 224.761 208.582 214.001 212.421 206.287C214.927 201.25 219.115 198.846 224.22 197.102Z"/>
	<path fill="#C88572" d="M651.954 225.842C657.632 228.391 661.941 233.135 665.878 237.828C681.644 256.623 690.681 278.379 688.264 303.275C686.11 325.468 674.046 343.932 657.175 357.924C652.066 361.686 646.621 364.435 640.913 367.144C645.497 359.534 648.916 351.154 650.041 342.304C650.613 337.797 650.85 333.111 652.088 328.722C654.108 321.557 660.012 316.103 662.089 308.81C666.603 292.957 665.405 277.783 659.702 262.422C658.274 258.576 655.616 255.134 654.533 251.196C653.407 247.101 653.669 242.015 653.367 237.766C653.084 233.768 652.525 229.808 651.954 225.842Z"/>
	<path fill="#F9F4DE" d="M329.278 149.103C333.179 149.044 336.712 149.527 340.347 151.041C348.868 154.59 355.89 162.539 359.341 170.998C364.039 182.513 360.559 192.701 355.995 203.521C342.997 203.327 329.742 202.713 317.186 206.697C310.85 209.485 306.489 213.597 302.134 218.875L296.451 216.04C296.698 204.37 298.383 193.084 302.223 182.033C307.382 167.186 314.965 156.087 329.278 149.103Z"/>
	<path fill="#AFD6DC" d="M399.722 756.532C403.659 756.778 407.604 757.271 411.53 757.661C411.373 771.419 409.614 785.058 408.541 798.756C407.75 808.86 408.091 819.31 406.004 829.25C403.742 840.025 399.741 850.358 396.467 860.85Q389.718 882.732 383.745 904.839Q372.038 906.338 360.313 907.689Q355.855 908.237 351.386 908.684L383.14 812.436L393.291 782.596C395.371 776.562 397.302 770.318 399.931 764.502C400.827 762.52 402.013 761.093 403.465 759.503L399.722 756.532Z"/>
	<path fill="#F9F4DE" d="M529.652 92.57C535.756 95.2249 543.219 109.637 546.317 115.682C481.095 135.484 429.99 163.181 371.234 196.444L359.78 203.412C363.384 193.89 364.455 185.311 364.414 175.184C377.602 164.904 391.731 156.471 406.18 148.103Q420.797 139.5 435.863 131.708Q450.928 123.916 466.397 116.959Q481.866 110.002 497.691 103.9Q513.517 97.7983 529.652 92.57Z"/>
	<path fill="#AFD6DC" d="M517.567 435.589C531.295 439.716 559.227 466.164 568.575 477.984C597.909 515.079 611.212 588.387 619.211 634.925C620.766 643.973 625.235 662.532 623.903 671.203C623.517 673.72 621.866 674.864 619.944 676.278C611.902 680.819 603.935 681.022 595.005 679.827C595.16 616.168 584.242 546.795 553.172 490.416C543.425 472.73 531.713 456.819 518.159 441.877L517.567 435.589Z"/>
	<path fill="#31364A" d="M557.281 470.383C557.306 470.419 557.337 470.453 557.357 470.493C557.627 471.05 557.892 471.627 558.15 472.192C559.871 475.963 563.275 479.094 565.836 482.351Q568.044 485.181 569.883 488.264Q571.722 491.347 573.162 494.635C577.934 505.314 579.85 517.499 575.614 528.663C574.728 527.857 574.4 527.228 574.188 526.026C573.018 519.391 573.899 512.406 572.638 505.606C570.625 494.754 566.483 490.094 560.008 481.661C558.102 479.178 556.26 476.757 555.109 473.813C555.337 472.101 556.13 471.631 557.281 470.383Z"/>
	<path fill="#AFD6DC" d="M709.818 108.596Q712.038 108.339 714.267 108.505C718.142 108.806 723.09 110.9 725.583 113.922C728.346 117.272 728.95 121.359 728.354 125.555C724.03 156.022 672.657 196.274 649.563 214.275C647.648 210.788 645.907 207.213 644.142 203.649C642.315 199.422 646.765 187.555 647.234 182.131Q647.415 179.895 647.412 177.652Q647.409 175.408 647.221 173.173Q647.034 170.937 646.664 168.724Q646.294 166.512 645.743 164.337C641.862 149.152 631.238 140.22 618.207 132.576C630.297 129.068 642.203 124.984 654.362 121.689C672.684 116.723 691.302 112.761 709.818 108.596Z"/>
	<path fill="#C88572" d="M614.431 134.042C624.664 139.089 633.817 145.557 639.202 155.908C646.676 170.275 644.566 185.251 639.944 200.102C626.325 190.814 612.971 192.059 598.026 197.48C591.303 199.919 584.829 202.612 577.657 203.378C556.75 205.613 536.624 201.403 516.829 195.133Q507.607 191.616 498.598 187.583Q527.768 170.564 558.685 156.973C566.554 161.051 574.691 164.293 583.041 167.245C578.225 160.032 569.881 157.69 562.187 154.681C569.428 152.082 576.508 148.842 583.649 145.965Q599.005 139.912 614.431 134.042Z"/>
	<path fill="#AFD6DC" d="M734.258 673.69L739.477 673.306C742.905 683.086 744.639 693.392 746.842 703.496L756.565 747.554L790.989 900.63L782.954 896.753Q763.383 887.599 743.621 878.862Q739.353 842.345 736.213 805.714C732.073 762.195 727.886 718.436 721.839 675.137L734.258 673.69Z"/>
	<path fill="#F9F4DE" d="M537.597 472.993C543.819 478.885 547.889 487.788 551.608 495.42C567.426 527.883 576.59 561.48 584.256 596.631C566.683 602.878 549.497 606.379 530.8 607.114C530.164 603.442 529.37 599.788 528.642 596.133C520.535 549.677 499.648 516.032 481.828 473.594C491.383 480.569 501.754 485.476 513.835 484.994C524.036 484.588 530.843 480.277 537.597 472.993Z"/>
	<path fill="#31364A" d="M546.577 550.492C547.954 550.447 549.38 550.399 550.749 550.583C553.036 550.889 555.464 552.339 556.831 554.191C558.209 556.06 558.653 558.431 558.226 560.696C557.484 564.634 554.963 566.713 551.896 568.909Q550.012 569.063 548.133 568.851C545.588 568.552 543.023 567.257 541.517 565.141C540.165 563.243 539.752 560.816 540.207 558.547C540.99 554.644 543.414 552.597 546.577 550.492Z"/>
	<path fill="#F9F4DE" d="M547.875 553.372C549.889 553.543 552.274 554.235 553.688 555.775C554.7 556.877 555.023 558.308 554.801 559.767C554.386 562.509 552.587 563.973 550.512 565.591C548.56 565.2 546.378 564.364 545.031 562.836C544.113 561.795 543.74 560.569 543.859 559.193C544.099 556.43 545.917 555.075 547.875 553.372Z"/>
	<path fill="#31364A" d="M529.525 499.492C530.776 499.522 531.927 499.603 533.148 499.904C535.763 500.551 538.05 502.025 539.387 504.411C540.641 506.649 540.792 509.303 539.985 511.717C538.771 515.349 536.248 517.004 532.961 518.617C531.816 518.606 530.664 518.585 529.539 518.351C526.732 517.768 523.969 516.302 522.501 513.757C521.279 511.639 521.131 509.122 521.905 506.82C523.245 502.829 526.02 501.295 529.525 499.492Z"/>
	<path fill="#F9F4DE" d="M528.925 502.911C531.24 502.935 533.632 503.264 535.446 504.846C536.508 505.772 537.124 507.037 537.16 508.451C537.233 511.363 535.359 513.174 533.467 515.121C531.123 514.966 529.003 514.662 527.14 513.103C525.914 512.078 525.182 510.682 525.174 509.057C525.161 506.262 526.985 504.633 528.925 502.911Z"/>
	<path fill="#AFD6DC" d="M712.071 676.7L718.164 676.18C722.217 687.962 723.691 718.785 725.166 732.652L730.568 781.593C733.871 814.376 736.788 847.16 740.678 879.886Q726.047 889.695 711.661 899.859Q702.791 905.969 693.578 911.548Q695.648 794.566 701.502 677.712C705.027 677.419 708.549 677.042 712.071 676.7Z"/>
	<path fill="#AFD6DC" d="M616.364 196.689C619.953 196.063 624.613 196.337 628.06 197.295C634.968 199.215 640.134 204.085 643.612 210.203C652.177 225.267 652.731 246.724 648.157 263.1C644.714 275.429 637.325 287.778 625.827 294.077C616.037 299.441 605.338 298.774 594.948 295.7C590.224 293.77 585.668 291.102 581.583 288.052C569.398 278.953 560.157 264.878 557.994 249.703C556.569 239.702 559.266 230.142 565.392 222.143C577.455 206.391 597.351 199.28 616.364 196.689Z"/>
	<path fill="#31364A" d="M607.075 205.195Q608.828 205.038 610.586 204.961C619.736 204.581 629.275 206.088 636.15 212.682C643.148 219.393 645.474 229.586 645.658 238.952C645.939 253.283 642.246 268.82 631.912 279.303C624.068 287.259 614.6 289.523 603.738 289.591C596.384 288.171 589.792 285.488 583.822 280.894C573.844 273.216 567.089 260.93 565.544 248.466C564.364 238.945 566.969 230.032 572.931 222.531C581.523 211.722 593.665 206.766 607.075 205.195Z"/>
	<path fill="#79AFA0" d="M576.717 270.617C575.408 268.995 574.401 267.086 573.481 265.218C568.653 255.415 565.557 244.262 569.298 233.557C573.302 222.098 583.384 215.691 593.83 210.779C591.881 218.566 588.945 226.167 586.599 233.851Q581.131 252.092 576.717 270.617Z"/>
	<path fill="#AFD6DC" d="M593.83 210.779C603.52 207.828 613.459 207.339 623.419 209.097C613.572 233.759 608.016 261.974 597.629 285.751C589.266 281.93 583.002 277.252 576.717 270.617Q581.131 252.092 586.599 233.851C588.945 226.167 591.881 218.566 593.83 210.779Z"/>
	<path fill="#79AFA0" d="M623.419 209.097C630.604 211.366 636.005 215.078 639.604 221.883C645.605 233.23 645.532 248.321 641.729 260.341C638.49 270.58 631.815 279.433 622.202 284.446C616.16 287.597 608.234 289.258 601.587 287.275C600.245 286.875 598.922 286.29 597.629 285.751C608.016 261.974 613.572 233.759 623.419 209.097Z"/>
	<path fill="#AFD6DC" d="M471.366 225.691C471.659 225.655 471.951 225.609 472.245 225.584C488.642 224.164 506.874 228.992 519.702 239.431Q520.749 240.267 521.753 241.155Q522.757 242.042 523.716 242.979Q524.674 243.915 525.585 244.899Q526.495 245.882 527.355 246.91Q528.215 247.937 529.023 249.007Q529.83 250.076 530.583 251.185Q531.336 252.293 532.033 253.438Q532.73 254.582 533.368 255.761Q534.007 256.939 534.586 258.147Q535.164 259.356 535.682 260.592Q536.2 261.828 536.655 263.089Q537.11 264.349 537.502 265.63Q537.893 266.912 538.22 268.212Q538.547 269.511 538.809 270.825Q539.07 272.14 539.266 273.465Q539.461 274.791 539.59 276.125Q539.726 277.444 539.796 278.768Q539.866 280.092 539.87 281.418Q539.874 282.744 539.812 284.068Q539.749 285.393 539.62 286.712Q539.492 288.032 539.298 289.344Q539.103 290.655 538.843 291.955Q538.584 293.256 538.259 294.541Q537.935 295.827 537.547 297.095Q537.159 298.362 536.707 299.609Q536.256 300.856 535.743 302.079Q535.231 303.302 534.657 304.497Q534.084 305.693 533.451 306.858Q532.819 308.023 532.129 309.156Q531.439 310.288 530.694 311.384Q529.948 312.481 529.149 313.539Q528.349 314.596 527.498 315.613C516.758 328.443 502.472 333.66 486.213 335.082C473.727 334.79 461.693 328.962 451.778 321.739C436.695 310.751 419.635 292.305 416.766 273.087C415.499 264.602 417.958 256.493 423.034 249.688C434.221 234.687 453.542 228.165 471.366 225.691Z"/>
	<path fill="#31364A" d="M476.285 234.689C476.86 234.611 477.412 234.543 477.993 234.514C492.13 233.83 507.147 237.789 517.76 247.493Q518.558 248.235 519.32 249.016Q520.081 249.796 520.803 250.612Q521.526 251.429 522.207 252.279Q522.889 253.13 523.529 254.013Q524.168 254.896 524.764 255.808Q525.36 256.721 525.911 257.662Q526.462 258.603 526.967 259.569Q527.471 260.535 527.928 261.525Q528.385 262.515 528.793 263.526Q529.201 264.536 529.56 265.566Q529.918 266.595 530.226 267.641Q530.534 268.687 530.791 269.746Q531.048 270.806 531.253 271.876Q531.458 272.947 531.61 274.026Q531.763 275.106 531.863 276.191Q531.963 277.277 532.01 278.366Q532.062 279.489 532.058 280.614Q532.055 281.738 531.996 282.861Q531.937 283.983 531.822 285.102Q531.708 286.22 531.539 287.332Q531.369 288.444 531.146 289.545Q530.922 290.647 530.644 291.737Q530.366 292.826 530.034 293.901Q529.703 294.975 529.319 296.032Q528.935 297.088 528.5 298.125Q528.064 299.162 527.578 300.175Q527.092 301.189 526.556 302.178Q526.021 303.166 525.437 304.127Q524.853 305.088 524.223 306.019Q523.593 306.951 522.917 307.849Q522.242 308.748 521.523 309.613Q520.804 310.477 520.043 311.305C510.662 321.485 498.345 325.216 484.881 325.855C473.946 324.743 463.491 320.015 454.756 313.441C442.249 304.028 429.811 289.081 427.626 273.087C426.652 265.959 428.35 259.299 432.757 253.583C442.932 240.382 460.723 236.793 476.285 234.689Z"/>
	<path fill="#79AFA0" d="M449.457 304.772C440.422 296.75 431.931 284.789 430.532 272.496C429.754 265.664 431.662 259.479 435.952 254.126C445.622 242.062 463.931 239.115 478.278 237.412C476.314 243.644 473.239 249.729 470.587 255.699L458.589 282.991C455.4 290.192 451.988 297.301 449.457 304.772Z"/>
	<path fill="#AFD6DC" d="M478.278 237.412C488.104 237.636 498.188 238.632 507.031 243.296L483.747 295.082C480.115 303.1 476.724 312.573 471.806 319.857C463.564 315.764 456.486 310.656 449.457 304.772C451.988 297.301 455.4 290.192 458.589 282.991L470.587 255.699C473.239 249.729 476.314 243.644 478.278 237.412Z"/>
	<path fill="#79AFA0" d="M507.031 243.296C518.018 249.927 525.754 258.548 528.819 271.277Q529.072 272.303 529.273 273.34Q529.474 274.378 529.624 275.424Q529.773 276.47 529.871 277.522Q529.969 278.574 530.014 279.63Q530.059 280.686 530.052 281.743Q530.045 282.799 529.985 283.854Q529.926 284.909 529.814 285.96Q529.702 287.011 529.538 288.055Q529.375 289.099 529.159 290.133Q528.944 291.168 528.677 292.19Q528.411 293.213 528.094 294.221Q527.777 295.229 527.411 296.22Q527.044 297.211 526.629 298.183Q526.214 299.155 525.751 300.105Q525.288 301.055 524.779 301.981Q524.27 302.907 523.715 303.806C517.841 313.256 507.934 320.537 497.059 323.002C488.873 324.858 479.246 323.911 471.806 319.857C476.724 312.573 480.115 303.1 483.747 295.082L507.031 243.296Z"/>
	<defs>
		<linearGradient id="gradient_0" gradientUnits="userSpaceOnUse" x1="306.32159" y1="271.80801" x2="520.74402" y2="331.55536">
			<stop offset="0" stop-color="#BF7964"/>
			<stop offset="1" stop-color="#E9AB94"/>
		</linearGradient>
	</defs>
	<path fill="url(#gradient_0)" d="M494.57 189.392C514.79 199.529 531.326 203.145 553.48 206.387C553.052 208.897 553.58 211.543 554.374 213.928C550.932 221.211 549.707 228.642 547.254 236.223C545.517 241.593 542.409 247.111 539.269 251.792L539.483 252.388L541.474 252.723L536.528 254.578C529.812 244.684 521.548 235.867 510.923 230.162C493.95 221.05 472.744 220.413 454.552 225.954C439.931 230.407 424.301 239.103 416.944 253.096C411.373 263.69 412.986 272.839 416.377 283.725C401.161 292.285 386.584 302.5 372.076 312.21C364.014 306.074 355.632 300.792 345.004 302.031C337.281 302.932 330.523 307.289 325.897 313.425C319.3 322.178 316.958 333.73 318.634 344.467C320.629 357.238 328.567 368.692 339.093 376.007C343.633 379.162 348.713 381.631 352.897 385.275C358.609 390.25 362.37 396.97 368.623 401.423C376.278 406.873 385.792 408.734 394.997 407.032C400.922 405.937 407.377 402.414 410.419 397.023C411.677 394.793 412.398 392.473 413.875 390.331L414.46 390.338C414.576 390.883 414.643 391.123 414.706 391.642C415.292 396.475 413.131 401.479 410.199 405.203C401.999 415.615 386.591 420.063 373.956 421.276C355.443 423.053 337.934 416.142 323.8 404.428C298.955 383.836 293.586 355.172 290.876 324.69Q315.008 305.875 339.836 287.989Q364.664 270.103 390.154 253.173Q415.643 236.242 441.756 220.291Q467.87 204.34 494.57 189.392Z"/>
	<path fill="#AFD6DC" d="M292.691 136.614Q295.982 132.198 299.537 127.99Q303.093 123.783 306.898 119.801Q310.703 115.819 314.745 112.077Q318.786 108.334 323.049 104.846C355.535 78.6638 396.969 59.2739 439.049 57.1147C449.074 56.6003 459.066 57.4136 469.026 58.4799C475.475 59.6259 482.036 61.3817 488.126 63.8129C503.672 69.8656 516.31 78.0381 528.287 89.6067C473.145 108.51 428.204 129.783 378.979 161.192C373.936 165.111 368.747 168.756 363.484 172.372C359.034 164.922 354.381 158.387 348.368 152.108C344.339 149.274 339.934 146.98 335.001 146.28C328.449 145.35 323.13 147.738 318.011 151.576Q311.578 158.466 306.058 166.107C301.975 165.649 297.905 165.23 294.444 162.777C288.903 158.851 288.185 151.124 287.039 144.946C288.278 141.815 290.525 139.148 292.691 136.614Z"/>
	<path fill="#F9F4DE" d="M469.026 58.4799C475.475 59.6259 482.036 61.3817 488.126 63.8129C488.051 68.0934 487.328 72.6677 484.381 75.9771C482.286 78.33 479.375 79.6275 476.235 79.7466Q475.582 79.7705 474.93 79.7276Q474.278 79.6847 473.634 79.5754Q472.99 79.4661 472.36 79.2916Q471.731 79.1171 471.122 78.8792Q470.514 78.6413 469.933 78.3425Q469.352 78.0437 468.804 77.6871Q468.257 77.3305 467.749 76.9198Q467.241 76.5092 466.777 76.0488C464.693 73.9577 463.352 71.1287 463.464 68.1424C463.625 63.8217 466.059 61.2467 469.026 58.4799Z"/>
	<path fill="#F9F4DE" d="M348.368 152.108C351.003 146.842 353.649 141.884 359.63 139.883Q360.311 139.661 361.011 139.507Q361.712 139.354 362.423 139.271Q363.135 139.188 363.852 139.176Q364.569 139.164 365.283 139.223Q365.997 139.282 366.702 139.412Q367.407 139.543 368.095 139.742Q368.783 139.941 369.449 140.208Q370.114 140.475 370.749 140.807C374.639 142.807 377.386 146.433 378.589 150.602C379.634 154.221 379.379 157.525 378.979 161.192C373.936 165.111 368.747 168.756 363.484 172.372C359.034 164.922 354.381 158.387 348.368 152.108Z"/>
	<path fill="#F9F4DE" d="M292.691 136.614C298.693 135.851 306.163 134.609 311.363 138.548C315.479 141.665 316.914 146.778 318.011 151.576Q311.578 158.466 306.058 166.107C301.975 165.649 297.905 165.23 294.444 162.777C288.903 158.851 288.185 151.124 287.039 144.946C288.278 141.815 290.525 139.148 292.691 136.614Z"/>
	<path fill="#F9F4DE" d="M363.769 85.0949C366.308 85.1502 368.693 85.551 371.04 86.5704C374.634 88.1317 377.331 90.8218 378.711 94.5123Q378.997 95.2733 379.208 96.0586Q379.419 96.8439 379.552 97.6461Q379.685 98.4482 379.739 99.2595Q379.793 100.071 379.767 100.883Q379.742 101.696 379.637 102.503Q379.532 103.309 379.349 104.101Q379.166 104.893 378.907 105.664Q378.647 106.434 378.314 107.176C375.606 113.104 370.614 115.569 364.805 117.606C361.674 117.488 358.363 116.449 355.7 114.812Q354.995 114.381 354.338 113.881Q353.68 113.38 353.077 112.816Q352.473 112.252 351.93 111.63Q351.386 111.008 350.909 110.334Q350.431 109.66 350.023 108.941Q349.616 108.223 349.284 107.467Q348.951 106.71 348.696 105.925Q348.442 105.139 348.268 104.331C347.359 100.181 348.12 95.847 350.566 92.3523C353.769 87.7747 358.516 86.0845 363.769 85.0949Z"/>
	<path fill="#F9F4DE" d="M426.47 81.5501C429.472 81.4105 432.632 82.0784 435.286 83.491C438.903 85.4159 441.467 88.7108 442.65 92.6182Q442.777 93.0392 442.883 93.466Q442.989 93.8929 443.073 94.3246Q443.157 94.7564 443.219 95.1918Q443.281 95.6272 443.321 96.0652Q443.361 96.5033 443.378 96.9427Q443.395 97.3822 443.39 97.822Q443.385 98.2618 443.358 98.7008Q443.331 99.1397 443.281 99.5767Q443.231 100.014 443.159 100.448Q443.087 100.882 442.994 101.311Q442.9 101.741 442.784 102.165Q442.669 102.59 442.532 103.008Q442.395 103.425 442.236 103.836Q442.078 104.246 441.899 104.648Q441.721 105.05 441.522 105.442Q441.323 105.834 441.104 106.216C438.277 111.149 433.957 113.387 428.696 114.895C425.696 114.602 422.948 114.183 420.237 112.743Q419.522 112.37 418.847 111.928Q418.173 111.486 417.546 110.978Q416.919 110.47 416.347 109.902Q415.775 109.333 415.262 108.71Q414.75 108.088 414.302 107.416Q413.855 106.745 413.477 106.033Q413.099 105.32 412.795 104.573Q412.491 103.826 412.263 103.052Q412.03 102.274 411.875 101.477Q411.719 100.68 411.644 99.8719Q411.568 99.0634 411.573 98.2515Q411.577 97.4395 411.662 96.632Q411.747 95.8245 411.911 95.0293Q412.075 94.2341 412.317 93.4591Q412.559 92.684 412.877 91.9367Q413.194 91.1894 413.584 90.4771C416.466 85.2226 421.015 83.1759 426.47 81.5501Z"/>
	<path fill="#AFD6DC" d="M635.951 102.709C641.049 102.14 646.49 102.383 651.622 102.395C670.114 102.438 688.247 104.19 706.599 106.279C693.593 110.907 679.673 111.573 666.341 114.918C640.876 121.309 616.002 130.038 591.475 139.347C551.954 154.347 514.624 174.172 477.95 195.039Q442.662 215.015 408.59 237.002Q374.518 258.989 341.777 282.912C307.273 307.722 274.048 333.181 242.315 361.497C234.343 369.296 227.247 377.636 220.222 386.287C220.428 377.781 220.967 369.526 222.907 361.201C231.03 326.338 255.814 294.433 277.932 267.207C283.515 260.335 289.829 254.12 295.13 247.01C308.948 243.893 322.186 239.263 336.204 236.748C341.815 235.741 347.495 234.847 353.177 234.376C363.544 233.516 376.122 234.238 385.802 230.226C387.87 229.369 389.283 228.14 390.033 225.987C390.869 223.587 390.25 220.706 389.088 218.519C384.651 210.169 373.167 207.054 364.794 204.521C384.924 190.727 406.72 179.206 428.403 168.065C496.264 133.2 559.252 109.596 635.951 102.709Z"/>
	<path fill="#AFD6DC" d="M296.344 710.3C303.656 712.835 310.266 718.182 317.296 721.476C344.343 734.148 371.675 746.049 398.39 759.45C390.007 777.879 384.693 797.516 378.344 816.7L347.911 908.02C336.355 903.466 325.102 898.202 313.838 892.979C272.018 873.543 231.866 851.245 196.994 820.824Q246.119 765.068 296.344 710.3Z"/>
	<path fill="#AFD6DC" d="M465.348 438.265C465.546 438.395 465.776 438.486 465.941 438.655C468.946 441.731 471.899 456.755 473.448 461.401Q475.754 468.328 478.564 475.066C487.836 497.548 499.646 518.852 508.942 541.297C527.181 585.337 534.124 637.366 535.585 684.744C510.245 706.774 473.033 712.435 440.455 712.491C440.592 682.31 445.708 652.304 447.838 622.228Q448.992 606.911 448.919 591.55C448.856 583.977 448.221 576.328 448.706 568.767C449.235 560.534 455.486 537.731 452.362 531.672L451.486 531.462C448.58 534.52 448.058 554.366 446.793 559.961C444.732 569.074 441.493 578.037 438.737 586.97Q432.461 607.222 426.685 627.622C424.69 634.268 423.134 640.992 421.681 647.773C406.313 644.801 392.25 640.319 378.07 633.724C383.253 615.714 388.169 597.686 393.959 579.852C403.067 551.803 432.532 468.512 455.265 451.706Q453.034 458.926 450.936 466.185C448.538 474.738 446.428 484.983 451.242 493.103C456.223 501.505 465.251 504.113 474.079 506.321C472.037 512.151 468.039 518.493 468.651 524.86C474.766 533.838 485.916 539.441 494 546.518C502.034 553.55 508.339 562.01 517.497 567.779C506.529 548.15 487.167 538.833 471.4 524.189C473.528 517.534 476.116 511.089 477.944 504.329C472.32 501.773 465.953 500.854 460.56 497.827C456.258 495.412 453.212 491.75 451.988 486.933C448.535 473.351 458.366 449.642 465.348 438.265Z"/>
	<path fill="#31364A" d="M489.716 613.216C490.999 613.351 491.933 613.632 492.842 614.608C497.542 619.655 495.68 647.394 495.446 655.505C484.866 667.609 469.066 669.639 454.11 672.431C453.124 672.523 452.146 672.588 451.155 672.54C450.074 672.487 449.303 672.117 448.647 671.268C444.383 665.749 450.116 632.927 451.388 625.298C463.237 619.717 476.73 615.038 489.716 613.216Z"/>
	<path fill="#AFD6DC" d="M488.531 616.52C489.751 616.822 490.225 617.066 491.091 617.98C491.997 620.471 491.409 622.572 490.334 624.944C485.211 636.239 465.748 638.078 455.212 641.906C454.128 641.984 454.043 641.938 453.127 641.473C451.045 637.866 452.976 631.375 453.765 627.479C465.551 624.486 477.023 620.416 488.531 616.52Z"/>
	<path fill="#AFD6DC" d="M491.417 629.924C491.497 630.006 491.592 630.076 491.658 630.169C494.33 633.99 492.699 649.437 492.466 654.182C482.111 665.181 465.634 666.933 451.551 669.68L450.881 669.314C448.599 663.032 450.85 653.016 451.626 646.474C464.466 642.84 482.216 640.059 491.417 629.924Z"/>
	<path fill="#FEA4A1" d="M554.282 265.192L558.924 264.717C561.955 269.112 564.322 273.934 567.423 278.295C575.476 289.622 588.345 298.656 602.174 300.965C614.548 303.031 624.733 298.615 634.656 291.589C638.342 297.866 641.539 304.382 643.817 311.308C649.343 328.109 648.347 345.502 640.337 361.343C625.426 390.832 592.77 408.107 562.445 417.887C516.588 432.676 455.557 429.662 412.416 407.612C415.409 402.886 417.591 398.51 417.939 392.78C418.109 389.982 418.079 385.353 415.864 383.222C412.077 379.578 405.915 383.237 401.61 383.926C399.765 384.221 397.736 384.046 395.872 383.977C397.384 377.536 397.838 372.712 395.074 366.455C393.593 364.059 391.554 362.322 389.09 360.966C385.729 359.117 381.737 358.561 378.049 359.73Q377.341 359.959 376.66 360.257Q375.978 360.555 375.329 360.919Q374.68 361.283 374.071 361.71Q373.461 362.136 372.897 362.621Q372.332 363.105 371.819 363.643Q371.305 364.181 370.847 364.767Q370.389 365.354 369.991 365.982Q369.594 366.611 369.26 367.276C366.426 372.814 367.659 378.065 369.357 383.682C360.571 382.812 352.726 381.123 345.016 376.652C334.294 370.436 325.746 359.872 322.597 347.823Q322.356 346.914 322.16 345.995Q321.964 345.076 321.814 344.148Q321.663 343.22 321.558 342.286Q321.453 341.352 321.394 340.413Q321.335 339.475 321.322 338.535Q321.309 337.595 321.342 336.656Q321.375 335.717 321.454 334.78Q321.533 333.843 321.658 332.911Q321.783 331.98 321.954 331.055Q322.124 330.131 322.34 329.216Q322.555 328.301 322.815 327.398Q323.076 326.494 323.38 325.605Q323.684 324.715 324.031 323.842Q324.378 322.969 324.768 322.113Q325.158 321.258 325.589 320.422Q326.02 319.587 326.492 318.774C330.155 312.589 335.73 307.76 342.847 306.084C360.376 301.955 367.112 315.155 379.751 322.924C378.402 319.946 376.745 317.233 375.023 314.459Q385.135 306.887 395.769 300.067Q406.404 293.248 417.504 287.217C425.059 299.95 434.148 311.911 445.631 321.359C458.64 332.064 474.695 340.273 491.985 338.523C507.129 336.99 521.173 328.535 530.663 316.794C542.546 302.092 543.931 285.236 542.069 267.051C546.131 266.258 550.174 265.685 554.282 265.192Z"/>
	<path fill="#31364A" d="M587.151 303.934C588.071 303.95 588.958 303.967 589.861 304.166C592.265 304.699 594.198 306.126 595.496 308.215C597.099 310.794 597.405 313.964 596.672 316.877C596.163 318.903 595.059 321.509 593.244 322.658C590.814 321.652 594.547 311.857 592.438 308.265C590.79 307.296 589.494 307.298 587.646 307.723C587.343 307.792 587.041 307.869 586.738 307.942C583.212 311.925 580.126 320.569 575.423 322.646L574.885 322.141C574.914 321.538 574.909 321.266 574.991 320.705C576.004 313.826 581.837 307.836 587.151 303.934Z"/>
	<path fill="#31364A" d="M341.568 320.625C343.839 320.465 345.846 320.544 348.073 321.091C357.678 323.451 363.785 331.202 368.684 339.216C368.483 339.399 368.285 339.585 368.082 339.766C366.713 340.98 365.795 341.619 365.236 343.414C365.792 347.914 370.619 348.459 373.027 351.743C373.19 351.965 373.342 352.194 373.499 352.419C370.468 352.567 366.866 351.605 364.407 349.807C362.725 348.577 361.609 346.805 361.316 344.731C360.908 341.851 362.404 340.032 363.993 337.849C360.749 333.44 356.402 327.804 351.065 326.01C348.751 325.232 345.866 324.66 343.735 323.493C342.356 322.738 342.065 322.012 341.568 320.625Z"/>
	<path fill="#31364A" d="M587.716 361.013C588.829 361.27 588.989 361.365 589.82 362.151C589.694 362.682 589.712 362.769 589.366 363.297C587.623 365.959 580.765 369.145 577.733 370.08C564.279 374.232 550.439 373.407 537.949 366.965C536.977 366.234 536.316 365.829 535.817 364.682L536.369 364.118C541.429 363.989 546.591 367.134 551.361 368.568C563.482 372.209 577.193 366.63 587.716 361.013Z"/>
	<path fill="#AFD6DC" d="M842.997 615.901C844.494 616.622 845.401 617.92 846.285 619.281C850.061 625.094 852.983 631.457 856.082 637.642L867.296 659.544Q894.089 711.913 918.591 765.392Q923.751 776.689 927.968 788.371Q901.238 814.719 872.876 839.302Q844.513 863.884 814.635 886.6C808.016 891.44 801.265 895.967 794.356 900.381L742.874 672.126C776.74 654.184 808.804 633.312 842.997 615.901Z"/>
	<path fill="#F9F4DE" d="M585.504 619.112C586.128 619.08 586.642 618.865 587.141 619.329C591.597 623.467 591.431 672.331 591.466 681.906C600.288 685.297 606.526 684.462 615.52 682.657C615.639 708.152 612.329 733.696 609.443 758.997Q601.113 833.773 586.751 907.627C584.596 908.647 582.359 909.542 580.136 910.399C557.484 919.13 530.12 917.019 508.152 907.384C510.266 880.479 516.603 853.804 520.683 827.14Q523.268 809.207 525.625 791.242C526.842 782.254 527.804 773.134 530.379 764.409C533.263 754.639 538.511 745.593 542.57 736.281C546.082 728.223 548.883 719.883 552.489 711.858C558.767 708.396 571.464 705.274 574.394 698.419L573.999 697.853C569.357 698.071 555.307 706.525 550.107 708.988Q542.54 729.718 532.967 749.602C522.089 772.28 511.73 795.196 500.584 817.747Q475.977 867.663 448.403 916.004C426.722 916.286 407.616 911.338 387.656 903.482C397.105 867.568 409.277 832.902 420.44 797.523Q433.121 757.427 443.2 716.6C450.178 715.536 457.344 715.317 464.367 714.495C490.7 711.413 520.614 705.493 539.038 684.986C538.194 666.389 536.905 647.954 533.756 629.588C539.971 628.38 546.282 627.585 552.514 626.417Q569.126 623.291 585.504 619.112Z"/>
</svg>
