<?xml version="1.0" encoding="utf-8" ?>
<svg xmlns="http://www.w3.org/2000/svg" xmlns:xlink="http://www.w3.org/1999/xlink" width="1024" height="1024">
	<path fill="#541C1B" d="M823.973 273.524C827.541 273.355 830.837 273.575 833.818 275.757C837.373 278.359 838.947 283.084 839.67 287.238C845.345 283.088 851.356 279.786 858.673 280.366C862.045 280.633 865.384 282.031 867.507 284.745C869.415 287.185 870.056 290.309 869.663 293.342C868.689 300.859 862.359 305.728 856.717 309.935C848.478 315.802 839.861 319.322 830.273 322.242C827.467 318.228 824.575 314.227 822.074 310.015C817.586 302.456 813.613 291.796 816.081 282.952C817.324 278.496 820.046 275.75 823.973 273.524Z"/>
	<path fill="#D2928E" d="M825.125 276.39C827.91 276.975 830.429 277.57 832.557 279.579C836.819 283.603 836.567 290.266 836.818 295.658C837.789 294.472 838.757 293.265 839.796 292.137C843.93 287.653 849.831 284.177 856.065 284.087C858.935 284.046 862.102 284.867 864.091 287.059C865.481 288.59 866.036 290.519 865.793 292.561C865.212 297.444 860.79 301.389 857.194 304.332C849.299 310.702 840.781 315.068 831.302 318.581C829.513 316.128 827.67 313.696 826.066 311.117C821.577 303.901 816.481 292.845 818.786 284.168C819.799 280.355 821.842 278.387 825.125 276.39Z"/>
	<path fill="#541C1B" d="M818.868 71.1431C820.52 71.0219 822.051 71.0338 823.694 71.2939C826.681 71.7668 829.454 73.1256 831.131 75.7245C833.461 79.3368 833.91 83.8279 832.889 87.9452C829.658 100.968 815.777 113.125 804.873 119.92C799.569 117.63 794.997 114.859 790.316 111.478C786.658 108.512 783.228 105.44 780.608 101.486C777.798 97.2467 775.999 92.0852 777.167 86.9842Q777.306 86.3575 777.507 85.748Q777.708 85.1385 777.97 84.5524Q778.231 83.9664 778.551 83.4097Q778.87 82.853 779.244 82.3314Q779.619 81.8098 780.043 81.3286Q780.468 80.8474 780.939 80.4116Q781.41 79.9757 781.923 79.5896Q782.436 79.2036 782.985 78.8712Q783.472 78.5774 783.986 78.3342Q784.5 78.091 785.036 77.9008Q785.572 77.7107 786.124 77.5755Q786.677 77.4404 787.24 77.3616Q787.803 77.2828 788.372 77.2612Q788.94 77.2396 789.507 77.2754Q790.075 77.3112 790.636 77.4041Q791.197 77.4969 791.746 77.6458C796.318 78.8943 799.066 82.2611 801.371 86.1724C802.162 84.348 803.014 82.4585 804.067 80.7682C807.512 75.2414 812.701 72.5586 818.868 71.1431Z"/>
	<path fill="#D2928E" d="M817.812 75.0445C818.616 74.997 819.402 74.9839 820.209 75.021C822.912 75.1451 825.589 75.7417 827.407 77.9071C828.91 79.6975 829.477 82.0927 829.302 84.3899C828.441 95.6603 812.272 108.298 804.258 115.133C798.572 112.303 793.83 108.869 788.971 104.798C785.566 101.649 782.042 97.743 780.752 93.1975C780.023 90.6311 780.081 87.9221 781.446 85.5738Q781.693 85.1569 781.98 84.7667Q782.267 84.3765 782.592 84.0168Q782.916 83.657 783.275 83.3314Q783.633 83.0057 784.023 82.7174Q784.412 82.429 784.828 82.1808Q785.244 81.9327 785.683 81.7271Q786.121 81.5216 786.578 81.3607Q787.035 81.1998 787.506 81.0852C797.469 78.6906 796.353 91.3263 802.069 94.5895C803.855 93.2638 804.487 88.2843 805.429 86.0402C807.922 80.1048 812.044 77.3305 817.812 75.0445Z"/>
	<path fill="#541C1B" d="M875.35 130.671C881.276 130.256 886.959 131.275 891.581 135.244C899.441 141.993 900.25 152.602 900.974 162.179C902.908 160.637 904.849 159.071 906.913 157.707C916.612 151.297 929.656 146.917 941.322 149.476C948.076 150.958 954.175 154.565 957.872 160.528C961.893 167.014 962.296 174.824 960.394 182.061C956.21 197.984 943.134 208.353 929.486 216.186Q919.947 221.181 909.699 224.487C902.527 226.843 871.703 235.719 866.639 232.303C860.104 227.895 851.482 199.606 849.602 191.342C846.14 176.13 846.255 157.759 854.869 144.177C859.743 136.493 866.635 132.563 875.35 130.671Z"/>
	<path fill="#D2928E" d="M874.7 137.51C875.607 137.465 876.507 137.437 877.415 137.478C881.134 137.647 885.42 139.167 887.913 142.042C892.747 147.617 893.434 158.693 892.488 165.738C891.957 169.699 890.741 173.641 890.569 177.636C890.502 179.184 890.587 180.385 891.673 181.584C898.077 181.645 915.414 157.856 935.165 159.068C939.725 159.348 945.015 161.096 948.012 164.718C950.363 167.559 950.929 171.223 950.604 174.806C949.581 186.1 940.559 195.306 932.197 202.017C914.653 215.461 890.11 221.436 869.069 227.062C859.906 206.113 849.419 179.258 857.26 156.52C860.431 147.325 866.037 141.753 874.7 137.51Z"/>
	<path fill="#541C1B" d="M491.98 42.7338C532.94 42.0533 572.545 48.0339 610.001 65.043C614.25 66.9725 618.472 69.1578 622.388 71.7014C627.742 75.1791 632.933 79.63 639.048 81.6833C644.251 83.4304 649.939 83.821 655.346 84.6471C665.881 86.2568 679.176 89.6852 687.323 96.9769C692.937 102.001 694.401 107.507 694.701 114.725Q697.486 115.97 700.169 117.423Q702.852 118.875 705.417 120.526Q707.982 122.178 710.415 124.018Q712.847 125.859 715.134 127.879C729.553 140.391 740.123 156.706 741.363 176.11C743.025 202.124 729.401 225.788 712.771 244.653L713.63 251.623C717.812 251.399 723.107 250.597 727.155 251.966C728.405 252.388 728.803 252.729 729.301 253.918C729.133 254.178 729.007 254.471 728.797 254.699C725.846 257.896 717.885 257.86 713.892 258.04C719.565 274.06 724.965 288.612 725.488 305.913C737.958 323.308 748.969 342.344 750.475 364.18C751.958 385.691 744.952 405.163 730.84 421.392C705.449 450.591 663.611 468.786 626.085 475.688C614.997 477.728 603.814 478.447 592.586 479.235C597.008 480.311 601.123 481.427 605.007 483.933C610.944 487.764 615.398 494.82 616.615 501.776C619.611 518.886 601.984 527.544 593.873 539.509C593.755 539.684 593.641 539.861 593.524 540.037C593.382 543.208 592.935 546.179 592.222 549.265C590.545 556.533 588.018 563.012 585.782 570.054C579.7 589.205 567.614 629.61 550.063 640.096C543.637 643.935 537.232 643.439 530.292 641.735C527.968 643.904 525.418 645.951 522.756 647.691C516.358 651.876 508.797 654.498 501.109 652.75C488.679 649.925 481.5 638.582 475.312 628.474C469.11 647.011 452.789 697.972 454.91 715.68C455.684 722.147 458.668 728.911 460.931 735.011Q468.447 755.686 477.442 775.763C480.6 782.777 484.468 789.563 487.42 796.64C488.247 798.624 488.992 800.393 488.118 802.497C482.639 808.415 460.621 810.57 452.266 811.992Q459.433 834.247 467.478 856.2C471.33 866.887 475.537 877.505 478.166 888.576C479.233 887.895 480.361 887.094 481.553 886.66C482.879 886.177 484.625 886.217 485.81 887.042C487.428 888.169 487.861 890.448 488.038 892.276C488.664 898.729 486.882 904.461 482.881 909.499C485.507 912.981 486.954 916.623 488.493 920.658C517.22 928.097 544.571 937.537 570.437 952.267C574.083 954.343 579.855 956.998 582.306 960.412C583.038 961.431 583.307 961.918 583.047 963.189C582.555 963.584 582.11 963.946 581.533 964.217C573.914 967.792 564.384 969.377 556.128 970.89C514.527 978.515 476.084 975.329 435.978 962.643C436.297 946.152 435.514 930.341 432.383 914.126C429.332 912.664 426.503 910.726 424.27 908.161C422.488 906.116 421.237 903.558 421.554 900.787C421.909 897.682 423.835 896.212 426.136 894.349C410.71 869.908 398.016 842.999 386.463 816.505L366.305 814.869C373.233 843.198 378.395 883.168 378.585 912.513C379.856 912.994 381.302 913.564 382.285 914.54C383.529 915.776 384.129 917.433 384.12 919.172C384.087 925.221 378.163 931.087 374.274 935.139Q373.723 941.495 373.482 947.87C378.764 949.429 384.348 950.376 389.719 951.641C402.759 954.711 416.001 958.602 427.92 964.818C432.495 967.204 451.758 978.417 452.883 983.126C453.057 983.853 452.766 984.446 452.296 985.019C450.311 987.441 445.429 988.82 442.533 989.888C424.044 996.706 405.266 1000 385.634 1001.05C351.317 1002.88 306.962 996.358 280.833 972.846C280.761 972.725 280.662 972.617 280.619 972.483C280.061 970.77 283.757 966.517 284.906 964.952C295.854 950.05 306.546 935.299 315.796 919.261C315.421 916.751 315.021 913.98 315.465 911.461C316.126 907.719 318.352 905.494 321.357 903.407Q311.898 873.373 301.827 843.539C296.335 827.16 290.328 811 287.297 793.939C275.141 789.756 262.857 782.424 252.641 774.817C251.657 756.962 251.503 739.144 251.46 721.268C251.394 693.915 250.962 664.953 258.164 638.353C273.95 580.05 352.773 524.797 399.81 491.655C421.569 476.323 443.356 460.624 466.439 447.335C462.52 445.743 458.775 444.222 455.138 442.035C446.933 444.608 438.759 446.731 430.105 446.782C415.61 446.868 402.345 441.443 388.858 436.792C379.288 433.492 369.575 430.302 360.221 426.433C322.443 410.809 291.502 387.427 262.596 358.814C241.101 387.956 215.518 428.175 218.83 465.965C220.325 483.015 229.258 499.508 245.964 505.732C250.207 507.313 255.696 507.549 259.202 510.466L259.127 511.057C251.594 516.146 229.555 517.138 220.174 516.9C192.058 516.184 161.321 507.016 138.257 490.791C131.377 485.951 125.36 480.317 119.579 474.242C125.219 484.811 132.747 495.289 142.147 502.844C147.59 507.219 153.433 511.075 158.871 515.468C153.241 515.721 147.943 514.911 142.51 513.464C118.767 507.142 96.8884 492.564 84.5684 470.939C72.1126 449.075 71.8024 422.851 78.5316 399.082C87.8296 366.239 109.91 335.167 136.568 314.034C145.728 306.773 155.429 300.845 165.634 295.176C155.823 294.452 145.71 291.275 137.019 286.716C130.14 283.108 112.289 270.125 110.338 262.62C110.06 261.55 110.168 261.386 110.699 260.502C113.488 260.386 125.392 267.369 129.787 268.854C165.733 280.998 199.76 267.232 231.713 251.639C234.527 243.331 236.667 234.896 239.812 226.676Q242.368 220.134 245.212 213.712Q248.057 207.29 251.184 201.001Q254.312 194.712 257.717 188.569Q261.122 182.425 264.797 176.44Q268.472 170.454 272.41 164.638Q276.348 158.822 280.541 153.188Q284.734 147.553 289.174 142.111Q293.614 136.668 298.292 131.429C349.674 74.1088 415.905 46.8794 491.98 42.7338Z"/>
	<path fill="#FEFEFE" d="M501.541 929.991C503.584 930.558 505.721 930.849 506.828 932.863C507.244 933.62 507.501 934.467 507.756 935.288C507.065 936.181 506.237 937.449 505.197 937.945C504.121 938.459 502.331 938.343 501.261 937.899C500.051 937.398 499.056 936.275 498.746 934.994C498.231 932.863 499.031 931.777 500.15 930.082L501.541 929.991Z"/>
	<path fill="#FEFEFE" d="M537.476 463.803C541.327 465.196 545.152 466.391 549.116 467.42C546.717 469.204 544.518 470.966 542.411 473.091C540.759 475.407 539.434 477.785 538.102 480.291L537.476 463.803Z"/>
	<path fill="#FEFEFE" d="M581.974 546.337L588.65 547.108C588.443 547.515 588.237 547.923 588.048 548.339L587.805 548.883C586.426 551.937 586.916 555.059 586.352 558.26C586.11 559.634 585.734 560.056 584.603 560.794C583.074 560.785 581.125 560.94 579.648 560.57C578.349 560.245 577.904 559.476 577.222 558.422C576.703 554.451 580.12 549.792 581.974 546.337Z"/>
	<path fill="#7D5854" d="M672.506 190.63C673.008 190.608 673.511 190.596 674.014 190.603C681.481 190.71 685.656 193.342 690.697 198.643C687.544 197.777 684.326 197.154 681.128 196.476C674.151 195.964 668.837 196.726 662.386 199.529C665.274 195.171 667.483 192.57 672.506 190.63Z"/>
	<path fill="#FEFEFE" d="M535.258 499.408C537.057 501.877 538.097 515.182 539.472 519.669C536.636 524.256 534.532 529.22 532.374 534.147C531.855 535.431 531.46 536.547 530.469 537.558C529.334 535.478 534.353 503.896 535.258 499.408Z"/>
	<path fill="#FEFEFE" d="M699.278 276.235C701.322 276.295 703.16 276.571 704.797 277.893C706.357 279.153 707.201 280.956 707.3 282.946C707.488 286.751 705.706 289.334 703.184 291.958C702.949 292.019 702.717 292.095 702.479 292.139C700.86 292.443 698.953 292.094 697.682 290.989C696.394 289.868 695.85 288.138 695.729 286.487C695.418 282.27 696.676 279.442 699.278 276.235Z"/>
	<path fill="#D2928E" d="M476.798 424.914C480.894 429.338 484.005 434.413 488.386 438.755C484.41 440.371 480.216 442.326 475.893 442.652C471.606 441.217 467.395 439.508 463.172 437.897C468.083 433.915 472.482 429.517 476.798 424.914Z"/>
	<path fill="#FEFEFE" d="M578.04 206.422L578.727 206.825C578.109 208.859 574.709 211.383 573.167 212.921C555.578 230.465 535.709 244.2 514.916 257.63L514.675 257.556L514.473 256.986C517.949 252.577 522.896 248.928 526.975 245.025C543.253 229.446 556.892 215.737 578.04 206.422Z"/>
	<path fill="#FEFEFE" d="M600.027 485.417C605.486 489.882 610.517 495.085 611.385 502.469C612.24 509.737 608.339 516.127 603.918 521.517C598.556 528.053 592.206 532.832 585.145 537.371C586.115 538.362 587.199 539.971 587.296 541.412C587.385 542.735 587.071 543.404 586.262 544.391C583.814 543.655 583.219 540.134 581.964 538.072L581.733 537.7C581.782 536.416 582.388 535.994 583.143 535.003C585.576 530.206 587.858 525.058 590.832 520.588C596.222 518.13 599.376 514.928 601.466 509.224C604.434 501.127 603.485 493.169 600.027 485.417Z"/>
	<path fill="#FEFEFE" d="M542.855 524.631C556.344 528.699 566.95 533.944 578.219 542.356C575.915 546.723 573.99 551.273 572.007 555.792L571.34 556.223C567.857 555.251 562.668 549.816 559.506 547.624C552.747 542.937 545.298 539.49 537.835 536.106C539.683 532.339 541.553 528.633 542.855 524.631Z"/>
	<path fill="#FEFEFE" d="M397.763 958.422C410.54 963.578 422.863 967.841 434.953 974.587L414.811 977.875C404.116 979.882 393.188 981.235 382.408 982.717C386.059 973.532 391.21 965.792 397.763 958.422Z"/>
	<path fill="#FEFEFE" d="M433.883 712.955C436.869 712.987 439.868 713.342 442.843 713.597C447.198 732.811 454.562 751.547 462.622 769.473C464.848 774.421 477.939 797.902 477.968 799.506C477.981 800.204 477.863 800.034 477.23 800.557L470.542 802.608C463.955 786.405 456.393 770.485 449.313 754.485C443.286 740.865 437.426 727.474 433.883 712.955Z"/>
	<path fill="#FEFEFE" d="M518.359 934.733C530.488 936.563 550.524 947.742 561.643 953.802C556.963 954.184 552.287 954.798 547.62 955.321C534.029 956.97 520.516 957.485 506.833 957.501C509.211 948.682 512.737 941.931 518.359 934.733Z"/>
	<path fill="#FEFEFE" d="M320.955 909.138Q322.21 909.992 323.476 910.829C341.019 922.422 360.22 921.924 380.107 917.893C378.972 921.643 377.305 924.852 375.131 928.094C374.073 929.157 372.956 930.198 371.637 930.934C362.766 935.887 348.647 934.033 339.41 931.117C332.815 929.034 324.156 925.438 320.96 918.863C319.242 915.329 319.643 912.7 320.955 909.138Z"/>
	<path fill="#FEFEFE" d="M574.907 563.298C577.401 563.588 579.88 564.224 582.334 564.75C577.644 580.946 572.131 597.557 564.701 612.711C559.777 622.756 553.213 633.981 542.062 637.834C539.558 637.986 537.025 637.975 534.515 638.036C552.751 615.498 565.431 590.587 574.907 563.298Z"/>
	<path fill="#FEFEFE" d="M626.98 131.453L627.393 132.054C625.008 145.829 603.901 179.503 594.291 189.773C586.728 188.627 580.825 190.125 573.62 192.159C573.063 192.333 573.377 192.324 572.692 191.987C573.101 188.107 620.92 137.846 626.98 131.453Z"/>
	<path fill="#FEFEFE" d="M441.182 955.307C450.253 956.148 459.367 958.207 468.457 959.272C499.847 962.947 535.183 964.454 566.003 956.211C568.348 957.247 570.808 958.308 573.034 959.576C574.322 960.31 575.259 960.65 575.651 962.098C566.819 963.957 558.032 965.703 549.061 966.741Q540.18 967.736 531.257 968.22Q522.334 968.703 513.398 968.673Q504.462 968.643 495.542 968.099Q486.623 967.555 477.749 966.5C471.121 965.697 464.656 964.382 458.075 963.376C453.678 962.705 445.568 962.686 442.178 959.563C441.039 958.514 441.23 956.749 441.182 955.307Z"/>
	<path fill="#FEFEFE" d="M536.423 539.4C548.885 544.667 560.572 550.992 570.279 560.565C565.783 573.528 560.94 586.558 554.271 598.592C552.379 595.08 552.909 589.381 552.425 585.465C550.857 572.8 542.582 555.368 532.261 547.539L536.423 539.4Z"/>
	<path fill="#FEFEFE" d="M318.64 922.228C323.347 925.876 328.071 929.564 333.247 932.534C345.41 939.514 356.232 940.193 369.606 936.569C369.477 942.098 368.868 947.665 368.443 953.181L363.12 953.896C343.672 955.982 325.664 949.476 309.235 939.49C312.511 933.797 315.668 928.086 318.64 922.228Z"/>
	<path fill="#FEFEFE" d="M289.205 966.36Q290.985 967.542 292.788 968.687C325.674 989.381 369.784 990.071 407.141 984.392C418.136 982.72 428.964 980.175 439.802 977.715C441.741 978.507 444.232 979.471 445.885 980.747C446.784 981.441 446.822 981.679 446.991 982.73C445.972 984.24 444.264 984.553 442.622 985.113Q437.597 986.713 432.53 988.177Q430.237 988.825 427.929 989.416Q425.62 990.007 423.298 990.542Q420.976 991.076 418.641 991.553Q416.307 992.03 413.961 992.45Q411.616 992.869 409.26 993.231Q406.905 993.593 404.542 993.896Q402.178 994.2 399.808 994.445Q397.438 994.691 395.062 994.878Q392.687 995.065 390.308 995.194Q387.928 995.322 385.546 995.392Q383.165 995.462 380.782 995.474Q378.399 995.485 376.017 995.438Q373.634 995.391 371.254 995.285Q368.873 995.18 366.496 995.016Q364.119 994.851 361.747 994.629Q359.374 994.406 357.008 994.125Q354.642 993.844 352.283 993.505Q349.924 993.166 347.575 992.769Q345.225 992.372 342.886 991.918Q340.547 991.463 338.22 990.951Q335.893 990.44 333.579 989.871Q331.265 989.302 328.966 988.676Q326.667 988.05 324.383 987.368Q322.1 986.686 319.835 985.948Q317.569 985.21 315.322 984.417Q313.075 983.623 310.849 982.774Q308.622 981.926 306.417 981.023Q304.212 980.12 302.03 979.163Q299.847 978.206 297.689 977.196Q295.531 976.185 293.399 975.122Q291.266 974.059 289.16 972.944Q287.055 971.829 284.977 970.662C286.329 969.179 287.788 967.782 289.205 966.36Z"/>
	<path fill="#7D5854" d="M489.706 925.615C493.696 926.621 498.265 927.37 501.541 929.991L500.15 930.082C498.537 930.131 498.3 930.13 496.969 931.017C496.176 932.529 496.041 933.698 496.596 935.302C497.349 937.472 499.109 939.839 501.21 940.866C502.311 941.405 503.456 941.651 504.652 941.236C506.359 940.643 508.019 938.634 508.687 937.007C509.143 935.894 509.327 934.552 509.55 933.371C510.382 932.815 510.713 932.644 511.746 932.7C513.172 932.778 514.344 933.04 515.268 934.089C506.713 942.965 506.059 945.631 502.941 957.146C482.532 954.517 461.547 954.051 441.008 952.972L440.921 942.53Q442.574 942.622 444.229 942.634Q445.885 942.645 447.539 942.576Q449.192 942.507 450.841 942.358Q452.49 942.208 454.129 941.979Q455.769 941.75 457.395 941.441Q459.021 941.132 460.631 940.744Q462.24 940.356 463.829 939.891Q465.417 939.425 466.981 938.883Q468.545 938.341 470.081 937.723Q471.617 937.105 473.121 936.413Q474.625 935.721 476.093 934.957Q477.562 934.193 478.992 933.359Q480.421 932.524 481.808 931.621Q483.196 930.717 484.537 929.748Q485.879 928.778 487.172 927.744Q488.465 926.71 489.706 925.615Z"/>
	<path fill="#7D5854" d="M462.67 300.959L463.127 301.058C464.325 303.993 462.045 318.441 461.775 322.567C460.771 337.926 462.565 353.706 463.602 369.033C458.663 365.546 454.149 361.423 449.562 357.49C446.153 355.242 442.37 353.505 438.732 351.656C437.146 340.499 434.885 329.827 434.449 318.496Q448.706 309.963 462.67 300.959Z"/>
	<path fill="#FEFEFE" d="M528.346 554.968C529.522 552.37 530.738 549.955 532.261 547.539C542.582 555.368 550.857 572.8 552.425 585.465C552.909 589.381 552.379 595.08 554.271 598.592C552.65 602.818 550.552 606.416 547.95 610.108C541.252 621.982 532.892 634.052 521.11 641.416C521.23 640.415 521.078 640.656 521.54 639.928C529.205 627.838 532.682 620.997 532.571 606.341C532.662 599.202 532.542 592.11 531.755 585.009C530.79 576.308 525.837 563.066 528.346 554.968Z"/>
	<path fill="#D2928E" d="M528.346 554.968C529.522 552.37 530.738 549.955 532.261 547.539C542.582 555.368 550.857 572.8 552.425 585.465C552.909 589.381 552.379 595.08 554.271 598.592C552.65 602.818 550.552 606.416 547.95 610.108C547.116 606.379 547.177 602.208 546.878 598.375C546.115 588.562 544.477 579.366 540.72 570.208C538.138 563.915 534.956 557.714 528.346 554.968Z"/>
	<path fill="#FEFEFE" d="M480.067 624.072C483.553 623.874 487.046 623.693 490.458 622.904C510.01 618.381 518.962 604.167 528.902 588.294C529.845 594.087 530.824 599.917 529.826 605.773L532.571 606.341C532.682 620.997 529.205 627.838 521.54 639.928C521.078 640.656 521.23 640.415 521.11 641.416C519.044 643.257 516.636 644.996 514.026 645.971C509.364 647.775 504.527 648.49 499.71 646.825C489.928 643.445 484.272 632.779 480.067 624.072Z"/>
	<path fill="#D2928E" d="M529.826 605.773L532.571 606.341C532.682 620.997 529.205 627.838 521.54 639.928C521.078 640.656 521.23 640.415 521.11 641.416C519.044 643.257 516.636 644.996 514.026 645.971C514.437 640.516 520.439 634.42 522.679 629.166Q525.128 623.541 526.921 617.674Q528.714 611.806 529.826 605.773Z"/>
	<path fill="#FEFEFE" d="M482.481 890.506C483.256 891.457 483.495 892.291 483.697 893.478C484.349 897.298 484.129 901.31 481.826 904.555C475.724 913.153 458.989 914.798 449.391 916.495C461.114 919.149 469.22 917.114 480.009 912.386C481.982 916.044 483.428 919.689 484.725 923.633C477.611 929.437 468.826 932.187 460.296 935.192C453.761 936.882 447.339 938.063 440.615 938.679C440.469 930.765 438.431 922.7 436.63 915.026C437.206 914.292 436.97 914.519 437.611 913.957C437.751 913.835 437.894 913.718 438.036 913.598C435.73 910.161 429.944 908.697 427.149 905.161C426.355 904.157 425.778 902.95 426.047 901.638C426.295 900.433 426.931 899.791 427.843 899.049C428.698 898.92 429.158 898.957 429.952 899.317C431.097 899.835 432.159 900.403 433.389 900.714C449.355 904.767 468.643 898.159 482.481 890.506Z"/>
	<path fill="#7D5854" d="M306.818 942.323C313.425 948.803 321.043 953.573 329.728 956.795C340.019 960.612 356.798 963.2 367.061 958.253C370.519 956.586 372.106 954.956 373.416 951.387L395.009 957.528C389.933 963.525 385.297 969.835 381.606 976.778C380.421 978.686 379.611 980.924 378.7 982.981C353.399 983.276 333.802 981.033 309.624 972.661C303.291 970.468 296.813 968.327 291.074 964.809C297.013 957.89 301.924 949.991 306.818 942.323Z"/>
	<path fill="#541C1B" d="M331.026 961.985C331.537 961.994 332.05 962.002 332.561 962.032C335.709 962.21 338.485 962.981 340.558 965.533C341.762 967.016 342.258 968.775 341.961 970.667C341.492 973.647 339.332 975.181 337.055 976.866L336.174 976.774C335.335 976.692 334.497 976.622 333.664 976.495C330.96 976.083 328.088 974.63 326.534 972.306C325.611 970.926 325.451 969.484 325.812 967.869C326.41 965.19 328.901 963.409 331.026 961.985Z"/>
	<path fill="#FEFEFE" d="M331.702 964.5C334.088 964.414 336.305 964.474 338.159 966.205C339.187 967.165 339.781 968.388 339.743 969.821C339.676 972.355 338.16 973.891 336.404 975.515C333.963 975.575 331.672 975.374 329.823 973.585C328.793 972.59 328.184 971.326 328.252 969.863C328.369 967.315 329.892 966.038 331.702 964.5Z"/>
	<path fill="#FEFEFE" d="M282.692 609.281C286.593 612.502 289.707 617.006 292.994 620.851Q299.035 627.854 305.968 633.976C349.337 671.659 393.314 689.573 449.621 698.227C449.092 700.842 448.692 703.498 448.24 706.128L443.12 705.611Q440.11 705.341 437.108 705Q434.106 704.659 431.112 704.248Q428.119 703.836 425.136 703.354Q422.153 702.871 419.182 702.318Q416.211 701.766 413.255 701.143Q410.298 700.52 407.357 699.828Q404.415 699.135 401.491 698.374Q398.567 697.612 395.662 696.781Q392.757 695.951 389.872 695.052Q386.987 694.152 384.124 693.186Q381.261 692.219 378.422 691.184Q375.583 690.15 372.769 689.049Q369.955 687.948 367.168 686.78Q364.381 685.613 361.623 684.38Q358.864 683.147 356.135 681.849Q353.406 680.552 350.709 679.19Q348.011 677.828 345.347 676.403Q342.682 674.978 340.052 673.49Q337.422 672.002 334.828 670.453Q332.234 668.903 329.677 667.293Q327.12 665.682 324.602 664.012Q322.084 662.342 319.607 660.613Q317.129 658.883 314.692 657.096Q312.256 655.308 309.863 653.464Q307.469 651.619 305.12 649.719Q302.771 647.818 300.467 645.863Q298.164 643.907 295.907 641.898Q293.65 639.889 291.442 637.826Q289.233 635.764 287.074 633.65Q284.915 631.537 282.806 629.373Q280.697 627.208 278.64 624.995Q276.583 622.781 274.579 620.52Q278.532 614.826 282.692 609.281Z"/>
	<path fill="#FEFEFE" d="M466.664 575.898C469.103 576.083 471.64 576.793 474.086 577.127C488.245 579.065 502.751 576.729 513.194 566.179C516.166 563.177 518.818 558.805 522.191 556.365C522.427 556.194 522.669 556.031 522.909 555.864C523.253 560.428 523.429 565.083 524.211 569.595C526.675 575.509 528.399 581.897 528.902 588.294C518.962 604.167 510.01 618.381 490.458 622.904C487.046 623.693 483.553 623.874 480.067 624.072C478.775 621.753 477.958 619.19 477.042 616.705C471.834 603.443 469.269 589.83 466.664 575.898Z"/>
	<path fill="#D2928E" d="M524.211 569.595C526.675 575.509 528.399 581.897 528.902 588.294C518.962 604.167 510.01 618.381 490.458 622.904C487.046 623.693 483.553 623.874 480.067 624.072C478.775 621.753 477.958 619.19 477.042 616.705C485.714 613.596 494.342 614.136 502.293 608.664C515.659 599.466 521.271 584.925 524.211 569.595Z"/>
	<path fill="#FEFEFE" d="M560.593 470.638C568.359 469.645 574.574 471.896 581.177 475.641C577.675 476.326 573.953 476.874 570.617 478.152C567.828 479.22 564.624 480.876 563.358 483.75C564.916 485.736 582.786 478.228 591.391 483.318C594.942 485.419 596.907 489.403 597.897 493.27C600.346 502.842 595.663 511.127 590.936 519.013C591.269 513.316 591.634 507.034 588.331 502.03C587.162 500.259 585.481 498.785 583.309 498.496C581.714 498.284 579.971 498.826 578.737 499.852C577.737 500.683 577.708 500.8 577.6 502.02C579.482 502.488 581.837 502.917 583.467 504.016C585.031 505.071 586.138 507.145 586.512 508.957C588.35 517.859 580.145 529.361 575.373 536.144C565.565 530.196 555.535 525.315 544.98 520.849Q544.115 516.812 543.348 512.756C541.301 501.965 539.435 487.749 546.301 478.176C549.914 473.139 554.807 471.688 560.593 470.638Z"/>
	<path fill="#FEFEFE" d="M463.402 521.363C475.714 524.52 487.494 525.64 500.128 523.601C506.72 522.538 513.027 520.745 519.31 518.525C521.26 517.836 524.778 516.058 526.758 516.445C524.873 524.846 524.574 533.283 522.975 541.646C523.004 546.333 523.314 551.2 522.909 555.864C522.669 556.031 522.427 556.194 522.191 556.365C518.818 558.805 516.166 563.177 513.194 566.179C502.751 576.729 488.245 579.065 474.086 577.127C471.64 576.793 469.103 576.083 466.664 575.898C466.286 572.961 466.103 570.014 465.904 567.06C463.61 551.735 462.877 536.846 463.402 521.363Z"/>
	<path fill="#D2928E" d="M465.904 567.06C475.427 568.564 485.009 569.241 494.421 566.701C508.269 562.965 516.126 553.659 522.975 541.646C523.004 546.333 523.314 551.2 522.909 555.864C522.669 556.031 522.427 556.194 522.191 556.365C518.818 558.805 516.166 563.177 513.194 566.179C502.751 576.729 488.245 579.065 474.086 577.127C471.64 576.793 469.103 576.083 466.664 575.898C466.286 572.961 466.103 570.014 465.904 567.06Z"/>
	<path fill="#FEFEFE" d="M271.263 625.226C273.53 626.533 275.169 629.481 276.635 631.611C275.871 650.982 277.772 669.701 280.108 688.9C284.642 726.159 290.745 756.556 301.932 792.473L294.877 789.727C284.072 785.625 273.653 781.258 264.117 774.634C262.715 765.389 262.543 755.614 262.054 746.26C260.313 712.995 258.522 655.664 271.263 625.226Z"/>
	<path fill="#7D5854" d="M692.305 120.722C695.481 122.141 698.574 123.682 701.527 125.528C716.229 134.717 728.99 149.631 732.923 166.789C738.269 190.117 728.67 213.468 716.567 233.004L712.32 239.55C709.933 213.393 696.008 174.255 678.114 154.827C684.865 144.041 688.86 132.885 692.305 120.722Z"/>
	<path fill="#7D5854" d="M446.331 813.233C447.541 813.045 447.504 813.045 448.542 813.698C448.984 814.518 449.246 815.134 449.39 816.067C451.041 826.781 455.262 837.909 458.715 848.198C463.439 862.276 468.021 876.616 474.273 890.102C462.107 894.068 449.703 896.422 436.88 896.526L434.186 890.817C421.3 866.732 410.234 841.749 398.568 817.065C404.732 816.396 411.031 816.431 417.226 816.02Q431.816 815.014 446.331 813.233Z"/>
	<path fill="#7D5854" d="M297.888 796.661C303.642 798.462 308.978 801.849 314.749 803.819C329.917 808.996 345.833 811.79 361.636 814.179C364.276 837.07 367.69 859.882 370.551 882.749C371.828 892.956 373.843 903.585 373.911 913.849C359.874 914.947 347.948 914.601 334.48 910.18C328.824 897.824 325.715 882.367 321.69 869.219Q310.742 832.628 297.888 796.661Z"/>
	<path fill="#7D5854" d="M431.4 319.984C433.002 321.361 432.215 325.127 432.133 327.009C431.783 335.081 433.995 342.888 435.96 350.637C429.584 348.712 423.238 347.047 416.56 346.639C404.018 345.872 389.181 350.263 379.707 358.684C371.662 365.835 367.464 375.879 366.987 386.538C366.294 401.98 372.93 415.938 383.193 427.136C355.176 418.193 325.006 400.539 301.279 383.321C280.686 367.757 264.165 349.146 248.818 328.535C254.075 331.81 259.443 334.49 265.255 336.644C319.365 356.694 380.709 343.288 431.4 319.984Z"/>
	<path fill="#541C1B" d="M257.876 338.86C262.542 340.35 270.816 348.233 275.613 351.496C283.597 356.928 291.864 362.37 300.381 366.929C310.771 372.492 321.534 378.043 332.485 382.398C341.865 386.128 359.014 390.123 366.612 395.459C366.225 395.478 365.838 395.504 365.451 395.496C357.982 395.33 350.167 392.336 343.201 389.841C313.26 379.117 280.625 361.366 257.876 338.86Z"/>
	<path fill="#FEFEFE" d="M411.738 496.076C428 482.933 446.389 469.06 463.929 457.723C477.396 449.018 496.51 437.438 513.223 441.332C521.192 443.188 525.964 448.22 529.975 454.941C530.65 456.939 531.273 458.867 531.629 460.953C532.175 476.065 531.277 490.557 528.618 505.452C528.054 509.05 527.742 512.951 526.758 516.445C524.778 516.058 521.26 517.836 519.31 518.525C513.027 520.745 506.72 522.538 500.128 523.601C487.494 525.64 475.714 524.52 463.402 521.363L463.496 513.332C463.553 510.504 464.339 505.001 462.711 502.702C461.579 502.984 461.557 502.977 460.964 503.926C457.704 509.146 457.351 538.124 457.534 545.522C453.647 544.36 449.315 541.571 445.884 539.367C429.813 529.046 415.903 515.212 411.738 496.076Z"/>
	<path fill="#D2928E" d="M463.496 513.332C469.094 514.228 474.606 515.514 480.244 516.196C497.994 518.344 513.265 514.239 528.618 505.452C528.054 509.05 527.742 512.951 526.758 516.445C524.778 516.058 521.26 517.836 519.31 518.525C513.027 520.745 506.72 522.538 500.128 523.601C487.494 525.64 475.714 524.52 463.402 521.363L463.496 513.332Z"/>
	<path fill="#D2928E" d="M529.975 454.941C530.65 456.939 531.273 458.867 531.629 460.953C526.501 460.206 521.358 460.533 516.297 461.583C493.865 466.236 465.429 486.796 452.965 505.856C451.349 508.326 452.085 511.808 450.373 514.427C449.598 514.938 448.966 515.246 448.048 515.375C446.627 515.575 445.576 515.286 444.435 514.396C443.455 513.631 443.175 512.642 443.144 511.424C442.972 504.764 454.762 491.076 459.11 486.411C477.59 466.582 503.081 455.924 529.975 454.941Z"/>
	<path fill="#D2928E" d="M565.541 67.2925C589.945 65.0231 605.969 70.0019 626.955 81.8701C610.874 83.3114 595.319 85.0082 579.747 89.5119C516.88 107.694 466.491 156.124 431.305 209.736C424.307 220.398 418.252 231.593 412.073 242.739C404.039 256.069 395.032 265.963 382.085 274.569Q382.947 269.733 383.963 264.927Q384.978 260.121 386.146 255.35Q387.314 250.579 388.632 245.848Q389.951 241.116 391.42 236.429Q392.888 231.741 394.505 227.103Q396.122 222.465 397.886 217.88Q399.649 213.296 401.558 208.77Q403.466 204.244 405.518 199.781Q407.569 195.317 409.761 190.922Q411.953 186.526 414.284 182.202Q416.615 177.879 419.082 173.631Q421.549 169.384 424.15 165.217Q426.751 161.05 429.483 156.968Q432.215 152.886 435.076 148.893Q437.936 144.9 440.922 140.999Q443.909 137.099 447.017 133.296C477.422 96.5172 517.462 71.8683 565.541 67.2925Z"/>
	<path fill="#FEFEFE" d="M323.673 564.258L324.22 564.766C331.31 571.416 336.535 579.858 343.611 586.621C370.374 612.197 400.407 631.49 435.213 644.23C443.33 647.201 451.738 650.333 460.299 651.676C459.683 653.912 459.122 656.176 458.336 658.359C454.414 669.843 452.352 681.803 450.2 693.714C438.263 691.911 426.406 690.087 414.712 687.031C377.077 677.197 339.204 657.452 310.316 631.295C301.354 623.179 293.344 614.157 285.361 605.098C295.396 592.91 306.166 581.604 317.314 570.437C319.276 568.197 321.463 566.247 323.673 564.258Z"/>
	<path fill="#D2928E" d="M323.673 564.258L324.22 564.766C331.31 571.416 336.535 579.858 343.611 586.621C370.374 612.197 400.407 631.49 435.213 644.23C443.33 647.201 451.738 650.333 460.299 651.676C459.683 653.912 459.122 656.176 458.336 658.359C455.871 656.737 449.921 656.334 446.928 655.571C439.612 653.707 432.401 651.015 425.301 648.443C386.105 634.247 341.302 605.009 317.314 570.437C319.276 568.197 321.463 566.247 323.673 564.258Z"/>
	<path fill="#FEFEFE" d="M403.969 501.632C406.252 499.342 408.892 497.582 411.738 496.076C415.903 515.212 429.813 529.046 445.884 539.367C449.315 541.571 453.647 544.36 457.534 545.522C457.779 547.598 457.97 549.631 458.007 551.722C458.248 567.607 460.125 583.786 464.336 599.118L466.638 607.73Q468.52 614.289 471.121 620.597Q465.571 636.088 460.299 651.676C451.738 650.333 443.33 647.201 435.213 644.23C400.407 631.49 370.374 612.197 343.611 586.621C336.535 579.858 331.31 571.416 324.22 564.766L323.673 564.258C335.277 554.141 346.704 543.979 358.875 534.525C360.665 532.543 363.787 530.663 366.059 529.255C378.238 519.499 391.26 510.685 403.969 501.632Z"/>
	<path fill="#D2928E" d="M358.875 534.525C360.665 532.543 363.787 530.663 366.059 529.255C387.726 556.583 413.665 580.74 446.387 593.99C451.256 595.961 457.309 599.084 462.532 599.418C463.614 599.488 463.267 599.487 464.336 599.118L466.638 607.73C436.32 602.43 404.562 580.462 382.862 559.178C374.93 551.398 367.862 542.325 359.499 535.061L358.875 534.525Z"/>
	<path fill="#FEFEFE" d="M403.969 501.632C406.252 499.342 408.892 497.582 411.738 496.076C415.903 515.212 429.813 529.046 445.884 539.367C449.315 541.571 453.647 544.36 457.534 545.522C457.779 547.598 457.97 549.631 458.007 551.722C458.248 567.607 460.125 583.786 464.336 599.118C463.267 599.487 463.614 599.488 462.532 599.418C457.309 599.084 451.256 595.961 446.387 593.99C413.665 580.74 387.726 556.583 366.059 529.255C378.238 519.499 391.26 510.685 403.969 501.632Z"/>
	<path fill="#D2928E" d="M403.969 501.632C406.252 499.342 408.892 497.582 411.738 496.076C415.903 515.212 429.813 529.046 445.884 539.367C449.315 541.571 453.647 544.36 457.534 545.522C457.779 547.598 457.97 549.631 458.007 551.722C457.759 551.282 457.598 550.78 457.261 550.403C455.955 548.943 448.119 546.125 445.971 545.136C439.588 542.198 433.977 538.536 428.571 534.055C421.255 527.99 414.422 520.401 409.628 512.166C407.807 509.038 406.561 505.16 404.448 502.27C404.291 502.055 404.129 501.845 403.969 501.632Z"/>
	<path fill="#FEFEFE" d="M278.277 633.868C282.665 637.257 285.673 641.58 288.909 646.006C290.634 657.595 289.76 669.557 291.42 681.258C293.517 696.046 297.507 710.606 301.605 724.941C308.516 749.119 316.156 772.309 327.52 794.8L327.638 793.94L327.728 795.002C328.061 793.695 321.134 779.382 320.097 776.827C317.193 769.673 314.494 762.324 312.186 754.955C301.351 720.351 292.813 684.658 291.954 648.288C320.264 676.195 356.312 693.447 393.703 705.544Q402.734 708.274 411.998 710.06Q421.262 711.846 430.66 712.669C437.725 744.273 454.604 774.113 468.558 803.143C418.872 812.942 382.048 812.417 332.694 802.067C332.1 801.295 330.969 799.328 330.085 799.121L330.273 800.393L329.736 800.836C324.306 800.406 319.328 798.061 314.326 796.062C311.017 784.883 306.608 773.953 303.048 762.831C289.542 720.639 278.794 678.431 278.277 633.868Z"/>
	<path fill="#7D5854" d="M230.385 258.496C230.542 258.743 230.763 258.96 230.856 259.238C230.862 259.257 227.903 279.537 227.767 282.89C226.721 308.633 241.442 335.916 258.484 354.298C245.566 364.945 236.008 383.262 228.697 398.194C216.7 422.697 206.078 454.477 215.429 481.327C220.615 496.22 230.505 505.067 244.41 511.808C241.096 512.109 237.764 512.412 234.434 512.446C199.459 512.8 152.545 498.373 127.321 473.579C108.211 454.794 106.635 435.084 106.432 409.667C106.132 410.539 105.868 411.367 105.66 412.266C99.2599 439.896 109.203 468.435 124.267 491.317C129.845 498.303 136.381 504.225 142.969 510.225C133.652 507.897 126.308 504.181 118.655 498.333C100.642 484.57 86.5733 464.381 83.555 441.589C81.93 429.318 83.3999 416.936 86.4248 405C97.1575 362.65 129.545 324.39 167.574 303.458Q175.142 299.29 183.221 296.225C196.947 291.113 211.571 287.929 220.947 275.685C208.883 281.501 196.845 287.502 183.469 289.591C164.46 292.559 144.561 286.807 129.165 275.611C170.247 283.037 194.291 280.814 230.385 258.496Z"/>
	<path fill="#541C1B" d="M228.247 328.98C228.354 331.955 217.25 348.789 214.96 353.305C205.942 371.088 199.738 391.889 197.081 411.629C194.637 429.785 194.958 448.347 200.019 466.062C200.872 469.049 201.853 472.046 203.118 474.887C204.434 477.84 209.342 484.089 209.146 487.18L208.115 486.301C199.509 476.204 194.937 463.645 193.024 450.628C186.622 407.057 202.353 363.542 228.247 328.98Z"/>
	<path fill="#541C1B" d="M218.358 313.018L218.659 313.231C216.949 316.601 206.838 323.692 203.506 326.698C192.622 336.513 181.992 347.498 173.197 359.239C156.65 381.327 145.403 411.607 149.863 439.52C150.478 443.366 151.168 447.585 152.571 451.239C153.664 454.084 155.435 456.664 155.874 459.737L155.27 459.329C145.329 441.465 143.834 423.41 147.818 403.478C155.712 363.975 185.988 334.464 218.358 313.018Z"/>
	<path fill="#FEFEFE" d="M674.761 159.7C681.549 170.164 686.961 180.844 691.594 192.411C684.976 188.162 678.942 184.528 670.67 185.748C666.685 186.335 663.154 189.823 661 193.032C659.632 195.07 657.598 198.528 658.253 201.101C658.304 201.302 658.606 202.282 658.683 202.338C659.695 203.075 670.792 200.093 672.904 200.022C682.132 199.711 690.632 204.373 698.15 209.15C702.449 222.142 706.79 235.058 708.938 248.612C704.266 241.547 697.213 234.301 688.687 232.346C683.379 231.128 678.039 232.227 673.492 235.184C665.373 240.463 661.289 250.39 659.558 259.559C655.976 278.534 658.558 300.882 667.097 318.268C670.232 324.651 674.306 330.454 678.287 336.324C672.481 339.661 667.732 343.33 663.15 348.224C670.141 345.375 683.042 335.883 690.536 338.545C691.88 339.022 692.858 339.991 693.39 341.31C694.063 342.983 694.032 345.015 693.794 346.772C692.248 358.197 680.449 358.839 677.485 365.453L677.969 366.326C678.784 366.664 679.204 366.722 680.1 366.571C685.009 365.749 693.601 359.154 696.255 354.955C698.731 351.037 699.921 345.291 698.574 340.8C697.801 338.221 696.13 335.893 693.709 334.638C689.544 332.478 685.151 333.479 680.905 334.746Q676.7 328.286 673.194 321.421C663.85 302.688 659.18 277.195 666.039 256.928C668.284 250.292 672.57 243.057 679.166 240.05C682.805 238.391 686.588 238.462 690.248 240.028C700.811 244.549 707.758 257.774 711.859 267.798C708.342 266.904 705.226 266.265 701.704 267.521C697.892 268.881 695.251 271.869 693.626 275.505C688.686 286.565 691.105 302.219 695.518 313.054C697.826 318.722 701.52 325.31 707.521 327.607C711.412 329.095 714.538 327.176 718.04 325.583C712.187 330.358 706.921 332.703 699.615 334.603C701.273 335.375 702.96 336.08 704.775 336.389C708.906 337.091 713.024 335.861 716.271 333.267C721.844 328.815 723.383 322.491 724.276 315.804C728.484 322.471 732.132 329.407 735.658 336.451C738.756 343.644 741.314 351.743 742.115 359.562Q742.38 361.753 742.513 363.955Q742.646 366.158 742.646 368.365Q742.646 370.571 742.514 372.774Q742.382 374.977 742.117 377.167Q741.852 379.358 741.456 381.529Q741.06 383.7 740.534 385.843Q740.009 387.986 739.355 390.094Q738.701 392.201 737.922 394.266C727.239 422.276 698.985 440.61 672.705 452.484C648.055 463.622 613.979 473.039 586.823 470.02C579.965 469.257 573.328 467.117 566.697 465.291C556.033 462.355 545.676 459.443 535.32 455.536C532.312 449.695 529.296 444.043 523.704 440.24C514.697 434.115 503.138 435.207 493.013 437.1C487.854 432.565 482.84 428.067 478.253 422.944C479.344 420.779 480.198 418.497 481.105 416.25C474.439 419.925 469.813 425.891 463.461 429.876Q462.181 430.693 460.862 431.446Q459.542 432.198 458.187 432.884Q456.832 433.57 455.445 434.188Q454.057 434.805 452.641 435.353Q451.224 435.901 449.782 436.378Q448.34 436.854 446.876 437.259Q445.412 437.663 443.93 437.994Q442.448 438.325 440.951 438.582Q439.454 438.839 437.946 439.021Q436.438 439.203 434.923 439.31Q433.408 439.417 431.89 439.448Q430.371 439.479 428.853 439.435Q427.335 439.391 425.821 439.271Q424.307 439.152 422.801 438.957Q421.295 438.762 419.8 438.492Q418.305 438.223 416.826 437.879C402.776 434.521 390.773 426.587 383.185 414.174C376.778 403.692 373.08 389.658 376.153 377.505C378.313 368.959 384.169 362.029 391.737 357.68C403.016 351.199 416.509 350.805 428.851 354.132C440.897 357.38 454.588 363.737 462.795 373.45C465.578 376.743 467.696 380.489 469.85 384.206C468.307 356.285 465.614 321.147 471.332 293.899Q488.472 281.178 504.368 266.933C511.876 267.2 519.525 266.844 526.916 265.45C538.992 263.171 550.647 258.669 561.859 253.721Q566.102 251.82 570.278 249.776Q574.454 247.732 578.558 245.546Q582.661 243.36 586.688 241.035Q590.715 238.71 594.659 236.249Q598.604 233.789 602.463 231.194Q606.321 228.6 610.089 225.876Q613.857 223.151 617.529 220.3Q621.201 217.448 624.774 214.473Q628.347 211.497 631.816 208.402Q635.285 205.306 638.647 202.094Q642.008 198.881 645.258 195.556Q648.507 192.231 651.642 188.797Q654.776 185.362 657.791 181.823Q660.806 178.284 663.698 174.643Q666.591 171.003 669.357 167.266Q672.124 163.529 674.761 159.7Z"/>
	<path fill="#D2928E" d="M742.115 359.562C738.108 360.984 733.879 362.252 729.661 360.922C727.096 360.113 724.982 358.335 723.865 355.873C722.505 352.875 722.769 349.385 724.06 346.415C726.268 341.334 730.756 338.515 735.658 336.451C738.756 343.644 741.314 351.743 742.115 359.562Z"/>
	<path fill="#541C1B" d="M628.903 398.618C628.042 399.686 627.409 400.727 626.011 401.086C625.128 399.647 625.512 398.269 625.891 396.684C627.483 390.006 633.911 379.408 639.904 375.849C640.614 375.428 641.101 375.241 641.944 375.312C642.463 376.577 642.152 377.171 641.608 378.365C640.052 381.774 636.922 384.996 634.53 387.894C646.502 392.553 665.53 399.877 678.196 394.421C682.545 392.547 684.383 389.717 686.454 385.66C686.638 389.108 687.356 393.262 684.722 395.998C682.895 397.896 679.769 398.761 677.348 399.605Q675.534 399.985 673.697 400.237C659.09 402.156 643.98 398.956 632.29 389.891C631.085 392.693 629.541 395.64 628.903 398.618Z"/>
	<path fill="#D2928E" d="M632.29 389.891C643.98 398.956 659.09 402.156 673.697 400.237Q675.534 399.985 677.348 399.605C676.734 403.246 675.3 406.536 672.636 409.143C668.263 413.423 661.745 414.896 655.786 414.656C642.629 414.125 637.222 407.637 628.903 398.618C629.541 395.64 631.085 392.693 632.29 389.891Z"/>
	<path fill="#541C1B" d="M406.06 375.141C416.523 373.732 427.96 377.291 436.817 382.706C447.551 389.268 453.645 397.384 456.525 409.566C450.683 403.474 444.06 396.021 435.583 393.802C431.943 392.85 427.442 392.673 424.171 394.819C420.755 397.061 419.418 400.882 418.693 404.689C419.227 408.241 420.591 411.585 421.033 415.183L420.269 415.56C420.091 415.486 419.903 415.432 419.734 415.339C417.689 414.212 415.162 410.368 414.43 408.104C413.223 404.365 413.564 399.187 415.45 395.719C418.544 390.025 424.709 388.317 430.459 386.594C412.379 380.718 403.814 379.66 385.963 387.24C391.426 380.317 397.368 376.665 406.06 375.141Z"/>
	<path fill="#D2928E" d="M539.042 376.653C544.628 376.276 550.623 377.182 555.519 380.027C559.654 382.43 562.749 386.088 563.799 390.819C564.749 395.098 563.636 399.511 561.205 403.099C556.457 410.104 548.449 412.801 540.558 414.368C534.352 414.952 527.303 413.937 522.103 410.341C518.447 407.812 515.868 404.099 515.187 399.667C514.458 394.924 515.886 390.086 518.762 386.287C523.725 379.73 531.349 377.774 539.042 376.653Z"/>
	<path fill="#541C1B" d="M576.702 255.201C586.887 253.95 598.535 258.175 606.99 263.564C623.535 274.11 634.363 291.361 638.376 310.41C641.58 325.622 641.134 342.259 632.298 355.574C624.59 367.188 612.141 373.371 598.77 376.049C580.918 379.624 564.559 375.958 549.516 365.899Q546.271 363.491 543.356 360.693C529.3 347.383 524.919 329.481 524.482 310.691C518.357 310.357 510.919 309.342 505.376 306.536C503.381 305.526 501.638 304.413 500.928 302.253C505.955 298.572 518.698 306.076 524.596 303.408C521.503 299.435 510.841 298.861 507.412 294.123C506.695 293.132 506.449 292.541 506.703 291.321C506.899 291.228 507.086 291.117 507.289 291.042C512.194 289.22 521.685 295.081 526.081 297.397C528.917 289.063 532.457 281.278 538.159 274.484C548.042 262.709 561.57 256.587 576.702 255.201Z"/>
	<path fill="#FEFEFE" d="M615.447 297.856C617.85 298.003 620.496 298.806 622.177 300.619C623.521 302.067 624.035 303.872 623.871 305.822C623.578 309.311 621.556 311.3 619.036 313.47Q618.272 313.487 617.508 313.488C615.195 313.476 612.956 313.119 611.383 311.22C610.173 309.757 609.767 308.004 610.008 306.143C610.482 302.487 612.685 300.069 615.447 297.856Z"/>
	<path fill="#FEFEFE" d="M573.831 262.616C580.579 262.053 586.736 262.554 593.2 264.681C610.108 270.244 621.92 283.237 629.698 298.792C625.7 294.522 621.279 290.212 615.061 289.93C610.904 289.742 607.142 291.53 604.157 294.335C597.595 300.501 595.361 310.139 595.222 318.826C595.057 329.159 597.951 339.869 605.383 347.373C611.433 353.482 618.047 354.998 626.303 355.025C623.348 358.403 620.05 361.118 616.372 363.666C610.696 367.404 603.397 370.122 596.767 371.552Q595.439 371.828 594.1 372.039Q592.761 372.249 591.412 372.394Q590.064 372.539 588.711 372.618Q587.357 372.696 586.001 372.709Q584.645 372.721 583.291 372.667Q581.936 372.613 580.585 372.492Q579.235 372.372 577.892 372.186Q576.549 371.999 575.216 371.748Q573.884 371.496 572.566 371.179Q571.247 370.862 569.946 370.481Q568.645 370.101 567.364 369.656Q566.083 369.212 564.825 368.706Q563.567 368.2 562.335 367.632Q561.104 367.065 559.902 366.438Q558.699 365.811 557.529 365.126Q556.359 364.441 555.224 363.7C542.854 355.712 534.313 342.286 531.274 327.966Q530.991 326.567 530.778 325.156Q530.564 323.745 530.419 322.325Q530.274 320.905 530.199 319.48Q530.124 318.055 530.118 316.627Q530.113 315.2 530.177 313.774Q530.241 312.349 530.375 310.928Q530.509 309.507 530.712 308.094Q530.915 306.681 531.187 305.28Q531.459 303.879 531.798 302.493Q532.138 301.107 532.545 299.739Q532.953 298.371 533.426 297.025Q533.9 295.678 534.438 294.356Q534.977 293.035 535.579 291.741Q536.182 290.447 536.847 289.184Q537.512 287.922 538.238 286.693Q538.964 285.464 539.749 284.272C547.976 271.9 559.464 265.42 573.831 262.616Z"/>
	<path fill="#7D5854" d="M493.81 51.7119C521.156 50.635 546.841 55.0823 573.687 59.5891C563.603 60.3377 553.629 60.5519 543.647 62.406C512.509 68.1898 483.456 85.7718 460.391 107.067C422.929 141.655 396.536 187.713 381.011 235.96C376.242 250.782 372.017 266.147 371.408 281.786C365.439 283.748 359.066 285.011 352.988 286.681C356.97 287.492 360.862 287.641 364.902 287.287C373.178 286.561 380.724 283.725 387.882 279.587C410.732 266.374 418.291 245.514 431.901 224.583Q438.96 213.618 446.745 203.157Q454.53 192.695 463.006 182.785C502.139 136.85 557.657 94.4137 619.872 89.4752C636.873 88.1257 670.282 90.2585 683.585 102.183C686.661 104.941 688.005 107.988 688.079 112.094C688.186 118.107 686.074 123.839 683.949 129.366C675.828 150.487 663.092 167.858 647.371 183.868C637.559 193.861 627.082 203.65 616.028 212.261C594.149 229.305 543.946 260.883 515.78 261.117C539.588 253.123 576.511 219.416 593.12 199.699C609.766 179.939 623.935 158.939 631.855 134.178C632.88 130.974 634.923 125.533 634.465 122.16C634.307 121.003 633.975 120.953 633.074 120.337C623.357 126.421 603.784 147.545 594.638 156.82Q571.527 180.227 549.446 204.607C537.63 217.749 526.407 231.422 514.227 244.235C486.315 273.598 452.671 300.711 415.664 317.624C365.381 340.605 301.298 347.092 248.964 327.526C247.118 324.954 245.558 322.181 243.936 319.465C247.396 320.626 250.857 321.78 254.415 322.607C272.952 326.915 302.46 323.892 320.725 317.89C326.599 315.96 332.086 313.21 337.322 309.94C307.024 320.111 274.841 321.698 243.243 318.351C240.234 312.034 237.781 305.009 236.595 298.098C236.006 294.662 235.709 289.292 237.45 286.147C240.864 279.978 249.512 272.07 254.541 266.392C265.964 253.495 276.942 240.228 288.217 227.206C294.951 219.429 302.595 212.087 308.483 203.64L308.935 202.986C302.56 208.616 296.665 214.944 290.732 221.041C271.246 241.064 253.659 261.977 237.107 284.467C237.976 270.013 242.933 255.727 248.028 242.261C262.676 203.547 283.155 166.458 310.911 135.56C357.774 83.3915 424.404 55.4335 493.81 51.7119Z"/>
	<path fill="#541C1B" d="M444.537 105.698C444.029 106.758 443.392 106.819 442.342 107.317C434.02 111.263 425.432 114.595 417.133 118.682C391.315 131.398 367.497 146.2 344.505 163.444C344.364 163.001 344.428 163.324 344.715 162.478C375.684 136.132 406.436 119.675 444.537 105.698Z"/>
	<path fill="#541C1B" d="M366.015 222.997L366.264 223.284C366.195 223.614 366.177 223.959 366.056 224.274C364.137 229.287 353.459 238.305 349.125 242.012C317.513 269.047 280.859 291.641 240.197 301.854L240.035 301.803L239.983 301.4C249.725 295.289 260.939 290.67 271.333 285.747C285.614 278.982 299.92 271.767 313.575 263.815C326.512 256.282 338.95 247.089 350.223 237.248C355.572 232.579 360.509 227.497 366.015 222.997Z"/>
</svg>
